<?xml version="1.0" standalone="no"?>
 <!DOCTYPE svg PUBLIC "-//W3C//DTD SVG 1.1//EN" 
 "http://www.w3.org/Graphics/SVG/1.1/DTD/svg11.dtd"> 
<svg
  xmlns:svg="http://www.w3.org/2000/svg"
  xmlns="http://www.w3.org/2000/svg"
  xmlns:xlink="http://www.w3.org/1999/xlink"
  version="1.1"
  width="129.8448mm" height="221.5388mm" viewBox="0.0000 0.0000 129.8448 221.5388">
<title>SVG Image created as cowboys_vs_dinos-edge-brd.svg date 2024/04/30 10:39:38 </title>
  <desc>Image generated by PCBNEW </desc>
<g style="fill:#000000; fill-opacity:0.0000;stroke:#000000; stroke-opacity:1.0000;
stroke-linecap:round; stroke-linejoin:round;"
 transform="translate(0 0) scale(1 1)">
</g>
<g style="fill:#000000; fill-opacity:0.0; 
stroke:#000000; stroke-width:0.0000; stroke-opacity:1; 
stroke-linecap:round; stroke-linejoin:round;">
</g>
<g style="fill:#000000; fill-opacity:0.0000; 
stroke:#000000; stroke-width:0.0212; stroke-opacity:1; 
stroke-linecap:round; stroke-linejoin:round;">
<rect x="-5.000000" y="-5.000000" width="139.866797" height="231.546500" rx="0.000000" />
</g>
<g style="fill:#333333; fill-opacity:1.0000; 
stroke:#333333; stroke-width:0.0212; stroke-opacity:1; 
stroke-linecap:round; stroke-linejoin:round;">
<g >
</g>
<g >
</g>
<g >
</g>
<g style="fill:#333333; fill-opacity:1.0000; 
stroke:#333333; stroke-width:0.0212; stroke-opacity:1; 
stroke-linecap:round; stroke-linejoin:round;">
</g>
<g style="fill:#333333; fill-opacity:1.0000; 
stroke:#333333; stroke-width:0.0000; stroke-opacity:1; 
stroke-linecap:round; stroke-linejoin:round;">
<circle cx="15.9500" cy="36.3000" r="1.6000" /> 
</g>
<g style="fill:#333333; fill-opacity:1.0000; 
stroke:#333333; stroke-width:0.0212; stroke-opacity:1; 
stroke-linecap:round; stroke-linejoin:round;">
</g>
<g >
</g>
<g style="fill:#333333; fill-opacity:1.0000; 
stroke:#333333; stroke-width:0.0212; stroke-opacity:1; 
stroke-linecap:round; stroke-linejoin:round;">
</g>
<g style="fill:#333333; fill-opacity:1.0000; 
stroke:#333333; stroke-width:0.0000; stroke-opacity:1; 
stroke-linecap:round; stroke-linejoin:round;">
<circle cx="41.2500" cy="108.7000" r="0.2500" /> 
</g>
<g style="fill:#333333; fill-opacity:1.0000; 
stroke:#333333; stroke-width:0.0212; stroke-opacity:1; 
stroke-linecap:round; stroke-linejoin:round;">
</g>
<g style="fill:#333333; fill-opacity:1.0000; 
stroke:#333333; stroke-width:0.0000; stroke-opacity:1; 
stroke-linecap:round; stroke-linejoin:round;">
<circle cx="41.2500" cy="110.2000" r="0.2500" /> 
</g>
<g style="fill:#333333; fill-opacity:1.0000; 
stroke:#333333; stroke-width:0.0212; stroke-opacity:1; 
stroke-linecap:round; stroke-linejoin:round;">
</g>
<g style="fill:#333333; fill-opacity:1.0000; 
stroke:#333333; stroke-width:0.0000; stroke-opacity:1; 
stroke-linecap:round; stroke-linejoin:round;">
<circle cx="42.0000" cy="108.7000" r="0.2500" /> 
</g>
<g style="fill:#333333; fill-opacity:1.0000; 
stroke:#333333; stroke-width:0.0212; stroke-opacity:1; 
stroke-linecap:round; stroke-linejoin:round;">
</g>
<g style="fill:#333333; fill-opacity:1.0000; 
stroke:#333333; stroke-width:0.0000; stroke-opacity:1; 
stroke-linecap:round; stroke-linejoin:round;">
<circle cx="42.0000" cy="110.2000" r="0.2500" /> 
</g>
<g style="fill:#333333; fill-opacity:1.0000; 
stroke:#333333; stroke-width:0.0212; stroke-opacity:1; 
stroke-linecap:round; stroke-linejoin:round;">
</g>
<g style="fill:#333333; fill-opacity:1.0000; 
stroke:#333333; stroke-width:0.0000; stroke-opacity:1; 
stroke-linecap:round; stroke-linejoin:round;">
<circle cx="42.7500" cy="108.7000" r="0.2500" /> 
</g>
<g style="fill:#333333; fill-opacity:1.0000; 
stroke:#333333; stroke-width:0.0212; stroke-opacity:1; 
stroke-linecap:round; stroke-linejoin:round;">
</g>
<g style="fill:#333333; fill-opacity:1.0000; 
stroke:#333333; stroke-width:0.0000; stroke-opacity:1; 
stroke-linecap:round; stroke-linejoin:round;">
<circle cx="42.7500" cy="110.2000" r="0.2500" /> 
</g>
<g style="fill:#333333; fill-opacity:1.0000; 
stroke:#333333; stroke-width:0.0212; stroke-opacity:1; 
stroke-linecap:round; stroke-linejoin:round;">
</g>
<g style="fill:#333333; fill-opacity:1.0000; 
stroke:#333333; stroke-width:0.0000; stroke-opacity:1; 
stroke-linecap:round; stroke-linejoin:round;">
<circle cx="59.3500" cy="108.7000" r="0.2500" /> 
</g>
<g style="fill:#333333; fill-opacity:1.0000; 
stroke:#333333; stroke-width:0.0212; stroke-opacity:1; 
stroke-linecap:round; stroke-linejoin:round;">
</g>
<g style="fill:#333333; fill-opacity:1.0000; 
stroke:#333333; stroke-width:0.0000; stroke-opacity:1; 
stroke-linecap:round; stroke-linejoin:round;">
<circle cx="59.3500" cy="110.2000" r="0.2500" /> 
</g>
<g style="fill:#333333; fill-opacity:1.0000; 
stroke:#333333; stroke-width:0.0212; stroke-opacity:1; 
stroke-linecap:round; stroke-linejoin:round;">
</g>
<g style="fill:#333333; fill-opacity:1.0000; 
stroke:#333333; stroke-width:0.0000; stroke-opacity:1; 
stroke-linecap:round; stroke-linejoin:round;">
<circle cx="60.1000" cy="108.7000" r="0.2500" /> 
</g>
<g style="fill:#333333; fill-opacity:1.0000; 
stroke:#333333; stroke-width:0.0212; stroke-opacity:1; 
stroke-linecap:round; stroke-linejoin:round;">
</g>
<g style="fill:#333333; fill-opacity:1.0000; 
stroke:#333333; stroke-width:0.0000; stroke-opacity:1; 
stroke-linecap:round; stroke-linejoin:round;">
<circle cx="60.1000" cy="110.2000" r="0.2500" /> 
</g>
<g style="fill:#333333; fill-opacity:1.0000; 
stroke:#333333; stroke-width:0.0212; stroke-opacity:1; 
stroke-linecap:round; stroke-linejoin:round;">
</g>
<g style="fill:#333333; fill-opacity:1.0000; 
stroke:#333333; stroke-width:0.0000; stroke-opacity:1; 
stroke-linecap:round; stroke-linejoin:round;">
<circle cx="60.8500" cy="108.7000" r="0.2500" /> 
</g>
<g style="fill:#333333; fill-opacity:1.0000; 
stroke:#333333; stroke-width:0.0212; stroke-opacity:1; 
stroke-linecap:round; stroke-linejoin:round;">
</g>
<g style="fill:#333333; fill-opacity:1.0000; 
stroke:#333333; stroke-width:0.0000; stroke-opacity:1; 
stroke-linecap:round; stroke-linejoin:round;">
<circle cx="60.8500" cy="110.2000" r="0.2500" /> 
</g>
<g style="fill:#333333; fill-opacity:1.0000; 
stroke:#333333; stroke-width:0.0212; stroke-opacity:1; 
stroke-linecap:round; stroke-linejoin:round;">
</g>
<g style="fill:#333333; fill-opacity:1.0000; 
stroke:#333333; stroke-width:0.0000; stroke-opacity:1; 
stroke-linecap:round; stroke-linejoin:round;">
<circle cx="77.3500" cy="108.7000" r="0.2500" /> 
</g>
<g style="fill:#333333; fill-opacity:1.0000; 
stroke:#333333; stroke-width:0.0212; stroke-opacity:1; 
stroke-linecap:round; stroke-linejoin:round;">
</g>
<g style="fill:#333333; fill-opacity:1.0000; 
stroke:#333333; stroke-width:0.0000; stroke-opacity:1; 
stroke-linecap:round; stroke-linejoin:round;">
<circle cx="77.3500" cy="110.2000" r="0.2500" /> 
</g>
<g style="fill:#333333; fill-opacity:1.0000; 
stroke:#333333; stroke-width:0.0212; stroke-opacity:1; 
stroke-linecap:round; stroke-linejoin:round;">
</g>
<g style="fill:#333333; fill-opacity:1.0000; 
stroke:#333333; stroke-width:0.0000; stroke-opacity:1; 
stroke-linecap:round; stroke-linejoin:round;">
<circle cx="78.1000" cy="108.7000" r="0.2500" /> 
</g>
<g style="fill:#333333; fill-opacity:1.0000; 
stroke:#333333; stroke-width:0.0212; stroke-opacity:1; 
stroke-linecap:round; stroke-linejoin:round;">
</g>
<g style="fill:#333333; fill-opacity:1.0000; 
stroke:#333333; stroke-width:0.0000; stroke-opacity:1; 
stroke-linecap:round; stroke-linejoin:round;">
<circle cx="78.1000" cy="110.2000" r="0.2500" /> 
</g>
<g style="fill:#333333; fill-opacity:1.0000; 
stroke:#333333; stroke-width:0.0212; stroke-opacity:1; 
stroke-linecap:round; stroke-linejoin:round;">
</g>
<g style="fill:#333333; fill-opacity:1.0000; 
stroke:#333333; stroke-width:0.0000; stroke-opacity:1; 
stroke-linecap:round; stroke-linejoin:round;">
<circle cx="78.8500" cy="108.7000" r="0.2500" /> 
</g>
<g style="fill:#333333; fill-opacity:1.0000; 
stroke:#333333; stroke-width:0.0212; stroke-opacity:1; 
stroke-linecap:round; stroke-linejoin:round;">
</g>
<g style="fill:#333333; fill-opacity:1.0000; 
stroke:#333333; stroke-width:0.0000; stroke-opacity:1; 
stroke-linecap:round; stroke-linejoin:round;">
<circle cx="78.8500" cy="110.2000" r="0.2500" /> 
</g>
<g style="fill:#333333; fill-opacity:1.0000; 
stroke:#333333; stroke-width:0.0212; stroke-opacity:1; 
stroke-linecap:round; stroke-linejoin:round;">
</g>
<g style="fill:#333333; fill-opacity:1.0000; 
stroke:#333333; stroke-width:0.0000; stroke-opacity:1; 
stroke-linecap:round; stroke-linejoin:round;">
<circle cx="95.4500" cy="108.7000" r="0.2500" /> 
</g>
<g style="fill:#333333; fill-opacity:1.0000; 
stroke:#333333; stroke-width:0.0212; stroke-opacity:1; 
stroke-linecap:round; stroke-linejoin:round;">
</g>
<g style="fill:#333333; fill-opacity:1.0000; 
stroke:#333333; stroke-width:0.0000; stroke-opacity:1; 
stroke-linecap:round; stroke-linejoin:round;">
<circle cx="95.4500" cy="110.2000" r="0.2500" /> 
</g>
<g style="fill:#333333; fill-opacity:1.0000; 
stroke:#333333; stroke-width:0.0212; stroke-opacity:1; 
stroke-linecap:round; stroke-linejoin:round;">
</g>
<g style="fill:#333333; fill-opacity:1.0000; 
stroke:#333333; stroke-width:0.0000; stroke-opacity:1; 
stroke-linecap:round; stroke-linejoin:round;">
<circle cx="96.2000" cy="108.7000" r="0.2500" /> 
</g>
<g style="fill:#333333; fill-opacity:1.0000; 
stroke:#333333; stroke-width:0.0212; stroke-opacity:1; 
stroke-linecap:round; stroke-linejoin:round;">
</g>
<g style="fill:#333333; fill-opacity:1.0000; 
stroke:#333333; stroke-width:0.0000; stroke-opacity:1; 
stroke-linecap:round; stroke-linejoin:round;">
<circle cx="96.2000" cy="110.2000" r="0.2500" /> 
</g>
<g style="fill:#333333; fill-opacity:1.0000; 
stroke:#333333; stroke-width:0.0212; stroke-opacity:1; 
stroke-linecap:round; stroke-linejoin:round;">
</g>
<g style="fill:#333333; fill-opacity:1.0000; 
stroke:#333333; stroke-width:0.0000; stroke-opacity:1; 
stroke-linecap:round; stroke-linejoin:round;">
<circle cx="96.9500" cy="108.7000" r="0.2500" /> 
</g>
<g style="fill:#333333; fill-opacity:1.0000; 
stroke:#333333; stroke-width:0.0212; stroke-opacity:1; 
stroke-linecap:round; stroke-linejoin:round;">
</g>
<g style="fill:#333333; fill-opacity:1.0000; 
stroke:#333333; stroke-width:0.0000; stroke-opacity:1; 
stroke-linecap:round; stroke-linejoin:round;">
<circle cx="96.9500" cy="110.2000" r="0.2500" /> 
</g>
<g style="fill:#333333; fill-opacity:1.0000; 
stroke:#333333; stroke-width:0.0212; stroke-opacity:1; 
stroke-linecap:round; stroke-linejoin:round;">
</g>
<g >
</g>
<g style="fill:#333333; fill-opacity:1.0000; 
stroke:#333333; stroke-width:0.0212; stroke-opacity:1; 
stroke-linecap:round; stroke-linejoin:round;">
</g>
<g style="fill:#333333; fill-opacity:1.0000; 
stroke:#333333; stroke-width:0.0000; stroke-opacity:1; 
stroke-linecap:round; stroke-linejoin:round;">
<circle cx="121.1200" cy="182.6000" r="1.6000" /> 
</g>
<g style="fill:#333333; fill-opacity:1.0000; 
stroke:#333333; stroke-width:0.0212; stroke-opacity:1; 
stroke-linecap:round; stroke-linejoin:round;">
</g>
<g >
</g>
<g style="fill:#333333; fill-opacity:1.0000; 
stroke:#333333; stroke-width:0.0212; stroke-opacity:1; 
stroke-linecap:round; stroke-linejoin:round;">
</g>
<g style="fill:#333333; fill-opacity:1.0000; 
stroke:#333333; stroke-width:0.0000; stroke-opacity:1; 
stroke-linecap:round; stroke-linejoin:round;">
<circle cx="15.9500" cy="182.6000" r="1.6000" /> 
</g>
<g style="fill:#333333; fill-opacity:1.0000; 
stroke:#333333; stroke-width:0.0212; stroke-opacity:1; 
stroke-linecap:round; stroke-linejoin:round;">
</g>
<g >
</g>
<g style="fill:#333333; fill-opacity:1.0000; 
stroke:#333333; stroke-width:0.0212; stroke-opacity:1; 
stroke-linecap:round; stroke-linejoin:round;">
</g>
<g style="fill:#333333; fill-opacity:1.0000; 
stroke:#333333; stroke-width:0.0000; stroke-opacity:1; 
stroke-linecap:round; stroke-linejoin:round;">
<circle cx="121.1200" cy="36.3000" r="1.6000" /> 
</g>
<g style="fill:#333333; fill-opacity:1.0000; 
stroke:#333333; stroke-width:0.0212; stroke-opacity:1; 
stroke-linecap:round; stroke-linejoin:round;">
</g>
<g >
</g>
<g style="fill:#333333; fill-opacity:1.0000; 
stroke:#333333; stroke-width:0.0212; stroke-opacity:1; 
stroke-linecap:round; stroke-linejoin:round;">
</g>
<g style="fill:#333333; fill-opacity:1.0000; 
stroke:#333333; stroke-width:0.0000; stroke-opacity:1; 
stroke-linecap:round; stroke-linejoin:round;">
<circle cx="87.1500" cy="104.9000" r="1.6000" /> 
</g>
<g style="fill:#333333; fill-opacity:1.0000; 
stroke:#333333; stroke-width:0.0212; stroke-opacity:1; 
stroke-linecap:round; stroke-linejoin:round;">
</g>
<g >
</g>
<g style="fill:#333333; fill-opacity:1.0000; 
stroke:#333333; stroke-width:0.0212; stroke-opacity:1; 
stroke-linecap:round; stroke-linejoin:round;">
</g>
<g style="fill:#333333; fill-opacity:1.0000; 
stroke:#333333; stroke-width:0.0000; stroke-opacity:1; 
stroke-linecap:round; stroke-linejoin:round;">
<circle cx="51.0500" cy="114.0000" r="1.6000" /> 
</g>
<g style="fill:#333333; fill-opacity:1.0000; 
stroke:#333333; stroke-width:0.0212; stroke-opacity:1; 
stroke-linecap:round; stroke-linejoin:round;">
</g>
<g >
</g>
<g style="fill:#333333; fill-opacity:1.0000; 
stroke:#333333; stroke-width:0.0212; stroke-opacity:1; 
stroke-linecap:round; stroke-linejoin:round;">
</g>
<g style="fill:#333333; fill-opacity:1.0000; 
stroke:#333333; stroke-width:0.0000; stroke-opacity:1; 
stroke-linecap:round; stroke-linejoin:round;">
<circle cx="87.1500" cy="114.0000" r="1.6000" /> 
</g>
<g style="fill:#333333; fill-opacity:1.0000; 
stroke:#333333; stroke-width:0.0212; stroke-opacity:1; 
stroke-linecap:round; stroke-linejoin:round;">
</g>
<g >
</g>
<g style="fill:#333333; fill-opacity:1.0000; 
stroke:#333333; stroke-width:0.0212; stroke-opacity:1; 
stroke-linecap:round; stroke-linejoin:round;">
</g>
<g style="fill:#333333; fill-opacity:1.0000; 
stroke:#333333; stroke-width:0.0000; stroke-opacity:1; 
stroke-linecap:round; stroke-linejoin:round;">
<circle cx="51.0500" cy="104.9000" r="1.6000" /> 
</g>
<g style="fill:#333333; fill-opacity:1.0000; 
stroke:#333333; stroke-width:0.0212; stroke-opacity:1; 
stroke-linecap:round; stroke-linejoin:round;">
</g>
<g >
</g>
<g >
</g>
<g >
</g>
</g>
<g style="fill:#333333; fill-opacity:1.0000; 
stroke:#333333; stroke-width:0.0212; stroke-opacity:1; 
stroke-linecap:round; stroke-linejoin:round;">
</g>
<g style="fill:#333333; fill-opacity:1.0000; 
stroke:#333333; stroke-width:0.1000; stroke-opacity:1; 
stroke-linecap:round; stroke-linejoin:round;">
</g>
<g style="fill:#333333; fill-opacity:0.0; 
stroke:#333333; stroke-width:0.1000; stroke-opacity:1; 
stroke-linecap:round; stroke-linejoin:round;">
<path d="M5.4500 108.4500
L5.4500 110.4500
" />
<path d="M3.4500 0.0500
L1.4500 0.0500
" />
<path d="M3.4500 218.8500
L1.4500 218.8500
" />
<path d="M5.4500 110.4500
L3.4500 110.4500
" />
<path d="M5.4500 0.0500
L3.4500 0.0500
" />
<path d="M3.4500 0.0500
L3.4500 108.4500
" />
<path d="M1.4500 218.8500
L1.4500 0.0500
" />
<path d="M3.4500 110.4500
L3.4500 218.8500
" />
<path d="M129.8150 221.3000
L7.3150 221.3000
" />
<path d="M129.8150 219.3000
L129.8150 221.3000
" />
<path d="M5.4500 218.8500
L3.4500 218.8500
" />
<path d="M5.4500 108.4500
L3.4500 108.4500
" />
<path d="M7.3150 219.3000
L7.3150 221.3000
" />
</g>
<g style="fill:#333333; fill-opacity:0.0; 
stroke:#333333; stroke-width:0.1500; stroke-opacity:1; 
stroke-linecap:round; stroke-linejoin:round;">
<g transform="rotate(-90.000000 3.4500 164.6500)">
<text x="3.4500" y="164.6500"
textLength="7.9643" font-size="1.3333" lengthAdjust="spacingAndGlyphs"
text-anchor="start" opacity="0">108.4 mm</text>
</g>
<g class="stroked-text"><desc>108.4 mm</desc>
<path d="M3.3198 163.7894
L3.3198 164.3608
" />
<path d="M3.3198 164.0751
L2.3198 164.0751
" />
<path d="M2.3198 164.0751
L2.4627 164.1704
" />
<path d="M2.4627 164.1704
L2.5579 164.2656
" />
<path d="M2.5579 164.2656
L2.6055 164.3608
" />
<path d="M2.3198 163.1704
L2.3198 163.0751
" />
<path d="M2.3198 163.0751
L2.3674 162.9799
" />
<path d="M2.3674 162.9799
L2.4151 162.9323
" />
<path d="M2.4151 162.9323
L2.5103 162.8846
" />
<path d="M2.5103 162.8846
L2.7008 162.8370
" />
<path d="M2.7008 162.8370
L2.9389 162.8370
" />
<path d="M2.9389 162.8370
L3.1293 162.8846
" />
<path d="M3.1293 162.8846
L3.2246 162.9323
" />
<path d="M3.2246 162.9323
L3.2722 162.9799
" />
<path d="M3.2722 162.9799
L3.3198 163.0751
" />
<path d="M3.3198 163.0751
L3.3198 163.1704
" />
<path d="M3.3198 163.1704
L3.2722 163.2656
" />
<path d="M3.2722 163.2656
L3.2246 163.3132
" />
<path d="M3.2246 163.3132
L3.1293 163.3608
" />
<path d="M3.1293 163.3608
L2.9389 163.4085
" />
<path d="M2.9389 163.4085
L2.7008 163.4085
" />
<path d="M2.7008 163.4085
L2.5103 163.3608
" />
<path d="M2.5103 163.3608
L2.4151 163.3132
" />
<path d="M2.4151 163.3132
L2.3674 163.2656
" />
<path d="M2.3674 163.2656
L2.3198 163.1704
" />
<path d="M2.7484 162.2656
L2.7008 162.3608
" />
<path d="M2.7008 162.3608
L2.6532 162.4085
" />
<path d="M2.6532 162.4085
L2.5579 162.4561
" />
<path d="M2.5579 162.4561
L2.5103 162.4561
" />
<path d="M2.5103 162.4561
L2.4151 162.4085
" />
<path d="M2.4151 162.4085
L2.3674 162.3608
" />
<path d="M2.3674 162.3608
L2.3198 162.2656
" />
<path d="M2.3198 162.2656
L2.3198 162.0751
" />
<path d="M2.3198 162.0751
L2.3674 161.9799
" />
<path d="M2.3674 161.9799
L2.4151 161.9323
" />
<path d="M2.4151 161.9323
L2.5103 161.8846
" />
<path d="M2.5103 161.8846
L2.5579 161.8846
" />
<path d="M2.5579 161.8846
L2.6532 161.9323
" />
<path d="M2.6532 161.9323
L2.7008 161.9799
" />
<path d="M2.7008 161.9799
L2.7484 162.0751
" />
<path d="M2.7484 162.0751
L2.7484 162.2656
" />
<path d="M2.7484 162.2656
L2.7960 162.3608
" />
<path d="M2.7960 162.3608
L2.8436 162.4085
" />
<path d="M2.8436 162.4085
L2.9389 162.4561
" />
<path d="M2.9389 162.4561
L3.1293 162.4561
" />
<path d="M3.1293 162.4561
L3.2246 162.4085
" />
<path d="M3.2246 162.4085
L3.2722 162.3608
" />
<path d="M3.2722 162.3608
L3.3198 162.2656
" />
<path d="M3.3198 162.2656
L3.3198 162.0751
" />
<path d="M3.3198 162.0751
L3.2722 161.9799
" />
<path d="M3.2722 161.9799
L3.2246 161.9323
" />
<path d="M3.2246 161.9323
L3.1293 161.8846
" />
<path d="M3.1293 161.8846
L2.9389 161.8846
" />
<path d="M2.9389 161.8846
L2.8436 161.9323
" />
<path d="M2.8436 161.9323
L2.7960 161.9799
" />
<path d="M2.7960 161.9799
L2.7484 162.0751
" />
<path d="M3.2246 161.4561
L3.2722 161.4085
" />
<path d="M3.2722 161.4085
L3.3198 161.4561
" />
<path d="M3.3198 161.4561
L3.2722 161.5037
" />
<path d="M3.2722 161.5037
L3.2246 161.4561
" />
<path d="M3.2246 161.4561
L3.3198 161.4561
" />
<path d="M2.6532 160.5513
L3.3198 160.5513
" />
<path d="M2.2722 160.7894
L2.9865 161.0275
" />
<path d="M2.9865 161.0275
L2.9865 160.4085
" />
<path d="M3.3198 159.2656
L2.6532 159.2656
" />
<path d="M2.7484 159.2656
L2.7008 159.2180
" />
<path d="M2.7008 159.2180
L2.6532 159.1227
" />
<path d="M2.6532 159.1227
L2.6532 158.9799
" />
<path d="M2.6532 158.9799
L2.7008 158.8846
" />
<path d="M2.7008 158.8846
L2.7960 158.8370
" />
<path d="M2.7960 158.8370
L3.3198 158.8370
" />
<path d="M2.7960 158.8370
L2.7008 158.7894
" />
<path d="M2.7008 158.7894
L2.6532 158.6942
" />
<path d="M2.6532 158.6942
L2.6532 158.5513
" />
<path d="M2.6532 158.5513
L2.7008 158.4561
" />
<path d="M2.7008 158.4561
L2.7960 158.4085
" />
<path d="M2.7960 158.4085
L3.3198 158.4085
" />
<path d="M3.3198 157.9323
L2.6532 157.9323
" />
<path d="M2.7484 157.9323
L2.7008 157.8846
" />
<path d="M2.7008 157.8846
L2.6532 157.7894
" />
<path d="M2.6532 157.7894
L2.6532 157.6466
" />
<path d="M2.6532 157.6466
L2.7008 157.5513
" />
<path d="M2.7008 157.5513
L2.7960 157.5037
" />
<path d="M2.7960 157.5037
L3.3198 157.5037
" />
<path d="M2.7960 157.5037
L2.7008 157.4561
" />
<path d="M2.7008 157.4561
L2.6532 157.3608
" />
<path d="M2.6532 157.3608
L2.6532 157.2180
" />
<path d="M2.6532 157.2180
L2.7008 157.1227
" />
<path d="M2.7008 157.1227
L2.7960 157.0751
" />
<path d="M2.7960 157.0751
L3.3198 157.0751
" />
</g><text x="68.5650" y="221.3000"
textLength="7.9643" font-size="1.3333" lengthAdjust="spacingAndGlyphs"
text-anchor="start" opacity="0">122.5 mm</text>
<g class="stroked-text"><desc>122.5 mm</desc>
<path d="M69.4256 221.1698
L68.8542 221.1698
" />
<path d="M69.1399 221.1698
L69.1399 220.1698
" />
<path d="M69.1399 220.1698
L69.0446 220.3127
" />
<path d="M69.0446 220.3127
L68.9494 220.4079
" />
<path d="M68.9494 220.4079
L68.8542 220.4555
" />
<path d="M69.8065 220.2651
L69.8542 220.2174
" />
<path d="M69.8542 220.2174
L69.9494 220.1698
" />
<path d="M69.9494 220.1698
L70.1875 220.1698
" />
<path d="M70.1875 220.1698
L70.2827 220.2174
" />
<path d="M70.2827 220.2174
L70.3303 220.2651
" />
<path d="M70.3303 220.2651
L70.3780 220.3603
" />
<path d="M70.3780 220.3603
L70.3780 220.4555
" />
<path d="M70.3780 220.4555
L70.3303 220.5984
" />
<path d="M70.3303 220.5984
L69.7589 221.1698
" />
<path d="M69.7589 221.1698
L70.3780 221.1698
" />
<path d="M70.7589 220.2651
L70.8065 220.2174
" />
<path d="M70.8065 220.2174
L70.9018 220.1698
" />
<path d="M70.9018 220.1698
L71.1399 220.1698
" />
<path d="M71.1399 220.1698
L71.2351 220.2174
" />
<path d="M71.2351 220.2174
L71.2827 220.2651
" />
<path d="M71.2827 220.2651
L71.3303 220.3603
" />
<path d="M71.3303 220.3603
L71.3303 220.4555
" />
<path d="M71.3303 220.4555
L71.2827 220.5984
" />
<path d="M71.2827 220.5984
L70.7113 221.1698
" />
<path d="M70.7113 221.1698
L71.3303 221.1698
" />
<path d="M71.7589 221.0746
L71.8065 221.1222
" />
<path d="M71.8065 221.1222
L71.7589 221.1698
" />
<path d="M71.7589 221.1698
L71.7113 221.1222
" />
<path d="M71.7113 221.1222
L71.7589 221.0746
" />
<path d="M71.7589 221.0746
L71.7589 221.1698
" />
<path d="M72.7113 220.1698
L72.2351 220.1698
" />
<path d="M72.2351 220.1698
L72.1875 220.6460
" />
<path d="M72.1875 220.6460
L72.2351 220.5984
" />
<path d="M72.2351 220.5984
L72.3303 220.5508
" />
<path d="M72.3303 220.5508
L72.5684 220.5508
" />
<path d="M72.5684 220.5508
L72.6637 220.5984
" />
<path d="M72.6637 220.5984
L72.7113 220.6460
" />
<path d="M72.7113 220.6460
L72.7589 220.7412
" />
<path d="M72.7589 220.7412
L72.7589 220.9793
" />
<path d="M72.7589 220.9793
L72.7113 221.0746
" />
<path d="M72.7113 221.0746
L72.6637 221.1222
" />
<path d="M72.6637 221.1222
L72.5684 221.1698
" />
<path d="M72.5684 221.1698
L72.3303 221.1698
" />
<path d="M72.3303 221.1698
L72.2351 221.1222
" />
<path d="M72.2351 221.1222
L72.1875 221.0746
" />
<path d="M73.9494 221.1698
L73.9494 220.5032
" />
<path d="M73.9494 220.5984
L73.9970 220.5508
" />
<path d="M73.9970 220.5508
L74.0923 220.5032
" />
<path d="M74.0923 220.5032
L74.2351 220.5032
" />
<path d="M74.2351 220.5032
L74.3303 220.5508
" />
<path d="M74.3303 220.5508
L74.3780 220.6460
" />
<path d="M74.3780 220.6460
L74.3780 221.1698
" />
<path d="M74.3780 220.6460
L74.4256 220.5508
" />
<path d="M74.4256 220.5508
L74.5208 220.5032
" />
<path d="M74.5208 220.5032
L74.6637 220.5032
" />
<path d="M74.6637 220.5032
L74.7589 220.5508
" />
<path d="M74.7589 220.5508
L74.8065 220.6460
" />
<path d="M74.8065 220.6460
L74.8065 221.1698
" />
<path d="M75.2827 221.1698
L75.2827 220.5032
" />
<path d="M75.2827 220.5984
L75.3303 220.5508
" />
<path d="M75.3303 220.5508
L75.4256 220.5032
" />
<path d="M75.4256 220.5032
L75.5684 220.5032
" />
<path d="M75.5684 220.5032
L75.6637 220.5508
" />
<path d="M75.6637 220.5508
L75.7113 220.6460
" />
<path d="M75.7113 220.6460
L75.7113 221.1698
" />
<path d="M75.7113 220.6460
L75.7589 220.5508
" />
<path d="M75.7589 220.5508
L75.8542 220.5032
" />
<path d="M75.8542 220.5032
L75.9970 220.5032
" />
<path d="M75.9970 220.5032
L76.0923 220.5508
" />
<path d="M76.0923 220.5508
L76.1399 220.6460
" />
<path d="M76.1399 220.6460
L76.1399 221.1698
" />
</g><g transform="rotate(-90.000000 1.4500 109.4500)">
<text x="1.4500" y="109.4500"
textLength="7.9643" font-size="1.3333" lengthAdjust="spacingAndGlyphs"
text-anchor="start" opacity="0">218.8 mm</text>
</g>
<g class="stroked-text"><desc>218.8 mm</desc>
<path d="M0.4151 109.1608
L0.3674 109.1132
" />
<path d="M0.3674 109.1132
L0.3198 109.0180
" />
<path d="M0.3198 109.0180
L0.3198 108.7799
" />
<path d="M0.3198 108.7799
L0.3674 108.6846
" />
<path d="M0.3674 108.6846
L0.4151 108.6370
" />
<path d="M0.4151 108.6370
L0.5103 108.5894
" />
<path d="M0.5103 108.5894
L0.6055 108.5894
" />
<path d="M0.6055 108.5894
L0.7484 108.6370
" />
<path d="M0.7484 108.6370
L1.3198 109.2085
" />
<path d="M1.3198 109.2085
L1.3198 108.5894
" />
<path d="M1.3198 107.6370
L1.3198 108.2085
" />
<path d="M1.3198 107.9227
L0.3198 107.9227
" />
<path d="M0.3198 107.9227
L0.4627 108.0180
" />
<path d="M0.4627 108.0180
L0.5579 108.1132
" />
<path d="M0.5579 108.1132
L0.6055 108.2085
" />
<path d="M0.7484 107.0656
L0.7008 107.1608
" />
<path d="M0.7008 107.1608
L0.6532 107.2085
" />
<path d="M0.6532 107.2085
L0.5579 107.2561
" />
<path d="M0.5579 107.2561
L0.5103 107.2561
" />
<path d="M0.5103 107.2561
L0.4151 107.2085
" />
<path d="M0.4151 107.2085
L0.3674 107.1608
" />
<path d="M0.3674 107.1608
L0.3198 107.0656
" />
<path d="M0.3198 107.0656
L0.3198 106.8751
" />
<path d="M0.3198 106.8751
L0.3674 106.7799
" />
<path d="M0.3674 106.7799
L0.4151 106.7323
" />
<path d="M0.4151 106.7323
L0.5103 106.6846
" />
<path d="M0.5103 106.6846
L0.5579 106.6846
" />
<path d="M0.5579 106.6846
L0.6532 106.7323
" />
<path d="M0.6532 106.7323
L0.7008 106.7799
" />
<path d="M0.7008 106.7799
L0.7484 106.8751
" />
<path d="M0.7484 106.8751
L0.7484 107.0656
" />
<path d="M0.7484 107.0656
L0.7960 107.1608
" />
<path d="M0.7960 107.1608
L0.8436 107.2085
" />
<path d="M0.8436 107.2085
L0.9389 107.2561
" />
<path d="M0.9389 107.2561
L1.1293 107.2561
" />
<path d="M1.1293 107.2561
L1.2246 107.2085
" />
<path d="M1.2246 107.2085
L1.2722 107.1608
" />
<path d="M1.2722 107.1608
L1.3198 107.0656
" />
<path d="M1.3198 107.0656
L1.3198 106.8751
" />
<path d="M1.3198 106.8751
L1.2722 106.7799
" />
<path d="M1.2722 106.7799
L1.2246 106.7323
" />
<path d="M1.2246 106.7323
L1.1293 106.6846
" />
<path d="M1.1293 106.6846
L0.9389 106.6846
" />
<path d="M0.9389 106.6846
L0.8436 106.7323
" />
<path d="M0.8436 106.7323
L0.7960 106.7799
" />
<path d="M0.7960 106.7799
L0.7484 106.8751
" />
<path d="M1.2246 106.2561
L1.2722 106.2085
" />
<path d="M1.2722 106.2085
L1.3198 106.2561
" />
<path d="M1.3198 106.2561
L1.2722 106.3037
" />
<path d="M1.2722 106.3037
L1.2246 106.2561
" />
<path d="M1.2246 106.2561
L1.3198 106.2561
" />
<path d="M0.7484 105.6370
L0.7008 105.7323
" />
<path d="M0.7008 105.7323
L0.6532 105.7799
" />
<path d="M0.6532 105.7799
L0.5579 105.8275
" />
<path d="M0.5579 105.8275
L0.5103 105.8275
" />
<path d="M0.5103 105.8275
L0.4151 105.7799
" />
<path d="M0.4151 105.7799
L0.3674 105.7323
" />
<path d="M0.3674 105.7323
L0.3198 105.6370
" />
<path d="M0.3198 105.6370
L0.3198 105.4466
" />
<path d="M0.3198 105.4466
L0.3674 105.3513
" />
<path d="M0.3674 105.3513
L0.4151 105.3037
" />
<path d="M0.4151 105.3037
L0.5103 105.2561
" />
<path d="M0.5103 105.2561
L0.5579 105.2561
" />
<path d="M0.5579 105.2561
L0.6532 105.3037
" />
<path d="M0.6532 105.3037
L0.7008 105.3513
" />
<path d="M0.7008 105.3513
L0.7484 105.4466
" />
<path d="M0.7484 105.4466
L0.7484 105.6370
" />
<path d="M0.7484 105.6370
L0.7960 105.7323
" />
<path d="M0.7960 105.7323
L0.8436 105.7799
" />
<path d="M0.8436 105.7799
L0.9389 105.8275
" />
<path d="M0.9389 105.8275
L1.1293 105.8275
" />
<path d="M1.1293 105.8275
L1.2246 105.7799
" />
<path d="M1.2246 105.7799
L1.2722 105.7323
" />
<path d="M1.2722 105.7323
L1.3198 105.6370
" />
<path d="M1.3198 105.6370
L1.3198 105.4466
" />
<path d="M1.3198 105.4466
L1.2722 105.3513
" />
<path d="M1.2722 105.3513
L1.2246 105.3037
" />
<path d="M1.2246 105.3037
L1.1293 105.2561
" />
<path d="M1.1293 105.2561
L0.9389 105.2561
" />
<path d="M0.9389 105.2561
L0.8436 105.3037
" />
<path d="M0.8436 105.3037
L0.7960 105.3513
" />
<path d="M0.7960 105.3513
L0.7484 105.4466
" />
<path d="M1.3198 104.0656
L0.6532 104.0656
" />
<path d="M0.7484 104.0656
L0.7008 104.0180
" />
<path d="M0.7008 104.0180
L0.6532 103.9227
" />
<path d="M0.6532 103.9227
L0.6532 103.7799
" />
<path d="M0.6532 103.7799
L0.7008 103.6846
" />
<path d="M0.7008 103.6846
L0.7960 103.6370
" />
<path d="M0.7960 103.6370
L1.3198 103.6370
" />
<path d="M0.7960 103.6370
L0.7008 103.5894
" />
<path d="M0.7008 103.5894
L0.6532 103.4942
" />
<path d="M0.6532 103.4942
L0.6532 103.3513
" />
<path d="M0.6532 103.3513
L0.7008 103.2561
" />
<path d="M0.7008 103.2561
L0.7960 103.2085
" />
<path d="M0.7960 103.2085
L1.3198 103.2085
" />
<path d="M1.3198 102.7323
L0.6532 102.7323
" />
<path d="M0.7484 102.7323
L0.7008 102.6846
" />
<path d="M0.7008 102.6846
L0.6532 102.5894
" />
<path d="M0.6532 102.5894
L0.6532 102.4466
" />
<path d="M0.6532 102.4466
L0.7008 102.3513
" />
<path d="M0.7008 102.3513
L0.7960 102.3037
" />
<path d="M0.7960 102.3037
L1.3198 102.3037
" />
<path d="M0.7960 102.3037
L0.7008 102.2561
" />
<path d="M0.7008 102.2561
L0.6532 102.1608
" />
<path d="M0.6532 102.1608
L0.6532 102.0180
" />
<path d="M0.6532 102.0180
L0.7008 101.9227
" />
<path d="M0.7008 101.9227
L0.7960 101.8751
" />
<path d="M0.7960 101.8751
L1.3198 101.8751
" />
</g><g transform="rotate(-90.000000 3.4500 110.4500)">
<text x="3.4500" y="110.4500"
textLength="4.6310" font-size="1.3333" lengthAdjust="spacingAndGlyphs"
text-anchor="start" opacity="0">2 mm</text>
</g>
<g class="stroked-text"><desc>2 mm</desc>
<path d="M2.4151 110.1608
L2.3674 110.1132
" />
<path d="M2.3674 110.1132
L2.3198 110.0180
" />
<path d="M2.3198 110.0180
L2.3198 109.7799
" />
<path d="M2.3198 109.7799
L2.3674 109.6846
" />
<path d="M2.3674 109.6846
L2.4151 109.6370
" />
<path d="M2.4151 109.6370
L2.5103 109.5894
" />
<path d="M2.5103 109.5894
L2.6055 109.5894
" />
<path d="M2.6055 109.5894
L2.7484 109.6370
" />
<path d="M2.7484 109.6370
L3.3198 110.2085
" />
<path d="M3.3198 110.2085
L3.3198 109.5894
" />
<path d="M3.3198 108.3989
L2.6532 108.3989
" />
<path d="M2.7484 108.3989
L2.7008 108.3513
" />
<path d="M2.7008 108.3513
L2.6532 108.2561
" />
<path d="M2.6532 108.2561
L2.6532 108.1132
" />
<path d="M2.6532 108.1132
L2.7008 108.0180
" />
<path d="M2.7008 108.0180
L2.7960 107.9704
" />
<path d="M2.7960 107.9704
L3.3198 107.9704
" />
<path d="M2.7960 107.9704
L2.7008 107.9227
" />
<path d="M2.7008 107.9227
L2.6532 107.8275
" />
<path d="M2.6532 107.8275
L2.6532 107.6846
" />
<path d="M2.6532 107.6846
L2.7008 107.5894
" />
<path d="M2.7008 107.5894
L2.7960 107.5418
" />
<path d="M2.7960 107.5418
L3.3198 107.5418
" />
<path d="M3.3198 107.0656
L2.6532 107.0656
" />
<path d="M2.7484 107.0656
L2.7008 107.0180
" />
<path d="M2.7008 107.0180
L2.6532 106.9227
" />
<path d="M2.6532 106.9227
L2.6532 106.7799
" />
<path d="M2.6532 106.7799
L2.7008 106.6846
" />
<path d="M2.7008 106.6846
L2.7960 106.6370
" />
<path d="M2.7960 106.6370
L3.3198 106.6370
" />
<path d="M2.7960 106.6370
L2.7008 106.5894
" />
<path d="M2.7008 106.5894
L2.6532 106.4942
" />
<path d="M2.6532 106.4942
L2.6532 106.3513
" />
<path d="M2.6532 106.3513
L2.7008 106.2561
" />
<path d="M2.7008 106.2561
L2.7960 106.2085
" />
<path d="M2.7960 106.2085
L3.3198 106.2085
" />
</g><g transform="rotate(-90.000000 3.4500 54.2500)">
<text x="3.4500" y="54.2500"
textLength="7.9643" font-size="1.3333" lengthAdjust="spacingAndGlyphs"
text-anchor="start" opacity="0">108.4 mm</text>
</g>
<g class="stroked-text"><desc>108.4 mm</desc>
<path d="M3.3198 53.3894
L3.3198 53.9608
" />
<path d="M3.3198 53.6751
L2.3198 53.6751
" />
<path d="M2.3198 53.6751
L2.4627 53.7704
" />
<path d="M2.4627 53.7704
L2.5579 53.8656
" />
<path d="M2.5579 53.8656
L2.6055 53.9608
" />
<path d="M2.3198 52.7704
L2.3198 52.6751
" />
<path d="M2.3198 52.6751
L2.3674 52.5799
" />
<path d="M2.3674 52.5799
L2.4151 52.5323
" />
<path d="M2.4151 52.5323
L2.5103 52.4846
" />
<path d="M2.5103 52.4846
L2.7008 52.4370
" />
<path d="M2.7008 52.4370
L2.9389 52.4370
" />
<path d="M2.9389 52.4370
L3.1293 52.4846
" />
<path d="M3.1293 52.4846
L3.2246 52.5323
" />
<path d="M3.2246 52.5323
L3.2722 52.5799
" />
<path d="M3.2722 52.5799
L3.3198 52.6751
" />
<path d="M3.3198 52.6751
L3.3198 52.7704
" />
<path d="M3.3198 52.7704
L3.2722 52.8656
" />
<path d="M3.2722 52.8656
L3.2246 52.9132
" />
<path d="M3.2246 52.9132
L3.1293 52.9608
" />
<path d="M3.1293 52.9608
L2.9389 53.0085
" />
<path d="M2.9389 53.0085
L2.7008 53.0085
" />
<path d="M2.7008 53.0085
L2.5103 52.9608
" />
<path d="M2.5103 52.9608
L2.4151 52.9132
" />
<path d="M2.4151 52.9132
L2.3674 52.8656
" />
<path d="M2.3674 52.8656
L2.3198 52.7704
" />
<path d="M2.7484 51.8656
L2.7008 51.9608
" />
<path d="M2.7008 51.9608
L2.6532 52.0085
" />
<path d="M2.6532 52.0085
L2.5579 52.0561
" />
<path d="M2.5579 52.0561
L2.5103 52.0561
" />
<path d="M2.5103 52.0561
L2.4151 52.0085
" />
<path d="M2.4151 52.0085
L2.3674 51.9608
" />
<path d="M2.3674 51.9608
L2.3198 51.8656
" />
<path d="M2.3198 51.8656
L2.3198 51.6751
" />
<path d="M2.3198 51.6751
L2.3674 51.5799
" />
<path d="M2.3674 51.5799
L2.4151 51.5323
" />
<path d="M2.4151 51.5323
L2.5103 51.4846
" />
<path d="M2.5103 51.4846
L2.5579 51.4846
" />
<path d="M2.5579 51.4846
L2.6532 51.5323
" />
<path d="M2.6532 51.5323
L2.7008 51.5799
" />
<path d="M2.7008 51.5799
L2.7484 51.6751
" />
<path d="M2.7484 51.6751
L2.7484 51.8656
" />
<path d="M2.7484 51.8656
L2.7960 51.9608
" />
<path d="M2.7960 51.9608
L2.8436 52.0085
" />
<path d="M2.8436 52.0085
L2.9389 52.0561
" />
<path d="M2.9389 52.0561
L3.1293 52.0561
" />
<path d="M3.1293 52.0561
L3.2246 52.0085
" />
<path d="M3.2246 52.0085
L3.2722 51.9608
" />
<path d="M3.2722 51.9608
L3.3198 51.8656
" />
<path d="M3.3198 51.8656
L3.3198 51.6751
" />
<path d="M3.3198 51.6751
L3.2722 51.5799
" />
<path d="M3.2722 51.5799
L3.2246 51.5323
" />
<path d="M3.2246 51.5323
L3.1293 51.4846
" />
<path d="M3.1293 51.4846
L2.9389 51.4846
" />
<path d="M2.9389 51.4846
L2.8436 51.5323
" />
<path d="M2.8436 51.5323
L2.7960 51.5799
" />
<path d="M2.7960 51.5799
L2.7484 51.6751
" />
<path d="M3.2246 51.0561
L3.2722 51.0085
" />
<path d="M3.2722 51.0085
L3.3198 51.0561
" />
<path d="M3.3198 51.0561
L3.2722 51.1037
" />
<path d="M3.2722 51.1037
L3.2246 51.0561
" />
<path d="M3.2246 51.0561
L3.3198 51.0561
" />
<path d="M2.6532 50.1513
L3.3198 50.1513
" />
<path d="M2.2722 50.3894
L2.9865 50.6275
" />
<path d="M2.9865 50.6275
L2.9865 50.0085
" />
<path d="M3.3198 48.8656
L2.6532 48.8656
" />
<path d="M2.7484 48.8656
L2.7008 48.8180
" />
<path d="M2.7008 48.8180
L2.6532 48.7227
" />
<path d="M2.6532 48.7227
L2.6532 48.5799
" />
<path d="M2.6532 48.5799
L2.7008 48.4846
" />
<path d="M2.7008 48.4846
L2.7960 48.4370
" />
<path d="M2.7960 48.4370
L3.3198 48.4370
" />
<path d="M2.7960 48.4370
L2.7008 48.3894
" />
<path d="M2.7008 48.3894
L2.6532 48.2942
" />
<path d="M2.6532 48.2942
L2.6532 48.1513
" />
<path d="M2.6532 48.1513
L2.7008 48.0561
" />
<path d="M2.7008 48.0561
L2.7960 48.0085
" />
<path d="M2.7960 48.0085
L3.3198 48.0085
" />
<path d="M3.3198 47.5323
L2.6532 47.5323
" />
<path d="M2.7484 47.5323
L2.7008 47.4846
" />
<path d="M2.7008 47.4846
L2.6532 47.3894
" />
<path d="M2.6532 47.3894
L2.6532 47.2466
" />
<path d="M2.6532 47.2466
L2.7008 47.1513
" />
<path d="M2.7008 47.1513
L2.7960 47.1037
" />
<path d="M2.7960 47.1037
L3.3198 47.1037
" />
<path d="M2.7960 47.1037
L2.7008 47.0561
" />
<path d="M2.7008 47.0561
L2.6532 46.9608
" />
<path d="M2.6532 46.9608
L2.6532 46.8180
" />
<path d="M2.6532 46.8180
L2.7008 46.7227
" />
<path d="M2.7008 46.7227
L2.7960 46.6751
" />
<path d="M2.7960 46.6751
L3.3198 46.6751
" />
</g><g transform="rotate(-90.000000 13.4500 36.3000)">
<text x="13.4500" y="36.8000"
textLength="8.1548" font-size="1.3333" lengthAdjust="spacingAndGlyphs"
text-anchor="middle" opacity="0">3.2mm_M3</text>
</g>
<g class="stroked-text"><desc>3.2mm_M3</desc>
<path d="M12.9048 40.1095
L12.9048 39.4905
" />
<path d="M12.9048 39.4905
L13.2858 39.8238
" />
<path d="M13.2858 39.8238
L13.2858 39.6810
" />
<path d="M13.2858 39.6810
L13.3334 39.5857
" />
<path d="M13.3334 39.5857
L13.3810 39.5381
" />
<path d="M13.3810 39.5381
L13.4762 39.4905
" />
<path d="M13.4762 39.4905
L13.7143 39.4905
" />
<path d="M13.7143 39.4905
L13.8096 39.5381
" />
<path d="M13.8096 39.5381
L13.8572 39.5857
" />
<path d="M13.8572 39.5857
L13.9048 39.6810
" />
<path d="M13.9048 39.6810
L13.9048 39.9667
" />
<path d="M13.9048 39.9667
L13.8572 40.0619
" />
<path d="M13.8572 40.0619
L13.8096 40.1095
" />
<path d="M13.8096 39.0619
L13.8572 39.0143
" />
<path d="M13.8572 39.0143
L13.9048 39.0619
" />
<path d="M13.9048 39.0619
L13.8572 39.1095
" />
<path d="M13.8572 39.1095
L13.8096 39.0619
" />
<path d="M13.8096 39.0619
L13.9048 39.0619
" />
<path d="M13.0001 38.6333
L12.9524 38.5857
" />
<path d="M12.9524 38.5857
L12.9048 38.4905
" />
<path d="M12.9048 38.4905
L12.9048 38.2524
" />
<path d="M12.9048 38.2524
L12.9524 38.1571
" />
<path d="M12.9524 38.1571
L13.0001 38.1095
" />
<path d="M13.0001 38.1095
L13.0953 38.0619
" />
<path d="M13.0953 38.0619
L13.1905 38.0619
" />
<path d="M13.1905 38.0619
L13.3334 38.1095
" />
<path d="M13.3334 38.1095
L13.9048 38.6810
" />
<path d="M13.9048 38.6810
L13.9048 38.0619
" />
<path d="M13.9048 37.6333
L13.2382 37.6333
" />
<path d="M13.3334 37.6333
L13.2858 37.5857
" />
<path d="M13.2858 37.5857
L13.2382 37.4905
" />
<path d="M13.2382 37.4905
L13.2382 37.3476
" />
<path d="M13.2382 37.3476
L13.2858 37.2524
" />
<path d="M13.2858 37.2524
L13.3810 37.2048
" />
<path d="M13.3810 37.2048
L13.9048 37.2048
" />
<path d="M13.3810 37.2048
L13.2858 37.1571
" />
<path d="M13.2858 37.1571
L13.2382 37.0619
" />
<path d="M13.2382 37.0619
L13.2382 36.9190
" />
<path d="M13.2382 36.9190
L13.2858 36.8238
" />
<path d="M13.2858 36.8238
L13.3810 36.7762
" />
<path d="M13.3810 36.7762
L13.9048 36.7762
" />
<path d="M13.9048 36.3000
L13.2382 36.3000
" />
<path d="M13.3334 36.3000
L13.2858 36.2524
" />
<path d="M13.2858 36.2524
L13.2382 36.1571
" />
<path d="M13.2382 36.1571
L13.2382 36.0143
" />
<path d="M13.2382 36.0143
L13.2858 35.9190
" />
<path d="M13.2858 35.9190
L13.3810 35.8714
" />
<path d="M13.3810 35.8714
L13.9048 35.8714
" />
<path d="M13.3810 35.8714
L13.2858 35.8238
" />
<path d="M13.2858 35.8238
L13.2382 35.7286
" />
<path d="M13.2382 35.7286
L13.2382 35.5857
" />
<path d="M13.2382 35.5857
L13.2858 35.4905
" />
<path d="M13.2858 35.4905
L13.3810 35.4429
" />
<path d="M13.3810 35.4429
L13.9048 35.4429
" />
<path d="M14.0001 35.2048
L14.0001 34.4429
" />
<path d="M13.9048 34.2048
L12.9048 34.2048
" />
<path d="M12.9048 34.2048
L13.6191 33.8714
" />
<path d="M13.6191 33.8714
L12.9048 33.5381
" />
<path d="M12.9048 33.5381
L13.9048 33.5381
" />
<path d="M12.9048 33.1571
L12.9048 32.5381
" />
<path d="M12.9048 32.5381
L13.2858 32.8714
" />
<path d="M13.2858 32.8714
L13.2858 32.7286
" />
<path d="M13.2858 32.7286
L13.3334 32.6333
" />
<path d="M13.3334 32.6333
L13.3810 32.5857
" />
<path d="M13.3810 32.5857
L13.4762 32.5381
" />
<path d="M13.4762 32.5381
L13.7143 32.5381
" />
<path d="M13.7143 32.5381
L13.8096 32.5857
" />
<path d="M13.8096 32.5857
L13.8572 32.6333
" />
<path d="M13.8572 32.6333
L13.9048 32.7286
" />
<path d="M13.9048 32.7286
L13.9048 33.0143
" />
<path d="M13.9048 33.0143
L13.8572 33.1095
" />
<path d="M13.8572 33.1095
L13.8096 33.1571
" />
</g></g>
<g style="fill:#333333; fill-opacity:0.0; 
stroke:#333333; stroke-width:0.3000; stroke-opacity:1; 
stroke-linecap:round; stroke-linejoin:round;">
<text x="18.5500" y="97.6500"
textLength="12.0286" font-size="2.0000" lengthAdjust="spacingAndGlyphs"
text-anchor="middle" opacity="0">Edge_Cuts</text>
<g class="stroked-text"><desc>Edge_Cuts</desc>
<path d="M13.1929 96.7926
L13.6929 96.7926
" />
<path d="M13.9071 97.5783
L13.1929 97.5783
" />
<path d="M13.1929 97.5783
L13.1929 96.0783
" />
<path d="M13.1929 96.0783
L13.9071 96.0783
" />
<path d="M15.1929 97.5783
L15.1929 96.0783
" />
<path d="M15.1929 97.5069
L15.0500 97.5783
" />
<path d="M15.0500 97.5783
L14.7643 97.5783
" />
<path d="M14.7643 97.5783
L14.6214 97.5069
" />
<path d="M14.6214 97.5069
L14.5500 97.4355
" />
<path d="M14.5500 97.4355
L14.4786 97.2926
" />
<path d="M14.4786 97.2926
L14.4786 96.8640
" />
<path d="M14.4786 96.8640
L14.5500 96.7212
" />
<path d="M14.5500 96.7212
L14.6214 96.6498
" />
<path d="M14.6214 96.6498
L14.7643 96.5783
" />
<path d="M14.7643 96.5783
L15.0500 96.5783
" />
<path d="M15.0500 96.5783
L15.1929 96.6498
" />
<path d="M16.5500 96.5783
L16.5500 97.7926
" />
<path d="M16.5500 97.7926
L16.4786 97.9355
" />
<path d="M16.4786 97.9355
L16.4071 98.0069
" />
<path d="M16.4071 98.0069
L16.2643 98.0783
" />
<path d="M16.2643 98.0783
L16.0500 98.0783
" />
<path d="M16.0500 98.0783
L15.9071 98.0069
" />
<path d="M16.5500 97.5069
L16.4071 97.5783
" />
<path d="M16.4071 97.5783
L16.1214 97.5783
" />
<path d="M16.1214 97.5783
L15.9786 97.5069
" />
<path d="M15.9786 97.5069
L15.9071 97.4355
" />
<path d="M15.9071 97.4355
L15.8357 97.2926
" />
<path d="M15.8357 97.2926
L15.8357 96.8640
" />
<path d="M15.8357 96.8640
L15.9071 96.7212
" />
<path d="M15.9071 96.7212
L15.9786 96.6498
" />
<path d="M15.9786 96.6498
L16.1214 96.5783
" />
<path d="M16.1214 96.5783
L16.4071 96.5783
" />
<path d="M16.4071 96.5783
L16.5500 96.6498
" />
<path d="M17.8357 97.5069
L17.6929 97.5783
" />
<path d="M17.6929 97.5783
L17.4071 97.5783
" />
<path d="M17.4071 97.5783
L17.2643 97.5069
" />
<path d="M17.2643 97.5069
L17.1929 97.3640
" />
<path d="M17.1929 97.3640
L17.1929 96.7926
" />
<path d="M17.1929 96.7926
L17.2643 96.6498
" />
<path d="M17.2643 96.6498
L17.4071 96.5783
" />
<path d="M17.4071 96.5783
L17.6929 96.5783
" />
<path d="M17.6929 96.5783
L17.8357 96.6498
" />
<path d="M17.8357 96.6498
L17.9071 96.7926
" />
<path d="M17.9071 96.7926
L17.9071 96.9355
" />
<path d="M17.9071 96.9355
L17.1929 97.0783
" />
<path d="M18.1929 97.7212
L19.3357 97.7212
" />
<path d="M20.5500 97.4355
L20.4786 97.5069
" />
<path d="M20.4786 97.5069
L20.2643 97.5783
" />
<path d="M20.2643 97.5783
L20.1214 97.5783
" />
<path d="M20.1214 97.5783
L19.9071 97.5069
" />
<path d="M19.9071 97.5069
L19.7643 97.3640
" />
<path d="M19.7643 97.3640
L19.6929 97.2212
" />
<path d="M19.6929 97.2212
L19.6214 96.9355
" />
<path d="M19.6214 96.9355
L19.6214 96.7212
" />
<path d="M19.6214 96.7212
L19.6929 96.4355
" />
<path d="M19.6929 96.4355
L19.7643 96.2926
" />
<path d="M19.7643 96.2926
L19.9071 96.1498
" />
<path d="M19.9071 96.1498
L20.1214 96.0783
" />
<path d="M20.1214 96.0783
L20.2643 96.0783
" />
<path d="M20.2643 96.0783
L20.4786 96.1498
" />
<path d="M20.4786 96.1498
L20.5500 96.2212
" />
<path d="M21.8357 96.5783
L21.8357 97.5783
" />
<path d="M21.1929 96.5783
L21.1929 97.3640
" />
<path d="M21.1929 97.3640
L21.2643 97.5069
" />
<path d="M21.2643 97.5069
L21.4071 97.5783
" />
<path d="M21.4071 97.5783
L21.6214 97.5783
" />
<path d="M21.6214 97.5783
L21.7643 97.5069
" />
<path d="M21.7643 97.5069
L21.8357 97.4355
" />
<path d="M22.3357 96.5783
L22.9071 96.5783
" />
<path d="M22.5500 96.0783
L22.5500 97.3640
" />
<path d="M22.5500 97.3640
L22.6214 97.5069
" />
<path d="M22.6214 97.5069
L22.7643 97.5783
" />
<path d="M22.7643 97.5783
L22.9071 97.5783
" />
<path d="M23.3357 97.5069
L23.4786 97.5783
" />
<path d="M23.4786 97.5783
L23.7643 97.5783
" />
<path d="M23.7643 97.5783
L23.9071 97.5069
" />
<path d="M23.9071 97.5069
L23.9786 97.3640
" />
<path d="M23.9786 97.3640
L23.9786 97.2926
" />
<path d="M23.9786 97.2926
L23.9071 97.1498
" />
<path d="M23.9071 97.1498
L23.7643 97.0783
" />
<path d="M23.7643 97.0783
L23.5500 97.0783
" />
<path d="M23.5500 97.0783
L23.4071 97.0069
" />
<path d="M23.4071 97.0069
L23.3357 96.8640
" />
<path d="M23.3357 96.8640
L23.3357 96.7926
" />
<path d="M23.3357 96.7926
L23.4071 96.6498
" />
<path d="M23.4071 96.6498
L23.5500 96.5783
" />
<path d="M23.5500 96.5783
L23.7643 96.5783
" />
<path d="M23.7643 96.5783
L23.9071 96.6498
" />
</g></g>
<g style="fill:#333333; fill-opacity:0.0; 
stroke:#333333; stroke-width:0.1500; stroke-opacity:1; 
stroke-linecap:round; stroke-linejoin:round;">
<g transform="rotate(-90.000000 123.5500 182.6000)">
<text x="123.5500" y="183.1000"
textLength="8.1548" font-size="1.3333" lengthAdjust="spacingAndGlyphs"
text-anchor="middle" opacity="0">3.2mm_M3</text>
</g>
<g class="stroked-text"><desc>3.2mm_M3</desc>
<path d="M123.0048 186.4095
L123.0048 185.7905
" />
<path d="M123.0048 185.7905
L123.3858 186.1238
" />
<path d="M123.3858 186.1238
L123.3858 185.9810
" />
<path d="M123.3858 185.9810
L123.4334 185.8857
" />
<path d="M123.4334 185.8857
L123.4810 185.8381
" />
<path d="M123.4810 185.8381
L123.5762 185.7905
" />
<path d="M123.5762 185.7905
L123.8143 185.7905
" />
<path d="M123.8143 185.7905
L123.9096 185.8381
" />
<path d="M123.9096 185.8381
L123.9572 185.8857
" />
<path d="M123.9572 185.8857
L124.0048 185.9810
" />
<path d="M124.0048 185.9810
L124.0048 186.2667
" />
<path d="M124.0048 186.2667
L123.9572 186.3619
" />
<path d="M123.9572 186.3619
L123.9096 186.4095
" />
<path d="M123.9096 185.3619
L123.9572 185.3143
" />
<path d="M123.9572 185.3143
L124.0048 185.3619
" />
<path d="M124.0048 185.3619
L123.9572 185.4095
" />
<path d="M123.9572 185.4095
L123.9096 185.3619
" />
<path d="M123.9096 185.3619
L124.0048 185.3619
" />
<path d="M123.1001 184.9333
L123.0524 184.8857
" />
<path d="M123.0524 184.8857
L123.0048 184.7905
" />
<path d="M123.0048 184.7905
L123.0048 184.5524
" />
<path d="M123.0048 184.5524
L123.0524 184.4571
" />
<path d="M123.0524 184.4571
L123.1001 184.4095
" />
<path d="M123.1001 184.4095
L123.1953 184.3619
" />
<path d="M123.1953 184.3619
L123.2905 184.3619
" />
<path d="M123.2905 184.3619
L123.4334 184.4095
" />
<path d="M123.4334 184.4095
L124.0048 184.9810
" />
<path d="M124.0048 184.9810
L124.0048 184.3619
" />
<path d="M124.0048 183.9333
L123.3382 183.9333
" />
<path d="M123.4334 183.9333
L123.3858 183.8857
" />
<path d="M123.3858 183.8857
L123.3382 183.7905
" />
<path d="M123.3382 183.7905
L123.3382 183.6476
" />
<path d="M123.3382 183.6476
L123.3858 183.5524
" />
<path d="M123.3858 183.5524
L123.4810 183.5048
" />
<path d="M123.4810 183.5048
L124.0048 183.5048
" />
<path d="M123.4810 183.5048
L123.3858 183.4571
" />
<path d="M123.3858 183.4571
L123.3382 183.3619
" />
<path d="M123.3382 183.3619
L123.3382 183.2190
" />
<path d="M123.3382 183.2190
L123.3858 183.1238
" />
<path d="M123.3858 183.1238
L123.4810 183.0762
" />
<path d="M123.4810 183.0762
L124.0048 183.0762
" />
<path d="M124.0048 182.6000
L123.3382 182.6000
" />
<path d="M123.4334 182.6000
L123.3858 182.5524
" />
<path d="M123.3858 182.5524
L123.3382 182.4571
" />
<path d="M123.3382 182.4571
L123.3382 182.3143
" />
<path d="M123.3382 182.3143
L123.3858 182.2190
" />
<path d="M123.3858 182.2190
L123.4810 182.1714
" />
<path d="M123.4810 182.1714
L124.0048 182.1714
" />
<path d="M123.4810 182.1714
L123.3858 182.1238
" />
<path d="M123.3858 182.1238
L123.3382 182.0286
" />
<path d="M123.3382 182.0286
L123.3382 181.8857
" />
<path d="M123.3382 181.8857
L123.3858 181.7905
" />
<path d="M123.3858 181.7905
L123.4810 181.7429
" />
<path d="M123.4810 181.7429
L124.0048 181.7429
" />
<path d="M124.1001 181.5048
L124.1001 180.7429
" />
<path d="M124.0048 180.5048
L123.0048 180.5048
" />
<path d="M123.0048 180.5048
L123.7191 180.1714
" />
<path d="M123.7191 180.1714
L123.0048 179.8381
" />
<path d="M123.0048 179.8381
L124.0048 179.8381
" />
<path d="M123.0048 179.4571
L123.0048 178.8381
" />
<path d="M123.0048 178.8381
L123.3858 179.1714
" />
<path d="M123.3858 179.1714
L123.3858 179.0286
" />
<path d="M123.3858 179.0286
L123.4334 178.9333
" />
<path d="M123.4334 178.9333
L123.4810 178.8857
" />
<path d="M123.4810 178.8857
L123.5762 178.8381
" />
<path d="M123.5762 178.8381
L123.8143 178.8381
" />
<path d="M123.8143 178.8381
L123.9096 178.8857
" />
<path d="M123.9096 178.8857
L123.9572 178.9333
" />
<path d="M123.9572 178.9333
L124.0048 179.0286
" />
<path d="M124.0048 179.0286
L124.0048 179.3143
" />
<path d="M124.0048 179.3143
L123.9572 179.4095
" />
<path d="M123.9572 179.4095
L123.9096 179.4571
" />
</g><g transform="rotate(-90.000000 13.5000 182.6000)">
<text x="13.5000" y="183.1000"
textLength="8.1548" font-size="1.3333" lengthAdjust="spacingAndGlyphs"
text-anchor="middle" opacity="0">3.2mm_M3</text>
</g>
<g class="stroked-text"><desc>3.2mm_M3</desc>
<path d="M12.9548 186.4095
L12.9548 185.7905
" />
<path d="M12.9548 185.7905
L13.3358 186.1238
" />
<path d="M13.3358 186.1238
L13.3358 185.9810
" />
<path d="M13.3358 185.9810
L13.3834 185.8857
" />
<path d="M13.3834 185.8857
L13.4310 185.8381
" />
<path d="M13.4310 185.8381
L13.5262 185.7905
" />
<path d="M13.5262 185.7905
L13.7643 185.7905
" />
<path d="M13.7643 185.7905
L13.8596 185.8381
" />
<path d="M13.8596 185.8381
L13.9072 185.8857
" />
<path d="M13.9072 185.8857
L13.9548 185.9810
" />
<path d="M13.9548 185.9810
L13.9548 186.2667
" />
<path d="M13.9548 186.2667
L13.9072 186.3619
" />
<path d="M13.9072 186.3619
L13.8596 186.4095
" />
<path d="M13.8596 185.3619
L13.9072 185.3143
" />
<path d="M13.9072 185.3143
L13.9548 185.3619
" />
<path d="M13.9548 185.3619
L13.9072 185.4095
" />
<path d="M13.9072 185.4095
L13.8596 185.3619
" />
<path d="M13.8596 185.3619
L13.9548 185.3619
" />
<path d="M13.0501 184.9333
L13.0024 184.8857
" />
<path d="M13.0024 184.8857
L12.9548 184.7905
" />
<path d="M12.9548 184.7905
L12.9548 184.5524
" />
<path d="M12.9548 184.5524
L13.0024 184.4571
" />
<path d="M13.0024 184.4571
L13.0501 184.4095
" />
<path d="M13.0501 184.4095
L13.1453 184.3619
" />
<path d="M13.1453 184.3619
L13.2405 184.3619
" />
<path d="M13.2405 184.3619
L13.3834 184.4095
" />
<path d="M13.3834 184.4095
L13.9548 184.9810
" />
<path d="M13.9548 184.9810
L13.9548 184.3619
" />
<path d="M13.9548 183.9333
L13.2882 183.9333
" />
<path d="M13.3834 183.9333
L13.3358 183.8857
" />
<path d="M13.3358 183.8857
L13.2882 183.7905
" />
<path d="M13.2882 183.7905
L13.2882 183.6476
" />
<path d="M13.2882 183.6476
L13.3358 183.5524
" />
<path d="M13.3358 183.5524
L13.4310 183.5048
" />
<path d="M13.4310 183.5048
L13.9548 183.5048
" />
<path d="M13.4310 183.5048
L13.3358 183.4571
" />
<path d="M13.3358 183.4571
L13.2882 183.3619
" />
<path d="M13.2882 183.3619
L13.2882 183.2190
" />
<path d="M13.2882 183.2190
L13.3358 183.1238
" />
<path d="M13.3358 183.1238
L13.4310 183.0762
" />
<path d="M13.4310 183.0762
L13.9548 183.0762
" />
<path d="M13.9548 182.6000
L13.2882 182.6000
" />
<path d="M13.3834 182.6000
L13.3358 182.5524
" />
<path d="M13.3358 182.5524
L13.2882 182.4571
" />
<path d="M13.2882 182.4571
L13.2882 182.3143
" />
<path d="M13.2882 182.3143
L13.3358 182.2190
" />
<path d="M13.3358 182.2190
L13.4310 182.1714
" />
<path d="M13.4310 182.1714
L13.9548 182.1714
" />
<path d="M13.4310 182.1714
L13.3358 182.1238
" />
<path d="M13.3358 182.1238
L13.2882 182.0286
" />
<path d="M13.2882 182.0286
L13.2882 181.8857
" />
<path d="M13.2882 181.8857
L13.3358 181.7905
" />
<path d="M13.3358 181.7905
L13.4310 181.7429
" />
<path d="M13.4310 181.7429
L13.9548 181.7429
" />
<path d="M14.0501 181.5048
L14.0501 180.7429
" />
<path d="M13.9548 180.5048
L12.9548 180.5048
" />
<path d="M12.9548 180.5048
L13.6691 180.1714
" />
<path d="M13.6691 180.1714
L12.9548 179.8381
" />
<path d="M12.9548 179.8381
L13.9548 179.8381
" />
<path d="M12.9548 179.4571
L12.9548 178.8381
" />
<path d="M12.9548 178.8381
L13.3358 179.1714
" />
<path d="M13.3358 179.1714
L13.3358 179.0286
" />
<path d="M13.3358 179.0286
L13.3834 178.9333
" />
<path d="M13.3834 178.9333
L13.4310 178.8857
" />
<path d="M13.4310 178.8857
L13.5262 178.8381
" />
<path d="M13.5262 178.8381
L13.7643 178.8381
" />
<path d="M13.7643 178.8381
L13.8596 178.8857
" />
<path d="M13.8596 178.8857
L13.9072 178.9333
" />
<path d="M13.9072 178.9333
L13.9548 179.0286
" />
<path d="M13.9548 179.0286
L13.9548 179.3143
" />
<path d="M13.9548 179.3143
L13.9072 179.4095
" />
<path d="M13.9072 179.4095
L13.8596 179.4571
" />
</g><g transform="rotate(-90.000000 123.6200 36.3000)">
<text x="123.6200" y="36.8000"
textLength="8.1548" font-size="1.3333" lengthAdjust="spacingAndGlyphs"
text-anchor="middle" opacity="0">3.2mm_M3</text>
</g>
<g class="stroked-text"><desc>3.2mm_M3</desc>
<path d="M123.0748 40.1095
L123.0748 39.4905
" />
<path d="M123.0748 39.4905
L123.4558 39.8238
" />
<path d="M123.4558 39.8238
L123.4558 39.6810
" />
<path d="M123.4558 39.6810
L123.5034 39.5857
" />
<path d="M123.5034 39.5857
L123.5510 39.5381
" />
<path d="M123.5510 39.5381
L123.6462 39.4905
" />
<path d="M123.6462 39.4905
L123.8843 39.4905
" />
<path d="M123.8843 39.4905
L123.9796 39.5381
" />
<path d="M123.9796 39.5381
L124.0272 39.5857
" />
<path d="M124.0272 39.5857
L124.0748 39.6810
" />
<path d="M124.0748 39.6810
L124.0748 39.9667
" />
<path d="M124.0748 39.9667
L124.0272 40.0619
" />
<path d="M124.0272 40.0619
L123.9796 40.1095
" />
<path d="M123.9796 39.0619
L124.0272 39.0143
" />
<path d="M124.0272 39.0143
L124.0748 39.0619
" />
<path d="M124.0748 39.0619
L124.0272 39.1095
" />
<path d="M124.0272 39.1095
L123.9796 39.0619
" />
<path d="M123.9796 39.0619
L124.0748 39.0619
" />
<path d="M123.1701 38.6333
L123.1224 38.5857
" />
<path d="M123.1224 38.5857
L123.0748 38.4905
" />
<path d="M123.0748 38.4905
L123.0748 38.2524
" />
<path d="M123.0748 38.2524
L123.1224 38.1571
" />
<path d="M123.1224 38.1571
L123.1701 38.1095
" />
<path d="M123.1701 38.1095
L123.2653 38.0619
" />
<path d="M123.2653 38.0619
L123.3605 38.0619
" />
<path d="M123.3605 38.0619
L123.5034 38.1095
" />
<path d="M123.5034 38.1095
L124.0748 38.6810
" />
<path d="M124.0748 38.6810
L124.0748 38.0619
" />
<path d="M124.0748 37.6333
L123.4082 37.6333
" />
<path d="M123.5034 37.6333
L123.4558 37.5857
" />
<path d="M123.4558 37.5857
L123.4082 37.4905
" />
<path d="M123.4082 37.4905
L123.4082 37.3476
" />
<path d="M123.4082 37.3476
L123.4558 37.2524
" />
<path d="M123.4558 37.2524
L123.5510 37.2048
" />
<path d="M123.5510 37.2048
L124.0748 37.2048
" />
<path d="M123.5510 37.2048
L123.4558 37.1571
" />
<path d="M123.4558 37.1571
L123.4082 37.0619
" />
<path d="M123.4082 37.0619
L123.4082 36.9190
" />
<path d="M123.4082 36.9190
L123.4558 36.8238
" />
<path d="M123.4558 36.8238
L123.5510 36.7762
" />
<path d="M123.5510 36.7762
L124.0748 36.7762
" />
<path d="M124.0748 36.3000
L123.4082 36.3000
" />
<path d="M123.5034 36.3000
L123.4558 36.2524
" />
<path d="M123.4558 36.2524
L123.4082 36.1571
" />
<path d="M123.4082 36.1571
L123.4082 36.0143
" />
<path d="M123.4082 36.0143
L123.4558 35.9190
" />
<path d="M123.4558 35.9190
L123.5510 35.8714
" />
<path d="M123.5510 35.8714
L124.0748 35.8714
" />
<path d="M123.5510 35.8714
L123.4558 35.8238
" />
<path d="M123.4558 35.8238
L123.4082 35.7286
" />
<path d="M123.4082 35.7286
L123.4082 35.5857
" />
<path d="M123.4082 35.5857
L123.4558 35.4905
" />
<path d="M123.4558 35.4905
L123.5510 35.4429
" />
<path d="M123.5510 35.4429
L124.0748 35.4429
" />
<path d="M124.1701 35.2048
L124.1701 34.4429
" />
<path d="M124.0748 34.2048
L123.0748 34.2048
" />
<path d="M123.0748 34.2048
L123.7891 33.8714
" />
<path d="M123.7891 33.8714
L123.0748 33.5381
" />
<path d="M123.0748 33.5381
L124.0748 33.5381
" />
<path d="M123.0748 33.1571
L123.0748 32.5381
" />
<path d="M123.0748 32.5381
L123.4558 32.8714
" />
<path d="M123.4558 32.8714
L123.4558 32.7286
" />
<path d="M123.4558 32.7286
L123.5034 32.6333
" />
<path d="M123.5034 32.6333
L123.5510 32.5857
" />
<path d="M123.5510 32.5857
L123.6462 32.5381
" />
<path d="M123.6462 32.5381
L123.8843 32.5381
" />
<path d="M123.8843 32.5381
L123.9796 32.5857
" />
<path d="M123.9796 32.5857
L124.0272 32.6333
" />
<path d="M124.0272 32.6333
L124.0748 32.7286
" />
<path d="M124.0748 32.7286
L124.0748 33.0143
" />
<path d="M124.0748 33.0143
L124.0272 33.1095
" />
<path d="M124.0272 33.1095
L123.9796 33.1571
" />
</g><text x="87.1500" y="107.8000"
textLength="8.1548" font-size="1.3333" lengthAdjust="spacingAndGlyphs"
text-anchor="middle" opacity="0">3.2mm_M3</text>
<g class="stroked-text"><desc>3.2mm_M3</desc>
<path d="M83.3405 106.7548
L83.9595 106.7548
" />
<path d="M83.9595 106.7548
L83.6262 107.1358
" />
<path d="M83.6262 107.1358
L83.7690 107.1358
" />
<path d="M83.7690 107.1358
L83.8643 107.1834
" />
<path d="M83.8643 107.1834
L83.9119 107.2310
" />
<path d="M83.9119 107.2310
L83.9595 107.3262
" />
<path d="M83.9595 107.3262
L83.9595 107.5643
" />
<path d="M83.9595 107.5643
L83.9119 107.6596
" />
<path d="M83.9119 107.6596
L83.8643 107.7072
" />
<path d="M83.8643 107.7072
L83.7690 107.7548
" />
<path d="M83.7690 107.7548
L83.4833 107.7548
" />
<path d="M83.4833 107.7548
L83.3881 107.7072
" />
<path d="M83.3881 107.7072
L83.3405 107.6596
" />
<path d="M84.3881 107.6596
L84.4357 107.7072
" />
<path d="M84.4357 107.7072
L84.3881 107.7548
" />
<path d="M84.3881 107.7548
L84.3405 107.7072
" />
<path d="M84.3405 107.7072
L84.3881 107.6596
" />
<path d="M84.3881 107.6596
L84.3881 107.7548
" />
<path d="M84.8167 106.8501
L84.8643 106.8024
" />
<path d="M84.8643 106.8024
L84.9595 106.7548
" />
<path d="M84.9595 106.7548
L85.1976 106.7548
" />
<path d="M85.1976 106.7548
L85.2929 106.8024
" />
<path d="M85.2929 106.8024
L85.3405 106.8501
" />
<path d="M85.3405 106.8501
L85.3881 106.9453
" />
<path d="M85.3881 106.9453
L85.3881 107.0405
" />
<path d="M85.3881 107.0405
L85.3405 107.1834
" />
<path d="M85.3405 107.1834
L84.7690 107.7548
" />
<path d="M84.7690 107.7548
L85.3881 107.7548
" />
<path d="M85.8167 107.7548
L85.8167 107.0882
" />
<path d="M85.8167 107.1834
L85.8643 107.1358
" />
<path d="M85.8643 107.1358
L85.9595 107.0882
" />
<path d="M85.9595 107.0882
L86.1024 107.0882
" />
<path d="M86.1024 107.0882
L86.1976 107.1358
" />
<path d="M86.1976 107.1358
L86.2452 107.2310
" />
<path d="M86.2452 107.2310
L86.2452 107.7548
" />
<path d="M86.2452 107.2310
L86.2929 107.1358
" />
<path d="M86.2929 107.1358
L86.3881 107.0882
" />
<path d="M86.3881 107.0882
L86.5310 107.0882
" />
<path d="M86.5310 107.0882
L86.6262 107.1358
" />
<path d="M86.6262 107.1358
L86.6738 107.2310
" />
<path d="M86.6738 107.2310
L86.6738 107.7548
" />
<path d="M87.1500 107.7548
L87.1500 107.0882
" />
<path d="M87.1500 107.1834
L87.1976 107.1358
" />
<path d="M87.1976 107.1358
L87.2929 107.0882
" />
<path d="M87.2929 107.0882
L87.4357 107.0882
" />
<path d="M87.4357 107.0882
L87.5310 107.1358
" />
<path d="M87.5310 107.1358
L87.5786 107.2310
" />
<path d="M87.5786 107.2310
L87.5786 107.7548
" />
<path d="M87.5786 107.2310
L87.6262 107.1358
" />
<path d="M87.6262 107.1358
L87.7214 107.0882
" />
<path d="M87.7214 107.0882
L87.8643 107.0882
" />
<path d="M87.8643 107.0882
L87.9595 107.1358
" />
<path d="M87.9595 107.1358
L88.0071 107.2310
" />
<path d="M88.0071 107.2310
L88.0071 107.7548
" />
<path d="M88.2452 107.8501
L89.0071 107.8501
" />
<path d="M89.2452 107.7548
L89.2452 106.7548
" />
<path d="M89.2452 106.7548
L89.5786 107.4691
" />
<path d="M89.5786 107.4691
L89.9119 106.7548
" />
<path d="M89.9119 106.7548
L89.9119 107.7548
" />
<path d="M90.2929 106.7548
L90.9119 106.7548
" />
<path d="M90.9119 106.7548
L90.5786 107.1358
" />
<path d="M90.5786 107.1358
L90.7214 107.1358
" />
<path d="M90.7214 107.1358
L90.8167 107.1834
" />
<path d="M90.8167 107.1834
L90.8643 107.2310
" />
<path d="M90.8643 107.2310
L90.9119 107.3262
" />
<path d="M90.9119 107.3262
L90.9119 107.5643
" />
<path d="M90.9119 107.5643
L90.8643 107.6596
" />
<path d="M90.8643 107.6596
L90.8167 107.7072
" />
<path d="M90.8167 107.7072
L90.7214 107.7548
" />
<path d="M90.7214 107.7548
L90.4357 107.7548
" />
<path d="M90.4357 107.7548
L90.3405 107.7072
" />
<path d="M90.3405 107.7072
L90.2929 107.6596
" />
</g><text x="51.0500" y="111.8000"
textLength="8.1548" font-size="1.3333" lengthAdjust="spacingAndGlyphs"
text-anchor="middle" opacity="0">3.2mm_M3</text>
<g class="stroked-text"><desc>3.2mm_M3</desc>
<path d="M47.2405 110.7548
L47.8595 110.7548
" />
<path d="M47.8595 110.7548
L47.5262 111.1358
" />
<path d="M47.5262 111.1358
L47.6690 111.1358
" />
<path d="M47.6690 111.1358
L47.7643 111.1834
" />
<path d="M47.7643 111.1834
L47.8119 111.2310
" />
<path d="M47.8119 111.2310
L47.8595 111.3262
" />
<path d="M47.8595 111.3262
L47.8595 111.5643
" />
<path d="M47.8595 111.5643
L47.8119 111.6596
" />
<path d="M47.8119 111.6596
L47.7643 111.7072
" />
<path d="M47.7643 111.7072
L47.6690 111.7548
" />
<path d="M47.6690 111.7548
L47.3833 111.7548
" />
<path d="M47.3833 111.7548
L47.2881 111.7072
" />
<path d="M47.2881 111.7072
L47.2405 111.6596
" />
<path d="M48.2881 111.6596
L48.3357 111.7072
" />
<path d="M48.3357 111.7072
L48.2881 111.7548
" />
<path d="M48.2881 111.7548
L48.2405 111.7072
" />
<path d="M48.2405 111.7072
L48.2881 111.6596
" />
<path d="M48.2881 111.6596
L48.2881 111.7548
" />
<path d="M48.7167 110.8501
L48.7643 110.8024
" />
<path d="M48.7643 110.8024
L48.8595 110.7548
" />
<path d="M48.8595 110.7548
L49.0976 110.7548
" />
<path d="M49.0976 110.7548
L49.1929 110.8024
" />
<path d="M49.1929 110.8024
L49.2405 110.8501
" />
<path d="M49.2405 110.8501
L49.2881 110.9453
" />
<path d="M49.2881 110.9453
L49.2881 111.0405
" />
<path d="M49.2881 111.0405
L49.2405 111.1834
" />
<path d="M49.2405 111.1834
L48.6690 111.7548
" />
<path d="M48.6690 111.7548
L49.2881 111.7548
" />
<path d="M49.7167 111.7548
L49.7167 111.0882
" />
<path d="M49.7167 111.1834
L49.7643 111.1358
" />
<path d="M49.7643 111.1358
L49.8595 111.0882
" />
<path d="M49.8595 111.0882
L50.0024 111.0882
" />
<path d="M50.0024 111.0882
L50.0976 111.1358
" />
<path d="M50.0976 111.1358
L50.1452 111.2310
" />
<path d="M50.1452 111.2310
L50.1452 111.7548
" />
<path d="M50.1452 111.2310
L50.1929 111.1358
" />
<path d="M50.1929 111.1358
L50.2881 111.0882
" />
<path d="M50.2881 111.0882
L50.4310 111.0882
" />
<path d="M50.4310 111.0882
L50.5262 111.1358
" />
<path d="M50.5262 111.1358
L50.5738 111.2310
" />
<path d="M50.5738 111.2310
L50.5738 111.7548
" />
<path d="M51.0500 111.7548
L51.0500 111.0882
" />
<path d="M51.0500 111.1834
L51.0976 111.1358
" />
<path d="M51.0976 111.1358
L51.1929 111.0882
" />
<path d="M51.1929 111.0882
L51.3357 111.0882
" />
<path d="M51.3357 111.0882
L51.4310 111.1358
" />
<path d="M51.4310 111.1358
L51.4786 111.2310
" />
<path d="M51.4786 111.2310
L51.4786 111.7548
" />
<path d="M51.4786 111.2310
L51.5262 111.1358
" />
<path d="M51.5262 111.1358
L51.6214 111.0882
" />
<path d="M51.6214 111.0882
L51.7643 111.0882
" />
<path d="M51.7643 111.0882
L51.8595 111.1358
" />
<path d="M51.8595 111.1358
L51.9071 111.2310
" />
<path d="M51.9071 111.2310
L51.9071 111.7548
" />
<path d="M52.1452 111.8501
L52.9071 111.8501
" />
<path d="M53.1452 111.7548
L53.1452 110.7548
" />
<path d="M53.1452 110.7548
L53.4786 111.4691
" />
<path d="M53.4786 111.4691
L53.8119 110.7548
" />
<path d="M53.8119 110.7548
L53.8119 111.7548
" />
<path d="M54.1929 110.7548
L54.8119 110.7548
" />
<path d="M54.8119 110.7548
L54.4786 111.1358
" />
<path d="M54.4786 111.1358
L54.6214 111.1358
" />
<path d="M54.6214 111.1358
L54.7167 111.1834
" />
<path d="M54.7167 111.1834
L54.7643 111.2310
" />
<path d="M54.7643 111.2310
L54.8119 111.3262
" />
<path d="M54.8119 111.3262
L54.8119 111.5643
" />
<path d="M54.8119 111.5643
L54.7643 111.6596
" />
<path d="M54.7643 111.6596
L54.7167 111.7072
" />
<path d="M54.7167 111.7072
L54.6214 111.7548
" />
<path d="M54.6214 111.7548
L54.3357 111.7548
" />
<path d="M54.3357 111.7548
L54.2405 111.7072
" />
<path d="M54.2405 111.7072
L54.1929 111.6596
" />
</g><text x="87.1500" y="111.8000"
textLength="8.1548" font-size="1.3333" lengthAdjust="spacingAndGlyphs"
text-anchor="middle" opacity="0">3.2mm_M3</text>
<g class="stroked-text"><desc>3.2mm_M3</desc>
<path d="M83.3405 110.7548
L83.9595 110.7548
" />
<path d="M83.9595 110.7548
L83.6262 111.1358
" />
<path d="M83.6262 111.1358
L83.7690 111.1358
" />
<path d="M83.7690 111.1358
L83.8643 111.1834
" />
<path d="M83.8643 111.1834
L83.9119 111.2310
" />
<path d="M83.9119 111.2310
L83.9595 111.3262
" />
<path d="M83.9595 111.3262
L83.9595 111.5643
" />
<path d="M83.9595 111.5643
L83.9119 111.6596
" />
<path d="M83.9119 111.6596
L83.8643 111.7072
" />
<path d="M83.8643 111.7072
L83.7690 111.7548
" />
<path d="M83.7690 111.7548
L83.4833 111.7548
" />
<path d="M83.4833 111.7548
L83.3881 111.7072
" />
<path d="M83.3881 111.7072
L83.3405 111.6596
" />
<path d="M84.3881 111.6596
L84.4357 111.7072
" />
<path d="M84.4357 111.7072
L84.3881 111.7548
" />
<path d="M84.3881 111.7548
L84.3405 111.7072
" />
<path d="M84.3405 111.7072
L84.3881 111.6596
" />
<path d="M84.3881 111.6596
L84.3881 111.7548
" />
<path d="M84.8167 110.8501
L84.8643 110.8024
" />
<path d="M84.8643 110.8024
L84.9595 110.7548
" />
<path d="M84.9595 110.7548
L85.1976 110.7548
" />
<path d="M85.1976 110.7548
L85.2929 110.8024
" />
<path d="M85.2929 110.8024
L85.3405 110.8501
" />
<path d="M85.3405 110.8501
L85.3881 110.9453
" />
<path d="M85.3881 110.9453
L85.3881 111.0405
" />
<path d="M85.3881 111.0405
L85.3405 111.1834
" />
<path d="M85.3405 111.1834
L84.7690 111.7548
" />
<path d="M84.7690 111.7548
L85.3881 111.7548
" />
<path d="M85.8167 111.7548
L85.8167 111.0882
" />
<path d="M85.8167 111.1834
L85.8643 111.1358
" />
<path d="M85.8643 111.1358
L85.9595 111.0882
" />
<path d="M85.9595 111.0882
L86.1024 111.0882
" />
<path d="M86.1024 111.0882
L86.1976 111.1358
" />
<path d="M86.1976 111.1358
L86.2452 111.2310
" />
<path d="M86.2452 111.2310
L86.2452 111.7548
" />
<path d="M86.2452 111.2310
L86.2929 111.1358
" />
<path d="M86.2929 111.1358
L86.3881 111.0882
" />
<path d="M86.3881 111.0882
L86.5310 111.0882
" />
<path d="M86.5310 111.0882
L86.6262 111.1358
" />
<path d="M86.6262 111.1358
L86.6738 111.2310
" />
<path d="M86.6738 111.2310
L86.6738 111.7548
" />
<path d="M87.1500 111.7548
L87.1500 111.0882
" />
<path d="M87.1500 111.1834
L87.1976 111.1358
" />
<path d="M87.1976 111.1358
L87.2929 111.0882
" />
<path d="M87.2929 111.0882
L87.4357 111.0882
" />
<path d="M87.4357 111.0882
L87.5310 111.1358
" />
<path d="M87.5310 111.1358
L87.5786 111.2310
" />
<path d="M87.5786 111.2310
L87.5786 111.7548
" />
<path d="M87.5786 111.2310
L87.6262 111.1358
" />
<path d="M87.6262 111.1358
L87.7214 111.0882
" />
<path d="M87.7214 111.0882
L87.8643 111.0882
" />
<path d="M87.8643 111.0882
L87.9595 111.1358
" />
<path d="M87.9595 111.1358
L88.0071 111.2310
" />
<path d="M88.0071 111.2310
L88.0071 111.7548
" />
<path d="M88.2452 111.8501
L89.0071 111.8501
" />
<path d="M89.2452 111.7548
L89.2452 110.7548
" />
<path d="M89.2452 110.7548
L89.5786 111.4691
" />
<path d="M89.5786 111.4691
L89.9119 110.7548
" />
<path d="M89.9119 110.7548
L89.9119 111.7548
" />
<path d="M90.2929 110.7548
L90.9119 110.7548
" />
<path d="M90.9119 110.7548
L90.5786 111.1358
" />
<path d="M90.5786 111.1358
L90.7214 111.1358
" />
<path d="M90.7214 111.1358
L90.8167 111.1834
" />
<path d="M90.8167 111.1834
L90.8643 111.2310
" />
<path d="M90.8643 111.2310
L90.9119 111.3262
" />
<path d="M90.9119 111.3262
L90.9119 111.5643
" />
<path d="M90.9119 111.5643
L90.8643 111.6596
" />
<path d="M90.8643 111.6596
L90.8167 111.7072
" />
<path d="M90.8167 111.7072
L90.7214 111.7548
" />
<path d="M90.7214 111.7548
L90.4357 111.7548
" />
<path d="M90.4357 111.7548
L90.3405 111.7072
" />
<path d="M90.3405 111.7072
L90.2929 111.6596
" />
</g><text x="51.0500" y="107.8000"
textLength="8.1548" font-size="1.3333" lengthAdjust="spacingAndGlyphs"
text-anchor="middle" opacity="0">3.2mm_M3</text>
<g class="stroked-text"><desc>3.2mm_M3</desc>
<path d="M47.2405 106.7548
L47.8595 106.7548
" />
<path d="M47.8595 106.7548
L47.5262 107.1358
" />
<path d="M47.5262 107.1358
L47.6690 107.1358
" />
<path d="M47.6690 107.1358
L47.7643 107.1834
" />
<path d="M47.7643 107.1834
L47.8119 107.2310
" />
<path d="M47.8119 107.2310
L47.8595 107.3262
" />
<path d="M47.8595 107.3262
L47.8595 107.5643
" />
<path d="M47.8595 107.5643
L47.8119 107.6596
" />
<path d="M47.8119 107.6596
L47.7643 107.7072
" />
<path d="M47.7643 107.7072
L47.6690 107.7548
" />
<path d="M47.6690 107.7548
L47.3833 107.7548
" />
<path d="M47.3833 107.7548
L47.2881 107.7072
" />
<path d="M47.2881 107.7072
L47.2405 107.6596
" />
<path d="M48.2881 107.6596
L48.3357 107.7072
" />
<path d="M48.3357 107.7072
L48.2881 107.7548
" />
<path d="M48.2881 107.7548
L48.2405 107.7072
" />
<path d="M48.2405 107.7072
L48.2881 107.6596
" />
<path d="M48.2881 107.6596
L48.2881 107.7548
" />
<path d="M48.7167 106.8501
L48.7643 106.8024
" />
<path d="M48.7643 106.8024
L48.8595 106.7548
" />
<path d="M48.8595 106.7548
L49.0976 106.7548
" />
<path d="M49.0976 106.7548
L49.1929 106.8024
" />
<path d="M49.1929 106.8024
L49.2405 106.8501
" />
<path d="M49.2405 106.8501
L49.2881 106.9453
" />
<path d="M49.2881 106.9453
L49.2881 107.0405
" />
<path d="M49.2881 107.0405
L49.2405 107.1834
" />
<path d="M49.2405 107.1834
L48.6690 107.7548
" />
<path d="M48.6690 107.7548
L49.2881 107.7548
" />
<path d="M49.7167 107.7548
L49.7167 107.0882
" />
<path d="M49.7167 107.1834
L49.7643 107.1358
" />
<path d="M49.7643 107.1358
L49.8595 107.0882
" />
<path d="M49.8595 107.0882
L50.0024 107.0882
" />
<path d="M50.0024 107.0882
L50.0976 107.1358
" />
<path d="M50.0976 107.1358
L50.1452 107.2310
" />
<path d="M50.1452 107.2310
L50.1452 107.7548
" />
<path d="M50.1452 107.2310
L50.1929 107.1358
" />
<path d="M50.1929 107.1358
L50.2881 107.0882
" />
<path d="M50.2881 107.0882
L50.4310 107.0882
" />
<path d="M50.4310 107.0882
L50.5262 107.1358
" />
<path d="M50.5262 107.1358
L50.5738 107.2310
" />
<path d="M50.5738 107.2310
L50.5738 107.7548
" />
<path d="M51.0500 107.7548
L51.0500 107.0882
" />
<path d="M51.0500 107.1834
L51.0976 107.1358
" />
<path d="M51.0976 107.1358
L51.1929 107.0882
" />
<path d="M51.1929 107.0882
L51.3357 107.0882
" />
<path d="M51.3357 107.0882
L51.4310 107.1358
" />
<path d="M51.4310 107.1358
L51.4786 107.2310
" />
<path d="M51.4786 107.2310
L51.4786 107.7548
" />
<path d="M51.4786 107.2310
L51.5262 107.1358
" />
<path d="M51.5262 107.1358
L51.6214 107.0882
" />
<path d="M51.6214 107.0882
L51.7643 107.0882
" />
<path d="M51.7643 107.0882
L51.8595 107.1358
" />
<path d="M51.8595 107.1358
L51.9071 107.2310
" />
<path d="M51.9071 107.2310
L51.9071 107.7548
" />
<path d="M52.1452 107.8501
L52.9071 107.8501
" />
<path d="M53.1452 107.7548
L53.1452 106.7548
" />
<path d="M53.1452 106.7548
L53.4786 107.4691
" />
<path d="M53.4786 107.4691
L53.8119 106.7548
" />
<path d="M53.8119 106.7548
L53.8119 107.7548
" />
<path d="M54.1929 106.7548
L54.8119 106.7548
" />
<path d="M54.8119 106.7548
L54.4786 107.1358
" />
<path d="M54.4786 107.1358
L54.6214 107.1358
" />
<path d="M54.6214 107.1358
L54.7167 107.1834
" />
<path d="M54.7167 107.1834
L54.7643 107.2310
" />
<path d="M54.7643 107.2310
L54.8119 107.3262
" />
<path d="M54.8119 107.3262
L54.8119 107.5643
" />
<path d="M54.8119 107.5643
L54.7643 107.6596
" />
<path d="M54.7643 107.6596
L54.7167 107.7072
" />
<path d="M54.7167 107.7072
L54.6214 107.7548
" />
<path d="M54.6214 107.7548
L54.3357 107.7548
" />
<path d="M54.3357 107.7548
L54.2405 107.7072
" />
<path d="M54.2405 107.7072
L54.1929 107.6596
" />
</g><g >
</g>
<g >
</g>
<g >
</g>
<g >
</g>
<g >
</g>
<g >
</g>
<g >
</g>
<g >
</g>
<g >
</g>
<g >
</g>
<g >
</g>
<g >
</g>
<g >
</g>
<g >
</g>
</g>
<g style="fill:#333333; fill-opacity:0.0; 
stroke:#333333; stroke-width:0.1500; stroke-opacity:1; 
stroke-linecap:round; stroke-linejoin:round;">
</g>
<g style="fill:#333333; fill-opacity:0.0; 
stroke:#333333; stroke-width:0.0500; stroke-opacity:1; 
stroke-linecap:round; stroke-linejoin:round;">
<path d="M104.9810 209.5840
L104.8540 210.2190
" />
<path d="M104.9810 206.5106
L104.9810 209.5840
" />
<path d="M104.8540 210.2190
L104.6000 210.6000
" />
<path d="M104.6000 210.6000
L104.0920 211.1080
" />
<path d="M104.0920 211.1080
L103.4570 211.3620
" />
<path d="M103.4570 211.3620
L102.9490 211.4890
" />
<path d="M102.9490 211.4890
L101.9330 211.6160
" />
<path d="M101.1710 211.6160
L101.9330 211.6160
" />
<path d="M101.1710 211.6160
L100.4090 211.6160
" />
<path d="M100.4090 211.6160
L99.5200 211.4890
" />
<path d="M99.5200 211.4890
L98.8850 211.3620
" />
<path d="M98.8850 211.3620
L98.2500 211.1080
" />
<path d="M98.2500 211.1080
L97.7420 210.6000
" />
<path d="M97.7420 210.6000
L97.4880 210.2190
" />
<path d="M97.4880 210.2190
L97.3610 209.5840
" />
<path d="M97.3610 206.5106
L104.9810 206.5106
" />
<path d="M97.3610 206.5106
L97.3610 209.5840
" />
<path d="M39.7810 209.5840
L39.6540 210.2190
" />
<path d="M39.7810 206.5106
L39.7810 209.5840
" />
<path d="M39.6540 210.2190
L39.4000 210.6000
" />
<path d="M39.4000 210.6000
L38.8920 211.1080
" />
<path d="M38.8920 211.1080
L38.2570 211.3620
" />
<path d="M38.2570 211.3620
L37.7490 211.4890
" />
<path d="M37.7490 211.4890
L36.7330 211.6160
" />
<path d="M35.9710 211.6160
L36.7330 211.6160
" />
<path d="M35.9710 211.6160
L35.2090 211.6160
" />
<path d="M35.2090 211.6160
L34.3200 211.4890
" />
<path d="M34.3200 211.4890
L33.6850 211.3620
" />
<path d="M33.6850 211.3620
L33.0500 211.1080
" />
<path d="M33.0500 211.1080
L32.5420 210.6000
" />
<path d="M32.5420 210.6000
L32.2880 210.2190
" />
<path d="M32.2880 210.2190
L32.1610 209.5840
" />
<path d="M32.1610 206.5106
L39.7810 206.5106
" />
<path d="M32.1610 206.5106
L32.1610 209.5840
" />
</g>
<g style="fill:#333333; fill-opacity:0.0; 
stroke:#333333; stroke-width:0.1000; stroke-opacity:1; 
stroke-linecap:round; stroke-linejoin:round;">
<path d="M7.3622 17.8667
L16.1000 51.2500
" />
<path d="M7.3622 201.0333
L16.1000 167.6500
" />
<path d="M15.7059 80.3609
L18.1000 80.5500
" />
<path d="M15.7059 138.5391
L18.1000 138.3500
" />
<path d="M16.1000 51.2500
L14.4000 78.7513
" />
<path d="M16.1000 167.6500
L14.4000 140.1487
" />
<path d="M18.1000 80.5500
L18.4000 86.7500
" />
<path d="M18.1000 138.3500
L18.4000 132.1500
" />
<path d="M19.5000 87.8500
L22.7000 87.7500
" />
<path d="M19.5000 131.0500
L22.7000 131.1500
" />
<path d="M22.5475 6.9468
L23.2000 12.2500
" />
<path d="M22.5475 211.9532
L23.2000 206.6500
" />
<path d="M22.7000 87.7500
L23.3897 93.0444
" />
<path d="M22.7000 131.1500
L23.3897 125.8556
" />
<path d="M23.2000 12.2500
L8.2000 16.4500
" />
<path d="M23.2000 206.6500
L8.2000 202.4500
" />
<path d="M25.1000 94.4500
L28.5000 94.0500
" />
<path d="M25.1000 124.4500
L28.5000 124.8500
" />
<path d="M28.5000 94.0500
L30.0723 100.4355
" />
<path d="M28.5000 124.8500
L30.0723 118.4645
" />
<path d="M31.9000 101.5500
L35.6000 100.7500
" />
<path d="M31.9000 117.3500
L35.6000 118.1500
" />
<path d="M35.6000 100.7500
L35.6000 107.0500
" />
<path d="M35.6000 118.1500
L35.6000 111.8500
" />
<path d="M40.0000 108.4500
L37.0000 108.4500
" />
<path d="M40.0000 110.4500
L37.0000 110.4500
" />
<path d="M44.0000 108.4500
L58.1000 108.4500
" />
<path d="M44.0000 110.4500
L58.1000 110.4500
" />
<path d="M48.9000 1.4500
L48.9000 2.4500
" />
<path d="M48.9000 2.4500
L23.6492 5.7954
" />
<path d="M48.9000 216.4500
L23.6492 213.1046
" />
<path d="M48.9000 217.4500
L48.9000 216.4500
" />
<path d="M50.3000 0.0500
L94.0000 0.0500
" />
<path d="M50.3000 218.8500
L94.0000 218.8500
" />
<path d="M62.1000 108.4500
L76.1000 108.4500
" />
<path d="M62.1000 110.4500
L76.1000 110.4500
" />
<path d="M80.1000 108.4500
L94.2000 108.4500
" />
<path d="M80.1000 110.4500
L94.2000 110.4500
" />
<path d="M95.4000 1.4500
L95.4000 2.7500
" />
<path d="M95.4000 2.7500
L128.3905 7.8467
" />
<path d="M95.4000 216.1500
L128.3905 211.0533
" />
<path d="M95.4000 217.4500
L95.4000 216.1500
" />
<path d="M101.2000 108.4500
L98.2000 108.4500
" />
<path d="M101.2000 110.4500
L98.2000 110.4500
" />
<path d="M102.6000 100.7500
L102.6000 107.0500
" />
<path d="M102.6000 118.1500
L102.6000 111.8500
" />
<path d="M106.3000 101.5500
L102.6000 100.7500
" />
<path d="M106.3000 117.3500
L102.6000 118.1500
" />
<path d="M109.7000 94.0500
L108.1277 100.4355
" />
<path d="M109.7000 124.8500
L108.1277 118.4645
" />
<path d="M113.1000 94.4500
L109.7000 94.0500
" />
<path d="M113.1000 124.4500
L109.7000 124.8500
" />
<path d="M115.5000 87.7500
L114.8103 93.0444
" />
<path d="M115.5000 131.1500
L114.8103 125.8556
" />
<path d="M118.7000 87.8500
L115.5000 87.7500
" />
<path d="M118.7000 131.0500
L115.5000 131.1500
" />
<path d="M120.1000 80.5500
L119.8000 86.7500
" />
<path d="M120.1000 138.3500
L119.8000 132.1500
" />
<path d="M122.1000 51.2500
L123.8000 78.7513
" />
<path d="M122.1000 167.6500
L123.8000 140.1487
" />
<path d="M122.4941 80.3609
L120.1000 80.5500
" />
<path d="M122.4941 138.5391
L120.1000 138.3500
" />
<path d="M129.7933 9.8305
L122.1000 51.2500
" />
<path d="M129.7933 209.0695
L122.1000 167.6500
" />
<path d="M8.2000 16.4500 A1.1156 1.1156 0.0 0 0 7.3622 17.8667" />
<path d="M7.3622 201.0333 A1.1156 1.1156 0.0 0 0 8.2000 202.4500" />
<path d="M15.7059 138.5391 A1.4140 1.4140 0.0 0 0 14.4000 140.1487" />
<path d="M14.4000 78.7513 A1.4140 1.4140 0.0 0 0 15.7059 80.3609" />
<path d="M19.5000 131.0500 A1.1000 1.1000 0.0 0 0 18.4000 132.1500" />
<path d="M18.4000 86.7500 A1.1000 1.1000 0.0 0 0 19.5000 87.8500" />
<path d="M23.6492 5.7954 A1.1368 1.1368 0.0 0 0 22.5475 6.9468" />
<path d="M25.1000 124.4500 A1.5133 1.5133 0.0 0 0 23.3900 125.8500" />
<path d="M22.5475 211.9532 A1.1368 1.1368 0.0 0 0 23.6492 213.1046" />
<path d="M23.3900 93.0500 A1.5133 1.5133 0.0 0 0 25.1000 94.4500" />
<path d="M31.9000 117.3500 A1.4560 1.4560 0.0 0 0 30.0723 118.4645" />
<path d="M30.0723 100.4355 A1.4560 1.4560 0.0 0 0 31.9000 101.5500" />
<path d="M37.0000 110.4500 A1.4000 1.4000 0.0 0 0 35.6000 111.8500" />
<path d="M35.6000 107.0500 A1.4000 1.4000 0.0 0 0 37.0000 108.4500" />
<path d="M40.0000 110.4500 A1.0000 1.0000 0.0 0 0 40.0000 108.4500" />
<path d="M44.0000 108.4500 A1.0000 1.0000 0.0 0 0 44.0000 110.4500" />
<path d="M50.3000 0.0500 A1.4000 1.4000 0.0 0 0 48.9000 1.4500" />
<path d="M48.9000 217.4500 A1.4000 1.4000 0.0 0 0 50.3000 218.8500" />
<path d="M58.1000 110.4500 A1.0000 1.0000 0.0 0 0 58.1000 108.4500" />
<path d="M62.1000 108.4500 A1.0000 1.0000 0.0 0 0 62.1000 110.4500" />
<path d="M76.1000 110.4500 A1.0000 1.0000 0.0 0 0 76.1000 108.4500" />
<path d="M80.1000 108.4500 A1.0000 1.0000 0.0 0 0 80.1000 110.4500" />
<path d="M95.4000 1.4500 A1.4000 1.4000 0.0 0 0 94.0000 0.0500" />
<path d="M94.2000 110.4500 A1.0000 1.0000 0.0 0 0 94.2000 108.4500" />
<path d="M94.0000 218.8500 A1.4000 1.4000 0.0 0 0 95.4000 217.4500" />
<path d="M98.2000 108.4500 A1.0000 1.0000 0.0 0 0 98.2000 110.4500" />
<path d="M102.6000 111.8500 A1.4000 1.4000 0.0 0 0 101.2000 110.4500" />
<path d="M101.2000 108.4500 A1.4000 1.4000 0.0 0 0 102.6000 107.0500" />
<path d="M108.1277 118.4645 A1.4560 1.4560 0.0 0 0 106.3000 117.3500" />
<path d="M106.3000 101.5500 A1.4560 1.4560 0.0 0 0 108.1277 100.4355" />
<path d="M114.8103 125.8556 A1.5133 1.5133 0.0 0 0 113.1000 124.4500" />
<path d="M113.1000 94.4500 A1.5133 1.5133 0.0 0 0 114.8103 93.0444" />
<path d="M119.8000 132.1500 A1.1000 1.1000 0.0 0 0 118.7000 131.0500" />
<path d="M118.7000 87.8500 A1.1000 1.1000 0.0 0 0 119.8000 86.7500" />
<path d="M123.8000 140.1487 A1.4140 1.4140 0.0 0 0 122.4941 138.5391" />
<path d="M122.4941 80.3609 A1.4140 1.4140 0.0 0 0 123.8000 78.7513" />
<path d="M129.7933 9.8305 A1.7263 1.7263 0.0 0 0 128.3905 7.8467" />
<path d="M128.3905 211.0533 A1.7263 1.7263 0.0 0 0 129.7933 209.0695" />
<g >
</g>
<g >
</g>
<g >
</g>
<g >
</g>
<g >
</g>
<g >
</g>
<g >
</g>
<g >
</g>
<g >
</g>
<g >
</g>
<g >
</g>
<g >
</g>
<g >
</g>
<g >
</g>
</g> 
</svg>
