G04 #@! TF.GenerationSoftware,KiCad,Pcbnew,7.0.10*
G04 #@! TF.CreationDate,2024-05-06T11:46:52-05:00*
G04 #@! TF.ProjectId,cowboys_vs_dinos,636f7762-6f79-4735-9f76-735f64696e6f,2*
G04 #@! TF.SameCoordinates,Original*
G04 #@! TF.FileFunction,Profile,NP*
%FSLAX46Y46*%
G04 Gerber Fmt 4.6, Leading zero omitted, Abs format (unit mm)*
G04 Created by KiCad (PCBNEW 7.0.10) date 2024-05-06 11:46:52*
%MOMM*%
%LPD*%
G01*
G04 APERTURE LIST*
G04 #@! TA.AperFunction,Profile*
%ADD10C,0.050000*%
G04 #@! TD*
G04 #@! TA.AperFunction,Profile*
%ADD11C,0.100000*%
G04 #@! TD*
G04 APERTURE END LIST*
D10*
X78831000Y-222284000D02*
X78704000Y-222919000D01*
X78831000Y-219210600D02*
X78831000Y-222284000D01*
X78704000Y-222919000D02*
X78450000Y-223300000D01*
X78450000Y-223300000D02*
X77942000Y-223808000D01*
X77942000Y-223808000D02*
X77307000Y-224062000D01*
X77307000Y-224062000D02*
X76799000Y-224189000D01*
X76799000Y-224189000D02*
X75783000Y-224316000D01*
X75021000Y-224316000D02*
X75783000Y-224316000D01*
X75021000Y-224316000D02*
X74259000Y-224316000D01*
X74259000Y-224316000D02*
X73370000Y-224189000D01*
X73370000Y-224189000D02*
X72735000Y-224062000D01*
X72735000Y-224062000D02*
X72100000Y-223808000D01*
X72100000Y-223808000D02*
X71592000Y-223300000D01*
X71592000Y-223300000D02*
X71338000Y-222919000D01*
X71338000Y-222919000D02*
X71211000Y-222284000D01*
X71211000Y-219210600D02*
X78831000Y-219210600D01*
X71211000Y-219210600D02*
X71211000Y-222284000D01*
D11*
X46412208Y-30566709D02*
X55150000Y-63950000D01*
X46412208Y-213733291D02*
X55150000Y-180350000D01*
X54755940Y-93060896D02*
X57150000Y-93250000D01*
X54755940Y-151239104D02*
X57150000Y-151050000D01*
X55150000Y-63950000D02*
X53450000Y-91451314D01*
X55150000Y-180350000D02*
X53450000Y-152848686D01*
X57150000Y-93250000D02*
X57450000Y-99450000D01*
X57150000Y-151050000D02*
X57450000Y-144850000D01*
X58550000Y-100550000D02*
X61750000Y-100450000D01*
X58550000Y-143750000D02*
X61750000Y-143850000D01*
X61597495Y-19646785D02*
X62250000Y-24950000D01*
X61597495Y-224653215D02*
X62250000Y-219350000D01*
X61750000Y-100450000D02*
X62439673Y-105744395D01*
X61750000Y-143850000D02*
X62439673Y-138555605D01*
X62250000Y-24950000D02*
X47250000Y-29150000D01*
X62250000Y-219350000D02*
X47250000Y-215150000D01*
X64150000Y-107149999D02*
X67550000Y-106750000D01*
X64150000Y-137150001D02*
X67550000Y-137550000D01*
X67550000Y-106750000D02*
X69122254Y-113135549D01*
X67550000Y-137550000D02*
X69122254Y-131164451D01*
X70950000Y-114249999D02*
X74650000Y-113450000D01*
X70950000Y-130050001D02*
X74650000Y-130850000D01*
X74650000Y-113450000D02*
X74650000Y-119750000D01*
X74650000Y-130850000D02*
X74650000Y-124550000D01*
X79050000Y-121150000D02*
X76050000Y-121150000D01*
X79050000Y-123150000D02*
X76050000Y-123150000D01*
X83050000Y-121150000D02*
X97150000Y-121150000D01*
X83050000Y-123150000D02*
X97150000Y-123150000D01*
X87950000Y-14150000D02*
X87950000Y-15150000D01*
X87950000Y-15150000D02*
X62699211Y-18495400D01*
X87950000Y-229150000D02*
X62699211Y-225804600D01*
X87950000Y-230150000D02*
X87950000Y-229150000D01*
X89350000Y-12750000D02*
X133050000Y-12750000D01*
X89350000Y-231550000D02*
X133050000Y-231550000D01*
X101150000Y-121150000D02*
X115150000Y-121150000D01*
X101150000Y-123150000D02*
X115150000Y-123150000D01*
X119150000Y-121150000D02*
X133250000Y-121150000D01*
X119150000Y-123150000D02*
X133250000Y-123150000D01*
X134450000Y-14150000D02*
X134450000Y-15450000D01*
X134450000Y-15450000D02*
X167440517Y-20546673D01*
X134450000Y-228850000D02*
X167440517Y-223753327D01*
X134450000Y-230150000D02*
X134450000Y-228850000D01*
X140250000Y-121150000D02*
X137250000Y-121150000D01*
X140250000Y-123150000D02*
X137250000Y-123150000D01*
X141650000Y-113450000D02*
X141650000Y-119750000D01*
X141650000Y-130850000D02*
X141650000Y-124550000D01*
X145350000Y-114249999D02*
X141650000Y-113450000D01*
X145350000Y-130050001D02*
X141650000Y-130850000D01*
X148750000Y-106750000D02*
X147177746Y-113135549D01*
X148750000Y-137550000D02*
X147177746Y-131164451D01*
X152150000Y-107149999D02*
X148750000Y-106750000D01*
X152150000Y-137150001D02*
X148750000Y-137550000D01*
X154550000Y-100450000D02*
X153860327Y-105744395D01*
X154550000Y-143850000D02*
X153860327Y-138555605D01*
X157750000Y-100550000D02*
X154550000Y-100450000D01*
X157750000Y-143750000D02*
X154550000Y-143850000D01*
X159150000Y-93250000D02*
X158850000Y-99450000D01*
X159150000Y-151050000D02*
X158850000Y-144850000D01*
X161150000Y-63950000D02*
X162850000Y-91451314D01*
X161150000Y-180350000D02*
X162850000Y-152848686D01*
X161544060Y-93060896D02*
X159150000Y-93250000D01*
X161544060Y-151239104D02*
X159150000Y-151050000D01*
X168843296Y-22530469D02*
X161150000Y-63950000D01*
X168843296Y-221769531D02*
X161150000Y-180350000D01*
X47250000Y-29150000D02*
G75*
G03*
X46412209Y-30566709I229453J-1091765D01*
G01*
X46412209Y-213733291D02*
G75*
G03*
X47250000Y-215150000I1067244J-324944D01*
G01*
X54755940Y-151239105D02*
G75*
G03*
X53450001Y-152848686I94063J-1410898D01*
G01*
X53450001Y-91451314D02*
G75*
G03*
X54755940Y-93060895I1400001J-198684D01*
G01*
X58550000Y-143750000D02*
G75*
G03*
X57450000Y-144850000I2J-1100002D01*
G01*
X57450000Y-99450000D02*
G75*
G03*
X58550000Y-100550000I1100002J2D01*
G01*
X62699211Y-18495402D02*
G75*
G03*
X61597496Y-19646785I34970J-1136248D01*
G01*
X64150000Y-137150002D02*
G75*
G03*
X62440032Y-138550024I-200000J-1499999D01*
G01*
X61597495Y-224653215D02*
G75*
G03*
X62699211Y-225804599I1136686J-15135D01*
G01*
X62440033Y-105749976D02*
G75*
G03*
X64150000Y-107149997I1509967J99977D01*
G01*
X70950000Y-130050002D02*
G75*
G03*
X69122255Y-131164451I-400000J-1399998D01*
G01*
X69122255Y-113135549D02*
G75*
G03*
X70950000Y-114249998I1427746J285550D01*
G01*
X76050000Y-123150000D02*
G75*
G03*
X74650000Y-124550000I2J-1400002D01*
G01*
X74650000Y-119750000D02*
G75*
G03*
X76050000Y-121150000I1400002J2D01*
G01*
X79050000Y-123150000D02*
G75*
G03*
X79050000Y-121150000I0J1000000D01*
G01*
X83050000Y-121150000D02*
G75*
G03*
X83050000Y-123150000I0J-1000000D01*
G01*
X89350000Y-12750000D02*
G75*
G03*
X87950000Y-14150000I2J-1400002D01*
G01*
X87950000Y-230150000D02*
G75*
G03*
X89350000Y-231550000I1400002J2D01*
G01*
X97150000Y-123150000D02*
G75*
G03*
X97150000Y-121150000I0J1000000D01*
G01*
X101150000Y-121150000D02*
G75*
G03*
X101150000Y-123150000I0J-1000000D01*
G01*
X115150000Y-123150000D02*
G75*
G03*
X115150000Y-121150000I0J1000000D01*
G01*
X119150000Y-121150000D02*
G75*
G03*
X119150000Y-123150000I0J-1000000D01*
G01*
X134450000Y-14150000D02*
G75*
G03*
X133050000Y-12750000I-1400000J0D01*
G01*
X133250000Y-123150000D02*
G75*
G03*
X133250000Y-121150000I0J1000000D01*
G01*
X133050000Y-231550000D02*
G75*
G03*
X134450000Y-230150000I0J1400000D01*
G01*
X137250000Y-121150000D02*
G75*
G03*
X137250000Y-123150000I0J-1000000D01*
G01*
X141650000Y-124550000D02*
G75*
G03*
X140250000Y-123150000I-1400000J0D01*
G01*
X140250000Y-121150000D02*
G75*
G03*
X141650000Y-119750000I0J1400000D01*
G01*
X147177746Y-131164451D02*
G75*
G03*
X145350000Y-130050001I-1427746J-285549D01*
G01*
X145350000Y-114249998D02*
G75*
G03*
X147177745Y-113135549I400000J1399998D01*
G01*
X153860326Y-138555605D02*
G75*
G03*
X152150000Y-137150002I-1510326J-94395D01*
G01*
X152150000Y-107149998D02*
G75*
G03*
X153860326Y-105744395I200000J1499998D01*
G01*
X158850000Y-144850000D02*
G75*
G03*
X157750000Y-143750000I-1100000J0D01*
G01*
X157750000Y-100550000D02*
G75*
G03*
X158850000Y-99450000I0J1100000D01*
G01*
X162849999Y-152848686D02*
G75*
G03*
X161544060Y-151239105I-1399999J198686D01*
G01*
X161544060Y-93060896D02*
G75*
G03*
X162850000Y-91451314I-94060J1410896D01*
G01*
X168843314Y-22530472D02*
G75*
G03*
X167440517Y-20546673I-1702814J283772D01*
G01*
X167440514Y-223753308D02*
G75*
G03*
X168843295Y-221769531I-300014J1700008D01*
G01*
D10*
X144031000Y-222284000D02*
X143904000Y-222919000D01*
X144031000Y-219210600D02*
X144031000Y-222284000D01*
X143904000Y-222919000D02*
X143650000Y-223300000D01*
X143650000Y-223300000D02*
X143142000Y-223808000D01*
X143142000Y-223808000D02*
X142507000Y-224062000D01*
X142507000Y-224062000D02*
X141999000Y-224189000D01*
X141999000Y-224189000D02*
X140983000Y-224316000D01*
X140221000Y-224316000D02*
X140983000Y-224316000D01*
X140221000Y-224316000D02*
X139459000Y-224316000D01*
X139459000Y-224316000D02*
X138570000Y-224189000D01*
X138570000Y-224189000D02*
X137935000Y-224062000D01*
X137935000Y-224062000D02*
X137300000Y-223808000D01*
X137300000Y-223808000D02*
X136792000Y-223300000D01*
X136792000Y-223300000D02*
X136538000Y-222919000D01*
X136538000Y-222919000D02*
X136411000Y-222284000D01*
X136411000Y-219210600D02*
X144031000Y-219210600D01*
X136411000Y-219210600D02*
X136411000Y-222284000D01*
M02*
