M48
INCH,TZ
T1C0.0276
T2C0.0315
T3C0.0354
T4C0.0394
T5C0.0402
%
G90
G05
T1
X24409Y-12780
X24409Y-15780
X27240Y-17815
X29724Y-9224
X29724Y-12224
X30240Y-17815
X32138Y-11740
X32138Y-14740
X33791Y-35728
X33791Y-38728
X40846Y-7106
X40846Y-10106
X46488Y-7106
X46488Y-10106
X53937Y-7406
X53937Y-10406
T2
X33280Y-16483
X33976Y-15787
X34843Y-29646
X35475Y-30400
X41913Y-17807
X42898Y-17807
X52240Y-30484
X53046Y-29920
X53413Y-44363
X54225Y-15288
X54382Y-44534
X54921Y-15984
T3
X22638Y-13567
X22638Y-14567
X28150Y-9665
X28150Y-10665
X30835Y-43376
X32835Y-43376
X33649Y-19851
X34055Y-11463
X34055Y-12463
X34259Y-19629
X34870Y-19407
X35480Y-19185
X36126Y-28384
X36544Y-28882
X36961Y-29380
X37379Y-29877
X37992Y-7268
X37992Y-8268
X41470Y-46163
X43470Y-46163
X43587Y-18898
X44236Y-18898
X44886Y-18898
X45535Y-18898
X50497Y-29533
X50690Y-9969
X51029Y-29160
X51561Y-28787
X51630Y-10311
X51772Y-7535
X51772Y-8535
X52093Y-28415
X52846Y-19839
X53470Y-20018
X54094Y-20197
X54608Y-42492
X54719Y-20376
X55247Y-42604
X55887Y-42717
X56527Y-42830
T4
X30827Y-45157
X31811Y-45157
X32795Y-45157
X33583Y-40591
X33756Y-41575
X50906Y-35732
X51079Y-36717
T5
X23461Y-22518
X23461Y-23518
X23461Y-24518
X23461Y-25518
X23461Y-26518
X23461Y-27518
X23461Y-28518
X23461Y-29518
X23461Y-30518
X23461Y-31518
X23461Y-32518
X23461Y-33518
X23461Y-34518
X32461Y-22518
X32461Y-23518
X32461Y-24518
X32461Y-25518
X32461Y-26518
X32461Y-27518
X32461Y-28518
X32461Y-29518
X32461Y-30518
X32461Y-31518
X32461Y-32518
X32461Y-33518
X32461Y-34518
M30
