G04 #@! TF.GenerationSoftware,KiCad,Pcbnew,7.0.10*
G04 #@! TF.CreationDate,2024-05-06T11:46:39-05:00*
G04 #@! TF.ProjectId,cowboys_vs_dinos,636f7762-6f79-4735-9f76-735f64696e6f,2*
G04 #@! TF.SameCoordinates,Original*
G04 #@! TF.FileFunction,Copper,L1,Top*
G04 #@! TF.FilePolarity,Positive*
%FSLAX46Y46*%
G04 Gerber Fmt 4.6, Leading zero omitted, Abs format (unit mm)*
G04 Created by KiCad (PCBNEW 7.0.10) date 2024-05-06 11:46:39*
%MOMM*%
%LPD*%
G01*
G04 APERTURE LIST*
G04 Aperture macros list*
%AMHorizOval*
0 Thick line with rounded ends*
0 $1 width*
0 $2 $3 position (X,Y) of the first rounded end (center of the circle)*
0 $4 $5 position (X,Y) of the second rounded end (center of the circle)*
0 Add line between two ends*
20,1,$1,$2,$3,$4,$5,0*
0 Add two circle primitives to create the rounded ends*
1,1,$1,$2,$3*
1,1,$1,$4,$5*%
%AMRotRect*
0 Rectangle, with rotation*
0 The origin of the aperture is its center*
0 $1 length*
0 $2 width*
0 $3 Rotation angle, in degrees counterclockwise*
0 Add horizontal line*
21,1,$1,$2,0,0,$3*%
G04 Aperture macros list end*
G04 #@! TA.AperFunction,EtchedComponent*
%ADD10C,0.010000*%
G04 #@! TD*
G04 #@! TA.AperFunction,ComponentPad*
%ADD11R,1.800000X1.800000*%
G04 #@! TD*
G04 #@! TA.AperFunction,ComponentPad*
%ADD12C,1.800000*%
G04 #@! TD*
G04 #@! TA.AperFunction,ComponentPad*
%ADD13RotRect,1.800000X1.800000X160.000000*%
G04 #@! TD*
G04 #@! TA.AperFunction,ComponentPad*
%ADD14R,1.150000X1.800000*%
G04 #@! TD*
G04 #@! TA.AperFunction,ComponentPad*
%ADD15O,1.150000X1.800000*%
G04 #@! TD*
G04 #@! TA.AperFunction,ComponentPad*
%ADD16RotRect,1.700000X1.700000X190.000000*%
G04 #@! TD*
G04 #@! TA.AperFunction,ComponentPad*
%ADD17HorizOval,1.700000X0.000000X0.000000X0.000000X0.000000X0*%
G04 #@! TD*
G04 #@! TA.AperFunction,ComponentPad*
%ADD18C,1.600000*%
G04 #@! TD*
G04 #@! TA.AperFunction,ComponentPad*
%ADD19C,1.400000*%
G04 #@! TD*
G04 #@! TA.AperFunction,ComponentPad*
%ADD20O,2.700000X1.600000*%
G04 #@! TD*
G04 #@! TA.AperFunction,ComponentPad*
%ADD21RotRect,1.150000X1.800000X200.000000*%
G04 #@! TD*
G04 #@! TA.AperFunction,ComponentPad*
%ADD22HorizOval,1.150000X-0.111157X0.305400X0.111157X-0.305400X0*%
G04 #@! TD*
G04 #@! TA.AperFunction,ComponentPad*
%ADD23RotRect,1.150000X1.800000X170.000000*%
G04 #@! TD*
G04 #@! TA.AperFunction,ComponentPad*
%ADD24HorizOval,1.150000X0.056436X0.320063X-0.056436X-0.320063X0*%
G04 #@! TD*
G04 #@! TA.AperFunction,ComponentPad*
%ADD25RotRect,1.150000X1.800000X164.000000*%
G04 #@! TD*
G04 #@! TA.AperFunction,ComponentPad*
%ADD26HorizOval,1.150000X0.089582X0.312410X-0.089582X-0.312410X0*%
G04 #@! TD*
G04 #@! TA.AperFunction,ComponentPad*
%ADD27RotRect,1.700000X1.700000X10.000000*%
G04 #@! TD*
G04 #@! TA.AperFunction,ComponentPad*
%ADD28HorizOval,1.700000X0.000000X0.000000X0.000000X0.000000X0*%
G04 #@! TD*
G04 #@! TA.AperFunction,ComponentPad*
%ADD29RotRect,1.150000X1.800000X130.000000*%
G04 #@! TD*
G04 #@! TA.AperFunction,ComponentPad*
%ADD30HorizOval,1.150000X0.248964X0.208906X-0.248964X-0.208906X0*%
G04 #@! TD*
G04 #@! TA.AperFunction,ComponentPad*
%ADD31RotRect,1.150000X1.800000X215.000000*%
G04 #@! TD*
G04 #@! TA.AperFunction,ComponentPad*
%ADD32HorizOval,1.150000X-0.186412X0.266224X0.186412X-0.266224X0*%
G04 #@! TD*
G04 #@! TA.AperFunction,Conductor*
%ADD33C,0.400000*%
G04 #@! TD*
G04 #@! TA.AperFunction,Conductor*
%ADD34C,0.500000*%
G04 #@! TD*
G04 APERTURE END LIST*
D10*
X148179131Y-176249264D02*
X147935714Y-176238402D01*
X147798135Y-176231965D01*
X147696437Y-176226656D01*
X147660548Y-176224282D01*
X147652716Y-176182820D01*
X147645587Y-176066906D01*
X147639406Y-175886751D01*
X147634420Y-175652570D01*
X147630875Y-175374575D01*
X147629018Y-175062979D01*
X147628798Y-174908690D01*
X147628798Y-173596357D01*
X148179131Y-173596357D01*
X148179131Y-176249264D01*
G04 #@! TA.AperFunction,EtchedComponent*
G36*
X148179131Y-176249264D02*
G01*
X147935714Y-176238402D01*
X147798135Y-176231965D01*
X147696437Y-176226656D01*
X147660548Y-176224282D01*
X147652716Y-176182820D01*
X147645587Y-176066906D01*
X147639406Y-175886751D01*
X147634420Y-175652570D01*
X147630875Y-175374575D01*
X147629018Y-175062979D01*
X147628798Y-174908690D01*
X147628798Y-173596357D01*
X148179131Y-173596357D01*
X148179131Y-176249264D01*
G37*
G04 #@! TD.AperFunction*
X151908069Y-180079117D02*
X152004717Y-180097303D01*
X152032832Y-180126273D01*
X152034018Y-180211303D01*
X152034959Y-180350674D01*
X152035612Y-180521105D01*
X152035935Y-180699311D01*
X152035884Y-180862009D01*
X152035417Y-180985915D01*
X152034525Y-181047023D01*
X152017514Y-181080492D01*
X151959405Y-181097383D01*
X151843796Y-181100407D01*
X151735227Y-181096466D01*
X151438798Y-181082409D01*
X151438798Y-180073357D01*
X151735131Y-180073357D01*
X151908069Y-180079117D01*
G04 #@! TA.AperFunction,EtchedComponent*
G36*
X151908069Y-180079117D02*
G01*
X152004717Y-180097303D01*
X152032832Y-180126273D01*
X152034018Y-180211303D01*
X152034959Y-180350674D01*
X152035612Y-180521105D01*
X152035935Y-180699311D01*
X152035884Y-180862009D01*
X152035417Y-180985915D01*
X152034525Y-181047023D01*
X152017514Y-181080492D01*
X151959405Y-181097383D01*
X151843796Y-181100407D01*
X151735227Y-181096466D01*
X151438798Y-181082409D01*
X151438798Y-180073357D01*
X151735131Y-180073357D01*
X151908069Y-180079117D01*
G37*
G04 #@! TD.AperFunction*
X148681363Y-179909681D02*
X148734634Y-179923324D01*
X148734993Y-179923663D01*
X148781994Y-179932172D01*
X148898356Y-179942518D01*
X149068824Y-179953636D01*
X149278141Y-179964460D01*
X149387632Y-179969227D01*
X149630628Y-179979608D01*
X149861941Y-179990260D01*
X150059635Y-180000119D01*
X150201776Y-180008124D01*
X150232298Y-180010146D01*
X150384250Y-180018117D01*
X150578625Y-180024567D01*
X150772048Y-180028082D01*
X151100131Y-180031023D01*
X151100131Y-181100957D01*
X150708548Y-181073835D01*
X150543524Y-181064210D01*
X150314175Y-181053355D01*
X150040819Y-181042100D01*
X149743772Y-181031274D01*
X149443351Y-181021709D01*
X149406798Y-181020650D01*
X149139087Y-181012746D01*
X148901980Y-181005292D01*
X148707798Y-180998711D01*
X148568865Y-180993430D01*
X148497505Y-180989874D01*
X148490660Y-180989055D01*
X148487160Y-180947218D01*
X148481866Y-180836830D01*
X148475458Y-180673971D01*
X148468615Y-180474721D01*
X148467627Y-180443773D01*
X148450565Y-179904023D01*
X148582959Y-179904023D01*
X148681363Y-179909681D01*
G04 #@! TA.AperFunction,EtchedComponent*
G36*
X148681363Y-179909681D02*
G01*
X148734634Y-179923324D01*
X148734993Y-179923663D01*
X148781994Y-179932172D01*
X148898356Y-179942518D01*
X149068824Y-179953636D01*
X149278141Y-179964460D01*
X149387632Y-179969227D01*
X149630628Y-179979608D01*
X149861941Y-179990260D01*
X150059635Y-180000119D01*
X150201776Y-180008124D01*
X150232298Y-180010146D01*
X150384250Y-180018117D01*
X150578625Y-180024567D01*
X150772048Y-180028082D01*
X151100131Y-180031023D01*
X151100131Y-181100957D01*
X150708548Y-181073835D01*
X150543524Y-181064210D01*
X150314175Y-181053355D01*
X150040819Y-181042100D01*
X149743772Y-181031274D01*
X149443351Y-181021709D01*
X149406798Y-181020650D01*
X149139087Y-181012746D01*
X148901980Y-181005292D01*
X148707798Y-180998711D01*
X148568865Y-180993430D01*
X148497505Y-180989874D01*
X148490660Y-180989055D01*
X148487160Y-180947218D01*
X148481866Y-180836830D01*
X148475458Y-180673971D01*
X148468615Y-180474721D01*
X148467627Y-180443773D01*
X148450565Y-179904023D01*
X148582959Y-179904023D01*
X148681363Y-179909681D01*
G37*
G04 #@! TD.AperFunction*
X155783087Y-158035864D02*
X155941332Y-158092063D01*
X155953011Y-158098931D01*
X156079150Y-158218951D01*
X156167999Y-158386260D01*
X156207193Y-158569044D01*
X156191962Y-158713695D01*
X156171681Y-158824788D01*
X156180343Y-158906318D01*
X156183040Y-158911397D01*
X156194114Y-158987024D01*
X156131986Y-159043360D01*
X156007259Y-159073158D01*
X155942114Y-159076023D01*
X155825189Y-159070235D01*
X155770700Y-159046138D01*
X155756818Y-158993636D01*
X155756798Y-158990309D01*
X155795026Y-158906163D01*
X155858710Y-158865848D01*
X155948865Y-158791779D01*
X155992971Y-158672840D01*
X155992346Y-158534336D01*
X155948312Y-158401569D01*
X155862188Y-158299844D01*
X155828089Y-158279036D01*
X155646262Y-158223566D01*
X155458848Y-158225081D01*
X155294800Y-158280975D01*
X155225707Y-158333266D01*
X155144218Y-158469349D01*
X155118290Y-158638767D01*
X155148728Y-158810277D01*
X155210516Y-158923392D01*
X155266164Y-159026320D01*
X155268657Y-159109765D01*
X155221050Y-159153202D01*
X155176331Y-159152943D01*
X155080261Y-159095744D01*
X154995632Y-158977526D01*
X154934817Y-158821932D01*
X154910191Y-158652605D01*
X154910131Y-158644328D01*
X154941352Y-158403589D01*
X155034580Y-158220414D01*
X155189165Y-158095423D01*
X155404455Y-158029238D01*
X155566298Y-158018007D01*
X155783087Y-158035864D01*
G04 #@! TA.AperFunction,EtchedComponent*
G36*
X155783087Y-158035864D02*
G01*
X155941332Y-158092063D01*
X155953011Y-158098931D01*
X156079150Y-158218951D01*
X156167999Y-158386260D01*
X156207193Y-158569044D01*
X156191962Y-158713695D01*
X156171681Y-158824788D01*
X156180343Y-158906318D01*
X156183040Y-158911397D01*
X156194114Y-158987024D01*
X156131986Y-159043360D01*
X156007259Y-159073158D01*
X155942114Y-159076023D01*
X155825189Y-159070235D01*
X155770700Y-159046138D01*
X155756818Y-158993636D01*
X155756798Y-158990309D01*
X155795026Y-158906163D01*
X155858710Y-158865848D01*
X155948865Y-158791779D01*
X155992971Y-158672840D01*
X155992346Y-158534336D01*
X155948312Y-158401569D01*
X155862188Y-158299844D01*
X155828089Y-158279036D01*
X155646262Y-158223566D01*
X155458848Y-158225081D01*
X155294800Y-158280975D01*
X155225707Y-158333266D01*
X155144218Y-158469349D01*
X155118290Y-158638767D01*
X155148728Y-158810277D01*
X155210516Y-158923392D01*
X155266164Y-159026320D01*
X155268657Y-159109765D01*
X155221050Y-159153202D01*
X155176331Y-159152943D01*
X155080261Y-159095744D01*
X154995632Y-158977526D01*
X154934817Y-158821932D01*
X154910191Y-158652605D01*
X154910131Y-158644328D01*
X154941352Y-158403589D01*
X155034580Y-158220414D01*
X155189165Y-158095423D01*
X155404455Y-158029238D01*
X155566298Y-158018007D01*
X155783087Y-158035864D01*
G37*
G04 #@! TD.AperFunction*
X156103839Y-163195112D02*
X156137354Y-163251545D01*
X156137798Y-163261524D01*
X156155836Y-163320852D01*
X156224187Y-163350653D01*
X156296548Y-163359718D01*
X156404576Y-163378375D01*
X156449638Y-163418811D01*
X156455298Y-163457523D01*
X156433153Y-163520981D01*
X156353368Y-163551052D01*
X156317714Y-163555456D01*
X156180131Y-163568721D01*
X156180131Y-163841206D01*
X156177206Y-163989767D01*
X156164795Y-164072304D01*
X156137444Y-164107362D01*
X156099994Y-164113690D01*
X156029411Y-164091298D01*
X155987777Y-164015872D01*
X155970021Y-163875043D01*
X155968464Y-163792728D01*
X155968464Y-163605690D01*
X155760260Y-163605690D01*
X155623690Y-163610727D01*
X155515785Y-163623490D01*
X155485094Y-163631386D01*
X155433112Y-163693069D01*
X155420800Y-163809871D01*
X155448271Y-163962052D01*
X155482603Y-164059045D01*
X155520659Y-164182856D01*
X155506514Y-164253517D01*
X155502604Y-164257817D01*
X155435043Y-164281036D01*
X155363459Y-164235403D01*
X155296735Y-164135741D01*
X155243759Y-163996874D01*
X155213416Y-163833627D01*
X155209685Y-163769130D01*
X155228494Y-163609375D01*
X155299056Y-163500397D01*
X155430796Y-163434213D01*
X155633138Y-163402843D01*
X155642991Y-163402189D01*
X155794375Y-163389422D01*
X155880593Y-163370550D01*
X155921135Y-163338338D01*
X155934397Y-163293989D01*
X155971946Y-163221189D01*
X156038565Y-163186611D01*
X156103839Y-163195112D01*
G04 #@! TA.AperFunction,EtchedComponent*
G36*
X156103839Y-163195112D02*
G01*
X156137354Y-163251545D01*
X156137798Y-163261524D01*
X156155836Y-163320852D01*
X156224187Y-163350653D01*
X156296548Y-163359718D01*
X156404576Y-163378375D01*
X156449638Y-163418811D01*
X156455298Y-163457523D01*
X156433153Y-163520981D01*
X156353368Y-163551052D01*
X156317714Y-163555456D01*
X156180131Y-163568721D01*
X156180131Y-163841206D01*
X156177206Y-163989767D01*
X156164795Y-164072304D01*
X156137444Y-164107362D01*
X156099994Y-164113690D01*
X156029411Y-164091298D01*
X155987777Y-164015872D01*
X155970021Y-163875043D01*
X155968464Y-163792728D01*
X155968464Y-163605690D01*
X155760260Y-163605690D01*
X155623690Y-163610727D01*
X155515785Y-163623490D01*
X155485094Y-163631386D01*
X155433112Y-163693069D01*
X155420800Y-163809871D01*
X155448271Y-163962052D01*
X155482603Y-164059045D01*
X155520659Y-164182856D01*
X155506514Y-164253517D01*
X155502604Y-164257817D01*
X155435043Y-164281036D01*
X155363459Y-164235403D01*
X155296735Y-164135741D01*
X155243759Y-163996874D01*
X155213416Y-163833627D01*
X155209685Y-163769130D01*
X155228494Y-163609375D01*
X155299056Y-163500397D01*
X155430796Y-163434213D01*
X155633138Y-163402843D01*
X155642991Y-163402189D01*
X155794375Y-163389422D01*
X155880593Y-163370550D01*
X155921135Y-163338338D01*
X155934397Y-163293989D01*
X155971946Y-163221189D01*
X156038565Y-163186611D01*
X156103839Y-163195112D01*
G37*
G04 #@! TD.AperFunction*
X156244838Y-165084170D02*
X156173901Y-165252555D01*
X156052576Y-165380040D01*
X156012184Y-165404140D01*
X155892345Y-165460083D01*
X155809932Y-165475309D01*
X155756414Y-165440272D01*
X155723258Y-165345425D01*
X155701932Y-165181222D01*
X155691237Y-165045023D01*
X155677769Y-164894358D01*
X155883798Y-164894358D01*
X155892380Y-165069455D01*
X155916761Y-165168707D01*
X155954893Y-165189720D01*
X156004727Y-165130099D01*
X156033420Y-165069237D01*
X156071717Y-164955644D01*
X156068278Y-164864085D01*
X156034693Y-164769857D01*
X155976417Y-164657203D01*
X155931356Y-164627426D01*
X155900627Y-164679606D01*
X155885343Y-164812824D01*
X155883798Y-164894358D01*
X155677769Y-164894358D01*
X155675361Y-164867421D01*
X155656511Y-164726494D01*
X155637452Y-164640128D01*
X155625834Y-164621690D01*
X155580932Y-164654695D01*
X155541828Y-164712529D01*
X155515373Y-164818649D01*
X155518386Y-164987950D01*
X155551183Y-165227149D01*
X155570872Y-165334418D01*
X155583680Y-165428812D01*
X155562788Y-165463538D01*
X155498743Y-165461418D01*
X155415496Y-165408843D01*
X155350251Y-165285943D01*
X155308107Y-165106066D01*
X155294385Y-164926505D01*
X155324199Y-164715275D01*
X155412893Y-164546367D01*
X155547043Y-164428882D01*
X155713228Y-164371919D01*
X155898024Y-164384580D01*
X156020849Y-164433958D01*
X156153393Y-164549779D01*
X156234777Y-164711165D01*
X156265195Y-164896501D01*
X156258780Y-164955644D01*
X156244838Y-165084170D01*
G04 #@! TA.AperFunction,EtchedComponent*
G36*
X156244838Y-165084170D02*
G01*
X156173901Y-165252555D01*
X156052576Y-165380040D01*
X156012184Y-165404140D01*
X155892345Y-165460083D01*
X155809932Y-165475309D01*
X155756414Y-165440272D01*
X155723258Y-165345425D01*
X155701932Y-165181222D01*
X155691237Y-165045023D01*
X155677769Y-164894358D01*
X155883798Y-164894358D01*
X155892380Y-165069455D01*
X155916761Y-165168707D01*
X155954893Y-165189720D01*
X156004727Y-165130099D01*
X156033420Y-165069237D01*
X156071717Y-164955644D01*
X156068278Y-164864085D01*
X156034693Y-164769857D01*
X155976417Y-164657203D01*
X155931356Y-164627426D01*
X155900627Y-164679606D01*
X155885343Y-164812824D01*
X155883798Y-164894358D01*
X155677769Y-164894358D01*
X155675361Y-164867421D01*
X155656511Y-164726494D01*
X155637452Y-164640128D01*
X155625834Y-164621690D01*
X155580932Y-164654695D01*
X155541828Y-164712529D01*
X155515373Y-164818649D01*
X155518386Y-164987950D01*
X155551183Y-165227149D01*
X155570872Y-165334418D01*
X155583680Y-165428812D01*
X155562788Y-165463538D01*
X155498743Y-165461418D01*
X155415496Y-165408843D01*
X155350251Y-165285943D01*
X155308107Y-165106066D01*
X155294385Y-164926505D01*
X155324199Y-164715275D01*
X155412893Y-164546367D01*
X155547043Y-164428882D01*
X155713228Y-164371919D01*
X155898024Y-164384580D01*
X156020849Y-164433958D01*
X156153393Y-164549779D01*
X156234777Y-164711165D01*
X156265195Y-164896501D01*
X156258780Y-164955644D01*
X156244838Y-165084170D01*
G37*
G04 #@! TD.AperFunction*
X155872569Y-159386178D02*
X155897909Y-159400579D01*
X155920213Y-159463822D01*
X155926577Y-159569454D01*
X155918826Y-159683978D01*
X155898787Y-159773900D01*
X155875842Y-159805398D01*
X155853883Y-159841145D01*
X155894467Y-159920527D01*
X155897009Y-159924178D01*
X155958982Y-160059715D01*
X155968119Y-160194672D01*
X155929572Y-160307513D01*
X155848494Y-160376703D01*
X155785953Y-160388357D01*
X155734220Y-160376860D01*
X155720781Y-160326906D01*
X155733451Y-160236922D01*
X155741778Y-160121241D01*
X155707018Y-160022046D01*
X155649571Y-159938267D01*
X155566471Y-159843936D01*
X155488699Y-159805281D01*
X155382456Y-159803952D01*
X155227631Y-159816857D01*
X155214836Y-160039107D01*
X155201893Y-160172223D01*
X155177762Y-160239828D01*
X155134739Y-160261002D01*
X155125125Y-160261357D01*
X155069441Y-160231714D01*
X155030228Y-160138639D01*
X155006145Y-159975908D01*
X154995853Y-159737300D01*
X154995264Y-159658107D01*
X154997409Y-159505865D01*
X155008138Y-159419791D01*
X155032954Y-159381441D01*
X155077358Y-159372373D01*
X155080523Y-159372357D01*
X155151142Y-159400662D01*
X155190873Y-159495755D01*
X155192462Y-159503427D01*
X155219292Y-159592846D01*
X155268949Y-159619184D01*
X155344862Y-159609261D01*
X155484171Y-159590026D01*
X155592756Y-159584023D01*
X155681057Y-159571424D01*
X155712233Y-159518751D01*
X155714464Y-159478190D01*
X155735791Y-159393627D01*
X155792076Y-159372357D01*
X155872569Y-159386178D01*
G04 #@! TA.AperFunction,EtchedComponent*
G36*
X155872569Y-159386178D02*
G01*
X155897909Y-159400579D01*
X155920213Y-159463822D01*
X155926577Y-159569454D01*
X155918826Y-159683978D01*
X155898787Y-159773900D01*
X155875842Y-159805398D01*
X155853883Y-159841145D01*
X155894467Y-159920527D01*
X155897009Y-159924178D01*
X155958982Y-160059715D01*
X155968119Y-160194672D01*
X155929572Y-160307513D01*
X155848494Y-160376703D01*
X155785953Y-160388357D01*
X155734220Y-160376860D01*
X155720781Y-160326906D01*
X155733451Y-160236922D01*
X155741778Y-160121241D01*
X155707018Y-160022046D01*
X155649571Y-159938267D01*
X155566471Y-159843936D01*
X155488699Y-159805281D01*
X155382456Y-159803952D01*
X155227631Y-159816857D01*
X155214836Y-160039107D01*
X155201893Y-160172223D01*
X155177762Y-160239828D01*
X155134739Y-160261002D01*
X155125125Y-160261357D01*
X155069441Y-160231714D01*
X155030228Y-160138639D01*
X155006145Y-159975908D01*
X154995853Y-159737300D01*
X154995264Y-159658107D01*
X154997409Y-159505865D01*
X155008138Y-159419791D01*
X155032954Y-159381441D01*
X155077358Y-159372373D01*
X155080523Y-159372357D01*
X155151142Y-159400662D01*
X155190873Y-159495755D01*
X155192462Y-159503427D01*
X155219292Y-159592846D01*
X155268949Y-159619184D01*
X155344862Y-159609261D01*
X155484171Y-159590026D01*
X155592756Y-159584023D01*
X155681057Y-159571424D01*
X155712233Y-159518751D01*
X155714464Y-159478190D01*
X155735791Y-159393627D01*
X155792076Y-159372357D01*
X155872569Y-159386178D01*
G37*
G04 #@! TD.AperFunction*
X148662342Y-169931237D02*
X148697940Y-169938277D01*
X148742315Y-169944564D01*
X148855719Y-169953396D01*
X149022593Y-169963744D01*
X149227375Y-169974583D01*
X149301924Y-169978153D01*
X149525899Y-169989384D01*
X149726879Y-170000907D01*
X149885972Y-170011537D01*
X149984284Y-170020088D01*
X149997564Y-170021825D01*
X150069220Y-170027788D01*
X150211688Y-170035494D01*
X150411148Y-170044348D01*
X150653777Y-170053755D01*
X150925753Y-170063121D01*
X151045314Y-170066896D01*
X151989131Y-170095894D01*
X151989131Y-170614931D01*
X151985351Y-170862530D01*
X151974242Y-171036068D01*
X151956154Y-171131496D01*
X151943103Y-171149311D01*
X151881556Y-171153068D01*
X151759334Y-171149338D01*
X151600018Y-171138971D01*
X151556702Y-171135403D01*
X151390982Y-171123075D01*
X151165860Y-171108992D01*
X150906538Y-171094600D01*
X150638219Y-171081346D01*
X150533813Y-171076679D01*
X150291937Y-171065662D01*
X150071066Y-171054546D01*
X149889016Y-171044306D01*
X149763600Y-171035919D01*
X149724298Y-171032343D01*
X149633677Y-171026041D01*
X149479610Y-171019740D01*
X149283311Y-171014155D01*
X149065997Y-171010000D01*
X149056407Y-171009863D01*
X148850792Y-171004048D01*
X148677131Y-170993627D01*
X148552251Y-170980007D01*
X148492984Y-170964600D01*
X148490954Y-170962505D01*
X148481267Y-170906575D01*
X148473374Y-170784397D01*
X148468123Y-170614384D01*
X148466355Y-170428644D01*
X148466317Y-169934523D01*
X148575990Y-169930262D01*
X148662342Y-169931237D01*
G04 #@! TA.AperFunction,EtchedComponent*
G36*
X148662342Y-169931237D02*
G01*
X148697940Y-169938277D01*
X148742315Y-169944564D01*
X148855719Y-169953396D01*
X149022593Y-169963744D01*
X149227375Y-169974583D01*
X149301924Y-169978153D01*
X149525899Y-169989384D01*
X149726879Y-170000907D01*
X149885972Y-170011537D01*
X149984284Y-170020088D01*
X149997564Y-170021825D01*
X150069220Y-170027788D01*
X150211688Y-170035494D01*
X150411148Y-170044348D01*
X150653777Y-170053755D01*
X150925753Y-170063121D01*
X151045314Y-170066896D01*
X151989131Y-170095894D01*
X151989131Y-170614931D01*
X151985351Y-170862530D01*
X151974242Y-171036068D01*
X151956154Y-171131496D01*
X151943103Y-171149311D01*
X151881556Y-171153068D01*
X151759334Y-171149338D01*
X151600018Y-171138971D01*
X151556702Y-171135403D01*
X151390982Y-171123075D01*
X151165860Y-171108992D01*
X150906538Y-171094600D01*
X150638219Y-171081346D01*
X150533813Y-171076679D01*
X150291937Y-171065662D01*
X150071066Y-171054546D01*
X149889016Y-171044306D01*
X149763600Y-171035919D01*
X149724298Y-171032343D01*
X149633677Y-171026041D01*
X149479610Y-171019740D01*
X149283311Y-171014155D01*
X149065997Y-171010000D01*
X149056407Y-171009863D01*
X148850792Y-171004048D01*
X148677131Y-170993627D01*
X148552251Y-170980007D01*
X148492984Y-170964600D01*
X148490954Y-170962505D01*
X148481267Y-170906575D01*
X148473374Y-170784397D01*
X148468123Y-170614384D01*
X148466355Y-170428644D01*
X148466317Y-169934523D01*
X148575990Y-169930262D01*
X148662342Y-169931237D01*
G37*
G04 #@! TD.AperFunction*
X148658255Y-184694266D02*
X148690659Y-184705018D01*
X148738127Y-184713455D01*
X148856262Y-184723652D01*
X149031095Y-184734984D01*
X149248661Y-184746825D01*
X149494993Y-184758550D01*
X149756123Y-184769532D01*
X150018086Y-184779146D01*
X150266913Y-184786766D01*
X150488638Y-184791767D01*
X150666250Y-184793523D01*
X151100203Y-184793523D01*
X151100131Y-185788357D01*
X150830291Y-185788357D01*
X150938872Y-185904773D01*
X151027611Y-186012271D01*
X151096089Y-186115702D01*
X151099391Y-186121939D01*
X151125569Y-186208003D01*
X151144926Y-186334134D01*
X151155261Y-186470159D01*
X151154372Y-186585902D01*
X151140058Y-186651191D01*
X151138165Y-186653434D01*
X151091920Y-186661276D01*
X150983725Y-186668874D01*
X150836298Y-186675433D01*
X150672354Y-186680155D01*
X150514609Y-186682247D01*
X150385778Y-186680911D01*
X150369881Y-186680347D01*
X150328251Y-186665558D01*
X150305611Y-186613109D01*
X150296724Y-186504474D01*
X150295798Y-186418376D01*
X150291729Y-186269277D01*
X150270962Y-186170984D01*
X150220661Y-186089723D01*
X150137048Y-186000761D01*
X150028129Y-185909317D01*
X149900994Y-185841503D01*
X149742058Y-185794293D01*
X149537732Y-185764666D01*
X149274430Y-185749598D01*
X148991964Y-185745980D01*
X148454298Y-185745936D01*
X148462181Y-185312063D01*
X148465785Y-185118742D01*
X148469119Y-184948928D01*
X148471717Y-184825886D01*
X148472764Y-184782940D01*
X148498139Y-184707485D01*
X148574242Y-184687690D01*
X148658255Y-184694266D01*
G04 #@! TA.AperFunction,EtchedComponent*
G36*
X148658255Y-184694266D02*
G01*
X148690659Y-184705018D01*
X148738127Y-184713455D01*
X148856262Y-184723652D01*
X149031095Y-184734984D01*
X149248661Y-184746825D01*
X149494993Y-184758550D01*
X149756123Y-184769532D01*
X150018086Y-184779146D01*
X150266913Y-184786766D01*
X150488638Y-184791767D01*
X150666250Y-184793523D01*
X151100203Y-184793523D01*
X151100131Y-185788357D01*
X150830291Y-185788357D01*
X150938872Y-185904773D01*
X151027611Y-186012271D01*
X151096089Y-186115702D01*
X151099391Y-186121939D01*
X151125569Y-186208003D01*
X151144926Y-186334134D01*
X151155261Y-186470159D01*
X151154372Y-186585902D01*
X151140058Y-186651191D01*
X151138165Y-186653434D01*
X151091920Y-186661276D01*
X150983725Y-186668874D01*
X150836298Y-186675433D01*
X150672354Y-186680155D01*
X150514609Y-186682247D01*
X150385778Y-186680911D01*
X150369881Y-186680347D01*
X150328251Y-186665558D01*
X150305611Y-186613109D01*
X150296724Y-186504474D01*
X150295798Y-186418376D01*
X150291729Y-186269277D01*
X150270962Y-186170984D01*
X150220661Y-186089723D01*
X150137048Y-186000761D01*
X150028129Y-185909317D01*
X149900994Y-185841503D01*
X149742058Y-185794293D01*
X149537732Y-185764666D01*
X149274430Y-185749598D01*
X148991964Y-185745980D01*
X148454298Y-185745936D01*
X148462181Y-185312063D01*
X148465785Y-185118742D01*
X148469119Y-184948928D01*
X148471717Y-184825886D01*
X148472764Y-184782940D01*
X148498139Y-184707485D01*
X148574242Y-184687690D01*
X148658255Y-184694266D01*
G37*
G04 #@! TD.AperFunction*
X155725835Y-161282427D02*
X155767680Y-161295705D01*
X155783092Y-161290698D01*
X155824375Y-161256781D01*
X155836129Y-161183905D01*
X155825600Y-161069777D01*
X155807256Y-160932161D01*
X155792305Y-160818370D01*
X155788723Y-160790544D01*
X155807915Y-160717330D01*
X155870510Y-160692704D01*
X155936425Y-160699624D01*
X155980053Y-160757111D01*
X156007857Y-160840850D01*
X156051441Y-161085257D01*
X156030465Y-161275128D01*
X155944017Y-161411761D01*
X155791184Y-161496455D01*
X155571055Y-161530505D01*
X155522585Y-161531357D01*
X155402384Y-161539823D01*
X155341699Y-161571964D01*
X155321198Y-161616023D01*
X155266651Y-161686716D01*
X155215359Y-161700690D01*
X155167846Y-161689115D01*
X155137811Y-161642066D01*
X155117613Y-161541058D01*
X155105983Y-161436107D01*
X155087570Y-161261250D01*
X155067404Y-161091737D01*
X155055238Y-161001740D01*
X155058055Y-160927093D01*
X155257004Y-160927093D01*
X155264050Y-161034771D01*
X155303293Y-161154654D01*
X155361084Y-161257874D01*
X155423770Y-161315562D01*
X155442643Y-161319690D01*
X155485571Y-161305902D01*
X155500532Y-161250860D01*
X155492881Y-161134047D01*
X155492339Y-161129213D01*
X155461397Y-160984559D01*
X155412176Y-160879008D01*
X155355615Y-160821955D01*
X155302655Y-160822798D01*
X155264237Y-160890933D01*
X155257004Y-160927093D01*
X155058055Y-160927093D01*
X155061437Y-160837503D01*
X155122049Y-160709185D01*
X155220896Y-160626914D01*
X155341797Y-160600817D01*
X155468572Y-160641022D01*
X155538763Y-160699078D01*
X155635700Y-160850459D01*
X155698212Y-161045559D01*
X155714464Y-161201665D01*
X155721390Y-161250860D01*
X155725835Y-161282427D01*
G04 #@! TA.AperFunction,EtchedComponent*
G36*
X155725835Y-161282427D02*
G01*
X155767680Y-161295705D01*
X155783092Y-161290698D01*
X155824375Y-161256781D01*
X155836129Y-161183905D01*
X155825600Y-161069777D01*
X155807256Y-160932161D01*
X155792305Y-160818370D01*
X155788723Y-160790544D01*
X155807915Y-160717330D01*
X155870510Y-160692704D01*
X155936425Y-160699624D01*
X155980053Y-160757111D01*
X156007857Y-160840850D01*
X156051441Y-161085257D01*
X156030465Y-161275128D01*
X155944017Y-161411761D01*
X155791184Y-161496455D01*
X155571055Y-161530505D01*
X155522585Y-161531357D01*
X155402384Y-161539823D01*
X155341699Y-161571964D01*
X155321198Y-161616023D01*
X155266651Y-161686716D01*
X155215359Y-161700690D01*
X155167846Y-161689115D01*
X155137811Y-161642066D01*
X155117613Y-161541058D01*
X155105983Y-161436107D01*
X155087570Y-161261250D01*
X155067404Y-161091737D01*
X155055238Y-161001740D01*
X155058055Y-160927093D01*
X155257004Y-160927093D01*
X155264050Y-161034771D01*
X155303293Y-161154654D01*
X155361084Y-161257874D01*
X155423770Y-161315562D01*
X155442643Y-161319690D01*
X155485571Y-161305902D01*
X155500532Y-161250860D01*
X155492881Y-161134047D01*
X155492339Y-161129213D01*
X155461397Y-160984559D01*
X155412176Y-160879008D01*
X155355615Y-160821955D01*
X155302655Y-160822798D01*
X155264237Y-160890933D01*
X155257004Y-160927093D01*
X155058055Y-160927093D01*
X155061437Y-160837503D01*
X155122049Y-160709185D01*
X155220896Y-160626914D01*
X155341797Y-160600817D01*
X155468572Y-160641022D01*
X155538763Y-160699078D01*
X155635700Y-160850459D01*
X155698212Y-161045559D01*
X155714464Y-161201665D01*
X155721390Y-161250860D01*
X155725835Y-161282427D01*
G37*
G04 #@! TD.AperFunction*
X156045917Y-161964627D02*
X156073780Y-162037000D01*
X156108702Y-162130173D01*
X156174657Y-162163880D01*
X156219267Y-162166357D01*
X156336203Y-162196760D01*
X156413558Y-162251680D01*
X156469851Y-162358408D01*
X156503542Y-162508763D01*
X156511770Y-162668913D01*
X156491671Y-162805023D01*
X156465077Y-162860741D01*
X156398211Y-162916163D01*
X156346117Y-162893401D01*
X156314332Y-162798433D01*
X156307131Y-162690242D01*
X156290772Y-162512329D01*
X156245055Y-162390589D01*
X156175017Y-162337129D01*
X156159588Y-162335690D01*
X156121237Y-162364018D01*
X156097483Y-162456538D01*
X156086994Y-162579107D01*
X156073219Y-162725523D01*
X156048331Y-162801861D01*
X156010798Y-162822523D01*
X155962768Y-162786391D01*
X155924117Y-162674135D01*
X155909273Y-162598348D01*
X155871249Y-162374173D01*
X155634107Y-162386681D01*
X155396964Y-162399190D01*
X155384169Y-162621440D01*
X155371342Y-162754297D01*
X155347420Y-162821810D01*
X155304540Y-162843239D01*
X155293448Y-162843690D01*
X155238060Y-162831887D01*
X155200739Y-162787765D01*
X155178180Y-162698254D01*
X155167079Y-162550283D01*
X155164131Y-162332228D01*
X155165570Y-162152190D01*
X155172308Y-162040618D01*
X155187972Y-161981328D01*
X155216194Y-161958134D01*
X155248798Y-161954690D01*
X155315753Y-161980160D01*
X155333464Y-162058025D01*
X155341344Y-162136256D01*
X155376605Y-162178697D01*
X155456681Y-162192236D01*
X155599006Y-162183765D01*
X155640997Y-162179571D01*
X155777405Y-162161914D01*
X155850792Y-162137375D01*
X155882675Y-162094391D01*
X155892118Y-162044613D01*
X155927540Y-161946819D01*
X155986830Y-161919820D01*
X156045917Y-161964627D01*
G04 #@! TA.AperFunction,EtchedComponent*
G36*
X156045917Y-161964627D02*
G01*
X156073780Y-162037000D01*
X156108702Y-162130173D01*
X156174657Y-162163880D01*
X156219267Y-162166357D01*
X156336203Y-162196760D01*
X156413558Y-162251680D01*
X156469851Y-162358408D01*
X156503542Y-162508763D01*
X156511770Y-162668913D01*
X156491671Y-162805023D01*
X156465077Y-162860741D01*
X156398211Y-162916163D01*
X156346117Y-162893401D01*
X156314332Y-162798433D01*
X156307131Y-162690242D01*
X156290772Y-162512329D01*
X156245055Y-162390589D01*
X156175017Y-162337129D01*
X156159588Y-162335690D01*
X156121237Y-162364018D01*
X156097483Y-162456538D01*
X156086994Y-162579107D01*
X156073219Y-162725523D01*
X156048331Y-162801861D01*
X156010798Y-162822523D01*
X155962768Y-162786391D01*
X155924117Y-162674135D01*
X155909273Y-162598348D01*
X155871249Y-162374173D01*
X155634107Y-162386681D01*
X155396964Y-162399190D01*
X155384169Y-162621440D01*
X155371342Y-162754297D01*
X155347420Y-162821810D01*
X155304540Y-162843239D01*
X155293448Y-162843690D01*
X155238060Y-162831887D01*
X155200739Y-162787765D01*
X155178180Y-162698254D01*
X155167079Y-162550283D01*
X155164131Y-162332228D01*
X155165570Y-162152190D01*
X155172308Y-162040618D01*
X155187972Y-161981328D01*
X155216194Y-161958134D01*
X155248798Y-161954690D01*
X155315753Y-161980160D01*
X155333464Y-162058025D01*
X155341344Y-162136256D01*
X155376605Y-162178697D01*
X155456681Y-162192236D01*
X155599006Y-162183765D01*
X155640997Y-162179571D01*
X155777405Y-162161914D01*
X155850792Y-162137375D01*
X155882675Y-162094391D01*
X155892118Y-162044613D01*
X155927540Y-161946819D01*
X155986830Y-161919820D01*
X156045917Y-161964627D01*
G37*
G04 #@! TD.AperFunction*
X156504568Y-168825788D02*
X156483731Y-168935655D01*
X156461608Y-168994618D01*
X156356270Y-169155329D01*
X156209272Y-169261738D01*
X156039766Y-169311173D01*
X155866910Y-169300963D01*
X155709857Y-169228435D01*
X155602225Y-169114472D01*
X155569665Y-169025018D01*
X155543619Y-168880324D01*
X155537975Y-168825907D01*
X155723477Y-168825907D01*
X155765879Y-168969061D01*
X155856848Y-169075589D01*
X155858385Y-169076625D01*
X155972033Y-169107402D01*
X156097070Y-169076054D01*
X156209915Y-168997562D01*
X156286988Y-168886909D01*
X156307131Y-168791523D01*
X156270557Y-168669975D01*
X156179370Y-168559169D01*
X156061370Y-168487077D01*
X155991555Y-168474023D01*
X155880462Y-168503532D01*
X155799131Y-168558690D01*
X155733332Y-168678369D01*
X155723477Y-168825907D01*
X155537975Y-168825907D01*
X155525305Y-168703763D01*
X155515943Y-168518708D01*
X155516753Y-168348533D01*
X155528954Y-168216611D01*
X155551827Y-168148456D01*
X155619503Y-168117149D01*
X155687507Y-168142960D01*
X155714464Y-168203386D01*
X155737779Y-168237496D01*
X155816773Y-168256147D01*
X155965026Y-168262312D01*
X155983723Y-168262357D01*
X156266908Y-168255101D01*
X156469518Y-168232951D01*
X156594426Y-168195330D01*
X156644505Y-168141663D01*
X156645798Y-168129603D01*
X156679127Y-168069242D01*
X156752697Y-168047934D01*
X156826882Y-168076629D01*
X156829242Y-168078912D01*
X156847522Y-168136079D01*
X156857066Y-168241837D01*
X156857464Y-168269412D01*
X156857464Y-168431690D01*
X156640860Y-168431690D01*
X156514618Y-168434413D01*
X156454446Y-168448804D01*
X156441781Y-168484194D01*
X156451380Y-168526940D01*
X156494010Y-168699890D01*
X156501694Y-168791523D01*
X156504568Y-168825788D01*
G04 #@! TA.AperFunction,EtchedComponent*
G36*
X156504568Y-168825788D02*
G01*
X156483731Y-168935655D01*
X156461608Y-168994618D01*
X156356270Y-169155329D01*
X156209272Y-169261738D01*
X156039766Y-169311173D01*
X155866910Y-169300963D01*
X155709857Y-169228435D01*
X155602225Y-169114472D01*
X155569665Y-169025018D01*
X155543619Y-168880324D01*
X155537975Y-168825907D01*
X155723477Y-168825907D01*
X155765879Y-168969061D01*
X155856848Y-169075589D01*
X155858385Y-169076625D01*
X155972033Y-169107402D01*
X156097070Y-169076054D01*
X156209915Y-168997562D01*
X156286988Y-168886909D01*
X156307131Y-168791523D01*
X156270557Y-168669975D01*
X156179370Y-168559169D01*
X156061370Y-168487077D01*
X155991555Y-168474023D01*
X155880462Y-168503532D01*
X155799131Y-168558690D01*
X155733332Y-168678369D01*
X155723477Y-168825907D01*
X155537975Y-168825907D01*
X155525305Y-168703763D01*
X155515943Y-168518708D01*
X155516753Y-168348533D01*
X155528954Y-168216611D01*
X155551827Y-168148456D01*
X155619503Y-168117149D01*
X155687507Y-168142960D01*
X155714464Y-168203386D01*
X155737779Y-168237496D01*
X155816773Y-168256147D01*
X155965026Y-168262312D01*
X155983723Y-168262357D01*
X156266908Y-168255101D01*
X156469518Y-168232951D01*
X156594426Y-168195330D01*
X156644505Y-168141663D01*
X156645798Y-168129603D01*
X156679127Y-168069242D01*
X156752697Y-168047934D01*
X156826882Y-168076629D01*
X156829242Y-168078912D01*
X156847522Y-168136079D01*
X156857066Y-168241837D01*
X156857464Y-168269412D01*
X156857464Y-168431690D01*
X156640860Y-168431690D01*
X156514618Y-168434413D01*
X156454446Y-168448804D01*
X156441781Y-168484194D01*
X156451380Y-168526940D01*
X156494010Y-168699890D01*
X156501694Y-168791523D01*
X156504568Y-168825788D01*
G37*
G04 #@! TD.AperFunction*
X156334708Y-166252645D02*
X156321972Y-166368838D01*
X156332649Y-166424058D01*
X156376650Y-166440914D01*
X156417738Y-166442023D01*
X156515708Y-166413272D01*
X156548865Y-166357357D01*
X156598444Y-166288473D01*
X156646104Y-166272690D01*
X156702613Y-166299340D01*
X156734798Y-166389618D01*
X156741098Y-166431440D01*
X156749749Y-166542683D01*
X156745754Y-166615064D01*
X156743231Y-166621940D01*
X156694406Y-166639759D01*
X156588252Y-166651279D01*
X156501520Y-166653690D01*
X156342091Y-166657529D01*
X156142598Y-166667575D01*
X155953685Y-166681069D01*
X155788138Y-166697635D01*
X155690272Y-166716460D01*
X155643171Y-166743225D01*
X155629917Y-166783612D01*
X155629798Y-166789846D01*
X155607292Y-166850997D01*
X155534548Y-166857718D01*
X155476307Y-166837848D01*
X155444737Y-166784580D01*
X155428979Y-166675392D01*
X155425970Y-166632523D01*
X155413845Y-166461350D01*
X155398148Y-166266360D01*
X155392137Y-166198152D01*
X155576902Y-166198152D01*
X155618573Y-166331085D01*
X155701180Y-166433884D01*
X155816520Y-166483025D01*
X155840445Y-166484357D01*
X155961766Y-166447033D01*
X156067413Y-166353601D01*
X156130475Y-166231869D01*
X156137798Y-166177096D01*
X156105335Y-166033324D01*
X156021512Y-165925639D01*
X155906680Y-165864082D01*
X155781186Y-165858697D01*
X155665381Y-165919524D01*
X155649191Y-165935983D01*
X155584374Y-166058610D01*
X155576902Y-166198152D01*
X155392137Y-166198152D01*
X155390285Y-166177142D01*
X155380797Y-166035938D01*
X155392092Y-165945261D01*
X155434924Y-165871568D01*
X155515796Y-165785559D01*
X155682630Y-165669563D01*
X155864325Y-165636024D01*
X156053611Y-165685676D01*
X156122587Y-165724297D01*
X156264219Y-165860666D01*
X156334340Y-166042010D01*
X156334576Y-166177096D01*
X156334708Y-166252645D01*
G04 #@! TA.AperFunction,EtchedComponent*
G36*
X156334708Y-166252645D02*
G01*
X156321972Y-166368838D01*
X156332649Y-166424058D01*
X156376650Y-166440914D01*
X156417738Y-166442023D01*
X156515708Y-166413272D01*
X156548865Y-166357357D01*
X156598444Y-166288473D01*
X156646104Y-166272690D01*
X156702613Y-166299340D01*
X156734798Y-166389618D01*
X156741098Y-166431440D01*
X156749749Y-166542683D01*
X156745754Y-166615064D01*
X156743231Y-166621940D01*
X156694406Y-166639759D01*
X156588252Y-166651279D01*
X156501520Y-166653690D01*
X156342091Y-166657529D01*
X156142598Y-166667575D01*
X155953685Y-166681069D01*
X155788138Y-166697635D01*
X155690272Y-166716460D01*
X155643171Y-166743225D01*
X155629917Y-166783612D01*
X155629798Y-166789846D01*
X155607292Y-166850997D01*
X155534548Y-166857718D01*
X155476307Y-166837848D01*
X155444737Y-166784580D01*
X155428979Y-166675392D01*
X155425970Y-166632523D01*
X155413845Y-166461350D01*
X155398148Y-166266360D01*
X155392137Y-166198152D01*
X155576902Y-166198152D01*
X155618573Y-166331085D01*
X155701180Y-166433884D01*
X155816520Y-166483025D01*
X155840445Y-166484357D01*
X155961766Y-166447033D01*
X156067413Y-166353601D01*
X156130475Y-166231869D01*
X156137798Y-166177096D01*
X156105335Y-166033324D01*
X156021512Y-165925639D01*
X155906680Y-165864082D01*
X155781186Y-165858697D01*
X155665381Y-165919524D01*
X155649191Y-165935983D01*
X155584374Y-166058610D01*
X155576902Y-166198152D01*
X155392137Y-166198152D01*
X155390285Y-166177142D01*
X155380797Y-166035938D01*
X155392092Y-165945261D01*
X155434924Y-165871568D01*
X155515796Y-165785559D01*
X155682630Y-165669563D01*
X155864325Y-165636024D01*
X156053611Y-165685676D01*
X156122587Y-165724297D01*
X156264219Y-165860666D01*
X156334340Y-166042010D01*
X156334576Y-166177096D01*
X156334708Y-166252645D01*
G37*
G04 #@! TD.AperFunction*
X156484318Y-169428126D02*
X156517605Y-169507595D01*
X156534001Y-169600238D01*
X156545291Y-169724461D01*
X156542965Y-169813286D01*
X156537257Y-169833071D01*
X156474916Y-169869614D01*
X156400357Y-169851346D01*
X156365046Y-169808234D01*
X156338517Y-169778214D01*
X156283339Y-169786343D01*
X156181179Y-169836710D01*
X156144124Y-169857534D01*
X156001897Y-169940830D01*
X155930005Y-169996377D01*
X155924896Y-170037761D01*
X155983014Y-170078569D01*
X156075183Y-170121053D01*
X156244251Y-170187416D01*
X156347735Y-170207019D01*
X156390186Y-170180529D01*
X156391798Y-170167357D01*
X156427005Y-170132213D01*
X156471054Y-170125023D01*
X156529527Y-170148982D01*
X156565521Y-170232462D01*
X156576850Y-170290993D01*
X156587903Y-170415125D01*
X156581496Y-170510983D01*
X156577731Y-170523826D01*
X156521169Y-170583374D01*
X156446496Y-170576067D01*
X156404485Y-170533014D01*
X156356067Y-170497352D01*
X156248274Y-170438395D01*
X156100118Y-170364844D01*
X155930612Y-170285399D01*
X155758768Y-170208763D01*
X155603599Y-170143636D01*
X155484118Y-170098719D01*
X155420507Y-170082690D01*
X155380856Y-170116941D01*
X155375798Y-170146190D01*
X155340857Y-170198734D01*
X155296423Y-170209690D01*
X155234087Y-170178527D01*
X155192367Y-170081061D01*
X155169668Y-169911324D01*
X155164131Y-169714621D01*
X155166921Y-169582592D01*
X155180966Y-169515790D01*
X155214781Y-169494820D01*
X155259381Y-169497663D01*
X155326828Y-169525520D01*
X155359219Y-169599845D01*
X155367521Y-169665760D01*
X155391435Y-169780713D01*
X155453212Y-169846720D01*
X155503992Y-169871518D01*
X155567835Y-169892254D01*
X155630662Y-169891837D01*
X155711466Y-169864160D01*
X155829239Y-169803116D01*
X155971059Y-169721336D01*
X156123384Y-169627541D01*
X156246177Y-169543504D01*
X156321778Y-169481725D01*
X156336533Y-169462661D01*
X156392372Y-169413230D01*
X156432906Y-169405357D01*
X156484318Y-169428126D01*
G04 #@! TA.AperFunction,EtchedComponent*
G36*
X156484318Y-169428126D02*
G01*
X156517605Y-169507595D01*
X156534001Y-169600238D01*
X156545291Y-169724461D01*
X156542965Y-169813286D01*
X156537257Y-169833071D01*
X156474916Y-169869614D01*
X156400357Y-169851346D01*
X156365046Y-169808234D01*
X156338517Y-169778214D01*
X156283339Y-169786343D01*
X156181179Y-169836710D01*
X156144124Y-169857534D01*
X156001897Y-169940830D01*
X155930005Y-169996377D01*
X155924896Y-170037761D01*
X155983014Y-170078569D01*
X156075183Y-170121053D01*
X156244251Y-170187416D01*
X156347735Y-170207019D01*
X156390186Y-170180529D01*
X156391798Y-170167357D01*
X156427005Y-170132213D01*
X156471054Y-170125023D01*
X156529527Y-170148982D01*
X156565521Y-170232462D01*
X156576850Y-170290993D01*
X156587903Y-170415125D01*
X156581496Y-170510983D01*
X156577731Y-170523826D01*
X156521169Y-170583374D01*
X156446496Y-170576067D01*
X156404485Y-170533014D01*
X156356067Y-170497352D01*
X156248274Y-170438395D01*
X156100118Y-170364844D01*
X155930612Y-170285399D01*
X155758768Y-170208763D01*
X155603599Y-170143636D01*
X155484118Y-170098719D01*
X155420507Y-170082690D01*
X155380856Y-170116941D01*
X155375798Y-170146190D01*
X155340857Y-170198734D01*
X155296423Y-170209690D01*
X155234087Y-170178527D01*
X155192367Y-170081061D01*
X155169668Y-169911324D01*
X155164131Y-169714621D01*
X155166921Y-169582592D01*
X155180966Y-169515790D01*
X155214781Y-169494820D01*
X155259381Y-169497663D01*
X155326828Y-169525520D01*
X155359219Y-169599845D01*
X155367521Y-169665760D01*
X155391435Y-169780713D01*
X155453212Y-169846720D01*
X155503992Y-169871518D01*
X155567835Y-169892254D01*
X155630662Y-169891837D01*
X155711466Y-169864160D01*
X155829239Y-169803116D01*
X155971059Y-169721336D01*
X156123384Y-169627541D01*
X156246177Y-169543504D01*
X156321778Y-169481725D01*
X156336533Y-169462661D01*
X156392372Y-169413230D01*
X156432906Y-169405357D01*
X156484318Y-169428126D01*
G37*
G04 #@! TD.AperFunction*
X150689915Y-171461574D02*
X150857531Y-171469890D01*
X150877881Y-171471316D01*
X151057798Y-171484558D01*
X151057798Y-171693791D01*
X151063349Y-171822094D01*
X151084597Y-171885796D01*
X151128429Y-171904504D01*
X151131881Y-171904622D01*
X151255354Y-171913627D01*
X151389099Y-171932446D01*
X151502885Y-171955802D01*
X151566481Y-171978413D01*
X151569514Y-171981055D01*
X151586530Y-172029263D01*
X151615840Y-172139005D01*
X151652541Y-172288914D01*
X151691729Y-172457621D01*
X151728504Y-172623758D01*
X151757961Y-172765957D01*
X151775199Y-172862851D01*
X151777704Y-172888443D01*
X151738663Y-172900414D01*
X151634657Y-172904098D01*
X151485014Y-172899157D01*
X151417631Y-172894759D01*
X151057798Y-172868154D01*
X151057798Y-173469357D01*
X150719131Y-173469357D01*
X150532198Y-173464550D01*
X150421068Y-173449270D01*
X150377376Y-173422226D01*
X150376059Y-173416440D01*
X150372709Y-173347707D01*
X150368576Y-173224336D01*
X150365476Y-173109523D01*
X150359298Y-172855523D01*
X149836633Y-172842073D01*
X149612476Y-172837750D01*
X149456674Y-172839484D01*
X149353027Y-172848967D01*
X149285334Y-172867890D01*
X149237397Y-172897946D01*
X149228608Y-172905573D01*
X149179485Y-172963799D01*
X149159180Y-173039351D01*
X149162210Y-173160301D01*
X149167670Y-173217606D01*
X149192091Y-173452688D01*
X148835622Y-173390525D01*
X148628184Y-173347293D01*
X148501257Y-173303533D01*
X148451883Y-173261276D01*
X148438656Y-173192596D01*
X148424591Y-173060466D01*
X148411657Y-172886056D01*
X148404310Y-172749690D01*
X148396705Y-172544027D01*
X148398055Y-172400140D01*
X148411157Y-172295363D01*
X148438807Y-172207030D01*
X148482652Y-172114690D01*
X148553929Y-171992681D01*
X148632019Y-171903329D01*
X148730353Y-171842509D01*
X148862361Y-171806095D01*
X149041475Y-171789961D01*
X149281126Y-171789982D01*
X149512631Y-171798290D01*
X149744342Y-171808593D01*
X149953132Y-171818122D01*
X150120957Y-171826035D01*
X150229777Y-171831492D01*
X150253464Y-171832843D01*
X150318859Y-171829319D01*
X150350640Y-171793253D01*
X150361891Y-171702793D01*
X150363518Y-171649023D01*
X150367738Y-171458523D01*
X150532851Y-171458299D01*
X150689915Y-171461574D01*
G04 #@! TA.AperFunction,EtchedComponent*
G36*
X150689915Y-171461574D02*
G01*
X150857531Y-171469890D01*
X150877881Y-171471316D01*
X151057798Y-171484558D01*
X151057798Y-171693791D01*
X151063349Y-171822094D01*
X151084597Y-171885796D01*
X151128429Y-171904504D01*
X151131881Y-171904622D01*
X151255354Y-171913627D01*
X151389099Y-171932446D01*
X151502885Y-171955802D01*
X151566481Y-171978413D01*
X151569514Y-171981055D01*
X151586530Y-172029263D01*
X151615840Y-172139005D01*
X151652541Y-172288914D01*
X151691729Y-172457621D01*
X151728504Y-172623758D01*
X151757961Y-172765957D01*
X151775199Y-172862851D01*
X151777704Y-172888443D01*
X151738663Y-172900414D01*
X151634657Y-172904098D01*
X151485014Y-172899157D01*
X151417631Y-172894759D01*
X151057798Y-172868154D01*
X151057798Y-173469357D01*
X150719131Y-173469357D01*
X150532198Y-173464550D01*
X150421068Y-173449270D01*
X150377376Y-173422226D01*
X150376059Y-173416440D01*
X150372709Y-173347707D01*
X150368576Y-173224336D01*
X150365476Y-173109523D01*
X150359298Y-172855523D01*
X149836633Y-172842073D01*
X149612476Y-172837750D01*
X149456674Y-172839484D01*
X149353027Y-172848967D01*
X149285334Y-172867890D01*
X149237397Y-172897946D01*
X149228608Y-172905573D01*
X149179485Y-172963799D01*
X149159180Y-173039351D01*
X149162210Y-173160301D01*
X149167670Y-173217606D01*
X149192091Y-173452688D01*
X148835622Y-173390525D01*
X148628184Y-173347293D01*
X148501257Y-173303533D01*
X148451883Y-173261276D01*
X148438656Y-173192596D01*
X148424591Y-173060466D01*
X148411657Y-172886056D01*
X148404310Y-172749690D01*
X148396705Y-172544027D01*
X148398055Y-172400140D01*
X148411157Y-172295363D01*
X148438807Y-172207030D01*
X148482652Y-172114690D01*
X148553929Y-171992681D01*
X148632019Y-171903329D01*
X148730353Y-171842509D01*
X148862361Y-171806095D01*
X149041475Y-171789961D01*
X149281126Y-171789982D01*
X149512631Y-171798290D01*
X149744342Y-171808593D01*
X149953132Y-171818122D01*
X150120957Y-171826035D01*
X150229777Y-171831492D01*
X150253464Y-171832843D01*
X150318859Y-171829319D01*
X150350640Y-171793253D01*
X150361891Y-171702793D01*
X150363518Y-171649023D01*
X150367738Y-171458523D01*
X150532851Y-171458299D01*
X150689915Y-171461574D01*
G37*
G04 #@! TD.AperFunction*
X151148501Y-183318146D02*
X151072236Y-183648680D01*
X150932878Y-183922986D01*
X150796924Y-184082295D01*
X150643479Y-184206054D01*
X150474577Y-184289792D01*
X150272343Y-184338371D01*
X150018899Y-184356655D01*
X149798381Y-184353923D01*
X149660798Y-184349023D01*
X149660798Y-182998886D01*
X150084131Y-182998886D01*
X150085647Y-183193277D01*
X150091708Y-183316674D01*
X150104586Y-183382720D01*
X150126552Y-183405057D01*
X150151094Y-183401053D01*
X150247880Y-183377733D01*
X150280018Y-183375357D01*
X150350253Y-183347337D01*
X150438056Y-183279112D01*
X150445889Y-183271448D01*
X150537541Y-183128341D01*
X150549716Y-182970181D01*
X150483258Y-182808694D01*
X150405864Y-182714957D01*
X150302193Y-182628998D01*
X150205931Y-182577536D01*
X150173031Y-182571023D01*
X150132796Y-182575931D01*
X150106972Y-182600856D01*
X150092378Y-182661104D01*
X150085835Y-182771982D01*
X150084162Y-182948794D01*
X150084131Y-182998886D01*
X149660798Y-182998886D01*
X149660798Y-182528690D01*
X149539507Y-182528690D01*
X149417238Y-182555248D01*
X149312043Y-182612205D01*
X149174847Y-182768692D01*
X149095136Y-182978739D01*
X149072524Y-183245117D01*
X149106625Y-183570593D01*
X149149784Y-183777340D01*
X149185879Y-183934104D01*
X149211043Y-184055020D01*
X149221223Y-184120144D01*
X149220637Y-184125962D01*
X149177298Y-184124114D01*
X149074450Y-184109848D01*
X148935614Y-184087313D01*
X148784311Y-184060656D01*
X148644061Y-184034027D01*
X148538386Y-184011573D01*
X148490806Y-183997444D01*
X148490519Y-183997189D01*
X148466289Y-183934399D01*
X148442330Y-183805837D01*
X148420895Y-183630377D01*
X148404236Y-183426891D01*
X148394608Y-183214252D01*
X148394030Y-183188916D01*
X148402344Y-182823397D01*
X148441096Y-182499241D01*
X148507939Y-182231641D01*
X148562036Y-182101624D01*
X148693519Y-181917311D01*
X148880344Y-181749122D01*
X149093507Y-181620562D01*
X149211549Y-181575236D01*
X149459167Y-181528311D01*
X149740814Y-181516559D01*
X150018401Y-181539375D01*
X150240771Y-181591519D01*
X150550265Y-181733909D01*
X150794313Y-181926190D01*
X150975084Y-182171519D01*
X151094749Y-182473053D01*
X151155477Y-182833949D01*
X151161605Y-182931596D01*
X151160297Y-182970181D01*
X151148501Y-183318146D01*
G04 #@! TA.AperFunction,EtchedComponent*
G36*
X151148501Y-183318146D02*
G01*
X151072236Y-183648680D01*
X150932878Y-183922986D01*
X150796924Y-184082295D01*
X150643479Y-184206054D01*
X150474577Y-184289792D01*
X150272343Y-184338371D01*
X150018899Y-184356655D01*
X149798381Y-184353923D01*
X149660798Y-184349023D01*
X149660798Y-182998886D01*
X150084131Y-182998886D01*
X150085647Y-183193277D01*
X150091708Y-183316674D01*
X150104586Y-183382720D01*
X150126552Y-183405057D01*
X150151094Y-183401053D01*
X150247880Y-183377733D01*
X150280018Y-183375357D01*
X150350253Y-183347337D01*
X150438056Y-183279112D01*
X150445889Y-183271448D01*
X150537541Y-183128341D01*
X150549716Y-182970181D01*
X150483258Y-182808694D01*
X150405864Y-182714957D01*
X150302193Y-182628998D01*
X150205931Y-182577536D01*
X150173031Y-182571023D01*
X150132796Y-182575931D01*
X150106972Y-182600856D01*
X150092378Y-182661104D01*
X150085835Y-182771982D01*
X150084162Y-182948794D01*
X150084131Y-182998886D01*
X149660798Y-182998886D01*
X149660798Y-182528690D01*
X149539507Y-182528690D01*
X149417238Y-182555248D01*
X149312043Y-182612205D01*
X149174847Y-182768692D01*
X149095136Y-182978739D01*
X149072524Y-183245117D01*
X149106625Y-183570593D01*
X149149784Y-183777340D01*
X149185879Y-183934104D01*
X149211043Y-184055020D01*
X149221223Y-184120144D01*
X149220637Y-184125962D01*
X149177298Y-184124114D01*
X149074450Y-184109848D01*
X148935614Y-184087313D01*
X148784311Y-184060656D01*
X148644061Y-184034027D01*
X148538386Y-184011573D01*
X148490806Y-183997444D01*
X148490519Y-183997189D01*
X148466289Y-183934399D01*
X148442330Y-183805837D01*
X148420895Y-183630377D01*
X148404236Y-183426891D01*
X148394608Y-183214252D01*
X148394030Y-183188916D01*
X148402344Y-182823397D01*
X148441096Y-182499241D01*
X148507939Y-182231641D01*
X148562036Y-182101624D01*
X148693519Y-181917311D01*
X148880344Y-181749122D01*
X149093507Y-181620562D01*
X149211549Y-181575236D01*
X149459167Y-181528311D01*
X149740814Y-181516559D01*
X150018401Y-181539375D01*
X150240771Y-181591519D01*
X150550265Y-181733909D01*
X150794313Y-181926190D01*
X150975084Y-182171519D01*
X151094749Y-182473053D01*
X151155477Y-182833949D01*
X151161605Y-182931596D01*
X151160297Y-182970181D01*
X151148501Y-183318146D01*
G37*
G04 #@! TD.AperFunction*
X151144935Y-177928860D02*
X151150927Y-178107882D01*
X151151867Y-178207253D01*
X151135616Y-178522070D01*
X151081869Y-178775455D01*
X150984137Y-178984760D01*
X150835936Y-179167337D01*
X150769839Y-179229106D01*
X150548563Y-179383345D01*
X150296765Y-179477633D01*
X149999998Y-179516071D01*
X149770499Y-179512721D01*
X149398353Y-179458870D01*
X149076909Y-179347016D01*
X148811134Y-179181623D01*
X148605999Y-178967156D01*
X148466470Y-178708080D01*
X148397517Y-178408858D01*
X148390798Y-178272966D01*
X148416576Y-178003292D01*
X148427135Y-177974374D01*
X149173964Y-177974374D01*
X149210517Y-178164568D01*
X149316942Y-178311329D01*
X149488389Y-178411038D01*
X149720008Y-178460073D01*
X149830874Y-178464690D01*
X150068952Y-178434705D01*
X150247047Y-178345549D01*
X150363890Y-178198419D01*
X150418215Y-177994513D01*
X150422220Y-177905876D01*
X150416981Y-177729038D01*
X150393281Y-177619532D01*
X150337082Y-177560143D01*
X150234346Y-177533650D01*
X150111442Y-177524678D01*
X149779811Y-177524743D01*
X149524215Y-177560549D01*
X149343867Y-177632244D01*
X149283474Y-177679771D01*
X149205711Y-177784576D01*
X149175919Y-177912878D01*
X149173964Y-177974374D01*
X148427135Y-177974374D01*
X148500288Y-177774028D01*
X148609692Y-177607440D01*
X148679423Y-177506220D01*
X148686063Y-177453829D01*
X148627412Y-177440266D01*
X148573907Y-177444797D01*
X148528103Y-177436688D01*
X148496825Y-177391278D01*
X148477767Y-177296877D01*
X148468621Y-177141798D01*
X148467079Y-176914351D01*
X148467140Y-176903971D01*
X148467588Y-176705069D01*
X148475127Y-176570691D01*
X148503458Y-176489932D01*
X148566279Y-176451886D01*
X148677292Y-176445649D01*
X148850195Y-176460316D01*
X149004631Y-176476126D01*
X149172349Y-176490297D01*
X149398496Y-176506148D01*
X149656901Y-176522002D01*
X149921393Y-176536180D01*
X149999464Y-176539923D01*
X150230485Y-176551248D01*
X150434371Y-176562365D01*
X150594834Y-176572297D01*
X150695583Y-176580071D01*
X150719131Y-176582969D01*
X150782771Y-176587721D01*
X150913884Y-176592128D01*
X151095276Y-176595784D01*
X151309751Y-176598279D01*
X151385881Y-176598785D01*
X151989131Y-176602023D01*
X151989131Y-177670470D01*
X151540394Y-177639884D01*
X151091656Y-177609298D01*
X151121567Y-177703537D01*
X151134662Y-177785995D01*
X151143282Y-177905876D01*
X151144935Y-177928860D01*
G04 #@! TA.AperFunction,EtchedComponent*
G36*
X151144935Y-177928860D02*
G01*
X151150927Y-178107882D01*
X151151867Y-178207253D01*
X151135616Y-178522070D01*
X151081869Y-178775455D01*
X150984137Y-178984760D01*
X150835936Y-179167337D01*
X150769839Y-179229106D01*
X150548563Y-179383345D01*
X150296765Y-179477633D01*
X149999998Y-179516071D01*
X149770499Y-179512721D01*
X149398353Y-179458870D01*
X149076909Y-179347016D01*
X148811134Y-179181623D01*
X148605999Y-178967156D01*
X148466470Y-178708080D01*
X148397517Y-178408858D01*
X148390798Y-178272966D01*
X148416576Y-178003292D01*
X148427135Y-177974374D01*
X149173964Y-177974374D01*
X149210517Y-178164568D01*
X149316942Y-178311329D01*
X149488389Y-178411038D01*
X149720008Y-178460073D01*
X149830874Y-178464690D01*
X150068952Y-178434705D01*
X150247047Y-178345549D01*
X150363890Y-178198419D01*
X150418215Y-177994513D01*
X150422220Y-177905876D01*
X150416981Y-177729038D01*
X150393281Y-177619532D01*
X150337082Y-177560143D01*
X150234346Y-177533650D01*
X150111442Y-177524678D01*
X149779811Y-177524743D01*
X149524215Y-177560549D01*
X149343867Y-177632244D01*
X149283474Y-177679771D01*
X149205711Y-177784576D01*
X149175919Y-177912878D01*
X149173964Y-177974374D01*
X148427135Y-177974374D01*
X148500288Y-177774028D01*
X148609692Y-177607440D01*
X148679423Y-177506220D01*
X148686063Y-177453829D01*
X148627412Y-177440266D01*
X148573907Y-177444797D01*
X148528103Y-177436688D01*
X148496825Y-177391278D01*
X148477767Y-177296877D01*
X148468621Y-177141798D01*
X148467079Y-176914351D01*
X148467140Y-176903971D01*
X148467588Y-176705069D01*
X148475127Y-176570691D01*
X148503458Y-176489932D01*
X148566279Y-176451886D01*
X148677292Y-176445649D01*
X148850195Y-176460316D01*
X149004631Y-176476126D01*
X149172349Y-176490297D01*
X149398496Y-176506148D01*
X149656901Y-176522002D01*
X149921393Y-176536180D01*
X149999464Y-176539923D01*
X150230485Y-176551248D01*
X150434371Y-176562365D01*
X150594834Y-176572297D01*
X150695583Y-176580071D01*
X150719131Y-176582969D01*
X150782771Y-176587721D01*
X150913884Y-176592128D01*
X151095276Y-176595784D01*
X151309751Y-176598279D01*
X151385881Y-176598785D01*
X151989131Y-176602023D01*
X151989131Y-177670470D01*
X151540394Y-177639884D01*
X151091656Y-177609298D01*
X151121567Y-177703537D01*
X151134662Y-177785995D01*
X151143282Y-177905876D01*
X151144935Y-177928860D01*
G37*
G04 #@! TD.AperFunction*
X149274239Y-166603896D02*
X149480663Y-166677403D01*
X149631277Y-166769117D01*
X149754998Y-166886562D01*
X149858375Y-167041715D01*
X149947957Y-167246559D01*
X150030293Y-167513071D01*
X150104124Y-167817857D01*
X150144093Y-167984566D01*
X150184747Y-168133328D01*
X150216299Y-168229199D01*
X150292084Y-168338687D01*
X150392257Y-168374384D01*
X150500787Y-168331474D01*
X150515548Y-168319089D01*
X150559880Y-168269504D01*
X150583225Y-168206437D01*
X150589254Y-168107313D01*
X150581638Y-167949553D01*
X150579846Y-167923690D01*
X150553864Y-167717497D01*
X150507371Y-167483405D01*
X150451098Y-167274346D01*
X150344735Y-166942502D01*
X150436683Y-166965063D01*
X150531260Y-166983493D01*
X150670472Y-167005472D01*
X150754168Y-167017046D01*
X150862027Y-167034077D01*
X150939417Y-167061433D01*
X150993873Y-167112673D01*
X151032928Y-167201354D01*
X151064115Y-167341035D01*
X151094968Y-167545272D01*
X151110204Y-167657775D01*
X151153738Y-168113490D01*
X151154020Y-168505092D01*
X151111483Y-168830597D01*
X151026561Y-169088020D01*
X150899686Y-169275376D01*
X150732030Y-169390373D01*
X150647263Y-169418027D01*
X150543274Y-169433809D01*
X150402175Y-169438626D01*
X150206078Y-169433387D01*
X150045040Y-169425266D01*
X149841223Y-169412924D01*
X149669397Y-169400680D01*
X149546509Y-169389874D01*
X149489506Y-169381847D01*
X149488063Y-169381237D01*
X149438415Y-169374759D01*
X149321816Y-169367872D01*
X149155972Y-169361421D01*
X148969479Y-169356477D01*
X148753840Y-169350237D01*
X148609604Y-169340962D01*
X148523514Y-169326621D01*
X148482310Y-169305186D01*
X148472699Y-169280454D01*
X148471647Y-169212407D01*
X148471001Y-169080794D01*
X148470830Y-168906718D01*
X148471031Y-168770357D01*
X148472860Y-168571353D01*
X148478827Y-168442572D01*
X148491426Y-168369583D01*
X148513150Y-168337960D01*
X148546491Y-168333273D01*
X148546548Y-168333278D01*
X148616940Y-168338664D01*
X148751787Y-168347673D01*
X148931021Y-168359004D01*
X149113957Y-168370124D01*
X149606947Y-168399548D01*
X149505471Y-168087536D01*
X149442431Y-167921167D01*
X149371304Y-167774804D01*
X149306589Y-167677945D01*
X149301505Y-167672594D01*
X149221546Y-167605444D01*
X149153503Y-167595998D01*
X149091239Y-167618770D01*
X149026628Y-167659538D01*
X148990040Y-167721829D01*
X148975874Y-167825642D01*
X148978530Y-167990976D01*
X148979760Y-168016849D01*
X148987520Y-168173508D01*
X148720909Y-168084277D01*
X148579869Y-168031973D01*
X148472157Y-167982598D01*
X148423196Y-167948784D01*
X148404078Y-167875486D01*
X148394182Y-167743527D01*
X148393129Y-167578365D01*
X148400544Y-167405459D01*
X148416048Y-167250270D01*
X148434994Y-167152421D01*
X148522606Y-166960390D01*
X148661732Y-166788085D01*
X148815125Y-166674343D01*
X149043735Y-166597337D01*
X149274239Y-166603896D01*
G04 #@! TA.AperFunction,EtchedComponent*
G36*
X149274239Y-166603896D02*
G01*
X149480663Y-166677403D01*
X149631277Y-166769117D01*
X149754998Y-166886562D01*
X149858375Y-167041715D01*
X149947957Y-167246559D01*
X150030293Y-167513071D01*
X150104124Y-167817857D01*
X150144093Y-167984566D01*
X150184747Y-168133328D01*
X150216299Y-168229199D01*
X150292084Y-168338687D01*
X150392257Y-168374384D01*
X150500787Y-168331474D01*
X150515548Y-168319089D01*
X150559880Y-168269504D01*
X150583225Y-168206437D01*
X150589254Y-168107313D01*
X150581638Y-167949553D01*
X150579846Y-167923690D01*
X150553864Y-167717497D01*
X150507371Y-167483405D01*
X150451098Y-167274346D01*
X150344735Y-166942502D01*
X150436683Y-166965063D01*
X150531260Y-166983493D01*
X150670472Y-167005472D01*
X150754168Y-167017046D01*
X150862027Y-167034077D01*
X150939417Y-167061433D01*
X150993873Y-167112673D01*
X151032928Y-167201354D01*
X151064115Y-167341035D01*
X151094968Y-167545272D01*
X151110204Y-167657775D01*
X151153738Y-168113490D01*
X151154020Y-168505092D01*
X151111483Y-168830597D01*
X151026561Y-169088020D01*
X150899686Y-169275376D01*
X150732030Y-169390373D01*
X150647263Y-169418027D01*
X150543274Y-169433809D01*
X150402175Y-169438626D01*
X150206078Y-169433387D01*
X150045040Y-169425266D01*
X149841223Y-169412924D01*
X149669397Y-169400680D01*
X149546509Y-169389874D01*
X149489506Y-169381847D01*
X149488063Y-169381237D01*
X149438415Y-169374759D01*
X149321816Y-169367872D01*
X149155972Y-169361421D01*
X148969479Y-169356477D01*
X148753840Y-169350237D01*
X148609604Y-169340962D01*
X148523514Y-169326621D01*
X148482310Y-169305186D01*
X148472699Y-169280454D01*
X148471647Y-169212407D01*
X148471001Y-169080794D01*
X148470830Y-168906718D01*
X148471031Y-168770357D01*
X148472860Y-168571353D01*
X148478827Y-168442572D01*
X148491426Y-168369583D01*
X148513150Y-168337960D01*
X148546491Y-168333273D01*
X148546548Y-168333278D01*
X148616940Y-168338664D01*
X148751787Y-168347673D01*
X148931021Y-168359004D01*
X149113957Y-168370124D01*
X149606947Y-168399548D01*
X149505471Y-168087536D01*
X149442431Y-167921167D01*
X149371304Y-167774804D01*
X149306589Y-167677945D01*
X149301505Y-167672594D01*
X149221546Y-167605444D01*
X149153503Y-167595998D01*
X149091239Y-167618770D01*
X149026628Y-167659538D01*
X148990040Y-167721829D01*
X148975874Y-167825642D01*
X148978530Y-167990976D01*
X148979760Y-168016849D01*
X148987520Y-168173508D01*
X148720909Y-168084277D01*
X148579869Y-168031973D01*
X148472157Y-167982598D01*
X148423196Y-167948784D01*
X148404078Y-167875486D01*
X148394182Y-167743527D01*
X148393129Y-167578365D01*
X148400544Y-167405459D01*
X148416048Y-167250270D01*
X148434994Y-167152421D01*
X148522606Y-166960390D01*
X148661732Y-166788085D01*
X148815125Y-166674343D01*
X149043735Y-166597337D01*
X149274239Y-166603896D01*
G37*
G04 #@! TD.AperFunction*
X151094164Y-164515424D02*
X151088526Y-164678292D01*
X151076546Y-164877751D01*
X151061188Y-165046293D01*
X151044453Y-165165858D01*
X151028737Y-165218018D01*
X150973480Y-165225758D01*
X150853909Y-165216162D01*
X150688153Y-165191176D01*
X150569879Y-165168755D01*
X150295414Y-165116748D01*
X150094401Y-165089359D01*
X149958853Y-165088054D01*
X149880785Y-165114298D01*
X149852208Y-165169556D01*
X149865136Y-165255292D01*
X149879012Y-165295490D01*
X149992796Y-165483745D01*
X150165138Y-165630387D01*
X150377950Y-165729768D01*
X150613145Y-165776242D01*
X150852634Y-165764161D01*
X151078328Y-165687878D01*
X151099452Y-165676496D01*
X151275476Y-165531749D01*
X151415755Y-165322917D01*
X151518323Y-165063554D01*
X151581218Y-164767208D01*
X151602473Y-164447433D01*
X151580126Y-164117779D01*
X151512212Y-163791798D01*
X151412457Y-163517086D01*
X151265893Y-163272826D01*
X151061413Y-163043726D01*
X150822951Y-162852442D01*
X150574435Y-162721633D01*
X150570840Y-162720279D01*
X150326094Y-162657776D01*
X150049148Y-162632688D01*
X149779044Y-162646609D01*
X149612472Y-162681154D01*
X149410187Y-162778961D01*
X149215920Y-162939589D01*
X149052361Y-163142475D01*
X148995873Y-163240021D01*
X148942830Y-163356191D01*
X148907385Y-163472896D01*
X148884772Y-163614609D01*
X148870227Y-163805805D01*
X148865186Y-163911200D01*
X148861780Y-164231403D01*
X148884637Y-164495280D01*
X148937406Y-164728100D01*
X149012216Y-164929038D01*
X149051507Y-165031486D01*
X149066273Y-165095541D01*
X149064172Y-165103531D01*
X149015616Y-165118178D01*
X148912322Y-165137747D01*
X148851827Y-165147135D01*
X148656689Y-165175428D01*
X148570728Y-164972642D01*
X148459341Y-164622949D01*
X148400407Y-164238752D01*
X148393379Y-163842163D01*
X148437707Y-163455291D01*
X148532842Y-163100246D01*
X148622300Y-162895796D01*
X148728455Y-162712479D01*
X148838112Y-162574513D01*
X148980855Y-162446700D01*
X149035085Y-162404670D01*
X149275179Y-162268865D01*
X149567152Y-162177111D01*
X149888670Y-162132703D01*
X150217401Y-162138936D01*
X150495844Y-162189176D01*
X150890490Y-162336719D01*
X151235293Y-162550416D01*
X151525066Y-162824485D01*
X151754618Y-163153148D01*
X151918763Y-163530623D01*
X151999591Y-163864427D01*
X152028043Y-164128445D01*
X152035414Y-164425686D01*
X152023214Y-164731020D01*
X151992954Y-165019315D01*
X151946143Y-165265440D01*
X151907932Y-165389917D01*
X151766807Y-165659620D01*
X151567411Y-165901245D01*
X151331079Y-166090506D01*
X151253520Y-166134817D01*
X151118734Y-166196023D01*
X150988620Y-166230873D01*
X150829408Y-166246321D01*
X150697964Y-166249229D01*
X150516299Y-166246803D01*
X150384290Y-166231089D01*
X150267076Y-166193868D01*
X150129799Y-166126919D01*
X150091166Y-166106151D01*
X149804157Y-165904877D01*
X149579504Y-165649541D01*
X149422952Y-165348448D01*
X149341893Y-165022783D01*
X149335011Y-164832099D01*
X149359873Y-164649452D01*
X149410712Y-164499401D01*
X149481758Y-164406504D01*
X149487560Y-164402637D01*
X149532985Y-164366996D01*
X149535720Y-164324663D01*
X149492905Y-164249212D01*
X149466741Y-164210254D01*
X149373324Y-164010642D01*
X149371041Y-163997488D01*
X149834953Y-163997488D01*
X149843174Y-164126667D01*
X149914911Y-164250347D01*
X150036433Y-164343749D01*
X150150211Y-164386055D01*
X150301775Y-164422568D01*
X150373844Y-164434308D01*
X150592131Y-164463264D01*
X150592131Y-164328708D01*
X150571615Y-164191900D01*
X150525892Y-164066059D01*
X150430174Y-163950401D01*
X150293840Y-163867597D01*
X150141959Y-163824906D01*
X149999602Y-163829587D01*
X149896655Y-163883881D01*
X149834953Y-163997488D01*
X149371041Y-163997488D01*
X149334326Y-163785930D01*
X149355361Y-163572326D01*
X149363571Y-163544897D01*
X149461858Y-163368030D01*
X149613913Y-163243112D01*
X149806139Y-163170804D01*
X150024942Y-163151766D01*
X150256726Y-163186658D01*
X150487894Y-163276140D01*
X150704851Y-163420871D01*
X150766803Y-163476775D01*
X150901438Y-163628284D01*
X150997311Y-163792292D01*
X151058603Y-163984410D01*
X151089494Y-164220250D01*
X151091209Y-164328708D01*
X151094164Y-164515424D01*
G04 #@! TA.AperFunction,EtchedComponent*
G36*
X151094164Y-164515424D02*
G01*
X151088526Y-164678292D01*
X151076546Y-164877751D01*
X151061188Y-165046293D01*
X151044453Y-165165858D01*
X151028737Y-165218018D01*
X150973480Y-165225758D01*
X150853909Y-165216162D01*
X150688153Y-165191176D01*
X150569879Y-165168755D01*
X150295414Y-165116748D01*
X150094401Y-165089359D01*
X149958853Y-165088054D01*
X149880785Y-165114298D01*
X149852208Y-165169556D01*
X149865136Y-165255292D01*
X149879012Y-165295490D01*
X149992796Y-165483745D01*
X150165138Y-165630387D01*
X150377950Y-165729768D01*
X150613145Y-165776242D01*
X150852634Y-165764161D01*
X151078328Y-165687878D01*
X151099452Y-165676496D01*
X151275476Y-165531749D01*
X151415755Y-165322917D01*
X151518323Y-165063554D01*
X151581218Y-164767208D01*
X151602473Y-164447433D01*
X151580126Y-164117779D01*
X151512212Y-163791798D01*
X151412457Y-163517086D01*
X151265893Y-163272826D01*
X151061413Y-163043726D01*
X150822951Y-162852442D01*
X150574435Y-162721633D01*
X150570840Y-162720279D01*
X150326094Y-162657776D01*
X150049148Y-162632688D01*
X149779044Y-162646609D01*
X149612472Y-162681154D01*
X149410187Y-162778961D01*
X149215920Y-162939589D01*
X149052361Y-163142475D01*
X148995873Y-163240021D01*
X148942830Y-163356191D01*
X148907385Y-163472896D01*
X148884772Y-163614609D01*
X148870227Y-163805805D01*
X148865186Y-163911200D01*
X148861780Y-164231403D01*
X148884637Y-164495280D01*
X148937406Y-164728100D01*
X149012216Y-164929038D01*
X149051507Y-165031486D01*
X149066273Y-165095541D01*
X149064172Y-165103531D01*
X149015616Y-165118178D01*
X148912322Y-165137747D01*
X148851827Y-165147135D01*
X148656689Y-165175428D01*
X148570728Y-164972642D01*
X148459341Y-164622949D01*
X148400407Y-164238752D01*
X148393379Y-163842163D01*
X148437707Y-163455291D01*
X148532842Y-163100246D01*
X148622300Y-162895796D01*
X148728455Y-162712479D01*
X148838112Y-162574513D01*
X148980855Y-162446700D01*
X149035085Y-162404670D01*
X149275179Y-162268865D01*
X149567152Y-162177111D01*
X149888670Y-162132703D01*
X150217401Y-162138936D01*
X150495844Y-162189176D01*
X150890490Y-162336719D01*
X151235293Y-162550416D01*
X151525066Y-162824485D01*
X151754618Y-163153148D01*
X151918763Y-163530623D01*
X151999591Y-163864427D01*
X152028043Y-164128445D01*
X152035414Y-164425686D01*
X152023214Y-164731020D01*
X151992954Y-165019315D01*
X151946143Y-165265440D01*
X151907932Y-165389917D01*
X151766807Y-165659620D01*
X151567411Y-165901245D01*
X151331079Y-166090506D01*
X151253520Y-166134817D01*
X151118734Y-166196023D01*
X150988620Y-166230873D01*
X150829408Y-166246321D01*
X150697964Y-166249229D01*
X150516299Y-166246803D01*
X150384290Y-166231089D01*
X150267076Y-166193868D01*
X150129799Y-166126919D01*
X150091166Y-166106151D01*
X149804157Y-165904877D01*
X149579504Y-165649541D01*
X149422952Y-165348448D01*
X149341893Y-165022783D01*
X149335011Y-164832099D01*
X149359873Y-164649452D01*
X149410712Y-164499401D01*
X149481758Y-164406504D01*
X149487560Y-164402637D01*
X149532985Y-164366996D01*
X149535720Y-164324663D01*
X149492905Y-164249212D01*
X149466741Y-164210254D01*
X149373324Y-164010642D01*
X149371041Y-163997488D01*
X149834953Y-163997488D01*
X149843174Y-164126667D01*
X149914911Y-164250347D01*
X150036433Y-164343749D01*
X150150211Y-164386055D01*
X150301775Y-164422568D01*
X150373844Y-164434308D01*
X150592131Y-164463264D01*
X150592131Y-164328708D01*
X150571615Y-164191900D01*
X150525892Y-164066059D01*
X150430174Y-163950401D01*
X150293840Y-163867597D01*
X150141959Y-163824906D01*
X149999602Y-163829587D01*
X149896655Y-163883881D01*
X149834953Y-163997488D01*
X149371041Y-163997488D01*
X149334326Y-163785930D01*
X149355361Y-163572326D01*
X149363571Y-163544897D01*
X149461858Y-163368030D01*
X149613913Y-163243112D01*
X149806139Y-163170804D01*
X150024942Y-163151766D01*
X150256726Y-163186658D01*
X150487894Y-163276140D01*
X150704851Y-163420871D01*
X150766803Y-163476775D01*
X150901438Y-163628284D01*
X150997311Y-163792292D01*
X151058603Y-163984410D01*
X151089494Y-164220250D01*
X151091209Y-164328708D01*
X151094164Y-164515424D01*
G37*
G04 #@! TD.AperFunction*
X157016995Y-188761267D02*
X156970896Y-188854826D01*
X156866152Y-188939161D01*
X156695771Y-189018834D01*
X156452762Y-189098404D01*
X156244521Y-189154261D01*
X155932231Y-189223359D01*
X155555407Y-189290803D01*
X155134172Y-189353886D01*
X154688653Y-189409902D01*
X154238975Y-189456144D01*
X153805263Y-189489905D01*
X153703631Y-189495970D01*
X153505036Y-189507902D01*
X153339014Y-189519518D01*
X153222846Y-189529495D01*
X153173814Y-189536510D01*
X153173737Y-189536552D01*
X153125929Y-189542637D01*
X153008829Y-189551214D01*
X152837742Y-189561336D01*
X152627971Y-189572057D01*
X152517570Y-189577157D01*
X152285962Y-189588647D01*
X152077279Y-189601124D01*
X151909585Y-189613352D01*
X151800940Y-189624094D01*
X151777464Y-189627823D01*
X151703409Y-189634529D01*
X151553907Y-189640592D01*
X151338175Y-189645997D01*
X151065430Y-189650727D01*
X150744889Y-189654766D01*
X150385770Y-189658098D01*
X149997289Y-189660708D01*
X149588664Y-189662578D01*
X149169112Y-189663694D01*
X148747851Y-189664039D01*
X148334096Y-189663597D01*
X147937066Y-189662352D01*
X147565978Y-189660288D01*
X147230049Y-189657389D01*
X146938495Y-189653639D01*
X146700535Y-189649022D01*
X146525384Y-189643523D01*
X146422298Y-189637128D01*
X145833650Y-189572045D01*
X145326035Y-189511299D01*
X144895955Y-189454408D01*
X144539913Y-189400894D01*
X144254412Y-189350278D01*
X144115460Y-189321087D01*
X143794677Y-189245937D01*
X143547970Y-189180868D01*
X143366033Y-189121252D01*
X143239563Y-189062455D01*
X143159257Y-188999848D01*
X143115809Y-188928798D01*
X143099917Y-188844675D01*
X143099131Y-188815190D01*
X143099326Y-188813921D01*
X143370381Y-188813921D01*
X143380286Y-188838112D01*
X143440561Y-188866770D01*
X143568078Y-188907504D01*
X143746919Y-188956497D01*
X143961165Y-189009931D01*
X144194897Y-189063990D01*
X144432196Y-189114854D01*
X144657144Y-189158707D01*
X144853822Y-189191730D01*
X144856439Y-189192118D01*
X145196362Y-189240875D01*
X145508734Y-189281780D01*
X145805465Y-189315499D01*
X146098465Y-189342701D01*
X146399646Y-189364051D01*
X146720917Y-189380217D01*
X147074191Y-189391866D01*
X147471377Y-189399665D01*
X147924387Y-189404282D01*
X148445132Y-189406384D01*
X148687131Y-189406677D01*
X149291900Y-189405693D01*
X149870078Y-189402127D01*
X150414226Y-189396144D01*
X150916901Y-189387908D01*
X151370663Y-189377582D01*
X151768073Y-189365333D01*
X152101688Y-189351323D01*
X152364068Y-189335716D01*
X152518298Y-189322125D01*
X152643121Y-189309468D01*
X152800879Y-189295572D01*
X153002293Y-189279615D01*
X153258085Y-189260775D01*
X153578975Y-189238230D01*
X153894131Y-189216679D01*
X154296438Y-189183811D01*
X154708011Y-189139993D01*
X155114816Y-189087475D01*
X155502817Y-189028509D01*
X155857979Y-188965344D01*
X156166268Y-188900231D01*
X156413649Y-188835419D01*
X156540822Y-188792314D01*
X156622437Y-188756820D01*
X156631399Y-188733842D01*
X156578074Y-188708714D01*
X156501662Y-188689105D01*
X156353462Y-188659659D01*
X156145539Y-188622255D01*
X155889957Y-188578771D01*
X155598781Y-188531084D01*
X155284076Y-188481071D01*
X154957907Y-188430611D01*
X154632337Y-188381581D01*
X154319431Y-188335859D01*
X154031255Y-188295322D01*
X153779872Y-188261849D01*
X153577347Y-188237318D01*
X153491964Y-188228394D01*
X153415405Y-188225269D01*
X153263548Y-188222796D01*
X153044279Y-188220941D01*
X152765481Y-188219672D01*
X152435041Y-188218955D01*
X152060843Y-188218759D01*
X151650771Y-188219051D01*
X151212712Y-188219798D01*
X150754549Y-188220967D01*
X150284167Y-188222525D01*
X149809453Y-188224441D01*
X149338290Y-188226682D01*
X148878563Y-188229214D01*
X148438157Y-188232006D01*
X148024958Y-188235024D01*
X147646850Y-188238237D01*
X147311718Y-188241610D01*
X147027448Y-188245113D01*
X146801923Y-188248711D01*
X146643029Y-188252373D01*
X146558650Y-188256066D01*
X146549298Y-188257128D01*
X146445746Y-188271381D01*
X146289002Y-188287965D01*
X146110359Y-188303617D01*
X146083631Y-188305682D01*
X145680863Y-188340662D01*
X145285986Y-188383362D01*
X144906994Y-188432207D01*
X144551882Y-188485623D01*
X144228645Y-188542034D01*
X143945277Y-188599867D01*
X143709772Y-188657546D01*
X143530125Y-188713498D01*
X143414330Y-188766148D01*
X143370381Y-188813921D01*
X143099326Y-188813921D01*
X143115396Y-188709522D01*
X143169699Y-188619547D01*
X143270306Y-188541110D01*
X143425482Y-188470058D01*
X143643491Y-188402235D01*
X143932599Y-188333487D01*
X144143852Y-188290022D01*
X144388390Y-188243475D01*
X144626480Y-188201278D01*
X144835044Y-188167315D01*
X144991001Y-188145468D01*
X145025298Y-188141739D01*
X145186986Y-188125647D01*
X145395525Y-188104057D01*
X145613622Y-188080848D01*
X145681464Y-188073481D01*
X145906836Y-188050573D01*
X146139566Y-188030699D01*
X146387261Y-188013640D01*
X146657529Y-187999180D01*
X146957976Y-187987103D01*
X147296210Y-187977190D01*
X147679836Y-187969224D01*
X148116463Y-187962990D01*
X148613696Y-187958269D01*
X149179143Y-187954845D01*
X149820411Y-187952501D01*
X149932203Y-187952208D01*
X150401495Y-187950803D01*
X150847201Y-187949023D01*
X151261853Y-187946925D01*
X151637986Y-187944570D01*
X151968136Y-187942016D01*
X152244837Y-187939322D01*
X152460623Y-187936547D01*
X152608030Y-187933749D01*
X152679592Y-187930988D01*
X152683869Y-187930495D01*
X152761065Y-187927449D01*
X152901039Y-187930931D01*
X153082223Y-187940149D01*
X153237964Y-187950791D01*
X153507279Y-187974950D01*
X153825911Y-188009642D01*
X154180710Y-188052902D01*
X154558526Y-188102767D01*
X154946208Y-188157272D01*
X155330607Y-188214454D01*
X155698571Y-188272346D01*
X156036951Y-188328987D01*
X156332596Y-188382410D01*
X156572356Y-188430653D01*
X156743082Y-188471750D01*
X156761788Y-188477136D01*
X156899262Y-188525968D01*
X156974826Y-188578371D01*
X157010390Y-188649859D01*
X157011438Y-188653922D01*
X157015575Y-188733842D01*
X157016995Y-188761267D01*
G04 #@! TA.AperFunction,EtchedComponent*
G36*
X157016995Y-188761267D02*
G01*
X156970896Y-188854826D01*
X156866152Y-188939161D01*
X156695771Y-189018834D01*
X156452762Y-189098404D01*
X156244521Y-189154261D01*
X155932231Y-189223359D01*
X155555407Y-189290803D01*
X155134172Y-189353886D01*
X154688653Y-189409902D01*
X154238975Y-189456144D01*
X153805263Y-189489905D01*
X153703631Y-189495970D01*
X153505036Y-189507902D01*
X153339014Y-189519518D01*
X153222846Y-189529495D01*
X153173814Y-189536510D01*
X153173737Y-189536552D01*
X153125929Y-189542637D01*
X153008829Y-189551214D01*
X152837742Y-189561336D01*
X152627971Y-189572057D01*
X152517570Y-189577157D01*
X152285962Y-189588647D01*
X152077279Y-189601124D01*
X151909585Y-189613352D01*
X151800940Y-189624094D01*
X151777464Y-189627823D01*
X151703409Y-189634529D01*
X151553907Y-189640592D01*
X151338175Y-189645997D01*
X151065430Y-189650727D01*
X150744889Y-189654766D01*
X150385770Y-189658098D01*
X149997289Y-189660708D01*
X149588664Y-189662578D01*
X149169112Y-189663694D01*
X148747851Y-189664039D01*
X148334096Y-189663597D01*
X147937066Y-189662352D01*
X147565978Y-189660288D01*
X147230049Y-189657389D01*
X146938495Y-189653639D01*
X146700535Y-189649022D01*
X146525384Y-189643523D01*
X146422298Y-189637128D01*
X145833650Y-189572045D01*
X145326035Y-189511299D01*
X144895955Y-189454408D01*
X144539913Y-189400894D01*
X144254412Y-189350278D01*
X144115460Y-189321087D01*
X143794677Y-189245937D01*
X143547970Y-189180868D01*
X143366033Y-189121252D01*
X143239563Y-189062455D01*
X143159257Y-188999848D01*
X143115809Y-188928798D01*
X143099917Y-188844675D01*
X143099131Y-188815190D01*
X143099326Y-188813921D01*
X143370381Y-188813921D01*
X143380286Y-188838112D01*
X143440561Y-188866770D01*
X143568078Y-188907504D01*
X143746919Y-188956497D01*
X143961165Y-189009931D01*
X144194897Y-189063990D01*
X144432196Y-189114854D01*
X144657144Y-189158707D01*
X144853822Y-189191730D01*
X144856439Y-189192118D01*
X145196362Y-189240875D01*
X145508734Y-189281780D01*
X145805465Y-189315499D01*
X146098465Y-189342701D01*
X146399646Y-189364051D01*
X146720917Y-189380217D01*
X147074191Y-189391866D01*
X147471377Y-189399665D01*
X147924387Y-189404282D01*
X148445132Y-189406384D01*
X148687131Y-189406677D01*
X149291900Y-189405693D01*
X149870078Y-189402127D01*
X150414226Y-189396144D01*
X150916901Y-189387908D01*
X151370663Y-189377582D01*
X151768073Y-189365333D01*
X152101688Y-189351323D01*
X152364068Y-189335716D01*
X152518298Y-189322125D01*
X152643121Y-189309468D01*
X152800879Y-189295572D01*
X153002293Y-189279615D01*
X153258085Y-189260775D01*
X153578975Y-189238230D01*
X153894131Y-189216679D01*
X154296438Y-189183811D01*
X154708011Y-189139993D01*
X155114816Y-189087475D01*
X155502817Y-189028509D01*
X155857979Y-188965344D01*
X156166268Y-188900231D01*
X156413649Y-188835419D01*
X156540822Y-188792314D01*
X156622437Y-188756820D01*
X156631399Y-188733842D01*
X156578074Y-188708714D01*
X156501662Y-188689105D01*
X156353462Y-188659659D01*
X156145539Y-188622255D01*
X155889957Y-188578771D01*
X155598781Y-188531084D01*
X155284076Y-188481071D01*
X154957907Y-188430611D01*
X154632337Y-188381581D01*
X154319431Y-188335859D01*
X154031255Y-188295322D01*
X153779872Y-188261849D01*
X153577347Y-188237318D01*
X153491964Y-188228394D01*
X153415405Y-188225269D01*
X153263548Y-188222796D01*
X153044279Y-188220941D01*
X152765481Y-188219672D01*
X152435041Y-188218955D01*
X152060843Y-188218759D01*
X151650771Y-188219051D01*
X151212712Y-188219798D01*
X150754549Y-188220967D01*
X150284167Y-188222525D01*
X149809453Y-188224441D01*
X149338290Y-188226682D01*
X148878563Y-188229214D01*
X148438157Y-188232006D01*
X148024958Y-188235024D01*
X147646850Y-188238237D01*
X147311718Y-188241610D01*
X147027448Y-188245113D01*
X146801923Y-188248711D01*
X146643029Y-188252373D01*
X146558650Y-188256066D01*
X146549298Y-188257128D01*
X146445746Y-188271381D01*
X146289002Y-188287965D01*
X146110359Y-188303617D01*
X146083631Y-188305682D01*
X145680863Y-188340662D01*
X145285986Y-188383362D01*
X144906994Y-188432207D01*
X144551882Y-188485623D01*
X144228645Y-188542034D01*
X143945277Y-188599867D01*
X143709772Y-188657546D01*
X143530125Y-188713498D01*
X143414330Y-188766148D01*
X143370381Y-188813921D01*
X143099326Y-188813921D01*
X143115396Y-188709522D01*
X143169699Y-188619547D01*
X143270306Y-188541110D01*
X143425482Y-188470058D01*
X143643491Y-188402235D01*
X143932599Y-188333487D01*
X144143852Y-188290022D01*
X144388390Y-188243475D01*
X144626480Y-188201278D01*
X144835044Y-188167315D01*
X144991001Y-188145468D01*
X145025298Y-188141739D01*
X145186986Y-188125647D01*
X145395525Y-188104057D01*
X145613622Y-188080848D01*
X145681464Y-188073481D01*
X145906836Y-188050573D01*
X146139566Y-188030699D01*
X146387261Y-188013640D01*
X146657529Y-187999180D01*
X146957976Y-187987103D01*
X147296210Y-187977190D01*
X147679836Y-187969224D01*
X148116463Y-187962990D01*
X148613696Y-187958269D01*
X149179143Y-187954845D01*
X149820411Y-187952501D01*
X149932203Y-187952208D01*
X150401495Y-187950803D01*
X150847201Y-187949023D01*
X151261853Y-187946925D01*
X151637986Y-187944570D01*
X151968136Y-187942016D01*
X152244837Y-187939322D01*
X152460623Y-187936547D01*
X152608030Y-187933749D01*
X152679592Y-187930988D01*
X152683869Y-187930495D01*
X152761065Y-187927449D01*
X152901039Y-187930931D01*
X153082223Y-187940149D01*
X153237964Y-187950791D01*
X153507279Y-187974950D01*
X153825911Y-188009642D01*
X154180710Y-188052902D01*
X154558526Y-188102767D01*
X154946208Y-188157272D01*
X155330607Y-188214454D01*
X155698571Y-188272346D01*
X156036951Y-188328987D01*
X156332596Y-188382410D01*
X156572356Y-188430653D01*
X156743082Y-188471750D01*
X156761788Y-188477136D01*
X156899262Y-188525968D01*
X156974826Y-188578371D01*
X157010390Y-188649859D01*
X157011438Y-188653922D01*
X157015575Y-188733842D01*
X157016995Y-188761267D01*
G37*
G04 #@! TD.AperFunction*
X154486984Y-153111631D02*
X154709336Y-153215660D01*
X154924338Y-153325679D01*
X155082815Y-153418273D01*
X155206332Y-153508742D01*
X155316451Y-153612388D01*
X155403374Y-153708153D01*
X155642347Y-154034749D01*
X155807029Y-154376902D01*
X155808891Y-154384347D01*
X155894326Y-154725858D01*
X155901149Y-155072865D01*
X155897330Y-155106770D01*
X155861510Y-155250807D01*
X155782547Y-155462387D01*
X155662376Y-155737386D01*
X155502930Y-156071678D01*
X155306141Y-156461136D01*
X155073944Y-156901634D01*
X155033748Y-156975944D01*
X154942080Y-157145404D01*
X154694233Y-157671842D01*
X154681525Y-157698834D01*
X154482662Y-158293395D01*
X154344377Y-158923404D01*
X154323979Y-159050431D01*
X154307673Y-159173914D01*
X154295186Y-159304207D01*
X154286243Y-159451666D01*
X154280569Y-159626646D01*
X154277888Y-159839504D01*
X154277927Y-160100593D01*
X154280411Y-160420271D01*
X154285065Y-160808891D01*
X154288229Y-161040070D01*
X154293807Y-161410811D01*
X154299748Y-161759008D01*
X154305829Y-162074632D01*
X154311825Y-162347656D01*
X154317515Y-162568051D01*
X154322674Y-162725788D01*
X154327080Y-162810838D01*
X154327828Y-162818070D01*
X154335448Y-162905641D01*
X154345075Y-163058563D01*
X154355633Y-163257579D01*
X154366047Y-163483431D01*
X154369201Y-163558904D01*
X154379836Y-163806490D01*
X154391283Y-164050115D01*
X154402295Y-164264573D01*
X154411627Y-164424662D01*
X154413179Y-164447904D01*
X154422975Y-164605333D01*
X154434673Y-164816821D01*
X154446637Y-165051834D01*
X154455070Y-165231070D01*
X154470103Y-165553346D01*
X154485523Y-165857356D01*
X154502139Y-166154808D01*
X154520759Y-166457408D01*
X154542192Y-166776861D01*
X154567247Y-167124875D01*
X154596731Y-167513155D01*
X154631453Y-167953407D01*
X154672223Y-168457338D01*
X154683587Y-168595779D01*
X154707979Y-168892904D01*
X154719043Y-169041083D01*
X154732365Y-169240102D01*
X154745729Y-169456252D01*
X154751106Y-169549070D01*
X154763728Y-169762007D01*
X154777210Y-169972806D01*
X154789362Y-170147760D01*
X154793766Y-170205237D01*
X154816673Y-170515233D01*
X154841125Y-170892419D01*
X154866025Y-171319361D01*
X154880146Y-171581070D01*
X154899363Y-171874270D01*
X154929756Y-172241466D01*
X154970221Y-172672886D01*
X155019653Y-173158756D01*
X155076949Y-173689301D01*
X155141004Y-174254748D01*
X155210714Y-174845322D01*
X155284975Y-175451250D01*
X155362682Y-176062758D01*
X155442732Y-176670072D01*
X155513815Y-177190237D01*
X155568063Y-177583619D01*
X155626013Y-178009793D01*
X155684525Y-178445249D01*
X155740457Y-178866476D01*
X155790667Y-179249965D01*
X155830584Y-179560904D01*
X155863924Y-179820155D01*
X155896200Y-180059732D01*
X155929022Y-180287976D01*
X155964006Y-180513229D01*
X156002763Y-180743835D01*
X156046906Y-180988136D01*
X156098048Y-181254473D01*
X156157803Y-181551189D01*
X156227783Y-181886626D01*
X156309601Y-182269127D01*
X156404869Y-182707033D01*
X156515202Y-183208688D01*
X156642211Y-183782434D01*
X156677711Y-183942404D01*
X156748284Y-184264745D01*
X156824680Y-184621499D01*
X156904694Y-185001696D01*
X156986125Y-185394368D01*
X157066768Y-185788544D01*
X157144419Y-186173257D01*
X157216877Y-186537537D01*
X157281936Y-186870415D01*
X157337395Y-187160922D01*
X157381048Y-187398089D01*
X157410694Y-187570946D01*
X157421779Y-187646570D01*
X157451018Y-187794224D01*
X157503909Y-187985921D01*
X157513062Y-188013563D01*
X157570781Y-188187874D01*
X157596351Y-188256417D01*
X157671365Y-188464398D01*
X157709417Y-188618875D01*
X157710270Y-188693357D01*
X157710832Y-188742356D01*
X157675940Y-188857351D01*
X157606933Y-188983347D01*
X157490675Y-189107115D01*
X157300345Y-189230530D01*
X157046481Y-189350219D01*
X156739624Y-189462808D01*
X156390313Y-189564926D01*
X156009088Y-189653199D01*
X155606489Y-189724253D01*
X155193056Y-189774718D01*
X155111517Y-189781917D01*
X154584073Y-189824737D01*
X154131582Y-189859880D01*
X153744748Y-189888045D01*
X153414273Y-189909930D01*
X153375836Y-189912297D01*
X153172836Y-189925381D01*
X152985804Y-189938673D01*
X152840849Y-189950256D01*
X152783169Y-189955782D01*
X152630362Y-189967803D01*
X152401959Y-189979090D01*
X152107029Y-189989578D01*
X151754639Y-189999203D01*
X151353859Y-190007899D01*
X150913757Y-190015602D01*
X150443401Y-190022247D01*
X149951858Y-190027769D01*
X149448199Y-190032104D01*
X148941490Y-190035187D01*
X148440801Y-190036953D01*
X147955200Y-190037337D01*
X147493754Y-190036275D01*
X147065533Y-190033701D01*
X146679604Y-190029552D01*
X146345037Y-190023762D01*
X146070899Y-190016267D01*
X145866258Y-190007002D01*
X145840503Y-190005347D01*
X145272589Y-189956179D01*
X144708996Y-189887315D01*
X144170862Y-189802020D01*
X143679324Y-189703558D01*
X143339455Y-189619052D01*
X143011195Y-189515468D01*
X142759864Y-189403739D01*
X142577728Y-189276783D01*
X142457056Y-189127520D01*
X142390115Y-188948869D01*
X142378599Y-188830580D01*
X142623169Y-188830580D01*
X142658783Y-188939446D01*
X142752400Y-189059079D01*
X142884182Y-189166937D01*
X142955254Y-189207950D01*
X143189229Y-189302481D01*
X143507207Y-189394281D01*
X143908566Y-189483220D01*
X144392682Y-189569171D01*
X144958932Y-189652004D01*
X145332503Y-189699507D01*
X145631261Y-189729656D01*
X145982868Y-189753880D01*
X146392165Y-189772288D01*
X146863992Y-189784992D01*
X147403189Y-189792102D01*
X148014597Y-189793729D01*
X148703057Y-189789983D01*
X149108703Y-189785763D01*
X149540636Y-189780363D01*
X149955663Y-189774698D01*
X150344367Y-189768928D01*
X150697332Y-189763215D01*
X151005139Y-189757720D01*
X151258371Y-189752604D01*
X151447612Y-189748028D01*
X151563443Y-189744155D01*
X151576669Y-189743495D01*
X151731525Y-189735470D01*
X151944842Y-189725139D01*
X152190492Y-189713734D01*
X152442343Y-189702489D01*
X152486836Y-189700555D01*
X152721962Y-189689715D01*
X152941066Y-189678412D01*
X153123293Y-189667802D01*
X153247788Y-189659047D01*
X153270003Y-189657031D01*
X153387079Y-189647056D01*
X153559906Y-189634443D01*
X153759700Y-189621234D01*
X153862669Y-189614930D01*
X154202241Y-189591807D01*
X154599564Y-189559781D01*
X155028453Y-189521070D01*
X155380302Y-189486410D01*
X155559100Y-189460914D01*
X155792744Y-189417557D01*
X156054815Y-189362249D01*
X156318898Y-189300901D01*
X156558576Y-189239420D01*
X156747432Y-189183718D01*
X156775052Y-189174392D01*
X157056291Y-189060493D01*
X157265469Y-188940449D01*
X157399209Y-188817117D01*
X157454131Y-188693357D01*
X157443981Y-188608301D01*
X157367116Y-188505497D01*
X157215835Y-188399557D01*
X157000142Y-188293834D01*
X156730040Y-188191683D01*
X156415531Y-188096457D01*
X156066617Y-188011510D01*
X155693302Y-187940194D01*
X155305587Y-187885863D01*
X155280836Y-187883079D01*
X155027323Y-187856587D01*
X154723624Y-187827410D01*
X154387807Y-187797044D01*
X154037938Y-187766986D01*
X153692087Y-187738734D01*
X153368319Y-187713785D01*
X153084703Y-187693637D01*
X152859306Y-187679787D01*
X152783169Y-187676072D01*
X152688680Y-187673707D01*
X152518470Y-187671245D01*
X152281486Y-187668749D01*
X151986674Y-187666284D01*
X151642979Y-187663916D01*
X151259349Y-187661708D01*
X150844728Y-187659727D01*
X150408064Y-187658036D01*
X150200836Y-187657369D01*
X149606482Y-187656376D01*
X149089439Y-187657308D01*
X148642372Y-187660295D01*
X148257945Y-187665468D01*
X147928822Y-187672959D01*
X147647667Y-187682898D01*
X147407145Y-187695417D01*
X147199918Y-187710646D01*
X147195169Y-187711057D01*
X146465948Y-187779737D01*
X145792534Y-187854127D01*
X145178869Y-187933553D01*
X144628891Y-188017344D01*
X144146541Y-188104826D01*
X143735758Y-188195328D01*
X143400482Y-188288177D01*
X143144652Y-188382700D01*
X143079430Y-188413587D01*
X142928782Y-188504103D01*
X142791109Y-188610809D01*
X142684724Y-188716968D01*
X142627942Y-188805843D01*
X142623169Y-188830580D01*
X142378599Y-188830580D01*
X142369173Y-188733750D01*
X142369169Y-188730541D01*
X142377329Y-188617112D01*
X142400070Y-188437773D01*
X142420088Y-188306156D01*
X142665584Y-188306156D01*
X142676204Y-188318111D01*
X142722674Y-188302340D01*
X142818944Y-188254623D01*
X142940669Y-188190886D01*
X143153312Y-188094932D01*
X143417816Y-188004595D01*
X143738960Y-187918937D01*
X144121525Y-187837020D01*
X144570290Y-187757905D01*
X145090034Y-187680654D01*
X145685538Y-187604328D01*
X146263836Y-187538504D01*
X146429159Y-187520391D01*
X146594816Y-187501952D01*
X146623669Y-187498699D01*
X146791038Y-187481009D01*
X146961967Y-187465879D01*
X147144305Y-187453121D01*
X147345902Y-187442544D01*
X147574607Y-187433962D01*
X147838270Y-187427185D01*
X148144739Y-187422024D01*
X148501864Y-187418291D01*
X148917494Y-187415797D01*
X149399479Y-187414354D01*
X149955667Y-187413772D01*
X150158503Y-187413737D01*
X150867809Y-187414579D01*
X151496985Y-187417170D01*
X152050553Y-187421609D01*
X152533033Y-187427993D01*
X152948946Y-187436422D01*
X153302813Y-187446993D01*
X153599156Y-187459806D01*
X153842494Y-187474957D01*
X154037349Y-187492546D01*
X154095503Y-187499369D01*
X154188080Y-187509740D01*
X154346630Y-187526160D01*
X154552829Y-187546785D01*
X154788351Y-187569771D01*
X154928974Y-187583249D01*
X155183311Y-187608769D01*
X155428625Y-187635733D01*
X155643351Y-187661605D01*
X155805931Y-187683852D01*
X155860307Y-187692712D01*
X156055628Y-187732699D01*
X156281340Y-187786472D01*
X156515063Y-187847875D01*
X156734413Y-187910752D01*
X156917011Y-187968948D01*
X157040474Y-188016307D01*
X157045543Y-188018684D01*
X157141638Y-188057138D01*
X157200511Y-188067032D01*
X157205114Y-188064737D01*
X157207379Y-188013563D01*
X157192946Y-187887425D01*
X157163328Y-187694045D01*
X157120038Y-187441143D01*
X157064589Y-187136442D01*
X156998497Y-186787662D01*
X156923272Y-186402525D01*
X156840430Y-185988751D01*
X156751484Y-185554063D01*
X156657946Y-185106180D01*
X156561331Y-184652826D01*
X156463152Y-184201719D01*
X156364922Y-183760583D01*
X156339015Y-183646070D01*
X156257165Y-183281670D01*
X156169570Y-182884971D01*
X156081701Y-182481200D01*
X155999026Y-182095587D01*
X155927013Y-181753359D01*
X155893960Y-181592904D01*
X155835499Y-181302280D01*
X155785226Y-181041710D01*
X155740793Y-180796080D01*
X155699850Y-180550278D01*
X155660049Y-180289192D01*
X155619041Y-179997710D01*
X155574476Y-179660720D01*
X155524006Y-179263108D01*
X155492565Y-179010570D01*
X155441647Y-178605401D01*
X155391697Y-178221015D01*
X155339562Y-177834220D01*
X155282087Y-177421826D01*
X155216118Y-176960640D01*
X155178803Y-176703404D01*
X155139149Y-176423424D01*
X155099826Y-176132357D01*
X155064397Y-175857480D01*
X155036424Y-175626070D01*
X155026776Y-175539237D01*
X154998531Y-175285879D01*
X154964531Y-174998934D01*
X154930781Y-174728658D01*
X154920529Y-174650237D01*
X154893765Y-174447233D01*
X154871233Y-174271809D01*
X154851005Y-174107091D01*
X154831156Y-173936204D01*
X154809760Y-173742276D01*
X154784889Y-173508432D01*
X154754618Y-173217799D01*
X154732040Y-172999237D01*
X154688242Y-172621729D01*
X154636116Y-172272971D01*
X154570054Y-171921288D01*
X154484447Y-171535007D01*
X154439707Y-171348237D01*
X154277356Y-170669711D01*
X154138172Y-170058126D01*
X154019872Y-169499673D01*
X153920172Y-168980544D01*
X153836787Y-168486928D01*
X153767434Y-168005018D01*
X153709828Y-167521003D01*
X153661685Y-167021075D01*
X153620722Y-166491425D01*
X153609954Y-166331737D01*
X153592420Y-166074792D01*
X153574591Y-165840337D01*
X153554361Y-165604394D01*
X153529621Y-165342987D01*
X153498265Y-165032139D01*
X153481590Y-164871237D01*
X153421607Y-164253986D01*
X153374920Y-163672317D01*
X153338537Y-163084694D01*
X153312344Y-162521737D01*
X153293902Y-162078778D01*
X153277144Y-161710515D01*
X153261093Y-161407019D01*
X153244770Y-161158361D01*
X153228162Y-160965800D01*
X153766217Y-160965800D01*
X153768058Y-161306313D01*
X153772940Y-161663005D01*
X153780673Y-162022198D01*
X153791066Y-162370214D01*
X153803930Y-162693374D01*
X153819075Y-162977999D01*
X153836311Y-163210411D01*
X153837208Y-163220237D01*
X153858240Y-163457961D01*
X153879435Y-163713716D01*
X153897332Y-163945189D01*
X153903004Y-164024570D01*
X153940160Y-164559849D01*
X153972544Y-165017206D01*
X154000671Y-165403218D01*
X154025053Y-165724466D01*
X154046204Y-165987528D01*
X154064639Y-166198984D01*
X154080871Y-166365412D01*
X154095413Y-166493391D01*
X154096380Y-166501070D01*
X154160573Y-167003641D01*
X154215692Y-167426884D01*
X154262422Y-167775578D01*
X154301446Y-168054498D01*
X154333450Y-168268420D01*
X154359117Y-168422120D01*
X154379133Y-168520375D01*
X154391809Y-168562924D01*
X154416994Y-168614708D01*
X154422869Y-168595779D01*
X154413959Y-168511904D01*
X154400873Y-168391794D01*
X154385409Y-168225427D01*
X154372388Y-168067404D01*
X154323505Y-167418344D01*
X154282728Y-166850480D01*
X154249853Y-166360752D01*
X154224676Y-165946097D01*
X154206995Y-165603455D01*
X154203668Y-165527404D01*
X154189503Y-165201837D01*
X154174841Y-164893967D01*
X154158321Y-164577668D01*
X154138585Y-164226815D01*
X154116669Y-163855237D01*
X154110458Y-163745402D01*
X154104057Y-163618152D01*
X154097124Y-163464727D01*
X154089313Y-163276368D01*
X154080281Y-163044317D01*
X154069685Y-162759814D01*
X154057179Y-162414101D01*
X154042421Y-161998419D01*
X154031054Y-161675070D01*
X154023598Y-161419808D01*
X154016806Y-161108166D01*
X154011162Y-160768434D01*
X154007149Y-160428898D01*
X154005420Y-160172237D01*
X154002042Y-159304404D01*
X153920725Y-159509954D01*
X153873168Y-159658732D01*
X153827120Y-159849954D01*
X153793051Y-160039120D01*
X153780832Y-160178128D01*
X153772414Y-160388030D01*
X153767605Y-160655147D01*
X153766217Y-160965800D01*
X153228162Y-160965800D01*
X153227197Y-160954611D01*
X153207398Y-160785841D01*
X153184393Y-160642122D01*
X153157206Y-160513525D01*
X153124858Y-160390121D01*
X153091388Y-160278070D01*
X152996433Y-160016567D01*
X152889964Y-159821308D01*
X152759380Y-159673878D01*
X152600618Y-159560824D01*
X152500236Y-159512669D01*
X152371480Y-159472289D01*
X152203627Y-159437979D01*
X151985952Y-159408039D01*
X151707730Y-159380766D01*
X151358237Y-159354456D01*
X151259169Y-159347875D01*
X151015390Y-159330617D01*
X150795506Y-159312442D01*
X150614156Y-159294791D01*
X150485979Y-159279109D01*
X150425615Y-159266840D01*
X150423398Y-159265467D01*
X150458379Y-159254613D01*
X150561303Y-159232070D01*
X150716766Y-159201019D01*
X150909359Y-159164640D01*
X150931398Y-159160588D01*
X151377197Y-159074124D01*
X151747842Y-158991133D01*
X152052596Y-158908560D01*
X152300720Y-158823354D01*
X152501477Y-158732460D01*
X152664127Y-158632825D01*
X152757646Y-158558561D01*
X152876681Y-158446334D01*
X152938290Y-158372049D01*
X152940756Y-158340653D01*
X152882364Y-158357094D01*
X152814919Y-158393436D01*
X152717850Y-158440332D01*
X152563533Y-158503469D01*
X152375460Y-158573593D01*
X152227360Y-158624880D01*
X151939296Y-158710357D01*
X151633965Y-158778198D01*
X151300478Y-158829409D01*
X150927947Y-158864998D01*
X150505481Y-158885971D01*
X150022192Y-158893335D01*
X149467192Y-158888099D01*
X149396503Y-158886697D01*
X149084159Y-158879396D01*
X148788732Y-158870978D01*
X148524175Y-158861960D01*
X148304439Y-158852855D01*
X148143478Y-158844179D01*
X148063003Y-158837491D01*
X147816067Y-158795398D01*
X147570359Y-158732795D01*
X147350161Y-158657344D01*
X147179751Y-158576706D01*
X147127996Y-158542472D01*
X147031367Y-158477551D01*
X146989304Y-158467020D01*
X146999872Y-158502212D01*
X147061136Y-158574463D01*
X147154463Y-158660975D01*
X147224874Y-158718663D01*
X147295775Y-158768097D01*
X147379045Y-158814181D01*
X147486566Y-158861819D01*
X147630218Y-158915918D01*
X147821883Y-158981382D01*
X148073441Y-159063115D01*
X148315019Y-159140092D01*
X148527158Y-159208855D01*
X148703941Y-159268921D01*
X148832821Y-159315798D01*
X148901249Y-159344993D01*
X148907685Y-159352281D01*
X148853758Y-159359962D01*
X148730638Y-159373940D01*
X148553431Y-159392610D01*
X148337242Y-159414365D01*
X148181318Y-159429557D01*
X147892445Y-159458715D01*
X147672582Y-159485489D01*
X147506298Y-159513647D01*
X147378160Y-159546958D01*
X147272736Y-159589190D01*
X147174593Y-159644112D01*
X147099735Y-159693655D01*
X146956174Y-159811583D01*
X146858196Y-159945645D01*
X146796139Y-160116271D01*
X146760339Y-160343895D01*
X146753283Y-160426237D01*
X146738476Y-160613450D01*
X146735749Y-160644498D01*
X146723254Y-160786705D01*
X146710426Y-160914423D01*
X146708085Y-160934237D01*
X146694175Y-161078494D01*
X146678327Y-161300950D01*
X146660923Y-161595167D01*
X146642345Y-161954710D01*
X146623891Y-162352404D01*
X146604996Y-162771351D01*
X146588015Y-163125201D01*
X146571688Y-163433465D01*
X146554759Y-163715652D01*
X146535968Y-163991274D01*
X146514057Y-164279841D01*
X146487768Y-164600862D01*
X146455843Y-164973849D01*
X146451889Y-165019404D01*
X146423628Y-165346378D01*
X146396579Y-165662640D01*
X146371985Y-165953388D01*
X146351091Y-166203817D01*
X146335141Y-166399123D01*
X146325546Y-166522237D01*
X146311445Y-166705918D01*
X146296988Y-166881205D01*
X146285405Y-167009070D01*
X146272843Y-167141517D01*
X146256916Y-167317281D01*
X146243116Y-167474737D01*
X146206443Y-167874595D01*
X146169036Y-168207658D01*
X146126508Y-168491720D01*
X146074474Y-168744572D01*
X146008545Y-168984008D01*
X145924337Y-169227822D01*
X145817461Y-169493805D01*
X145683532Y-169799752D01*
X145653444Y-169866570D01*
X145299677Y-170649737D01*
X145100330Y-172678266D01*
X145060108Y-173086407D01*
X145022014Y-173470731D01*
X144986917Y-173822628D01*
X144955685Y-174133494D01*
X144929188Y-174394720D01*
X144908293Y-174597700D01*
X144893870Y-174733826D01*
X144886787Y-174794492D01*
X144886717Y-174794932D01*
X144876815Y-174867884D01*
X144859549Y-175006836D01*
X144837119Y-175193664D01*
X144811722Y-175410245D01*
X144804150Y-175475737D01*
X144764403Y-175802987D01*
X144712687Y-176201008D01*
X144650852Y-176657040D01*
X144580751Y-177158323D01*
X144504235Y-177692097D01*
X144423156Y-178245602D01*
X144339365Y-178806078D01*
X144254713Y-179360765D01*
X144171052Y-179896904D01*
X144090233Y-180401733D01*
X144082395Y-180449904D01*
X144032922Y-180754125D01*
X143974025Y-181117348D01*
X143909682Y-181514976D01*
X143843872Y-181922412D01*
X143780571Y-182315058D01*
X143743507Y-182545404D01*
X143681522Y-182920613D01*
X143607502Y-183351909D01*
X143526238Y-183812398D01*
X143442522Y-184275191D01*
X143361148Y-184713395D01*
X143302175Y-185021904D01*
X143228494Y-185402959D01*
X143149950Y-185812138D01*
X143070838Y-186226867D01*
X142995451Y-186624572D01*
X142928082Y-186982682D01*
X142876555Y-187259501D01*
X142825114Y-187534987D01*
X142777450Y-187784674D01*
X142736089Y-187995773D01*
X142703556Y-188155494D01*
X142682377Y-188251049D01*
X142676863Y-188270695D01*
X142665584Y-188306156D01*
X142420088Y-188306156D01*
X142434786Y-188209516D01*
X142478871Y-187949334D01*
X142529720Y-187674219D01*
X142536669Y-187638355D01*
X142592925Y-187347040D01*
X142648589Y-187054107D01*
X142699708Y-186780703D01*
X142742328Y-186547979D01*
X142772495Y-186377082D01*
X142772582Y-186376570D01*
X142801684Y-186213052D01*
X142843957Y-185985668D01*
X142895753Y-185713532D01*
X142953424Y-185415759D01*
X143013320Y-185111461D01*
X143031149Y-185021904D01*
X143110596Y-184610780D01*
X143199757Y-184126078D01*
X143296990Y-183578119D01*
X143400653Y-182977228D01*
X143509104Y-182333726D01*
X143620703Y-181657937D01*
X143733807Y-180960183D01*
X143846775Y-180250788D01*
X143957966Y-179540075D01*
X144065738Y-178838365D01*
X144168449Y-178155983D01*
X144264459Y-177503251D01*
X144352125Y-176890492D01*
X144429805Y-176328029D01*
X144495859Y-175826184D01*
X144505403Y-175750904D01*
X144535357Y-175502859D01*
X144572094Y-175181663D01*
X144614464Y-174798462D01*
X144661318Y-174364398D01*
X144711507Y-173890616D01*
X144763881Y-173388260D01*
X144817291Y-172868475D01*
X144870588Y-172342403D01*
X144922623Y-171821189D01*
X144972245Y-171315977D01*
X145018305Y-170837912D01*
X145059655Y-170398137D01*
X145077372Y-170205237D01*
X145103704Y-169915975D01*
X145128616Y-169642372D01*
X145150683Y-169400087D01*
X145159147Y-169307187D01*
X145431310Y-169307187D01*
X145439573Y-169309998D01*
X145463000Y-169236590D01*
X145497892Y-169104570D01*
X145565340Y-168789140D01*
X145627789Y-168392299D01*
X145684907Y-167917177D01*
X145736360Y-167366901D01*
X145781817Y-166744599D01*
X145819735Y-166077737D01*
X145831365Y-165854942D01*
X145843804Y-165633044D01*
X145855218Y-165444049D01*
X145860932Y-165358070D01*
X145871019Y-165205193D01*
X145883614Y-164999756D01*
X145896789Y-164773753D01*
X145904343Y-164638404D01*
X145916288Y-164434516D01*
X145928531Y-164249924D01*
X145939410Y-164108471D01*
X145945589Y-164045737D01*
X145950689Y-163970366D01*
X145956990Y-163822922D01*
X145964091Y-163615984D01*
X145971594Y-163362132D01*
X145979098Y-163073945D01*
X145985953Y-162775737D01*
X145993744Y-162434466D01*
X146002501Y-162086258D01*
X146011673Y-161750631D01*
X146020714Y-161447103D01*
X146029072Y-161195192D01*
X146034173Y-161061237D01*
X146040186Y-160644498D01*
X146025341Y-160230986D01*
X145991384Y-159840930D01*
X145940057Y-159494560D01*
X145875410Y-159219737D01*
X145831515Y-159083278D01*
X145796195Y-158992207D01*
X145776026Y-158963072D01*
X145774495Y-158965737D01*
X145771704Y-159015079D01*
X145768235Y-159141023D01*
X145764216Y-159335505D01*
X145759777Y-159590465D01*
X145755045Y-159897840D01*
X145750150Y-160249570D01*
X145745220Y-160637591D01*
X145740384Y-161053842D01*
X145738687Y-161209404D01*
X145733817Y-161636395D01*
X145728651Y-162040112D01*
X145723333Y-162412185D01*
X145718011Y-162744243D01*
X145712830Y-163027915D01*
X145707935Y-163254831D01*
X145703474Y-163416619D01*
X145699592Y-163504909D01*
X145698450Y-163516570D01*
X145692483Y-163588345D01*
X145684928Y-163731173D01*
X145676344Y-163931470D01*
X145667291Y-164175651D01*
X145658327Y-164450130D01*
X145654008Y-164596070D01*
X145644861Y-164906022D01*
X145635180Y-165216151D01*
X145625619Y-165506720D01*
X145616832Y-165757993D01*
X145609475Y-165950232D01*
X145607661Y-165993070D01*
X145598112Y-166212271D01*
X145586558Y-166479270D01*
X145574587Y-166757277D01*
X145565614Y-166966737D01*
X145545269Y-167422332D01*
X145524258Y-167854449D01*
X145503203Y-168252183D01*
X145482726Y-168604626D01*
X145463448Y-168900871D01*
X145445990Y-169130010D01*
X145436562Y-169231570D01*
X145431310Y-169307187D01*
X145159147Y-169307187D01*
X145168478Y-169204779D01*
X145180575Y-169072107D01*
X145183409Y-169041070D01*
X145194771Y-168900718D01*
X145208338Y-168709571D01*
X145221758Y-168501379D01*
X145226188Y-168427237D01*
X145239395Y-168201584D01*
X145253527Y-167961619D01*
X145266001Y-167751180D01*
X145268603Y-167707570D01*
X145277211Y-167546179D01*
X145287509Y-167326339D01*
X145298338Y-167074221D01*
X145308537Y-166815995D01*
X145310797Y-166755070D01*
X145321155Y-166474534D01*
X145332570Y-166169836D01*
X145343711Y-165876273D01*
X145353247Y-165629140D01*
X145353915Y-165612070D01*
X145361759Y-165400698D01*
X145371161Y-165129810D01*
X145381287Y-164824524D01*
X145391299Y-164509955D01*
X145398996Y-164257404D01*
X145407812Y-163987922D01*
X145417468Y-163738394D01*
X145427233Y-163524618D01*
X145436382Y-163362390D01*
X145444185Y-163267505D01*
X145444830Y-163262570D01*
X145449053Y-163193533D01*
X145453806Y-163047965D01*
X145458949Y-162833999D01*
X145464343Y-162559770D01*
X145469846Y-162233411D01*
X145475320Y-161863055D01*
X145480624Y-161456835D01*
X145485618Y-161022885D01*
X145488908Y-160701404D01*
X145493805Y-160187639D01*
X145497610Y-159751294D01*
X145500155Y-159385127D01*
X145501273Y-159081897D01*
X145500796Y-158834362D01*
X145498557Y-158635281D01*
X145494388Y-158477413D01*
X145488121Y-158353514D01*
X145479589Y-158256345D01*
X145468624Y-158178663D01*
X145455058Y-158113226D01*
X145438725Y-158052794D01*
X145426691Y-158013237D01*
X145344808Y-157773400D01*
X145314449Y-157693683D01*
X147095982Y-157693683D01*
X147096025Y-157801024D01*
X147179526Y-157903448D01*
X147345388Y-158000328D01*
X147592510Y-158091036D01*
X147919795Y-158174945D01*
X147949891Y-158181448D01*
X148245468Y-158239249D01*
X148534445Y-158283560D01*
X148832455Y-158315430D01*
X149155128Y-158335908D01*
X149518096Y-158346044D01*
X149936991Y-158346888D01*
X150332116Y-158341403D01*
X150714485Y-158332954D01*
X151026851Y-158322336D01*
X151283878Y-158307474D01*
X151500228Y-158286290D01*
X151690565Y-158256708D01*
X151869553Y-158216651D01*
X152051856Y-158164044D01*
X152252136Y-158096809D01*
X152378815Y-158051558D01*
X152585341Y-157966807D01*
X152718595Y-157883155D01*
X152788978Y-157788774D01*
X152806893Y-157671842D01*
X152795314Y-157578066D01*
X152773556Y-157505110D01*
X152731222Y-157440588D01*
X152656964Y-157376646D01*
X152539436Y-157305428D01*
X152367289Y-157219080D01*
X152129177Y-157109748D01*
X152099538Y-157096458D01*
X151868747Y-156995781D01*
X151688936Y-156925711D01*
X151535387Y-156878928D01*
X151383385Y-156848113D01*
X151208212Y-156825947D01*
X151174503Y-156822528D01*
X150979505Y-156800926D01*
X150799520Y-156776999D01*
X150662991Y-156754680D01*
X150624169Y-156746421D01*
X150489322Y-156727329D01*
X150325349Y-156722174D01*
X150264336Y-156724724D01*
X150140686Y-156732228D01*
X149956460Y-156742168D01*
X149735669Y-156753297D01*
X149502324Y-156764372D01*
X149481169Y-156765339D01*
X148909669Y-156791395D01*
X148258952Y-157050043D01*
X147918727Y-157192200D01*
X147627169Y-157328102D01*
X147391553Y-157453723D01*
X147219153Y-157565038D01*
X147117246Y-157658020D01*
X147095982Y-157693683D01*
X145314449Y-157693683D01*
X145234192Y-157482939D01*
X145102413Y-157158978D01*
X144957041Y-156818641D01*
X144903822Y-156699266D01*
X145840503Y-156699266D01*
X145872801Y-156757468D01*
X145950750Y-156766267D01*
X146002607Y-156747106D01*
X146102429Y-156707475D01*
X146263633Y-156658470D01*
X146464269Y-156605677D01*
X146682384Y-156554682D01*
X146896026Y-156511072D01*
X147004669Y-156492097D01*
X147262099Y-156458213D01*
X147568389Y-156430222D01*
X147908256Y-156408392D01*
X148266415Y-156392989D01*
X148627584Y-156384280D01*
X148976479Y-156382533D01*
X149297816Y-156388015D01*
X149576312Y-156400992D01*
X149796683Y-156421732D01*
X149909542Y-156441331D01*
X150011466Y-156455278D01*
X150181716Y-156467480D01*
X150403958Y-156477251D01*
X150661856Y-156483901D01*
X150939077Y-156486743D01*
X150989042Y-156486797D01*
X151265805Y-156487737D01*
X151524083Y-156490540D01*
X151748099Y-156494885D01*
X151922078Y-156500452D01*
X152030247Y-156506918D01*
X152042336Y-156508257D01*
X152403467Y-156555102D01*
X152691298Y-156593554D01*
X152916593Y-156625316D01*
X153090116Y-156652092D01*
X153222630Y-156675583D01*
X153324898Y-156697492D01*
X153407684Y-156719523D01*
X153439336Y-156729254D01*
X153567919Y-156773666D01*
X153664069Y-156813015D01*
X153693336Y-156829085D01*
X153755555Y-156864686D01*
X153850939Y-156908538D01*
X153951124Y-156949065D01*
X154027747Y-156974691D01*
X154053169Y-156975944D01*
X154016676Y-156930793D01*
X153918156Y-156862772D01*
X153774048Y-156780816D01*
X153600792Y-156693858D01*
X153414825Y-156610834D01*
X153291169Y-156561807D01*
X153008500Y-156464851D01*
X152707313Y-156379537D01*
X152376197Y-156303721D01*
X152003745Y-156235259D01*
X151578547Y-156172006D01*
X151089193Y-156111820D01*
X150645336Y-156064586D01*
X150447619Y-156044378D01*
X150274778Y-156026162D01*
X150148139Y-156012218D01*
X150095003Y-156005752D01*
X149995301Y-155998635D01*
X149828479Y-155994182D01*
X149612038Y-155992205D01*
X149363477Y-155992518D01*
X149100296Y-155994933D01*
X148839994Y-155999262D01*
X148600070Y-156005319D01*
X148398025Y-156012917D01*
X148251357Y-156021868D01*
X148211169Y-156025901D01*
X148012838Y-156049671D01*
X147800057Y-156074296D01*
X147682003Y-156087499D01*
X147504218Y-156111167D01*
X147292734Y-156145280D01*
X147114400Y-156178366D01*
X146925489Y-156224265D01*
X146714854Y-156288264D01*
X146497626Y-156364174D01*
X146288933Y-156445810D01*
X146103904Y-156526986D01*
X145957670Y-156601514D01*
X145865360Y-156663209D01*
X145840503Y-156699266D01*
X144903822Y-156699266D01*
X144805648Y-156479050D01*
X144655803Y-156157330D01*
X144515078Y-155870602D01*
X144391042Y-155635991D01*
X144327275Y-155526541D01*
X144186038Y-155263252D01*
X144106533Y-155021194D01*
X144100750Y-154944070D01*
X145206946Y-154944070D01*
X145215373Y-155146820D01*
X145237651Y-155365037D01*
X145270533Y-155583345D01*
X145310774Y-155786366D01*
X145355130Y-155958723D01*
X145400355Y-156085038D01*
X145443205Y-156149933D01*
X145462416Y-156154634D01*
X145525506Y-156135765D01*
X145650543Y-156097597D01*
X145818610Y-156045924D01*
X145985690Y-155994314D01*
X146475124Y-155860097D01*
X147003841Y-155745290D01*
X147533389Y-155657316D01*
X147999503Y-155605568D01*
X148162878Y-155596402D01*
X148385131Y-155589190D01*
X148652921Y-155583897D01*
X148952902Y-155580483D01*
X149271734Y-155578912D01*
X149596071Y-155579146D01*
X149912572Y-155581147D01*
X150207893Y-155584878D01*
X150468691Y-155590302D01*
X150681623Y-155597381D01*
X150833345Y-155606078D01*
X150899336Y-155613714D01*
X151019645Y-155632693D01*
X151174320Y-155652409D01*
X151238003Y-155659341D01*
X151370625Y-155672912D01*
X151558537Y-155692197D01*
X151772808Y-155714225D01*
X151915336Y-155728898D01*
X152415431Y-155796875D01*
X152979218Y-155903554D01*
X153596282Y-156046689D01*
X154256210Y-156224030D01*
X154393545Y-156263734D01*
X154441657Y-156245640D01*
X154499316Y-156162443D01*
X154568736Y-156009442D01*
X154652131Y-155781932D01*
X154725709Y-155557904D01*
X154850180Y-155113039D01*
X154921900Y-154724797D01*
X154941826Y-154384347D01*
X154910911Y-154082857D01*
X154893561Y-154005355D01*
X154866751Y-153911697D01*
X154831476Y-153844887D01*
X154770671Y-153789411D01*
X154667270Y-153729754D01*
X154504208Y-153650399D01*
X154501978Y-153649339D01*
X154140865Y-153499929D01*
X153713625Y-153360595D01*
X153238606Y-153235752D01*
X152734159Y-153129815D01*
X152218633Y-153047201D01*
X151805366Y-153000398D01*
X151544515Y-152981484D01*
X151226755Y-152965954D01*
X150867976Y-152953926D01*
X150484068Y-152945519D01*
X150090920Y-152940853D01*
X149704421Y-152940046D01*
X149340461Y-152943218D01*
X149014929Y-152950488D01*
X148743716Y-152961975D01*
X148558751Y-152976064D01*
X148159062Y-153026672D01*
X147715999Y-153097920D01*
X147266367Y-153183247D01*
X146846972Y-153276092D01*
X146770938Y-153294741D01*
X146622562Y-153334769D01*
X146434400Y-153389843D01*
X146222371Y-153454798D01*
X146002390Y-153524470D01*
X145790377Y-153593694D01*
X145602247Y-153657305D01*
X145453920Y-153710138D01*
X145361311Y-153747028D01*
X145339155Y-153759319D01*
X145319753Y-153815351D01*
X145297100Y-153937312D01*
X145273270Y-154106634D01*
X145250335Y-154304747D01*
X145230366Y-154513083D01*
X145215436Y-154713071D01*
X145207617Y-154886142D01*
X145206946Y-154944070D01*
X144100750Y-154944070D01*
X144088657Y-154782790D01*
X144132301Y-154530466D01*
X144237360Y-154246643D01*
X144318510Y-154076237D01*
X144466616Y-153826007D01*
X144644884Y-153615322D01*
X144821606Y-153467046D01*
X145334716Y-153467046D01*
X145353669Y-153462332D01*
X145990872Y-153245171D01*
X146579747Y-153068664D01*
X147139864Y-152929475D01*
X147690793Y-152824264D01*
X148252103Y-152749694D01*
X148843363Y-152702427D01*
X149484143Y-152679126D01*
X149968003Y-152675279D01*
X150553165Y-152682400D01*
X151112097Y-152701453D01*
X151633594Y-152731613D01*
X152106452Y-152772057D01*
X152519465Y-152821959D01*
X152861431Y-152880495D01*
X152915846Y-152892168D01*
X153085292Y-152927941D01*
X153220692Y-152952811D01*
X153303012Y-152963473D01*
X153318710Y-152962141D01*
X153291423Y-152942355D01*
X153198161Y-152908551D01*
X153055541Y-152865347D01*
X152880178Y-152817361D01*
X152688688Y-152769211D01*
X152497687Y-152725513D01*
X152381003Y-152701555D01*
X152022967Y-152639618D01*
X151657270Y-152592263D01*
X151269279Y-152558568D01*
X150844365Y-152537611D01*
X150367895Y-152528468D01*
X149825239Y-152530218D01*
X149692836Y-152532013D01*
X149375184Y-152537471D01*
X149079827Y-152543742D01*
X148818923Y-152550475D01*
X148604628Y-152557318D01*
X148449099Y-152563917D01*
X148364494Y-152569921D01*
X148359336Y-152570640D01*
X148256275Y-152586279D01*
X148100295Y-152609007D01*
X147922348Y-152634325D01*
X147893669Y-152638348D01*
X147553479Y-152695983D01*
X147187743Y-152775401D01*
X146812791Y-152871593D01*
X146444956Y-152979550D01*
X146100570Y-153094262D01*
X145795963Y-153210720D01*
X145547467Y-153323915D01*
X145415949Y-153398336D01*
X145345496Y-153448220D01*
X145334716Y-153467046D01*
X144821606Y-153467046D01*
X144872617Y-153424246D01*
X145087895Y-153281564D01*
X145565859Y-153026604D01*
X146113408Y-152803047D01*
X146720407Y-152613770D01*
X147376725Y-152461649D01*
X148072229Y-152349561D01*
X148549836Y-152298738D01*
X148840386Y-152280499D01*
X149194904Y-152268531D01*
X149592941Y-152262663D01*
X150014044Y-152262723D01*
X150437760Y-152268537D01*
X150843640Y-152279936D01*
X151211230Y-152296746D01*
X151520079Y-152318795D01*
X151576669Y-152324187D01*
X151838788Y-152354536D01*
X152122519Y-152393824D01*
X152390053Y-152436504D01*
X152567778Y-152469523D01*
X152908856Y-152551658D01*
X153297546Y-152666076D01*
X153707617Y-152803636D01*
X154112840Y-152955201D01*
X154129438Y-152962141D01*
X154486984Y-153111631D01*
G04 #@! TA.AperFunction,EtchedComponent*
G36*
X154486984Y-153111631D02*
G01*
X154709336Y-153215660D01*
X154924338Y-153325679D01*
X155082815Y-153418273D01*
X155206332Y-153508742D01*
X155316451Y-153612388D01*
X155403374Y-153708153D01*
X155642347Y-154034749D01*
X155807029Y-154376902D01*
X155808891Y-154384347D01*
X155894326Y-154725858D01*
X155901149Y-155072865D01*
X155897330Y-155106770D01*
X155861510Y-155250807D01*
X155782547Y-155462387D01*
X155662376Y-155737386D01*
X155502930Y-156071678D01*
X155306141Y-156461136D01*
X155073944Y-156901634D01*
X155033748Y-156975944D01*
X154942080Y-157145404D01*
X154694233Y-157671842D01*
X154681525Y-157698834D01*
X154482662Y-158293395D01*
X154344377Y-158923404D01*
X154323979Y-159050431D01*
X154307673Y-159173914D01*
X154295186Y-159304207D01*
X154286243Y-159451666D01*
X154280569Y-159626646D01*
X154277888Y-159839504D01*
X154277927Y-160100593D01*
X154280411Y-160420271D01*
X154285065Y-160808891D01*
X154288229Y-161040070D01*
X154293807Y-161410811D01*
X154299748Y-161759008D01*
X154305829Y-162074632D01*
X154311825Y-162347656D01*
X154317515Y-162568051D01*
X154322674Y-162725788D01*
X154327080Y-162810838D01*
X154327828Y-162818070D01*
X154335448Y-162905641D01*
X154345075Y-163058563D01*
X154355633Y-163257579D01*
X154366047Y-163483431D01*
X154369201Y-163558904D01*
X154379836Y-163806490D01*
X154391283Y-164050115D01*
X154402295Y-164264573D01*
X154411627Y-164424662D01*
X154413179Y-164447904D01*
X154422975Y-164605333D01*
X154434673Y-164816821D01*
X154446637Y-165051834D01*
X154455070Y-165231070D01*
X154470103Y-165553346D01*
X154485523Y-165857356D01*
X154502139Y-166154808D01*
X154520759Y-166457408D01*
X154542192Y-166776861D01*
X154567247Y-167124875D01*
X154596731Y-167513155D01*
X154631453Y-167953407D01*
X154672223Y-168457338D01*
X154683587Y-168595779D01*
X154707979Y-168892904D01*
X154719043Y-169041083D01*
X154732365Y-169240102D01*
X154745729Y-169456252D01*
X154751106Y-169549070D01*
X154763728Y-169762007D01*
X154777210Y-169972806D01*
X154789362Y-170147760D01*
X154793766Y-170205237D01*
X154816673Y-170515233D01*
X154841125Y-170892419D01*
X154866025Y-171319361D01*
X154880146Y-171581070D01*
X154899363Y-171874270D01*
X154929756Y-172241466D01*
X154970221Y-172672886D01*
X155019653Y-173158756D01*
X155076949Y-173689301D01*
X155141004Y-174254748D01*
X155210714Y-174845322D01*
X155284975Y-175451250D01*
X155362682Y-176062758D01*
X155442732Y-176670072D01*
X155513815Y-177190237D01*
X155568063Y-177583619D01*
X155626013Y-178009793D01*
X155684525Y-178445249D01*
X155740457Y-178866476D01*
X155790667Y-179249965D01*
X155830584Y-179560904D01*
X155863924Y-179820155D01*
X155896200Y-180059732D01*
X155929022Y-180287976D01*
X155964006Y-180513229D01*
X156002763Y-180743835D01*
X156046906Y-180988136D01*
X156098048Y-181254473D01*
X156157803Y-181551189D01*
X156227783Y-181886626D01*
X156309601Y-182269127D01*
X156404869Y-182707033D01*
X156515202Y-183208688D01*
X156642211Y-183782434D01*
X156677711Y-183942404D01*
X156748284Y-184264745D01*
X156824680Y-184621499D01*
X156904694Y-185001696D01*
X156986125Y-185394368D01*
X157066768Y-185788544D01*
X157144419Y-186173257D01*
X157216877Y-186537537D01*
X157281936Y-186870415D01*
X157337395Y-187160922D01*
X157381048Y-187398089D01*
X157410694Y-187570946D01*
X157421779Y-187646570D01*
X157451018Y-187794224D01*
X157503909Y-187985921D01*
X157513062Y-188013563D01*
X157570781Y-188187874D01*
X157596351Y-188256417D01*
X157671365Y-188464398D01*
X157709417Y-188618875D01*
X157710270Y-188693357D01*
X157710832Y-188742356D01*
X157675940Y-188857351D01*
X157606933Y-188983347D01*
X157490675Y-189107115D01*
X157300345Y-189230530D01*
X157046481Y-189350219D01*
X156739624Y-189462808D01*
X156390313Y-189564926D01*
X156009088Y-189653199D01*
X155606489Y-189724253D01*
X155193056Y-189774718D01*
X155111517Y-189781917D01*
X154584073Y-189824737D01*
X154131582Y-189859880D01*
X153744748Y-189888045D01*
X153414273Y-189909930D01*
X153375836Y-189912297D01*
X153172836Y-189925381D01*
X152985804Y-189938673D01*
X152840849Y-189950256D01*
X152783169Y-189955782D01*
X152630362Y-189967803D01*
X152401959Y-189979090D01*
X152107029Y-189989578D01*
X151754639Y-189999203D01*
X151353859Y-190007899D01*
X150913757Y-190015602D01*
X150443401Y-190022247D01*
X149951858Y-190027769D01*
X149448199Y-190032104D01*
X148941490Y-190035187D01*
X148440801Y-190036953D01*
X147955200Y-190037337D01*
X147493754Y-190036275D01*
X147065533Y-190033701D01*
X146679604Y-190029552D01*
X146345037Y-190023762D01*
X146070899Y-190016267D01*
X145866258Y-190007002D01*
X145840503Y-190005347D01*
X145272589Y-189956179D01*
X144708996Y-189887315D01*
X144170862Y-189802020D01*
X143679324Y-189703558D01*
X143339455Y-189619052D01*
X143011195Y-189515468D01*
X142759864Y-189403739D01*
X142577728Y-189276783D01*
X142457056Y-189127520D01*
X142390115Y-188948869D01*
X142378599Y-188830580D01*
X142623169Y-188830580D01*
X142658783Y-188939446D01*
X142752400Y-189059079D01*
X142884182Y-189166937D01*
X142955254Y-189207950D01*
X143189229Y-189302481D01*
X143507207Y-189394281D01*
X143908566Y-189483220D01*
X144392682Y-189569171D01*
X144958932Y-189652004D01*
X145332503Y-189699507D01*
X145631261Y-189729656D01*
X145982868Y-189753880D01*
X146392165Y-189772288D01*
X146863992Y-189784992D01*
X147403189Y-189792102D01*
X148014597Y-189793729D01*
X148703057Y-189789983D01*
X149108703Y-189785763D01*
X149540636Y-189780363D01*
X149955663Y-189774698D01*
X150344367Y-189768928D01*
X150697332Y-189763215D01*
X151005139Y-189757720D01*
X151258371Y-189752604D01*
X151447612Y-189748028D01*
X151563443Y-189744155D01*
X151576669Y-189743495D01*
X151731525Y-189735470D01*
X151944842Y-189725139D01*
X152190492Y-189713734D01*
X152442343Y-189702489D01*
X152486836Y-189700555D01*
X152721962Y-189689715D01*
X152941066Y-189678412D01*
X153123293Y-189667802D01*
X153247788Y-189659047D01*
X153270003Y-189657031D01*
X153387079Y-189647056D01*
X153559906Y-189634443D01*
X153759700Y-189621234D01*
X153862669Y-189614930D01*
X154202241Y-189591807D01*
X154599564Y-189559781D01*
X155028453Y-189521070D01*
X155380302Y-189486410D01*
X155559100Y-189460914D01*
X155792744Y-189417557D01*
X156054815Y-189362249D01*
X156318898Y-189300901D01*
X156558576Y-189239420D01*
X156747432Y-189183718D01*
X156775052Y-189174392D01*
X157056291Y-189060493D01*
X157265469Y-188940449D01*
X157399209Y-188817117D01*
X157454131Y-188693357D01*
X157443981Y-188608301D01*
X157367116Y-188505497D01*
X157215835Y-188399557D01*
X157000142Y-188293834D01*
X156730040Y-188191683D01*
X156415531Y-188096457D01*
X156066617Y-188011510D01*
X155693302Y-187940194D01*
X155305587Y-187885863D01*
X155280836Y-187883079D01*
X155027323Y-187856587D01*
X154723624Y-187827410D01*
X154387807Y-187797044D01*
X154037938Y-187766986D01*
X153692087Y-187738734D01*
X153368319Y-187713785D01*
X153084703Y-187693637D01*
X152859306Y-187679787D01*
X152783169Y-187676072D01*
X152688680Y-187673707D01*
X152518470Y-187671245D01*
X152281486Y-187668749D01*
X151986674Y-187666284D01*
X151642979Y-187663916D01*
X151259349Y-187661708D01*
X150844728Y-187659727D01*
X150408064Y-187658036D01*
X150200836Y-187657369D01*
X149606482Y-187656376D01*
X149089439Y-187657308D01*
X148642372Y-187660295D01*
X148257945Y-187665468D01*
X147928822Y-187672959D01*
X147647667Y-187682898D01*
X147407145Y-187695417D01*
X147199918Y-187710646D01*
X147195169Y-187711057D01*
X146465948Y-187779737D01*
X145792534Y-187854127D01*
X145178869Y-187933553D01*
X144628891Y-188017344D01*
X144146541Y-188104826D01*
X143735758Y-188195328D01*
X143400482Y-188288177D01*
X143144652Y-188382700D01*
X143079430Y-188413587D01*
X142928782Y-188504103D01*
X142791109Y-188610809D01*
X142684724Y-188716968D01*
X142627942Y-188805843D01*
X142623169Y-188830580D01*
X142378599Y-188830580D01*
X142369173Y-188733750D01*
X142369169Y-188730541D01*
X142377329Y-188617112D01*
X142400070Y-188437773D01*
X142420088Y-188306156D01*
X142665584Y-188306156D01*
X142676204Y-188318111D01*
X142722674Y-188302340D01*
X142818944Y-188254623D01*
X142940669Y-188190886D01*
X143153312Y-188094932D01*
X143417816Y-188004595D01*
X143738960Y-187918937D01*
X144121525Y-187837020D01*
X144570290Y-187757905D01*
X145090034Y-187680654D01*
X145685538Y-187604328D01*
X146263836Y-187538504D01*
X146429159Y-187520391D01*
X146594816Y-187501952D01*
X146623669Y-187498699D01*
X146791038Y-187481009D01*
X146961967Y-187465879D01*
X147144305Y-187453121D01*
X147345902Y-187442544D01*
X147574607Y-187433962D01*
X147838270Y-187427185D01*
X148144739Y-187422024D01*
X148501864Y-187418291D01*
X148917494Y-187415797D01*
X149399479Y-187414354D01*
X149955667Y-187413772D01*
X150158503Y-187413737D01*
X150867809Y-187414579D01*
X151496985Y-187417170D01*
X152050553Y-187421609D01*
X152533033Y-187427993D01*
X152948946Y-187436422D01*
X153302813Y-187446993D01*
X153599156Y-187459806D01*
X153842494Y-187474957D01*
X154037349Y-187492546D01*
X154095503Y-187499369D01*
X154188080Y-187509740D01*
X154346630Y-187526160D01*
X154552829Y-187546785D01*
X154788351Y-187569771D01*
X154928974Y-187583249D01*
X155183311Y-187608769D01*
X155428625Y-187635733D01*
X155643351Y-187661605D01*
X155805931Y-187683852D01*
X155860307Y-187692712D01*
X156055628Y-187732699D01*
X156281340Y-187786472D01*
X156515063Y-187847875D01*
X156734413Y-187910752D01*
X156917011Y-187968948D01*
X157040474Y-188016307D01*
X157045543Y-188018684D01*
X157141638Y-188057138D01*
X157200511Y-188067032D01*
X157205114Y-188064737D01*
X157207379Y-188013563D01*
X157192946Y-187887425D01*
X157163328Y-187694045D01*
X157120038Y-187441143D01*
X157064589Y-187136442D01*
X156998497Y-186787662D01*
X156923272Y-186402525D01*
X156840430Y-185988751D01*
X156751484Y-185554063D01*
X156657946Y-185106180D01*
X156561331Y-184652826D01*
X156463152Y-184201719D01*
X156364922Y-183760583D01*
X156339015Y-183646070D01*
X156257165Y-183281670D01*
X156169570Y-182884971D01*
X156081701Y-182481200D01*
X155999026Y-182095587D01*
X155927013Y-181753359D01*
X155893960Y-181592904D01*
X155835499Y-181302280D01*
X155785226Y-181041710D01*
X155740793Y-180796080D01*
X155699850Y-180550278D01*
X155660049Y-180289192D01*
X155619041Y-179997710D01*
X155574476Y-179660720D01*
X155524006Y-179263108D01*
X155492565Y-179010570D01*
X155441647Y-178605401D01*
X155391697Y-178221015D01*
X155339562Y-177834220D01*
X155282087Y-177421826D01*
X155216118Y-176960640D01*
X155178803Y-176703404D01*
X155139149Y-176423424D01*
X155099826Y-176132357D01*
X155064397Y-175857480D01*
X155036424Y-175626070D01*
X155026776Y-175539237D01*
X154998531Y-175285879D01*
X154964531Y-174998934D01*
X154930781Y-174728658D01*
X154920529Y-174650237D01*
X154893765Y-174447233D01*
X154871233Y-174271809D01*
X154851005Y-174107091D01*
X154831156Y-173936204D01*
X154809760Y-173742276D01*
X154784889Y-173508432D01*
X154754618Y-173217799D01*
X154732040Y-172999237D01*
X154688242Y-172621729D01*
X154636116Y-172272971D01*
X154570054Y-171921288D01*
X154484447Y-171535007D01*
X154439707Y-171348237D01*
X154277356Y-170669711D01*
X154138172Y-170058126D01*
X154019872Y-169499673D01*
X153920172Y-168980544D01*
X153836787Y-168486928D01*
X153767434Y-168005018D01*
X153709828Y-167521003D01*
X153661685Y-167021075D01*
X153620722Y-166491425D01*
X153609954Y-166331737D01*
X153592420Y-166074792D01*
X153574591Y-165840337D01*
X153554361Y-165604394D01*
X153529621Y-165342987D01*
X153498265Y-165032139D01*
X153481590Y-164871237D01*
X153421607Y-164253986D01*
X153374920Y-163672317D01*
X153338537Y-163084694D01*
X153312344Y-162521737D01*
X153293902Y-162078778D01*
X153277144Y-161710515D01*
X153261093Y-161407019D01*
X153244770Y-161158361D01*
X153228162Y-160965800D01*
X153766217Y-160965800D01*
X153768058Y-161306313D01*
X153772940Y-161663005D01*
X153780673Y-162022198D01*
X153791066Y-162370214D01*
X153803930Y-162693374D01*
X153819075Y-162977999D01*
X153836311Y-163210411D01*
X153837208Y-163220237D01*
X153858240Y-163457961D01*
X153879435Y-163713716D01*
X153897332Y-163945189D01*
X153903004Y-164024570D01*
X153940160Y-164559849D01*
X153972544Y-165017206D01*
X154000671Y-165403218D01*
X154025053Y-165724466D01*
X154046204Y-165987528D01*
X154064639Y-166198984D01*
X154080871Y-166365412D01*
X154095413Y-166493391D01*
X154096380Y-166501070D01*
X154160573Y-167003641D01*
X154215692Y-167426884D01*
X154262422Y-167775578D01*
X154301446Y-168054498D01*
X154333450Y-168268420D01*
X154359117Y-168422120D01*
X154379133Y-168520375D01*
X154391809Y-168562924D01*
X154416994Y-168614708D01*
X154422869Y-168595779D01*
X154413959Y-168511904D01*
X154400873Y-168391794D01*
X154385409Y-168225427D01*
X154372388Y-168067404D01*
X154323505Y-167418344D01*
X154282728Y-166850480D01*
X154249853Y-166360752D01*
X154224676Y-165946097D01*
X154206995Y-165603455D01*
X154203668Y-165527404D01*
X154189503Y-165201837D01*
X154174841Y-164893967D01*
X154158321Y-164577668D01*
X154138585Y-164226815D01*
X154116669Y-163855237D01*
X154110458Y-163745402D01*
X154104057Y-163618152D01*
X154097124Y-163464727D01*
X154089313Y-163276368D01*
X154080281Y-163044317D01*
X154069685Y-162759814D01*
X154057179Y-162414101D01*
X154042421Y-161998419D01*
X154031054Y-161675070D01*
X154023598Y-161419808D01*
X154016806Y-161108166D01*
X154011162Y-160768434D01*
X154007149Y-160428898D01*
X154005420Y-160172237D01*
X154002042Y-159304404D01*
X153920725Y-159509954D01*
X153873168Y-159658732D01*
X153827120Y-159849954D01*
X153793051Y-160039120D01*
X153780832Y-160178128D01*
X153772414Y-160388030D01*
X153767605Y-160655147D01*
X153766217Y-160965800D01*
X153228162Y-160965800D01*
X153227197Y-160954611D01*
X153207398Y-160785841D01*
X153184393Y-160642122D01*
X153157206Y-160513525D01*
X153124858Y-160390121D01*
X153091388Y-160278070D01*
X152996433Y-160016567D01*
X152889964Y-159821308D01*
X152759380Y-159673878D01*
X152600618Y-159560824D01*
X152500236Y-159512669D01*
X152371480Y-159472289D01*
X152203627Y-159437979D01*
X151985952Y-159408039D01*
X151707730Y-159380766D01*
X151358237Y-159354456D01*
X151259169Y-159347875D01*
X151015390Y-159330617D01*
X150795506Y-159312442D01*
X150614156Y-159294791D01*
X150485979Y-159279109D01*
X150425615Y-159266840D01*
X150423398Y-159265467D01*
X150458379Y-159254613D01*
X150561303Y-159232070D01*
X150716766Y-159201019D01*
X150909359Y-159164640D01*
X150931398Y-159160588D01*
X151377197Y-159074124D01*
X151747842Y-158991133D01*
X152052596Y-158908560D01*
X152300720Y-158823354D01*
X152501477Y-158732460D01*
X152664127Y-158632825D01*
X152757646Y-158558561D01*
X152876681Y-158446334D01*
X152938290Y-158372049D01*
X152940756Y-158340653D01*
X152882364Y-158357094D01*
X152814919Y-158393436D01*
X152717850Y-158440332D01*
X152563533Y-158503469D01*
X152375460Y-158573593D01*
X152227360Y-158624880D01*
X151939296Y-158710357D01*
X151633965Y-158778198D01*
X151300478Y-158829409D01*
X150927947Y-158864998D01*
X150505481Y-158885971D01*
X150022192Y-158893335D01*
X149467192Y-158888099D01*
X149396503Y-158886697D01*
X149084159Y-158879396D01*
X148788732Y-158870978D01*
X148524175Y-158861960D01*
X148304439Y-158852855D01*
X148143478Y-158844179D01*
X148063003Y-158837491D01*
X147816067Y-158795398D01*
X147570359Y-158732795D01*
X147350161Y-158657344D01*
X147179751Y-158576706D01*
X147127996Y-158542472D01*
X147031367Y-158477551D01*
X146989304Y-158467020D01*
X146999872Y-158502212D01*
X147061136Y-158574463D01*
X147154463Y-158660975D01*
X147224874Y-158718663D01*
X147295775Y-158768097D01*
X147379045Y-158814181D01*
X147486566Y-158861819D01*
X147630218Y-158915918D01*
X147821883Y-158981382D01*
X148073441Y-159063115D01*
X148315019Y-159140092D01*
X148527158Y-159208855D01*
X148703941Y-159268921D01*
X148832821Y-159315798D01*
X148901249Y-159344993D01*
X148907685Y-159352281D01*
X148853758Y-159359962D01*
X148730638Y-159373940D01*
X148553431Y-159392610D01*
X148337242Y-159414365D01*
X148181318Y-159429557D01*
X147892445Y-159458715D01*
X147672582Y-159485489D01*
X147506298Y-159513647D01*
X147378160Y-159546958D01*
X147272736Y-159589190D01*
X147174593Y-159644112D01*
X147099735Y-159693655D01*
X146956174Y-159811583D01*
X146858196Y-159945645D01*
X146796139Y-160116271D01*
X146760339Y-160343895D01*
X146753283Y-160426237D01*
X146738476Y-160613450D01*
X146735749Y-160644498D01*
X146723254Y-160786705D01*
X146710426Y-160914423D01*
X146708085Y-160934237D01*
X146694175Y-161078494D01*
X146678327Y-161300950D01*
X146660923Y-161595167D01*
X146642345Y-161954710D01*
X146623891Y-162352404D01*
X146604996Y-162771351D01*
X146588015Y-163125201D01*
X146571688Y-163433465D01*
X146554759Y-163715652D01*
X146535968Y-163991274D01*
X146514057Y-164279841D01*
X146487768Y-164600862D01*
X146455843Y-164973849D01*
X146451889Y-165019404D01*
X146423628Y-165346378D01*
X146396579Y-165662640D01*
X146371985Y-165953388D01*
X146351091Y-166203817D01*
X146335141Y-166399123D01*
X146325546Y-166522237D01*
X146311445Y-166705918D01*
X146296988Y-166881205D01*
X146285405Y-167009070D01*
X146272843Y-167141517D01*
X146256916Y-167317281D01*
X146243116Y-167474737D01*
X146206443Y-167874595D01*
X146169036Y-168207658D01*
X146126508Y-168491720D01*
X146074474Y-168744572D01*
X146008545Y-168984008D01*
X145924337Y-169227822D01*
X145817461Y-169493805D01*
X145683532Y-169799752D01*
X145653444Y-169866570D01*
X145299677Y-170649737D01*
X145100330Y-172678266D01*
X145060108Y-173086407D01*
X145022014Y-173470731D01*
X144986917Y-173822628D01*
X144955685Y-174133494D01*
X144929188Y-174394720D01*
X144908293Y-174597700D01*
X144893870Y-174733826D01*
X144886787Y-174794492D01*
X144886717Y-174794932D01*
X144876815Y-174867884D01*
X144859549Y-175006836D01*
X144837119Y-175193664D01*
X144811722Y-175410245D01*
X144804150Y-175475737D01*
X144764403Y-175802987D01*
X144712687Y-176201008D01*
X144650852Y-176657040D01*
X144580751Y-177158323D01*
X144504235Y-177692097D01*
X144423156Y-178245602D01*
X144339365Y-178806078D01*
X144254713Y-179360765D01*
X144171052Y-179896904D01*
X144090233Y-180401733D01*
X144082395Y-180449904D01*
X144032922Y-180754125D01*
X143974025Y-181117348D01*
X143909682Y-181514976D01*
X143843872Y-181922412D01*
X143780571Y-182315058D01*
X143743507Y-182545404D01*
X143681522Y-182920613D01*
X143607502Y-183351909D01*
X143526238Y-183812398D01*
X143442522Y-184275191D01*
X143361148Y-184713395D01*
X143302175Y-185021904D01*
X143228494Y-185402959D01*
X143149950Y-185812138D01*
X143070838Y-186226867D01*
X142995451Y-186624572D01*
X142928082Y-186982682D01*
X142876555Y-187259501D01*
X142825114Y-187534987D01*
X142777450Y-187784674D01*
X142736089Y-187995773D01*
X142703556Y-188155494D01*
X142682377Y-188251049D01*
X142676863Y-188270695D01*
X142665584Y-188306156D01*
X142420088Y-188306156D01*
X142434786Y-188209516D01*
X142478871Y-187949334D01*
X142529720Y-187674219D01*
X142536669Y-187638355D01*
X142592925Y-187347040D01*
X142648589Y-187054107D01*
X142699708Y-186780703D01*
X142742328Y-186547979D01*
X142772495Y-186377082D01*
X142772582Y-186376570D01*
X142801684Y-186213052D01*
X142843957Y-185985668D01*
X142895753Y-185713532D01*
X142953424Y-185415759D01*
X143013320Y-185111461D01*
X143031149Y-185021904D01*
X143110596Y-184610780D01*
X143199757Y-184126078D01*
X143296990Y-183578119D01*
X143400653Y-182977228D01*
X143509104Y-182333726D01*
X143620703Y-181657937D01*
X143733807Y-180960183D01*
X143846775Y-180250788D01*
X143957966Y-179540075D01*
X144065738Y-178838365D01*
X144168449Y-178155983D01*
X144264459Y-177503251D01*
X144352125Y-176890492D01*
X144429805Y-176328029D01*
X144495859Y-175826184D01*
X144505403Y-175750904D01*
X144535357Y-175502859D01*
X144572094Y-175181663D01*
X144614464Y-174798462D01*
X144661318Y-174364398D01*
X144711507Y-173890616D01*
X144763881Y-173388260D01*
X144817291Y-172868475D01*
X144870588Y-172342403D01*
X144922623Y-171821189D01*
X144972245Y-171315977D01*
X145018305Y-170837912D01*
X145059655Y-170398137D01*
X145077372Y-170205237D01*
X145103704Y-169915975D01*
X145128616Y-169642372D01*
X145150683Y-169400087D01*
X145159147Y-169307187D01*
X145431310Y-169307187D01*
X145439573Y-169309998D01*
X145463000Y-169236590D01*
X145497892Y-169104570D01*
X145565340Y-168789140D01*
X145627789Y-168392299D01*
X145684907Y-167917177D01*
X145736360Y-167366901D01*
X145781817Y-166744599D01*
X145819735Y-166077737D01*
X145831365Y-165854942D01*
X145843804Y-165633044D01*
X145855218Y-165444049D01*
X145860932Y-165358070D01*
X145871019Y-165205193D01*
X145883614Y-164999756D01*
X145896789Y-164773753D01*
X145904343Y-164638404D01*
X145916288Y-164434516D01*
X145928531Y-164249924D01*
X145939410Y-164108471D01*
X145945589Y-164045737D01*
X145950689Y-163970366D01*
X145956990Y-163822922D01*
X145964091Y-163615984D01*
X145971594Y-163362132D01*
X145979098Y-163073945D01*
X145985953Y-162775737D01*
X145993744Y-162434466D01*
X146002501Y-162086258D01*
X146011673Y-161750631D01*
X146020714Y-161447103D01*
X146029072Y-161195192D01*
X146034173Y-161061237D01*
X146040186Y-160644498D01*
X146025341Y-160230986D01*
X145991384Y-159840930D01*
X145940057Y-159494560D01*
X145875410Y-159219737D01*
X145831515Y-159083278D01*
X145796195Y-158992207D01*
X145776026Y-158963072D01*
X145774495Y-158965737D01*
X145771704Y-159015079D01*
X145768235Y-159141023D01*
X145764216Y-159335505D01*
X145759777Y-159590465D01*
X145755045Y-159897840D01*
X145750150Y-160249570D01*
X145745220Y-160637591D01*
X145740384Y-161053842D01*
X145738687Y-161209404D01*
X145733817Y-161636395D01*
X145728651Y-162040112D01*
X145723333Y-162412185D01*
X145718011Y-162744243D01*
X145712830Y-163027915D01*
X145707935Y-163254831D01*
X145703474Y-163416619D01*
X145699592Y-163504909D01*
X145698450Y-163516570D01*
X145692483Y-163588345D01*
X145684928Y-163731173D01*
X145676344Y-163931470D01*
X145667291Y-164175651D01*
X145658327Y-164450130D01*
X145654008Y-164596070D01*
X145644861Y-164906022D01*
X145635180Y-165216151D01*
X145625619Y-165506720D01*
X145616832Y-165757993D01*
X145609475Y-165950232D01*
X145607661Y-165993070D01*
X145598112Y-166212271D01*
X145586558Y-166479270D01*
X145574587Y-166757277D01*
X145565614Y-166966737D01*
X145545269Y-167422332D01*
X145524258Y-167854449D01*
X145503203Y-168252183D01*
X145482726Y-168604626D01*
X145463448Y-168900871D01*
X145445990Y-169130010D01*
X145436562Y-169231570D01*
X145431310Y-169307187D01*
X145159147Y-169307187D01*
X145168478Y-169204779D01*
X145180575Y-169072107D01*
X145183409Y-169041070D01*
X145194771Y-168900718D01*
X145208338Y-168709571D01*
X145221758Y-168501379D01*
X145226188Y-168427237D01*
X145239395Y-168201584D01*
X145253527Y-167961619D01*
X145266001Y-167751180D01*
X145268603Y-167707570D01*
X145277211Y-167546179D01*
X145287509Y-167326339D01*
X145298338Y-167074221D01*
X145308537Y-166815995D01*
X145310797Y-166755070D01*
X145321155Y-166474534D01*
X145332570Y-166169836D01*
X145343711Y-165876273D01*
X145353247Y-165629140D01*
X145353915Y-165612070D01*
X145361759Y-165400698D01*
X145371161Y-165129810D01*
X145381287Y-164824524D01*
X145391299Y-164509955D01*
X145398996Y-164257404D01*
X145407812Y-163987922D01*
X145417468Y-163738394D01*
X145427233Y-163524618D01*
X145436382Y-163362390D01*
X145444185Y-163267505D01*
X145444830Y-163262570D01*
X145449053Y-163193533D01*
X145453806Y-163047965D01*
X145458949Y-162833999D01*
X145464343Y-162559770D01*
X145469846Y-162233411D01*
X145475320Y-161863055D01*
X145480624Y-161456835D01*
X145485618Y-161022885D01*
X145488908Y-160701404D01*
X145493805Y-160187639D01*
X145497610Y-159751294D01*
X145500155Y-159385127D01*
X145501273Y-159081897D01*
X145500796Y-158834362D01*
X145498557Y-158635281D01*
X145494388Y-158477413D01*
X145488121Y-158353514D01*
X145479589Y-158256345D01*
X145468624Y-158178663D01*
X145455058Y-158113226D01*
X145438725Y-158052794D01*
X145426691Y-158013237D01*
X145344808Y-157773400D01*
X145314449Y-157693683D01*
X147095982Y-157693683D01*
X147096025Y-157801024D01*
X147179526Y-157903448D01*
X147345388Y-158000328D01*
X147592510Y-158091036D01*
X147919795Y-158174945D01*
X147949891Y-158181448D01*
X148245468Y-158239249D01*
X148534445Y-158283560D01*
X148832455Y-158315430D01*
X149155128Y-158335908D01*
X149518096Y-158346044D01*
X149936991Y-158346888D01*
X150332116Y-158341403D01*
X150714485Y-158332954D01*
X151026851Y-158322336D01*
X151283878Y-158307474D01*
X151500228Y-158286290D01*
X151690565Y-158256708D01*
X151869553Y-158216651D01*
X152051856Y-158164044D01*
X152252136Y-158096809D01*
X152378815Y-158051558D01*
X152585341Y-157966807D01*
X152718595Y-157883155D01*
X152788978Y-157788774D01*
X152806893Y-157671842D01*
X152795314Y-157578066D01*
X152773556Y-157505110D01*
X152731222Y-157440588D01*
X152656964Y-157376646D01*
X152539436Y-157305428D01*
X152367289Y-157219080D01*
X152129177Y-157109748D01*
X152099538Y-157096458D01*
X151868747Y-156995781D01*
X151688936Y-156925711D01*
X151535387Y-156878928D01*
X151383385Y-156848113D01*
X151208212Y-156825947D01*
X151174503Y-156822528D01*
X150979505Y-156800926D01*
X150799520Y-156776999D01*
X150662991Y-156754680D01*
X150624169Y-156746421D01*
X150489322Y-156727329D01*
X150325349Y-156722174D01*
X150264336Y-156724724D01*
X150140686Y-156732228D01*
X149956460Y-156742168D01*
X149735669Y-156753297D01*
X149502324Y-156764372D01*
X149481169Y-156765339D01*
X148909669Y-156791395D01*
X148258952Y-157050043D01*
X147918727Y-157192200D01*
X147627169Y-157328102D01*
X147391553Y-157453723D01*
X147219153Y-157565038D01*
X147117246Y-157658020D01*
X147095982Y-157693683D01*
X145314449Y-157693683D01*
X145234192Y-157482939D01*
X145102413Y-157158978D01*
X144957041Y-156818641D01*
X144903822Y-156699266D01*
X145840503Y-156699266D01*
X145872801Y-156757468D01*
X145950750Y-156766267D01*
X146002607Y-156747106D01*
X146102429Y-156707475D01*
X146263633Y-156658470D01*
X146464269Y-156605677D01*
X146682384Y-156554682D01*
X146896026Y-156511072D01*
X147004669Y-156492097D01*
X147262099Y-156458213D01*
X147568389Y-156430222D01*
X147908256Y-156408392D01*
X148266415Y-156392989D01*
X148627584Y-156384280D01*
X148976479Y-156382533D01*
X149297816Y-156388015D01*
X149576312Y-156400992D01*
X149796683Y-156421732D01*
X149909542Y-156441331D01*
X150011466Y-156455278D01*
X150181716Y-156467480D01*
X150403958Y-156477251D01*
X150661856Y-156483901D01*
X150939077Y-156486743D01*
X150989042Y-156486797D01*
X151265805Y-156487737D01*
X151524083Y-156490540D01*
X151748099Y-156494885D01*
X151922078Y-156500452D01*
X152030247Y-156506918D01*
X152042336Y-156508257D01*
X152403467Y-156555102D01*
X152691298Y-156593554D01*
X152916593Y-156625316D01*
X153090116Y-156652092D01*
X153222630Y-156675583D01*
X153324898Y-156697492D01*
X153407684Y-156719523D01*
X153439336Y-156729254D01*
X153567919Y-156773666D01*
X153664069Y-156813015D01*
X153693336Y-156829085D01*
X153755555Y-156864686D01*
X153850939Y-156908538D01*
X153951124Y-156949065D01*
X154027747Y-156974691D01*
X154053169Y-156975944D01*
X154016676Y-156930793D01*
X153918156Y-156862772D01*
X153774048Y-156780816D01*
X153600792Y-156693858D01*
X153414825Y-156610834D01*
X153291169Y-156561807D01*
X153008500Y-156464851D01*
X152707313Y-156379537D01*
X152376197Y-156303721D01*
X152003745Y-156235259D01*
X151578547Y-156172006D01*
X151089193Y-156111820D01*
X150645336Y-156064586D01*
X150447619Y-156044378D01*
X150274778Y-156026162D01*
X150148139Y-156012218D01*
X150095003Y-156005752D01*
X149995301Y-155998635D01*
X149828479Y-155994182D01*
X149612038Y-155992205D01*
X149363477Y-155992518D01*
X149100296Y-155994933D01*
X148839994Y-155999262D01*
X148600070Y-156005319D01*
X148398025Y-156012917D01*
X148251357Y-156021868D01*
X148211169Y-156025901D01*
X148012838Y-156049671D01*
X147800057Y-156074296D01*
X147682003Y-156087499D01*
X147504218Y-156111167D01*
X147292734Y-156145280D01*
X147114400Y-156178366D01*
X146925489Y-156224265D01*
X146714854Y-156288264D01*
X146497626Y-156364174D01*
X146288933Y-156445810D01*
X146103904Y-156526986D01*
X145957670Y-156601514D01*
X145865360Y-156663209D01*
X145840503Y-156699266D01*
X144903822Y-156699266D01*
X144805648Y-156479050D01*
X144655803Y-156157330D01*
X144515078Y-155870602D01*
X144391042Y-155635991D01*
X144327275Y-155526541D01*
X144186038Y-155263252D01*
X144106533Y-155021194D01*
X144100750Y-154944070D01*
X145206946Y-154944070D01*
X145215373Y-155146820D01*
X145237651Y-155365037D01*
X145270533Y-155583345D01*
X145310774Y-155786366D01*
X145355130Y-155958723D01*
X145400355Y-156085038D01*
X145443205Y-156149933D01*
X145462416Y-156154634D01*
X145525506Y-156135765D01*
X145650543Y-156097597D01*
X145818610Y-156045924D01*
X145985690Y-155994314D01*
X146475124Y-155860097D01*
X147003841Y-155745290D01*
X147533389Y-155657316D01*
X147999503Y-155605568D01*
X148162878Y-155596402D01*
X148385131Y-155589190D01*
X148652921Y-155583897D01*
X148952902Y-155580483D01*
X149271734Y-155578912D01*
X149596071Y-155579146D01*
X149912572Y-155581147D01*
X150207893Y-155584878D01*
X150468691Y-155590302D01*
X150681623Y-155597381D01*
X150833345Y-155606078D01*
X150899336Y-155613714D01*
X151019645Y-155632693D01*
X151174320Y-155652409D01*
X151238003Y-155659341D01*
X151370625Y-155672912D01*
X151558537Y-155692197D01*
X151772808Y-155714225D01*
X151915336Y-155728898D01*
X152415431Y-155796875D01*
X152979218Y-155903554D01*
X153596282Y-156046689D01*
X154256210Y-156224030D01*
X154393545Y-156263734D01*
X154441657Y-156245640D01*
X154499316Y-156162443D01*
X154568736Y-156009442D01*
X154652131Y-155781932D01*
X154725709Y-155557904D01*
X154850180Y-155113039D01*
X154921900Y-154724797D01*
X154941826Y-154384347D01*
X154910911Y-154082857D01*
X154893561Y-154005355D01*
X154866751Y-153911697D01*
X154831476Y-153844887D01*
X154770671Y-153789411D01*
X154667270Y-153729754D01*
X154504208Y-153650399D01*
X154501978Y-153649339D01*
X154140865Y-153499929D01*
X153713625Y-153360595D01*
X153238606Y-153235752D01*
X152734159Y-153129815D01*
X152218633Y-153047201D01*
X151805366Y-153000398D01*
X151544515Y-152981484D01*
X151226755Y-152965954D01*
X150867976Y-152953926D01*
X150484068Y-152945519D01*
X150090920Y-152940853D01*
X149704421Y-152940046D01*
X149340461Y-152943218D01*
X149014929Y-152950488D01*
X148743716Y-152961975D01*
X148558751Y-152976064D01*
X148159062Y-153026672D01*
X147715999Y-153097920D01*
X147266367Y-153183247D01*
X146846972Y-153276092D01*
X146770938Y-153294741D01*
X146622562Y-153334769D01*
X146434400Y-153389843D01*
X146222371Y-153454798D01*
X146002390Y-153524470D01*
X145790377Y-153593694D01*
X145602247Y-153657305D01*
X145453920Y-153710138D01*
X145361311Y-153747028D01*
X145339155Y-153759319D01*
X145319753Y-153815351D01*
X145297100Y-153937312D01*
X145273270Y-154106634D01*
X145250335Y-154304747D01*
X145230366Y-154513083D01*
X145215436Y-154713071D01*
X145207617Y-154886142D01*
X145206946Y-154944070D01*
X144100750Y-154944070D01*
X144088657Y-154782790D01*
X144132301Y-154530466D01*
X144237360Y-154246643D01*
X144318510Y-154076237D01*
X144466616Y-153826007D01*
X144644884Y-153615322D01*
X144821606Y-153467046D01*
X145334716Y-153467046D01*
X145353669Y-153462332D01*
X145990872Y-153245171D01*
X146579747Y-153068664D01*
X147139864Y-152929475D01*
X147690793Y-152824264D01*
X148252103Y-152749694D01*
X148843363Y-152702427D01*
X149484143Y-152679126D01*
X149968003Y-152675279D01*
X150553165Y-152682400D01*
X151112097Y-152701453D01*
X151633594Y-152731613D01*
X152106452Y-152772057D01*
X152519465Y-152821959D01*
X152861431Y-152880495D01*
X152915846Y-152892168D01*
X153085292Y-152927941D01*
X153220692Y-152952811D01*
X153303012Y-152963473D01*
X153318710Y-152962141D01*
X153291423Y-152942355D01*
X153198161Y-152908551D01*
X153055541Y-152865347D01*
X152880178Y-152817361D01*
X152688688Y-152769211D01*
X152497687Y-152725513D01*
X152381003Y-152701555D01*
X152022967Y-152639618D01*
X151657270Y-152592263D01*
X151269279Y-152558568D01*
X150844365Y-152537611D01*
X150367895Y-152528468D01*
X149825239Y-152530218D01*
X149692836Y-152532013D01*
X149375184Y-152537471D01*
X149079827Y-152543742D01*
X148818923Y-152550475D01*
X148604628Y-152557318D01*
X148449099Y-152563917D01*
X148364494Y-152569921D01*
X148359336Y-152570640D01*
X148256275Y-152586279D01*
X148100295Y-152609007D01*
X147922348Y-152634325D01*
X147893669Y-152638348D01*
X147553479Y-152695983D01*
X147187743Y-152775401D01*
X146812791Y-152871593D01*
X146444956Y-152979550D01*
X146100570Y-153094262D01*
X145795963Y-153210720D01*
X145547467Y-153323915D01*
X145415949Y-153398336D01*
X145345496Y-153448220D01*
X145334716Y-153467046D01*
X144821606Y-153467046D01*
X144872617Y-153424246D01*
X145087895Y-153281564D01*
X145565859Y-153026604D01*
X146113408Y-152803047D01*
X146720407Y-152613770D01*
X147376725Y-152461649D01*
X148072229Y-152349561D01*
X148549836Y-152298738D01*
X148840386Y-152280499D01*
X149194904Y-152268531D01*
X149592941Y-152262663D01*
X150014044Y-152262723D01*
X150437760Y-152268537D01*
X150843640Y-152279936D01*
X151211230Y-152296746D01*
X151520079Y-152318795D01*
X151576669Y-152324187D01*
X151838788Y-152354536D01*
X152122519Y-152393824D01*
X152390053Y-152436504D01*
X152567778Y-152469523D01*
X152908856Y-152551658D01*
X153297546Y-152666076D01*
X153707617Y-152803636D01*
X154112840Y-152955201D01*
X154129438Y-152962141D01*
X154486984Y-153111631D01*
G37*
G04 #@! TD.AperFunction*
G04 #@! TA.AperFunction,EtchedComponent*
G36*
X76449814Y-203372895D02*
G01*
X76451506Y-203378339D01*
X76438152Y-203415877D01*
X76401426Y-203508230D01*
X76346331Y-203643080D01*
X76277870Y-203808109D01*
X76246999Y-203881871D01*
X76164600Y-204078501D01*
X76083687Y-204272001D01*
X76012622Y-204442347D01*
X75959767Y-204569517D01*
X75952142Y-204587948D01*
X75894259Y-204725432D01*
X75838012Y-204854839D01*
X75805029Y-204927712D01*
X75770697Y-205011288D01*
X75772750Y-205061357D01*
X75813257Y-205108709D01*
X75817461Y-205112602D01*
X75870006Y-205161141D01*
X75963248Y-205247378D01*
X76084410Y-205359491D01*
X76220712Y-205485658D01*
X76232855Y-205496900D01*
X76382213Y-205635073D01*
X76502124Y-205745560D01*
X76606714Y-205841128D01*
X76710112Y-205934545D01*
X76826444Y-206038578D01*
X76969838Y-206165994D01*
X77143902Y-206320245D01*
X77308376Y-206466805D01*
X77483447Y-206624253D01*
X77645559Y-206771336D01*
X77747283Y-206864661D01*
X77920983Y-207024622D01*
X78104501Y-207192536D01*
X78286672Y-207358292D01*
X78456336Y-207511783D01*
X78602330Y-207642901D01*
X78713491Y-207741537D01*
X78763332Y-207784765D01*
X78870424Y-207875786D01*
X78728311Y-208300418D01*
X78672071Y-208461799D01*
X78621947Y-208593378D01*
X78583167Y-208682263D01*
X78560952Y-208715565D01*
X78560111Y-208715466D01*
X78524779Y-208688386D01*
X78447256Y-208621425D01*
X78338664Y-208524397D01*
X78210126Y-208407117D01*
X78198200Y-208396126D01*
X78063862Y-208272435D01*
X77944342Y-208162791D01*
X77852412Y-208078884D01*
X77800846Y-208032405D01*
X77800051Y-208031707D01*
X77730029Y-207969267D01*
X77618197Y-207868370D01*
X77476445Y-207739840D01*
X77316662Y-207594498D01*
X77150738Y-207443169D01*
X76990562Y-207296676D01*
X76848023Y-207165841D01*
X76779244Y-207102439D01*
X76670970Y-207002519D01*
X76521043Y-206864318D01*
X76341463Y-206698887D01*
X76144228Y-206517278D01*
X75941336Y-206330543D01*
X75849506Y-206246054D01*
X75640385Y-206053220D01*
X75424484Y-205853330D01*
X75215676Y-205659285D01*
X75027834Y-205483986D01*
X74874831Y-205340336D01*
X74830646Y-205298565D01*
X74660732Y-205137671D01*
X74461542Y-204949307D01*
X74256870Y-204755962D01*
X74070508Y-204580121D01*
X74055444Y-204565919D01*
X73914106Y-204430378D01*
X73793841Y-204310639D01*
X73703816Y-204216184D01*
X73653200Y-204156491D01*
X73645480Y-204141975D01*
X73655101Y-204119722D01*
X73692307Y-204098870D01*
X73769609Y-204075163D01*
X73899521Y-204044341D01*
X73991678Y-204024162D01*
X74100269Y-203998123D01*
X74247747Y-203959453D01*
X74403135Y-203916288D01*
X74410760Y-203914100D01*
X74562103Y-203871496D01*
X74703579Y-203833231D01*
X74806254Y-203807119D01*
X74811621Y-203805860D01*
X75045862Y-203749758D01*
X75286267Y-203688478D01*
X75550936Y-203617208D01*
X75857966Y-203531135D01*
X76032424Y-203481215D01*
X76209309Y-203430478D01*
X76327836Y-203397139D01*
X76399660Y-203378336D01*
X76436434Y-203371208D01*
X76449814Y-203372895D01*
G37*
G04 #@! TD.AperFunction*
G04 #@! TA.AperFunction,EtchedComponent*
G36*
X91585780Y-197002548D02*
G01*
X91596421Y-197063294D01*
X91592006Y-197090029D01*
X91567497Y-197197475D01*
X91537374Y-197316432D01*
X91537009Y-197317790D01*
X91513076Y-197415625D01*
X91481351Y-197556877D01*
X91448116Y-197713450D01*
X91443317Y-197736872D01*
X91390852Y-197987711D01*
X91324963Y-198292300D01*
X91249462Y-198633572D01*
X91168163Y-198994459D01*
X91084877Y-199357896D01*
X91003417Y-199706814D01*
X91000654Y-199718518D01*
X90937159Y-199987394D01*
X90682066Y-199667712D01*
X90570644Y-199527034D01*
X90469114Y-199396973D01*
X90390465Y-199294273D01*
X90354088Y-199244965D01*
X90280802Y-199162791D01*
X90176592Y-199069989D01*
X90119851Y-199026647D01*
X90021399Y-198960575D01*
X89947817Y-198931483D01*
X89866189Y-198931938D01*
X89773653Y-198948442D01*
X89643039Y-198977941D01*
X89478377Y-199019647D01*
X89315495Y-199064481D01*
X89131280Y-199116916D01*
X88925953Y-199174163D01*
X88768866Y-199217080D01*
X88620594Y-199257326D01*
X88485816Y-199294451D01*
X88391766Y-199320949D01*
X88386226Y-199322557D01*
X88135705Y-199393971D01*
X87924375Y-199450967D01*
X87857819Y-199467862D01*
X87727307Y-199501704D01*
X87602725Y-199536002D01*
X87519617Y-199559273D01*
X87384018Y-199596648D01*
X87213798Y-199643222D01*
X87026828Y-199694093D01*
X87001434Y-199700980D01*
X86794888Y-199757257D01*
X86584581Y-199815036D01*
X86395389Y-199867458D01*
X86254375Y-199907038D01*
X86099244Y-199950373D01*
X85950479Y-199990721D01*
X85839162Y-200019658D01*
X85835294Y-200020615D01*
X85787310Y-200033365D01*
X85748330Y-200040476D01*
X85711583Y-200035747D01*
X85670302Y-200012974D01*
X85617719Y-199965954D01*
X85547066Y-199888487D01*
X85451574Y-199774368D01*
X85324474Y-199617395D01*
X85159000Y-199411367D01*
X85126898Y-199371431D01*
X84996313Y-199209982D01*
X84908061Y-199096727D01*
X84861313Y-199021129D01*
X84855240Y-198972654D01*
X84889012Y-198940765D01*
X84961799Y-198914929D01*
X85072774Y-198884609D01*
X85088235Y-198880277D01*
X85210847Y-198845560D01*
X85325107Y-198813100D01*
X85384082Y-198796037D01*
X85504558Y-198760967D01*
X85678090Y-198710355D01*
X85896228Y-198646668D01*
X86150527Y-198572372D01*
X86432539Y-198489934D01*
X86733817Y-198401820D01*
X86764562Y-198392826D01*
X87068218Y-198304044D01*
X87354252Y-198220516D01*
X87614071Y-198144744D01*
X87839081Y-198079230D01*
X88020689Y-198026475D01*
X88150302Y-197988982D01*
X88219326Y-197969252D01*
X88222238Y-197968443D01*
X88336476Y-197936346D01*
X88507540Y-197887607D01*
X88722297Y-197826024D01*
X88967614Y-197755393D01*
X89230359Y-197679513D01*
X89497398Y-197602180D01*
X89755599Y-197527193D01*
X89991828Y-197458350D01*
X90192953Y-197399447D01*
X90335868Y-197357249D01*
X90633640Y-197268653D01*
X90869473Y-197198243D01*
X91051332Y-197143579D01*
X91187181Y-197102217D01*
X91284984Y-197071718D01*
X91352708Y-197049639D01*
X91398315Y-197033537D01*
X91421729Y-197024359D01*
X91529713Y-196990404D01*
X91585780Y-197002548D01*
G37*
G04 #@! TD.AperFunction*
G04 #@! TA.AperFunction,EtchedComponent*
G36*
X89922267Y-209982855D02*
G01*
X89922096Y-210026901D01*
X89909686Y-210078660D01*
X89883960Y-210191415D01*
X89847201Y-210354963D01*
X89801694Y-210559105D01*
X89749720Y-210793641D01*
X89699817Y-211019942D01*
X89642858Y-211278529D01*
X89589346Y-211520915D01*
X89541802Y-211735723D01*
X89502747Y-211911572D01*
X89474705Y-212037085D01*
X89461576Y-212094978D01*
X89439384Y-212194540D01*
X89407714Y-212341420D01*
X89371728Y-212511535D01*
X89352198Y-212605165D01*
X89316251Y-212775016D01*
X89281782Y-212931946D01*
X89253861Y-213053136D01*
X89242909Y-213097130D01*
X89214157Y-213212257D01*
X89181312Y-213352434D01*
X89169115Y-213406886D01*
X89145160Y-213516555D01*
X89108586Y-213685036D01*
X89062076Y-213899885D01*
X89008316Y-214148657D01*
X88949988Y-214418906D01*
X88889778Y-214698185D01*
X88830370Y-214974051D01*
X88774447Y-215234056D01*
X88724693Y-215465757D01*
X88683794Y-215656706D01*
X88673969Y-215702701D01*
X88636952Y-215871704D01*
X88604223Y-216012982D01*
X88579222Y-216112231D01*
X88565391Y-216155147D01*
X88565047Y-216155565D01*
X88534757Y-216137442D01*
X88462541Y-216076916D01*
X88358339Y-215982786D01*
X88232095Y-215863849D01*
X88194474Y-215827613D01*
X88048502Y-215686336D01*
X87867050Y-215510701D01*
X87666999Y-215317049D01*
X87465230Y-215121722D01*
X87317994Y-214979176D01*
X87159942Y-214824686D01*
X87022710Y-214687728D01*
X86913918Y-214576140D01*
X86841180Y-214497761D01*
X86812115Y-214460428D01*
X86812137Y-214458642D01*
X86851140Y-214447953D01*
X86951109Y-214427068D01*
X87101171Y-214398072D01*
X87290452Y-214363052D01*
X87508075Y-214324095D01*
X87570558Y-214313124D01*
X87838276Y-214265546D01*
X88043111Y-214225619D01*
X88194077Y-214189048D01*
X88300187Y-214151534D01*
X88370457Y-214108782D01*
X88413900Y-214056494D01*
X88439531Y-213990375D01*
X88456364Y-213906126D01*
X88459008Y-213889639D01*
X88482476Y-213765535D01*
X88516484Y-213612799D01*
X88540377Y-213516212D01*
X88576901Y-213369609D01*
X88610026Y-213226338D01*
X88625718Y-213151793D01*
X88648166Y-213047287D01*
X88682366Y-212899882D01*
X88721858Y-212737252D01*
X88732099Y-212696270D01*
X88788412Y-212471184D01*
X88829697Y-212302613D01*
X88859185Y-212176512D01*
X88880109Y-212078838D01*
X88895698Y-211995544D01*
X88902091Y-211957433D01*
X88924169Y-211863584D01*
X88950454Y-211805541D01*
X88955993Y-211800404D01*
X88976474Y-211754554D01*
X88987100Y-211665938D01*
X88987517Y-211643378D01*
X88993899Y-211547218D01*
X89009652Y-211485337D01*
X89013677Y-211479675D01*
X89033491Y-211433797D01*
X89062454Y-211335760D01*
X89095013Y-211204794D01*
X89102223Y-211172955D01*
X89168344Y-210875204D01*
X89220800Y-210640585D01*
X89262177Y-210461184D01*
X89295062Y-210329083D01*
X89322040Y-210236368D01*
X89345697Y-210175122D01*
X89368620Y-210137429D01*
X89393395Y-210115373D01*
X89422607Y-210101039D01*
X89456882Y-210087339D01*
X89578627Y-210051105D01*
X89700053Y-210036011D01*
X89700168Y-210036011D01*
X89789452Y-210026034D01*
X89842303Y-210001792D01*
X89843902Y-209999569D01*
X89889031Y-209963583D01*
X89922267Y-209982855D01*
G37*
G04 #@! TD.AperFunction*
G04 #@! TA.AperFunction,EtchedComponent*
G36*
X80334425Y-194857882D02*
G01*
X80369456Y-194898665D01*
X80419179Y-194963887D01*
X80495755Y-195059288D01*
X80551144Y-195126427D01*
X80638550Y-195231588D01*
X80751262Y-195367814D01*
X80868365Y-195509817D01*
X80897342Y-195545039D01*
X81174609Y-195881502D01*
X81413851Y-196170203D01*
X81613317Y-196409048D01*
X81771254Y-196595942D01*
X81885909Y-196728789D01*
X81914288Y-196760790D01*
X82002101Y-196861715D01*
X82117404Y-196998266D01*
X82242262Y-197149069D01*
X82315149Y-197238545D01*
X82494947Y-197459790D01*
X82685792Y-197692724D01*
X82875747Y-197922919D01*
X83052874Y-198135947D01*
X83205234Y-198317382D01*
X83295924Y-198423874D01*
X83417441Y-198566498D01*
X83577699Y-198756586D01*
X83769245Y-198985226D01*
X83984630Y-199243506D01*
X84216400Y-199522515D01*
X84406736Y-199752395D01*
X84532427Y-199903854D01*
X84644808Y-200038221D01*
X84734215Y-200144020D01*
X84790982Y-200209774D01*
X84802665Y-200222582D01*
X84817513Y-200241167D01*
X84818705Y-200258566D01*
X84799103Y-200277290D01*
X84751568Y-200299851D01*
X84668959Y-200328759D01*
X84544138Y-200366525D01*
X84369967Y-200415660D01*
X84139305Y-200478674D01*
X83860833Y-200553819D01*
X83520286Y-200645991D01*
X83245072Y-200721587D01*
X83029922Y-200782111D01*
X82869564Y-200829065D01*
X82758725Y-200863953D01*
X82702088Y-200884216D01*
X82596774Y-200911225D01*
X82531140Y-200917307D01*
X82454658Y-200930997D01*
X82421379Y-200953749D01*
X82372010Y-200980215D01*
X82293832Y-200990191D01*
X82210478Y-201001645D01*
X82166285Y-201026633D01*
X82115952Y-201055047D01*
X82056524Y-201063074D01*
X81949999Y-201077273D01*
X81885575Y-201096656D01*
X81816309Y-201119424D01*
X81695218Y-201154443D01*
X81541205Y-201196382D01*
X81419226Y-201228205D01*
X81187611Y-201287994D01*
X81011194Y-201335106D01*
X80874395Y-201374252D01*
X80761632Y-201410140D01*
X80657324Y-201447482D01*
X80545889Y-201490986D01*
X80533796Y-201495840D01*
X80434901Y-201526173D01*
X80360697Y-201536819D01*
X80300917Y-201557867D01*
X80294485Y-201612864D01*
X80338353Y-201689592D01*
X80418106Y-201766957D01*
X80511804Y-201852995D01*
X80620455Y-201968836D01*
X80695650Y-202058492D01*
X80752899Y-202124581D01*
X80855353Y-202235891D01*
X80996822Y-202385963D01*
X81171117Y-202568341D01*
X81372049Y-202776565D01*
X81593428Y-203004178D01*
X81829065Y-203244724D01*
X81960975Y-203378651D01*
X82350328Y-203773999D01*
X82715109Y-204146016D01*
X83052598Y-204491860D01*
X83360078Y-204808688D01*
X83634827Y-205093656D01*
X83874129Y-205343924D01*
X84075262Y-205556647D01*
X84235509Y-205728983D01*
X84352150Y-205858090D01*
X84422465Y-205941125D01*
X84443904Y-205974376D01*
X84434660Y-206021794D01*
X84409358Y-206125116D01*
X84371639Y-206270076D01*
X84325146Y-206442407D01*
X84314768Y-206480161D01*
X84202574Y-206887903D01*
X84097495Y-207271549D01*
X84003869Y-207615222D01*
X83932854Y-207877709D01*
X83904940Y-207980132D01*
X83861064Y-208139625D01*
X83804856Y-208343056D01*
X83739949Y-208577294D01*
X83669974Y-208829207D01*
X83625449Y-208989186D01*
X83549267Y-209262784D01*
X83471321Y-209542870D01*
X83396401Y-209812223D01*
X83329297Y-210053621D01*
X83274798Y-210249844D01*
X83255524Y-210319315D01*
X83206616Y-210494725D01*
X83163641Y-210647073D01*
X83130885Y-210761285D01*
X83112636Y-210822290D01*
X83111541Y-210825560D01*
X83080029Y-210831049D01*
X83006247Y-210783442D01*
X82888308Y-210681434D01*
X82847542Y-210643350D01*
X82738425Y-210540563D01*
X82590350Y-210401634D01*
X82417732Y-210240058D01*
X82234982Y-210069328D01*
X82092733Y-209936676D01*
X81895318Y-209752221D01*
X81680742Y-209550856D01*
X81468607Y-209351029D01*
X81278514Y-209171192D01*
X81182875Y-209080257D01*
X81008677Y-208914355D01*
X80820957Y-208735867D01*
X80640881Y-208564901D01*
X80489613Y-208421564D01*
X80473246Y-208406082D01*
X80357215Y-208295492D01*
X80201146Y-208145487D01*
X80017048Y-207967676D01*
X79816928Y-207773668D01*
X79612793Y-207575072D01*
X79507536Y-207472373D01*
X79293849Y-207264087D01*
X79066474Y-207043225D01*
X78840433Y-206824328D01*
X78630751Y-206621936D01*
X78452450Y-206450588D01*
X78396778Y-206397337D01*
X78013211Y-206029768D01*
X77682266Y-205709745D01*
X77402562Y-205435864D01*
X77172719Y-205206722D01*
X76991358Y-205020916D01*
X76857098Y-204877044D01*
X76768560Y-204773702D01*
X76724364Y-204709488D01*
X76718447Y-204690848D01*
X76735277Y-204601637D01*
X76765678Y-204525054D01*
X76811426Y-204425016D01*
X76876532Y-204266724D01*
X76956990Y-204060961D01*
X77048794Y-203818512D01*
X77147938Y-203550160D01*
X77250416Y-203266688D01*
X77352222Y-202978880D01*
X77449350Y-202697519D01*
X77496727Y-202557192D01*
X77575069Y-202325309D01*
X77657561Y-202084902D01*
X77736507Y-201858152D01*
X77804214Y-201667239D01*
X77831696Y-201591482D01*
X77939144Y-201297160D01*
X78051337Y-200986625D01*
X78172891Y-200646975D01*
X78308424Y-200265305D01*
X78462550Y-199828711D01*
X78477024Y-199787608D01*
X78556439Y-199563517D01*
X78633452Y-199348855D01*
X78702625Y-199158581D01*
X78758520Y-199007656D01*
X78794910Y-198913003D01*
X78845449Y-198780722D01*
X78906595Y-198611364D01*
X78966730Y-198437260D01*
X78978244Y-198402816D01*
X79040348Y-198220774D01*
X79109411Y-198026051D01*
X79171780Y-197857053D01*
X79179071Y-197837967D01*
X79224962Y-197715539D01*
X79288278Y-197542503D01*
X79362430Y-197337067D01*
X79440833Y-197117438D01*
X79488880Y-196981582D01*
X79649770Y-196525644D01*
X79788496Y-196134437D01*
X79906620Y-195803779D01*
X80005706Y-195529489D01*
X80087317Y-195307384D01*
X80153014Y-195133283D01*
X80204361Y-195003003D01*
X80242920Y-194912361D01*
X80270254Y-194857177D01*
X80287926Y-194833268D01*
X80292299Y-194831511D01*
X80334425Y-194857882D01*
G37*
G04 #@! TD.AperFunction*
G04 #@! TA.AperFunction,EtchedComponent*
G36*
X89858062Y-199964959D02*
G01*
X89935171Y-200037024D01*
X90040252Y-200145295D01*
X90163715Y-200280085D01*
X90224415Y-200348756D01*
X90363283Y-200508876D01*
X90496189Y-200664374D01*
X90610309Y-200800092D01*
X90692817Y-200900874D01*
X90709403Y-200921921D01*
X90773102Y-201002038D01*
X90873533Y-201125965D01*
X91000751Y-201281539D01*
X91144810Y-201456597D01*
X91291538Y-201633882D01*
X91468625Y-201847674D01*
X91663422Y-202083603D01*
X91858198Y-202320148D01*
X92035222Y-202535788D01*
X92129701Y-202651278D01*
X92270907Y-202823673D01*
X92408191Y-202990309D01*
X92529660Y-203136820D01*
X92623421Y-203248836D01*
X92658109Y-203289649D01*
X92732141Y-203377284D01*
X92840251Y-203507108D01*
X92970545Y-203664753D01*
X93111130Y-203835850D01*
X93186516Y-203928017D01*
X93346992Y-204124048D01*
X93522012Y-204337007D01*
X93693197Y-204544581D01*
X93842166Y-204724453D01*
X93878912Y-204768639D01*
X94007993Y-204924235D01*
X94171927Y-205122724D01*
X94359533Y-205350495D01*
X94559630Y-205593934D01*
X94761037Y-205839430D01*
X94952574Y-206073369D01*
X95123058Y-206282140D01*
X95227262Y-206410175D01*
X95291736Y-206489555D01*
X95391995Y-206612993D01*
X95517873Y-206767974D01*
X95659204Y-206941983D01*
X95787163Y-207099527D01*
X95921506Y-207267074D01*
X96036820Y-207415005D01*
X96126317Y-207534270D01*
X96183209Y-207615813D01*
X96200709Y-207650582D01*
X96200505Y-207650860D01*
X96159262Y-207665290D01*
X96061467Y-207690224D01*
X95922072Y-207722067D01*
X95768151Y-207754745D01*
X95474672Y-207815638D01*
X95124272Y-207889407D01*
X94731157Y-207973018D01*
X94309533Y-208063436D01*
X93873605Y-208157628D01*
X93459830Y-208247697D01*
X93197381Y-208304770D01*
X92909211Y-208366981D01*
X92622985Y-208428387D01*
X92366365Y-208483043D01*
X92257248Y-208506099D01*
X92035017Y-208552903D01*
X91808059Y-208600742D01*
X91599753Y-208644685D01*
X91433477Y-208679801D01*
X91400863Y-208686698D01*
X91214189Y-208726099D01*
X90996676Y-208771878D01*
X90788829Y-208815511D01*
X90744909Y-208824711D01*
X90401342Y-208897090D01*
X90126062Y-208956090D01*
X89915850Y-209002435D01*
X89767485Y-209036846D01*
X89677747Y-209060048D01*
X89644874Y-209071669D01*
X89621886Y-209059412D01*
X89616614Y-208996145D01*
X89628612Y-208901440D01*
X89650730Y-208814973D01*
X89687027Y-208689621D01*
X89731251Y-208521368D01*
X89776314Y-208338633D01*
X89815128Y-208169835D01*
X89833161Y-208083548D01*
X89853075Y-207988908D01*
X89885109Y-207844350D01*
X89924553Y-207670873D01*
X89959844Y-207518699D01*
X90002164Y-207337120D01*
X90041497Y-207166895D01*
X90073009Y-207029034D01*
X90089845Y-206953849D01*
X90147983Y-206690497D01*
X90193358Y-206491041D01*
X90227839Y-206347978D01*
X90253295Y-206253805D01*
X90271593Y-206201017D01*
X90281447Y-206184361D01*
X90300181Y-206132279D01*
X90307607Y-206048426D01*
X90326788Y-205899391D01*
X90380900Y-205709821D01*
X90419722Y-205605499D01*
X90444896Y-205518464D01*
X90465507Y-205408774D01*
X90466014Y-205405069D01*
X90483333Y-205308189D01*
X90513480Y-205168345D01*
X90550477Y-205012988D01*
X90557278Y-204985987D01*
X90597540Y-204827482D01*
X90635767Y-204676802D01*
X90664550Y-204563154D01*
X90667605Y-204551064D01*
X90684409Y-204415948D01*
X90659851Y-204323877D01*
X90597918Y-204283831D01*
X90550364Y-204286992D01*
X90403772Y-204322474D01*
X90225613Y-204366099D01*
X90032470Y-204413748D01*
X89840924Y-204461302D01*
X89667557Y-204504642D01*
X89528953Y-204539648D01*
X89441693Y-204562203D01*
X89433001Y-204564545D01*
X89317980Y-204595318D01*
X89216683Y-204621455D01*
X89214350Y-204622037D01*
X89114585Y-204648191D01*
X88999346Y-204680074D01*
X88995698Y-204681114D01*
X88848276Y-204721387D01*
X88662744Y-204768573D01*
X88458181Y-204818375D01*
X88356603Y-204843948D01*
X88213054Y-204881540D01*
X88055804Y-204923730D01*
X88029988Y-204930759D01*
X87917100Y-204960936D01*
X87747287Y-205005525D01*
X87534267Y-205060992D01*
X87291756Y-205123803D01*
X87033469Y-205190424D01*
X86773123Y-205257322D01*
X86524435Y-205320964D01*
X86301119Y-205377815D01*
X86116894Y-205424343D01*
X86025684Y-205447109D01*
X85897223Y-205476389D01*
X85774547Y-205500552D01*
X85761143Y-205502833D01*
X85673732Y-205525333D01*
X85623506Y-205553190D01*
X85622335Y-205554863D01*
X85575634Y-205576904D01*
X85488685Y-205587181D01*
X85479056Y-205587278D01*
X85389047Y-205597097D01*
X85335305Y-205621008D01*
X85333288Y-205623720D01*
X85283204Y-205651627D01*
X85219226Y-205660162D01*
X85184148Y-205649319D01*
X85129508Y-205614090D01*
X85050954Y-205550428D01*
X84944134Y-205454284D01*
X84804695Y-205321611D01*
X84628285Y-205148361D01*
X84410551Y-204930485D01*
X84147141Y-204663937D01*
X84137230Y-204653869D01*
X83873334Y-204385786D01*
X83587691Y-204095671D01*
X83293380Y-203796802D01*
X83003477Y-203502456D01*
X82731058Y-203225911D01*
X82489199Y-202980443D01*
X82369617Y-202859106D01*
X81592459Y-202070636D01*
X81786547Y-202022719D01*
X81974818Y-201976166D01*
X82108610Y-201942816D01*
X82204222Y-201918488D01*
X82277954Y-201899006D01*
X82346109Y-201880189D01*
X82381495Y-201870205D01*
X82512881Y-201834404D01*
X82641477Y-201801437D01*
X82654809Y-201798195D01*
X82753113Y-201773804D01*
X82906815Y-201734822D01*
X83100814Y-201685157D01*
X83320012Y-201628716D01*
X83549309Y-201569406D01*
X83773603Y-201511133D01*
X83977797Y-201457804D01*
X84146790Y-201413326D01*
X84265482Y-201381607D01*
X84276473Y-201378612D01*
X84520285Y-201311709D01*
X84767988Y-201243320D01*
X84985885Y-201182754D01*
X85023532Y-201172228D01*
X85265004Y-201107761D01*
X85475014Y-201057765D01*
X85515498Y-201049149D01*
X85620939Y-201022070D01*
X85697707Y-200995587D01*
X85757851Y-200975955D01*
X85874137Y-200942833D01*
X86031954Y-200900219D01*
X86216689Y-200852107D01*
X86298998Y-200831169D01*
X86504665Y-200778970D01*
X86703193Y-200728127D01*
X86875318Y-200683605D01*
X87001772Y-200650367D01*
X87027836Y-200643362D01*
X87172601Y-200604418D01*
X87346091Y-200558183D01*
X87483360Y-200521889D01*
X87610577Y-200488272D01*
X87788187Y-200441146D01*
X87996172Y-200385830D01*
X88214515Y-200327646D01*
X88303302Y-200303950D01*
X88508109Y-200249879D01*
X88699439Y-200200482D01*
X88861139Y-200159850D01*
X88977057Y-200132070D01*
X89013919Y-200124054D01*
X89118852Y-200101089D01*
X89266285Y-200066292D01*
X89428214Y-200026308D01*
X89465339Y-200016880D01*
X89609627Y-199981352D01*
X89729541Y-199954280D01*
X89805575Y-199939977D01*
X89818514Y-199938785D01*
X89858062Y-199964959D01*
G37*
G04 #@! TD.AperFunction*
G04 #@! TA.AperFunction,EtchedComponent*
G36*
X89643472Y-205422682D02*
G01*
X89632953Y-205558136D01*
X89606316Y-205713213D01*
X89590107Y-205779642D01*
X89552344Y-205915502D01*
X89505098Y-206084417D01*
X89459655Y-206246054D01*
X89416341Y-206412495D01*
X89377533Y-206583792D01*
X89352151Y-206719799D01*
X89325843Y-206859270D01*
X89286358Y-207030701D01*
X89243194Y-207193544D01*
X89177462Y-207424519D01*
X89130603Y-207595495D01*
X89100340Y-207716220D01*
X89084397Y-207796443D01*
X89080496Y-207845911D01*
X89084940Y-207871042D01*
X89082018Y-207920782D01*
X89062217Y-208026750D01*
X89028550Y-208175056D01*
X88984029Y-208351811D01*
X88965783Y-208420259D01*
X88913404Y-208621427D01*
X88866288Y-208816206D01*
X88829007Y-208984735D01*
X88806132Y-209107148D01*
X88803609Y-209124964D01*
X88778085Y-209267447D01*
X88737340Y-209438430D01*
X88696432Y-209580488D01*
X88648871Y-209743644D01*
X88606394Y-209913502D01*
X88581385Y-210036011D01*
X88531111Y-210319446D01*
X88485954Y-210538972D01*
X88447401Y-210691965D01*
X88372181Y-210959912D01*
X88317377Y-211165164D01*
X88281318Y-211314483D01*
X88262335Y-211414630D01*
X88258345Y-211457245D01*
X88248054Y-211524470D01*
X88221223Y-211646199D01*
X88181563Y-211806922D01*
X88132787Y-211991130D01*
X88115899Y-212052362D01*
X88066592Y-212237865D01*
X88027327Y-212402145D01*
X88001257Y-212530658D01*
X87991533Y-212608860D01*
X87992561Y-212621602D01*
X87993577Y-212697561D01*
X87974561Y-212803236D01*
X87967684Y-212828207D01*
X87936994Y-212936838D01*
X87897439Y-213083712D01*
X87859075Y-213231228D01*
X87823192Y-213364479D01*
X87790798Y-213471679D01*
X87768378Y-213531519D01*
X87766907Y-213534121D01*
X87715835Y-213579610D01*
X87619544Y-213616418D01*
X87469795Y-213646553D01*
X87258348Y-213672023D01*
X87167082Y-213680306D01*
X86986575Y-213698026D01*
X86814443Y-213719033D01*
X86675485Y-213740112D01*
X86618794Y-213751353D01*
X86345148Y-213811333D01*
X86070371Y-213864503D01*
X85871736Y-213897637D01*
X85676411Y-213927140D01*
X85438426Y-213963291D01*
X85172612Y-214003817D01*
X84893800Y-214046446D01*
X84616821Y-214088904D01*
X84356506Y-214128920D01*
X84127687Y-214164220D01*
X83945193Y-214192532D01*
X83849210Y-214207566D01*
X83646218Y-214239494D01*
X83413380Y-214275952D01*
X83192881Y-214310339D01*
X83138594Y-214318775D01*
X82907487Y-214354889D01*
X82626966Y-214399100D01*
X82319558Y-214447834D01*
X82007792Y-214497516D01*
X81714195Y-214544574D01*
X81644476Y-214555800D01*
X81534459Y-214572906D01*
X81369664Y-214597735D01*
X81167463Y-214627706D01*
X80945230Y-214660238D01*
X80788091Y-214683002D01*
X80562162Y-214715869D01*
X80344185Y-214748100D01*
X80151536Y-214777087D01*
X80001589Y-214800225D01*
X79931707Y-214811483D01*
X79366040Y-214901966D01*
X79002439Y-214956500D01*
X78832908Y-214981854D01*
X78659036Y-215008628D01*
X78528694Y-215029373D01*
X78377392Y-215053755D01*
X78201500Y-215081585D01*
X78091391Y-215098743D01*
X77924690Y-215124916D01*
X77733031Y-215155619D01*
X77590114Y-215178919D01*
X77459069Y-215197372D01*
X77357952Y-215205733D01*
X77306369Y-215202477D01*
X77304347Y-215201143D01*
X77306436Y-215160130D01*
X77327945Y-215064310D01*
X77365244Y-214928019D01*
X77414233Y-214767079D01*
X77465929Y-214604190D01*
X77511544Y-214459493D01*
X77556042Y-214316966D01*
X77604388Y-214160587D01*
X77661547Y-213974334D01*
X77732483Y-213742184D01*
X77773625Y-213607317D01*
X77814832Y-213474675D01*
X77851255Y-213361719D01*
X77873339Y-213297561D01*
X77894285Y-213235614D01*
X77931232Y-213120198D01*
X77979037Y-212967590D01*
X78032552Y-212794070D01*
X78034601Y-212787374D01*
X78170217Y-212346509D01*
X78306297Y-211908725D01*
X78440806Y-211480271D01*
X78571712Y-211067395D01*
X78696982Y-210676346D01*
X78814584Y-210313372D01*
X78922484Y-209984723D01*
X79018649Y-209696646D01*
X79101047Y-209455391D01*
X79167644Y-209267206D01*
X79216407Y-209138339D01*
X79237979Y-209088522D01*
X79290636Y-208963423D01*
X79345657Y-208805576D01*
X79383034Y-208678551D01*
X79418787Y-208556821D01*
X79451647Y-208468864D01*
X79474824Y-208432698D01*
X79475768Y-208432568D01*
X79519027Y-208457438D01*
X79553441Y-208492501D01*
X79595925Y-208535413D01*
X79683195Y-208617593D01*
X79805450Y-208730016D01*
X79952885Y-208863658D01*
X80095421Y-208991424D01*
X80309534Y-209182425D01*
X80479058Y-209333847D01*
X80613823Y-209454591D01*
X80723662Y-209553559D01*
X80818407Y-209639653D01*
X80907889Y-209721772D01*
X81001942Y-209808818D01*
X81110396Y-209909693D01*
X81134289Y-209931947D01*
X81263685Y-210051076D01*
X81430834Y-210202907D01*
X81618703Y-210372075D01*
X81810256Y-210543218D01*
X81917790Y-210638620D01*
X82111637Y-210811195D01*
X82319412Y-210998072D01*
X82521470Y-211181462D01*
X82698166Y-211343574D01*
X82771041Y-211411258D01*
X82908301Y-211535496D01*
X83030949Y-211639139D01*
X83127343Y-211712870D01*
X83185838Y-211747372D01*
X83192881Y-211748780D01*
X83246965Y-211736997D01*
X83297607Y-211696855D01*
X83348092Y-211621161D01*
X83401703Y-211502726D01*
X83461725Y-211334358D01*
X83531440Y-211108865D01*
X83608930Y-210837733D01*
X83672629Y-210610153D01*
X83731356Y-210401727D01*
X83781722Y-210224372D01*
X83820339Y-210090002D01*
X83843818Y-210010535D01*
X83847275Y-209999569D01*
X83875527Y-209907151D01*
X83910151Y-209785705D01*
X83921420Y-209744476D01*
X83955398Y-209630820D01*
X83988426Y-209539384D01*
X83998530Y-209517209D01*
X84027439Y-209429349D01*
X84031950Y-209389662D01*
X84044145Y-209317760D01*
X84074314Y-209210962D01*
X84091085Y-209161406D01*
X84135491Y-209029925D01*
X84174823Y-208901841D01*
X84183714Y-208869871D01*
X84217376Y-208746908D01*
X84249799Y-208632998D01*
X84285542Y-208509230D01*
X84335399Y-208334031D01*
X84394052Y-208126220D01*
X84456186Y-207904613D01*
X84502014Y-207740172D01*
X84545201Y-207584807D01*
X84586632Y-207435875D01*
X84617621Y-207324593D01*
X84618597Y-207321090D01*
X84651485Y-207209091D01*
X84681395Y-207116552D01*
X84686478Y-207102439D01*
X84738777Y-206944615D01*
X84797117Y-206738368D01*
X84835897Y-206586045D01*
X84866904Y-206475046D01*
X84901270Y-206415188D01*
X84955980Y-206386013D01*
X85012386Y-206373461D01*
X85085309Y-206357672D01*
X85216688Y-206326946D01*
X85394320Y-206284228D01*
X85606006Y-206232466D01*
X85839545Y-206174606D01*
X85944619Y-206148340D01*
X86182209Y-206089232D01*
X86401730Y-206035453D01*
X86591369Y-205989830D01*
X86739312Y-205955191D01*
X86833748Y-205934365D01*
X86855667Y-205930249D01*
X86961532Y-205907027D01*
X87037876Y-205881897D01*
X87128331Y-205851097D01*
X87220086Y-205827759D01*
X87489229Y-205769064D01*
X87735435Y-205711169D01*
X87766714Y-205703412D01*
X87963817Y-205654941D01*
X88178056Y-205603543D01*
X88380698Y-205556033D01*
X88543006Y-205519223D01*
X88550215Y-205517639D01*
X88630830Y-205499685D01*
X88706867Y-205481783D01*
X88795155Y-205459670D01*
X88912520Y-205429084D01*
X89075790Y-205385763D01*
X89169727Y-205360709D01*
X89310924Y-205325297D01*
X89447854Y-205294549D01*
X89506814Y-205283016D01*
X89643472Y-205258821D01*
X89643472Y-205422682D01*
G37*
G04 #@! TD.AperFunction*
D11*
X71500000Y-24550000D03*
D12*
X71500000Y-27090000D03*
D13*
X131140000Y-26190000D03*
D12*
X128753181Y-25321269D03*
D14*
X115660000Y-48000000D03*
D15*
X114010000Y-48000000D03*
X112360000Y-48000000D03*
X110710000Y-48000000D03*
D16*
X85741066Y-105601412D03*
D17*
X85300000Y-103100000D03*
D18*
X108960000Y-45230000D03*
X106460000Y-45230000D03*
D11*
X131500000Y-19140000D03*
D12*
X131500000Y-21680000D03*
D19*
X62000000Y-32460000D03*
X62000000Y-40080000D03*
X118080000Y-18050000D03*
X118080000Y-25670000D03*
X85830000Y-90750000D03*
X85830000Y-98370000D03*
X103750000Y-18050000D03*
X103750000Y-25670000D03*
D20*
X59590000Y-80055000D03*
X59590000Y-82595000D03*
X59590000Y-57195000D03*
X59590000Y-77515000D03*
X59590000Y-69895000D03*
X82450000Y-85135000D03*
X59590000Y-87675000D03*
X82450000Y-82595000D03*
X59590000Y-85135000D03*
X59590000Y-74975000D03*
X59590000Y-72435000D03*
X59590000Y-67355000D03*
X59590000Y-62275000D03*
X59590000Y-59735000D03*
X59590000Y-64815000D03*
X82450000Y-74975000D03*
X82450000Y-77515000D03*
X82450000Y-80055000D03*
X82450000Y-69895000D03*
X82450000Y-72435000D03*
X82450000Y-64815000D03*
X82450000Y-67355000D03*
X82450000Y-57195000D03*
X82450000Y-59735000D03*
X82450000Y-62275000D03*
X82450000Y-87675000D03*
D21*
X90119846Y-48728990D03*
D22*
X88569353Y-49293323D03*
X87018861Y-49857656D03*
X85468368Y-50421990D03*
D11*
X78320000Y-110175000D03*
D12*
X83400000Y-110175000D03*
D23*
X143578242Y-108788376D03*
D24*
X141953309Y-108501857D03*
X140328376Y-108215337D03*
X138703443Y-107928818D03*
D11*
X86500000Y-29115000D03*
D12*
X86500000Y-31655000D03*
D18*
X86300000Y-40100000D03*
X84532233Y-41867767D03*
D25*
X138986082Y-51754802D03*
D26*
X137400000Y-51300000D03*
X135813918Y-50845198D03*
X134227836Y-50390397D03*
D18*
X134737880Y-75996059D03*
X132690000Y-77430000D03*
D19*
X81630000Y-29820000D03*
X81630000Y-37440000D03*
D18*
X138131010Y-113117061D03*
X135668991Y-112682941D03*
X78300000Y-114700000D03*
X80800000Y-114700000D03*
X83300000Y-114700000D03*
X139500000Y-40600000D03*
X137732233Y-38832233D03*
D11*
X57500000Y-34460000D03*
D12*
X57500000Y-37000000D03*
D19*
X75500000Y-23430000D03*
X75500000Y-31050000D03*
D27*
X129300000Y-90760000D03*
D28*
X129741066Y-93261412D03*
D11*
X105335000Y-117255000D03*
D12*
X110415000Y-117255000D03*
D29*
X94942691Y-75888507D03*
D30*
X93882091Y-74624534D03*
X92821492Y-73360561D03*
X91760892Y-72096587D03*
D19*
X137000000Y-18810000D03*
X137000000Y-26430000D03*
D18*
X90106969Y-77215111D03*
X88500000Y-75300000D03*
D19*
X76810000Y-45250000D03*
X69190000Y-45250000D03*
D11*
X96500000Y-18460000D03*
D12*
X96500000Y-21000000D03*
D31*
X132315965Y-72173417D03*
D32*
X130964364Y-73119818D03*
X129612763Y-74066219D03*
X128261162Y-75012620D03*
D33*
X81630000Y-29820000D02*
X82950000Y-28500000D01*
X85885000Y-28500000D02*
X86500000Y-29115000D01*
X82950000Y-28500000D02*
X85885000Y-28500000D01*
X85468368Y-50421990D02*
X85468368Y-50218368D01*
X80500000Y-45250000D02*
X76810000Y-45250000D01*
X85468368Y-50218368D02*
X80500000Y-45250000D01*
X88153413Y-72096587D02*
X91760892Y-72096587D01*
X85830000Y-90750000D02*
X85830000Y-74420000D01*
X85830000Y-74420000D02*
X88153413Y-72096587D01*
X69975000Y-74975000D02*
X59590000Y-74975000D01*
X85830000Y-96580000D02*
X85500000Y-96250000D01*
X77750000Y-89500000D02*
X77750000Y-82750000D01*
X85830000Y-98370000D02*
X85830000Y-96580000D01*
X84500000Y-96250000D02*
X77750000Y-89500000D01*
X77750000Y-82750000D02*
X69975000Y-74975000D01*
X59590000Y-74975000D02*
X59565000Y-75000000D01*
X85500000Y-96250000D02*
X84500000Y-96250000D01*
X133500000Y-104500000D02*
X136928818Y-107928818D01*
X136928818Y-107928818D02*
X138703443Y-107928818D01*
X133500000Y-95750000D02*
X133500000Y-104500000D01*
X138500000Y-74750000D02*
X138500000Y-90750000D01*
X132315965Y-72173417D02*
X135923417Y-72173417D01*
X138500000Y-90750000D02*
X133500000Y-95750000D01*
X135923417Y-72173417D02*
X138500000Y-74750000D01*
X134737880Y-75996059D02*
X133741821Y-75000000D01*
X137750000Y-90250000D02*
X132750000Y-95250000D01*
X108960000Y-45230000D02*
X110440000Y-43750000D01*
X132750000Y-105000000D02*
X138131010Y-110381010D01*
X137750000Y-79008179D02*
X137750000Y-90250000D01*
X137400000Y-50850000D02*
X137400000Y-51300000D01*
X90106969Y-78356969D02*
X98250000Y-86500000D01*
X135000000Y-76258179D02*
X134737880Y-75996059D01*
X108960000Y-46790000D02*
X108960000Y-45230000D01*
X96500000Y-48000000D02*
X107750000Y-48000000D01*
X86300000Y-40100000D02*
X88569353Y-42369353D01*
X107750000Y-48000000D02*
X108960000Y-46790000D01*
X134737880Y-75996059D02*
X137750000Y-79008179D01*
X114010000Y-46260000D02*
X114010000Y-48000000D01*
X110440000Y-43750000D02*
X136350000Y-43750000D01*
X91291514Y-77215111D02*
X93882091Y-74624534D01*
X129000000Y-86500000D02*
X135000000Y-80500000D01*
X112980000Y-45230000D02*
X114010000Y-46260000D01*
X98250000Y-86500000D02*
X129000000Y-86500000D01*
X108960000Y-45230000D02*
X112980000Y-45230000D01*
X141953309Y-109294762D02*
X141953309Y-108501857D01*
X135000000Y-80500000D02*
X135000000Y-76258179D01*
X133741821Y-75000000D02*
X132844546Y-75000000D01*
X139500000Y-48750000D02*
X137400000Y-50850000D01*
X132750000Y-95250000D02*
X132750000Y-105000000D01*
X90106969Y-77215111D02*
X90106969Y-78356969D01*
X132844546Y-75000000D02*
X130964364Y-73119818D01*
X138131010Y-110381010D02*
X138131010Y-113117061D01*
X138131010Y-113117061D02*
X141953309Y-109294762D01*
X90106969Y-77215111D02*
X91291514Y-77215111D01*
X139500000Y-40600000D02*
X139500000Y-48750000D01*
X88600000Y-40100000D02*
X96500000Y-48000000D01*
X136350000Y-43750000D02*
X139500000Y-40600000D01*
X86300000Y-40100000D02*
X88600000Y-40100000D01*
X88569353Y-42369353D02*
X88569353Y-49293323D01*
X129750000Y-83500000D02*
X127750000Y-85500000D01*
X128261162Y-78261162D02*
X129750000Y-79750000D01*
X128261162Y-75012620D02*
X128261162Y-78261162D01*
X99250000Y-85500000D02*
X94942691Y-81192691D01*
X129750000Y-79750000D02*
X129750000Y-83500000D01*
X94942691Y-81192691D02*
X94942691Y-75888507D01*
X127750000Y-85500000D02*
X99250000Y-85500000D01*
X108960000Y-49750000D02*
X110710000Y-48000000D01*
X94728990Y-48728990D02*
X95750000Y-49750000D01*
X90119846Y-48728990D02*
X94728990Y-48728990D01*
X95750000Y-49750000D02*
X108960000Y-49750000D01*
X115660000Y-48000000D02*
X131837439Y-48000000D01*
X131837439Y-48000000D02*
X134227836Y-50390397D01*
X67250000Y-53500000D02*
X57500000Y-43750000D01*
X82450000Y-82595000D02*
X80395000Y-82595000D01*
X67250000Y-69450000D02*
X67250000Y-53500000D01*
X80395000Y-82595000D02*
X67250000Y-69450000D01*
X57500000Y-43750000D02*
X57500000Y-37000000D01*
X79155000Y-80055000D02*
X68100000Y-69000000D01*
X65750000Y-50750000D02*
X65750000Y-32840000D01*
X82450000Y-80055000D02*
X79155000Y-80055000D01*
X68100000Y-69000000D02*
X68100000Y-53100000D01*
X65750000Y-32840000D02*
X71500000Y-27090000D01*
X68100000Y-53100000D02*
X65750000Y-50750000D01*
X88500000Y-18750000D02*
X88500000Y-20750000D01*
X94250000Y-18500000D02*
X92750000Y-17000000D01*
X90250000Y-17000000D02*
X88500000Y-18750000D01*
X78015000Y-77515000D02*
X82450000Y-77515000D01*
X94250000Y-19500000D02*
X94250000Y-18500000D01*
X66600000Y-36400000D02*
X66600000Y-50200000D01*
X86750000Y-22500000D02*
X80500000Y-22500000D01*
X66600000Y-50200000D02*
X68900000Y-52500000D01*
X68900000Y-52500000D02*
X68900000Y-68400000D01*
X88500000Y-20750000D02*
X86750000Y-22500000D01*
X68900000Y-68400000D02*
X78015000Y-77515000D01*
X95750000Y-21000000D02*
X94250000Y-19500000D01*
X96500000Y-21000000D02*
X95750000Y-21000000D01*
X80500000Y-22500000D02*
X66600000Y-36400000D01*
X92750000Y-17000000D02*
X90250000Y-17000000D01*
X78750000Y-31750000D02*
X78750000Y-26000000D01*
X115400000Y-23400000D02*
X127900000Y-23400000D01*
X90500000Y-22500000D02*
X105100000Y-22500000D01*
X81500000Y-23250000D02*
X89750000Y-23250000D01*
X67600000Y-49800000D02*
X67600000Y-42900000D01*
X113100000Y-25700000D02*
X115400000Y-23400000D01*
X89750000Y-23250000D02*
X90500000Y-22500000D01*
X69700000Y-67800000D02*
X69700000Y-51900000D01*
X127900000Y-23400000D02*
X129620000Y-21680000D01*
X67600000Y-42900000D02*
X78750000Y-31750000D01*
X105100000Y-22500000D02*
X108300000Y-25700000D01*
X76875000Y-74975000D02*
X69700000Y-67800000D01*
X69700000Y-51900000D02*
X67600000Y-49800000D01*
X108300000Y-25700000D02*
X113100000Y-25700000D01*
X78750000Y-26000000D02*
X81500000Y-23250000D01*
X82450000Y-74975000D02*
X76875000Y-74975000D01*
X129620000Y-21680000D02*
X131500000Y-21680000D01*
X75935000Y-72435000D02*
X70700000Y-67200000D01*
X80145000Y-31655000D02*
X86500000Y-31655000D01*
X70700000Y-41100000D02*
X80145000Y-31655000D01*
X82450000Y-72435000D02*
X75935000Y-72435000D01*
X70700000Y-67200000D02*
X70700000Y-41100000D01*
X104750000Y-23250000D02*
X108000000Y-26500000D01*
X90750000Y-23250000D02*
X104750000Y-23250000D01*
X71800000Y-66400000D02*
X71800000Y-41500000D01*
X108000000Y-26500000D02*
X113500000Y-26500000D01*
X79500000Y-33800000D02*
X87200000Y-33800000D01*
X87200000Y-33800000D02*
X88500000Y-32500000D01*
X71800000Y-41500000D02*
X79500000Y-33800000D01*
X88500000Y-32500000D02*
X88500000Y-25500000D01*
X127681912Y-24250000D02*
X128753181Y-25321269D01*
X115750000Y-24250000D02*
X127681912Y-24250000D01*
X82450000Y-69895000D02*
X75295000Y-69895000D01*
X88500000Y-25500000D02*
X90750000Y-23250000D01*
X75295000Y-69895000D02*
X71800000Y-66400000D01*
X113500000Y-26500000D02*
X115750000Y-24250000D01*
D34*
X59590000Y-82595000D02*
X68795000Y-82595000D01*
X68795000Y-82595000D02*
X69400000Y-83200000D01*
X71250000Y-81750000D02*
X67015000Y-77515000D01*
X89250000Y-100250000D02*
X84750000Y-100250000D01*
X67015000Y-77515000D02*
X59590000Y-77515000D01*
X76500000Y-85750000D02*
X76000000Y-85250000D01*
X76500000Y-90250000D02*
X76500000Y-85750000D01*
X83250000Y-98750000D02*
X83250000Y-97000000D01*
X74250000Y-81750000D02*
X71250000Y-81750000D01*
X84750000Y-100250000D02*
X83250000Y-98750000D01*
X83250000Y-97000000D02*
X76500000Y-90250000D01*
X76000000Y-85250000D02*
X76000000Y-83500000D01*
X76000000Y-83500000D02*
X74250000Y-81750000D01*
X95750000Y-106750000D02*
X89250000Y-100250000D01*
X79865000Y-85135000D02*
X82450000Y-85135000D01*
X79000000Y-86000000D02*
X79865000Y-85135000D01*
X97750000Y-93500000D02*
X83750000Y-93500000D01*
X79000000Y-88750000D02*
X79000000Y-86000000D01*
X83750000Y-93500000D02*
X79000000Y-88750000D01*
X61000000Y-96000000D02*
X64750000Y-99750000D01*
X61000000Y-92750000D02*
X61000000Y-96000000D01*
X59590000Y-91340000D02*
X61000000Y-92750000D01*
X64750000Y-99750000D02*
X64750000Y-101250000D01*
X59590000Y-87675000D02*
X59590000Y-91340000D01*
X59590000Y-85135000D02*
X60885000Y-85135000D01*
X63000000Y-87250000D02*
X63000000Y-91000000D01*
X60885000Y-85135000D02*
X63000000Y-87250000D01*
X63000000Y-91000000D02*
X66500000Y-94500000D01*
G04 #@! TA.AperFunction,Conductor*
G36*
X76620289Y-92804426D02*
G01*
X77127402Y-92915069D01*
X77169298Y-92932744D01*
X77660705Y-93257258D01*
X77693406Y-93288841D01*
X78038378Y-93773666D01*
X78055883Y-93809162D01*
X78249672Y-94440362D01*
X78400000Y-94930000D01*
X78655189Y-95325983D01*
X78674958Y-95392997D01*
X78665936Y-95439586D01*
X78479999Y-95899999D01*
X78479999Y-95900000D01*
X78470174Y-96538683D01*
X78467781Y-96561094D01*
X78366040Y-97069798D01*
X78340531Y-97123864D01*
X78065792Y-97460641D01*
X78027941Y-97491733D01*
X77601757Y-97718426D01*
X77555469Y-97732373D01*
X76650048Y-97819995D01*
X76650022Y-97819997D01*
X76650000Y-97820000D01*
X75437978Y-97954117D01*
X74209961Y-98090004D01*
X71050047Y-98489994D01*
X71050000Y-98490000D01*
X69810006Y-98660896D01*
X67937461Y-98918971D01*
X67922468Y-98920117D01*
X67315386Y-98929603D01*
X67266500Y-98920386D01*
X66857666Y-98753136D01*
X66842809Y-98745865D01*
X66458011Y-98524606D01*
X66442768Y-98514264D01*
X66175596Y-98302369D01*
X66149057Y-98273367D01*
X65926523Y-97935115D01*
X65906815Y-97880103D01*
X65602853Y-95026785D01*
X65608517Y-94974447D01*
X65786546Y-94440362D01*
X65826421Y-94382987D01*
X65835400Y-94376400D01*
X66375250Y-94016499D01*
X66429540Y-93996524D01*
X76579376Y-92802426D01*
X76620289Y-92804426D01*
G37*
G04 #@! TD.AperFunction*
G04 #@! TA.AperFunction,Conductor*
G36*
X100265677Y-105519685D02*
G01*
X100286319Y-105536319D01*
X101750000Y-107000000D01*
X123938000Y-107000000D01*
X124005039Y-107019685D01*
X124037200Y-107049600D01*
X124725200Y-107966933D01*
X124749676Y-108032375D01*
X124750000Y-108041333D01*
X124750000Y-111304009D01*
X124730315Y-111371048D01*
X124708001Y-111397025D01*
X124025184Y-111998982D01*
X123961878Y-112028549D01*
X123943094Y-112029966D01*
X96215130Y-112010039D01*
X96148105Y-111990306D01*
X96123096Y-111969041D01*
X95281877Y-111035379D01*
X95251627Y-110972397D01*
X95250000Y-110952377D01*
X95250000Y-106801362D01*
X95269685Y-106734323D01*
X95286319Y-106713681D01*
X95713681Y-106286319D01*
X95775004Y-106252834D01*
X95801362Y-106250000D01*
X99000000Y-106250000D01*
X99713681Y-105536319D01*
X99775004Y-105502834D01*
X99801362Y-105500000D01*
X100198638Y-105500000D01*
X100265677Y-105519685D01*
G37*
G04 #@! TD.AperFunction*
G04 #@! TA.AperFunction,Conductor*
G36*
X69319332Y-82622349D02*
G01*
X69360972Y-82647558D01*
X70400000Y-83600000D01*
X73804769Y-83127115D01*
X73873877Y-83137390D01*
X73926461Y-83183397D01*
X73945824Y-83250530D01*
X73939926Y-83287728D01*
X73200000Y-85600000D01*
X75243324Y-87457568D01*
X75279688Y-87517229D01*
X75278024Y-87587079D01*
X75238861Y-87644941D01*
X75199125Y-87666958D01*
X73899999Y-88099999D01*
X73899999Y-88100000D01*
X72672896Y-91309348D01*
X72630568Y-91364936D01*
X72564905Y-91388815D01*
X72496756Y-91373404D01*
X72464395Y-91347444D01*
X71000000Y-89700000D01*
X70999999Y-89700000D01*
X68103907Y-90540801D01*
X68034038Y-90540588D01*
X67975375Y-90502635D01*
X67946544Y-90438991D01*
X67948631Y-90393317D01*
X68300000Y-88900000D01*
X66121940Y-86153751D01*
X66095706Y-86088995D01*
X66108646Y-86020334D01*
X66156653Y-85969568D01*
X66191211Y-85955874D01*
X68600000Y-85400000D01*
X69155757Y-82713841D01*
X69188615Y-82652182D01*
X69249594Y-82618074D01*
X69319332Y-82622349D01*
G37*
G04 #@! TD.AperFunction*
G04 #@! TA.AperFunction,Conductor*
G36*
X111255039Y-90769685D02*
G01*
X111287200Y-90799600D01*
X111999999Y-91750000D01*
X112000000Y-91750000D01*
X122416048Y-91750000D01*
X122483087Y-91769685D01*
X122528842Y-91822489D01*
X122531179Y-91827948D01*
X123488061Y-94220153D01*
X123495934Y-94281887D01*
X123193704Y-96652502D01*
X123165700Y-96716514D01*
X123107533Y-96755223D01*
X123071635Y-96760816D01*
X119200000Y-96789999D01*
X119200000Y-96790000D01*
X118993842Y-97511552D01*
X118956498Y-97570604D01*
X118936289Y-97585060D01*
X118262921Y-97971125D01*
X118194971Y-97987392D01*
X118192152Y-97987217D01*
X117584760Y-97942555D01*
X117521662Y-97919708D01*
X116750400Y-97367447D01*
X116731342Y-97350589D01*
X116280000Y-96860000D01*
X116279998Y-96860000D01*
X116279998Y-96859999D01*
X97997541Y-96959523D01*
X97930395Y-96940204D01*
X97884354Y-96887650D01*
X97880252Y-96877680D01*
X96765275Y-93792272D01*
X96761005Y-93722535D01*
X96765357Y-93707766D01*
X97720319Y-91081624D01*
X97761728Y-91025348D01*
X97826990Y-91000393D01*
X97836853Y-91000000D01*
X99708667Y-91000000D01*
X99775706Y-91019685D01*
X99783062Y-91024796D01*
X100750000Y-91750000D01*
X108750000Y-91750000D01*
X109462800Y-90799600D01*
X109518771Y-90757779D01*
X109562000Y-90750000D01*
X111188000Y-90750000D01*
X111255039Y-90769685D01*
G37*
G04 #@! TD.AperFunction*
G04 #@! TA.AperFunction,Conductor*
G36*
X77466998Y-99059070D02*
G01*
X77502068Y-99085574D01*
X77805540Y-99414335D01*
X77828398Y-99449596D01*
X78030000Y-99920000D01*
X78030000Y-99919999D01*
X78030001Y-99920000D01*
X78619112Y-99839998D01*
X81392428Y-99463379D01*
X81441548Y-99466569D01*
X81796265Y-99562723D01*
X81855819Y-99599262D01*
X81881236Y-99642528D01*
X82028916Y-100077364D01*
X82032653Y-100143673D01*
X81093557Y-104447862D01*
X81060034Y-104509164D01*
X81021624Y-104535243D01*
X80377551Y-104813761D01*
X80308205Y-104822302D01*
X80300157Y-104820703D01*
X79473440Y-104627802D01*
X79415338Y-104596108D01*
X78799999Y-103999999D01*
X65431996Y-105656036D01*
X65370125Y-105647877D01*
X64733284Y-105389448D01*
X64692229Y-105362229D01*
X64099183Y-104769183D01*
X64065698Y-104707860D01*
X64064126Y-104699151D01*
X64052745Y-104620000D01*
X63637208Y-101730130D01*
X63647151Y-101660974D01*
X63659947Y-101639161D01*
X64148447Y-100973026D01*
X64203963Y-100930608D01*
X64232934Y-100923331D01*
X65406609Y-100775466D01*
X65475582Y-100786616D01*
X65487212Y-100792960D01*
X66390000Y-101350000D01*
X71380000Y-100700000D01*
X72447658Y-99426302D01*
X72505808Y-99387572D01*
X72575668Y-99386428D01*
X72612850Y-99403721D01*
X74050000Y-100390000D01*
X76020000Y-100140000D01*
X76640000Y-99840000D01*
X77038454Y-99135754D01*
X77088599Y-99087101D01*
X77133724Y-99073464D01*
X77398300Y-99046328D01*
X77466998Y-99059070D01*
G37*
G04 #@! TD.AperFunction*
M02*
