G04 #@! TF.GenerationSoftware,KiCad,Pcbnew,7.0.10*
G04 #@! TF.CreationDate,2024-05-06T11:46:52-05:00*
G04 #@! TF.ProjectId,cowboys_vs_dinos,636f7762-6f79-4735-9f76-735f64696e6f,2*
G04 #@! TF.SameCoordinates,Original*
G04 #@! TF.FileFunction,Soldermask,Bot*
G04 #@! TF.FilePolarity,Negative*
%FSLAX46Y46*%
G04 Gerber Fmt 4.6, Leading zero omitted, Abs format (unit mm)*
G04 Created by KiCad (PCBNEW 7.0.10) date 2024-05-06 11:46:52*
%MOMM*%
%LPD*%
G01*
G04 APERTURE LIST*
G04 Aperture macros list*
%AMHorizOval*
0 Thick line with rounded ends*
0 $1 width*
0 $2 $3 position (X,Y) of the first rounded end (center of the circle)*
0 $4 $5 position (X,Y) of the second rounded end (center of the circle)*
0 Add line between two ends*
20,1,$1,$2,$3,$4,$5,0*
0 Add two circle primitives to create the rounded ends*
1,1,$1,$2,$3*
1,1,$1,$4,$5*%
%AMRotRect*
0 Rectangle, with rotation*
0 The origin of the aperture is its center*
0 $1 length*
0 $2 width*
0 $3 Rotation angle, in degrees counterclockwise*
0 Add horizontal line*
21,1,$1,$2,0,0,$3*%
G04 Aperture macros list end*
%ADD10C,2.375000*%
%ADD11C,0.150000*%
%ADD12C,4.575000*%
%ADD13C,0.100000*%
%ADD14R,1.800000X1.800000*%
%ADD15C,1.800000*%
%ADD16RotRect,1.800000X1.800000X160.000000*%
%ADD17R,1.150000X1.800000*%
%ADD18O,1.150000X1.800000*%
%ADD19RotRect,1.700000X1.700000X190.000000*%
%ADD20HorizOval,1.700000X0.000000X0.000000X0.000000X0.000000X0*%
%ADD21C,1.600000*%
%ADD22C,3.200000*%
%ADD23C,1.400000*%
%ADD24C,0.500000*%
%ADD25O,2.700000X1.600000*%
%ADD26RotRect,1.150000X1.800000X200.000000*%
%ADD27HorizOval,1.150000X-0.111157X0.305400X0.111157X-0.305400X0*%
%ADD28RotRect,1.150000X1.800000X170.000000*%
%ADD29HorizOval,1.150000X0.056436X0.320063X-0.056436X-0.320063X0*%
%ADD30RotRect,1.150000X1.800000X164.000000*%
%ADD31HorizOval,1.150000X0.089582X0.312410X-0.089582X-0.312410X0*%
%ADD32RotRect,1.700000X1.700000X10.000000*%
%ADD33HorizOval,1.700000X0.000000X0.000000X0.000000X0.000000X0*%
%ADD34RotRect,1.150000X1.800000X130.000000*%
%ADD35HorizOval,1.150000X0.248964X0.208906X-0.248964X-0.208906X0*%
%ADD36RotRect,1.150000X1.800000X215.000000*%
%ADD37HorizOval,1.150000X-0.186412X0.266224X0.186412X-0.266224X0*%
G04 APERTURE END LIST*
D10*
X65187500Y-185700000D02*
G75*
G03*
X62812500Y-185700000I-1187500J0D01*
G01*
X62812500Y-185700000D02*
G75*
G03*
X65187500Y-185700000I1187500J0D01*
G01*
X77187500Y-164400000D02*
G75*
G03*
X74812500Y-164400000I-1187500J0D01*
G01*
X74812500Y-164400000D02*
G75*
G03*
X77187500Y-164400000I1187500J0D01*
G01*
D11*
X150200000Y-94000000D02*
X150500000Y-94200000D01*
X150800000Y-94500000D01*
X151000000Y-94900000D01*
X151200000Y-95700000D01*
X151300000Y-97100000D01*
X151000000Y-99000000D01*
X151000000Y-100300000D01*
X151200000Y-101000000D01*
X151400000Y-101300000D01*
X151700000Y-101400000D01*
X152400000Y-101500000D01*
X152900000Y-101600000D01*
X153000000Y-101700000D01*
X153400000Y-102300000D01*
X152900000Y-102900000D01*
X152700000Y-103200000D01*
X152600000Y-103600000D01*
X152600000Y-103900000D01*
X152500000Y-104100000D01*
X152200000Y-104500000D01*
X152000000Y-104900000D01*
X151700000Y-105900000D01*
X151500000Y-106200000D01*
X151100000Y-106400000D01*
X150400000Y-106400000D01*
X150100000Y-106300000D01*
X149700000Y-106000000D01*
X149500000Y-105800000D01*
X149200000Y-105700000D01*
X146700000Y-105300000D01*
X142700000Y-104700000D01*
X138900000Y-104100000D01*
X137200000Y-103800000D01*
X136600000Y-103900000D01*
X135900000Y-103800000D01*
X135400000Y-103600000D01*
X135000000Y-103200000D01*
X134800000Y-102900000D01*
X134700000Y-102100000D01*
X134900000Y-99800000D01*
X135000000Y-99400000D01*
X135300000Y-99100000D01*
X135700000Y-98900000D01*
X136800000Y-98800000D01*
X137500000Y-98500000D01*
X138000000Y-97800000D01*
X138200000Y-97200000D01*
X138200000Y-96700000D01*
X138100000Y-96000000D01*
X138400000Y-93700000D01*
X138500000Y-93400000D01*
X138800000Y-93100000D01*
X139200000Y-92900000D01*
X139900000Y-92800000D01*
X150200000Y-94000000D01*
G36*
X150200000Y-94000000D02*
G01*
X150500000Y-94200000D01*
X150800000Y-94500000D01*
X151000000Y-94900000D01*
X151200000Y-95700000D01*
X151300000Y-97100000D01*
X151000000Y-99000000D01*
X151000000Y-100300000D01*
X151200000Y-101000000D01*
X151400000Y-101300000D01*
X151700000Y-101400000D01*
X152400000Y-101500000D01*
X152900000Y-101600000D01*
X153000000Y-101700000D01*
X153400000Y-102300000D01*
X152900000Y-102900000D01*
X152700000Y-103200000D01*
X152600000Y-103600000D01*
X152600000Y-103900000D01*
X152500000Y-104100000D01*
X152200000Y-104500000D01*
X152000000Y-104900000D01*
X151700000Y-105900000D01*
X151500000Y-106200000D01*
X151100000Y-106400000D01*
X150400000Y-106400000D01*
X150100000Y-106300000D01*
X149700000Y-106000000D01*
X149500000Y-105800000D01*
X149200000Y-105700000D01*
X146700000Y-105300000D01*
X142700000Y-104700000D01*
X138900000Y-104100000D01*
X137200000Y-103800000D01*
X136600000Y-103900000D01*
X135900000Y-103800000D01*
X135400000Y-103600000D01*
X135000000Y-103200000D01*
X134800000Y-102900000D01*
X134700000Y-102100000D01*
X134900000Y-99800000D01*
X135000000Y-99400000D01*
X135300000Y-99100000D01*
X135700000Y-98900000D01*
X136800000Y-98800000D01*
X137500000Y-98500000D01*
X138000000Y-97800000D01*
X138200000Y-97200000D01*
X138200000Y-96700000D01*
X138100000Y-96000000D01*
X138400000Y-93700000D01*
X138500000Y-93400000D01*
X138800000Y-93100000D01*
X139200000Y-92900000D01*
X139900000Y-92800000D01*
X150200000Y-94000000D01*
G37*
D12*
X145287500Y-145250000D02*
G75*
G03*
X140712500Y-145250000I-2287500J0D01*
G01*
X140712500Y-145250000D02*
G75*
G03*
X145287500Y-145250000I2287500J0D01*
G01*
D13*
X125080000Y-28150000D02*
X126150000Y-28670000D01*
X127360000Y-29000000D01*
X128280000Y-29130000D01*
X128720000Y-29120000D01*
X129920000Y-28960000D01*
X130440000Y-28940000D01*
X131070000Y-28990000D01*
X132300000Y-29360000D01*
X133180000Y-29860000D01*
X133800000Y-30400000D01*
X134520000Y-31500000D01*
X135140000Y-32480000D01*
X135560000Y-33400000D01*
X136140000Y-34230000D01*
X136120000Y-34330000D01*
X135910000Y-35130000D01*
X135520000Y-36090000D01*
X135160000Y-36670000D01*
X134250000Y-37510000D01*
X133030000Y-38320000D01*
X131660000Y-39510000D01*
X130500000Y-40180000D01*
X129930000Y-40690000D01*
X129270000Y-41110000D01*
X128810000Y-41190000D01*
X128440000Y-41160000D01*
X127950000Y-40880000D01*
X127610000Y-40460000D01*
X127380000Y-39950000D01*
X127090000Y-39320000D01*
X126850000Y-38770000D01*
X126740000Y-38060000D01*
X126260000Y-37930000D01*
X125870000Y-37730000D01*
X125310000Y-37360000D01*
X124950000Y-37130000D01*
X124340000Y-37170000D01*
X123360000Y-37230000D01*
X122500000Y-37360000D01*
X121950000Y-37480000D01*
X121310000Y-37530000D01*
X120860000Y-37520000D01*
X120510000Y-37480000D01*
X120270000Y-37390000D01*
X119950000Y-37110000D01*
X119730000Y-36790000D01*
X119570000Y-36450000D01*
X119430000Y-36000000D01*
X119320000Y-35880000D01*
X119160000Y-35690000D01*
X119070000Y-35430000D01*
X119120000Y-35170000D01*
X119310000Y-34940000D01*
X119250000Y-34490000D01*
X119270000Y-33890000D01*
X119040000Y-33410000D01*
X119250000Y-32250000D01*
X119570000Y-31550000D01*
X119690000Y-30940000D01*
X120040000Y-30570000D01*
X120460000Y-29880000D01*
X121400000Y-29270000D01*
X122270000Y-28820000D01*
X123120000Y-28310000D01*
X123690000Y-28030000D01*
X124130000Y-27780000D01*
X124540000Y-27770000D01*
X125080000Y-28150000D01*
G36*
X125080000Y-28150000D02*
G01*
X126150000Y-28670000D01*
X127360000Y-29000000D01*
X128280000Y-29130000D01*
X128720000Y-29120000D01*
X129920000Y-28960000D01*
X130440000Y-28940000D01*
X131070000Y-28990000D01*
X132300000Y-29360000D01*
X133180000Y-29860000D01*
X133800000Y-30400000D01*
X134520000Y-31500000D01*
X135140000Y-32480000D01*
X135560000Y-33400000D01*
X136140000Y-34230000D01*
X136120000Y-34330000D01*
X135910000Y-35130000D01*
X135520000Y-36090000D01*
X135160000Y-36670000D01*
X134250000Y-37510000D01*
X133030000Y-38320000D01*
X131660000Y-39510000D01*
X130500000Y-40180000D01*
X129930000Y-40690000D01*
X129270000Y-41110000D01*
X128810000Y-41190000D01*
X128440000Y-41160000D01*
X127950000Y-40880000D01*
X127610000Y-40460000D01*
X127380000Y-39950000D01*
X127090000Y-39320000D01*
X126850000Y-38770000D01*
X126740000Y-38060000D01*
X126260000Y-37930000D01*
X125870000Y-37730000D01*
X125310000Y-37360000D01*
X124950000Y-37130000D01*
X124340000Y-37170000D01*
X123360000Y-37230000D01*
X122500000Y-37360000D01*
X121950000Y-37480000D01*
X121310000Y-37530000D01*
X120860000Y-37520000D01*
X120510000Y-37480000D01*
X120270000Y-37390000D01*
X119950000Y-37110000D01*
X119730000Y-36790000D01*
X119570000Y-36450000D01*
X119430000Y-36000000D01*
X119320000Y-35880000D01*
X119160000Y-35690000D01*
X119070000Y-35430000D01*
X119120000Y-35170000D01*
X119310000Y-34940000D01*
X119250000Y-34490000D01*
X119270000Y-33890000D01*
X119040000Y-33410000D01*
X119250000Y-32250000D01*
X119570000Y-31550000D01*
X119690000Y-30940000D01*
X120040000Y-30570000D01*
X120460000Y-29880000D01*
X121400000Y-29270000D01*
X122270000Y-28820000D01*
X123120000Y-28310000D01*
X123690000Y-28030000D01*
X124130000Y-27780000D01*
X124540000Y-27770000D01*
X125080000Y-28150000D01*
G37*
X95850000Y-24390000D02*
X96780000Y-23830000D01*
X97720000Y-24820000D01*
X98390000Y-24610000D01*
X98860000Y-25040000D01*
X99410000Y-25590000D01*
X99990000Y-26360000D01*
X100880000Y-27280000D01*
X101540000Y-27780000D01*
X102350000Y-27490000D01*
X103380000Y-27150000D01*
X103750000Y-27220000D01*
X103970000Y-27750000D01*
X103930000Y-28620000D01*
X103630000Y-29980000D01*
X103800000Y-30340000D01*
X103290000Y-31370000D01*
X103600000Y-31840000D01*
X103910000Y-33410000D01*
X104370000Y-34570000D01*
X105030000Y-35760000D01*
X105370000Y-37060000D01*
X105380000Y-37940000D01*
X105320000Y-38810000D01*
X105120000Y-39380000D01*
X105040000Y-39790000D01*
X104770000Y-40180000D01*
X104320000Y-40650000D01*
X103980000Y-40960000D01*
X103590000Y-41130000D01*
X103070000Y-41360000D01*
X102830000Y-41700000D01*
X102770000Y-42320000D01*
X102780000Y-42690000D01*
X102540000Y-43160000D01*
X102280000Y-43740000D01*
X101820000Y-44260000D01*
X101280000Y-44500000D01*
X100700000Y-44570000D01*
X100050000Y-44490000D01*
X99500000Y-44320000D01*
X98870000Y-44040000D01*
X98120000Y-43460000D01*
X96910000Y-42800000D01*
X96260000Y-41950000D01*
X95780000Y-41000000D01*
X95100000Y-40290000D01*
X93530000Y-39400000D01*
X92210000Y-38400000D01*
X91110000Y-36620000D01*
X90110000Y-33990000D01*
X89790000Y-32390000D01*
X89850000Y-29880000D01*
X89650000Y-29670000D01*
X89350000Y-29640000D01*
X89330000Y-29550000D01*
X89770000Y-29080000D01*
X89820000Y-28840000D01*
X89670000Y-28750000D01*
X89490000Y-28550000D01*
X89650000Y-28050000D01*
X90060000Y-27850000D01*
X90190000Y-27740000D01*
X90890000Y-26110000D01*
X90780000Y-25880000D01*
X91170000Y-25290000D01*
X91580000Y-25350000D01*
X91940000Y-25150000D01*
X92640000Y-24130000D01*
X93320000Y-23730000D01*
X94160000Y-24250000D01*
X94360000Y-24250000D01*
X95070000Y-23540000D01*
X95850000Y-24390000D01*
G36*
X95850000Y-24390000D02*
G01*
X96780000Y-23830000D01*
X97720000Y-24820000D01*
X98390000Y-24610000D01*
X98860000Y-25040000D01*
X99410000Y-25590000D01*
X99990000Y-26360000D01*
X100880000Y-27280000D01*
X101540000Y-27780000D01*
X102350000Y-27490000D01*
X103380000Y-27150000D01*
X103750000Y-27220000D01*
X103970000Y-27750000D01*
X103930000Y-28620000D01*
X103630000Y-29980000D01*
X103800000Y-30340000D01*
X103290000Y-31370000D01*
X103600000Y-31840000D01*
X103910000Y-33410000D01*
X104370000Y-34570000D01*
X105030000Y-35760000D01*
X105370000Y-37060000D01*
X105380000Y-37940000D01*
X105320000Y-38810000D01*
X105120000Y-39380000D01*
X105040000Y-39790000D01*
X104770000Y-40180000D01*
X104320000Y-40650000D01*
X103980000Y-40960000D01*
X103590000Y-41130000D01*
X103070000Y-41360000D01*
X102830000Y-41700000D01*
X102770000Y-42320000D01*
X102780000Y-42690000D01*
X102540000Y-43160000D01*
X102280000Y-43740000D01*
X101820000Y-44260000D01*
X101280000Y-44500000D01*
X100700000Y-44570000D01*
X100050000Y-44490000D01*
X99500000Y-44320000D01*
X98870000Y-44040000D01*
X98120000Y-43460000D01*
X96910000Y-42800000D01*
X96260000Y-41950000D01*
X95780000Y-41000000D01*
X95100000Y-40290000D01*
X93530000Y-39400000D01*
X92210000Y-38400000D01*
X91110000Y-36620000D01*
X90110000Y-33990000D01*
X89790000Y-32390000D01*
X89850000Y-29880000D01*
X89650000Y-29670000D01*
X89350000Y-29640000D01*
X89330000Y-29550000D01*
X89770000Y-29080000D01*
X89820000Y-28840000D01*
X89670000Y-28750000D01*
X89490000Y-28550000D01*
X89650000Y-28050000D01*
X90060000Y-27850000D01*
X90190000Y-27740000D01*
X90890000Y-26110000D01*
X90780000Y-25880000D01*
X91170000Y-25290000D01*
X91580000Y-25350000D01*
X91940000Y-25150000D01*
X92640000Y-24130000D01*
X93320000Y-23730000D01*
X94160000Y-24250000D01*
X94360000Y-24250000D01*
X95070000Y-23540000D01*
X95850000Y-24390000D01*
G37*
G36*
X127128745Y-18532759D02*
G01*
X127136797Y-18533638D01*
X127366018Y-18573830D01*
X127570591Y-18646805D01*
X127775158Y-18764316D01*
X128004358Y-18938116D01*
X128030891Y-18960139D01*
X128210924Y-19124347D01*
X128341482Y-19282067D01*
X128449781Y-19466912D01*
X128463600Y-19494597D01*
X128608007Y-19788189D01*
X128606143Y-20459537D01*
X128602506Y-20770453D01*
X128590613Y-21013471D01*
X128566067Y-21207148D01*
X128524469Y-21370041D01*
X128461421Y-21520707D01*
X128372526Y-21677704D01*
X128285735Y-21811536D01*
X128161939Y-21983223D01*
X128034235Y-22126170D01*
X127885144Y-22254835D01*
X127697193Y-22383679D01*
X127452904Y-22527159D01*
X127356179Y-22580603D01*
X127150539Y-22695730D01*
X126926492Y-22825342D01*
X126728811Y-22943491D01*
X126709105Y-22955593D01*
X126554249Y-23043585D01*
X126415291Y-23109405D01*
X126317208Y-23141553D01*
X126302192Y-23142981D01*
X126215562Y-23112696D01*
X126094106Y-23018770D01*
X125932400Y-22857168D01*
X125575707Y-22450662D01*
X125293537Y-22070949D01*
X125082203Y-21707768D01*
X124938019Y-21350855D01*
X124857301Y-20989950D01*
X124836363Y-20614790D01*
X124871520Y-20215114D01*
X124908383Y-20005843D01*
X124978503Y-19733591D01*
X125076879Y-19507461D01*
X125220751Y-19293885D01*
X125354250Y-19137727D01*
X125627630Y-18899243D01*
X125957328Y-18714232D01*
X126327786Y-18587966D01*
X126723444Y-18525718D01*
X127128745Y-18532759D01*
G37*
G36*
X51997689Y-33902077D02*
G01*
X52326701Y-33979515D01*
X52664450Y-34096984D01*
X52987575Y-34245000D01*
X53272715Y-34414078D01*
X53496508Y-34594731D01*
X53510712Y-34609041D01*
X53686828Y-34826946D01*
X53855675Y-35102832D01*
X54002525Y-35408455D01*
X54112652Y-35715577D01*
X54138539Y-35812922D01*
X54181702Y-36064564D01*
X54202362Y-36347157D01*
X54201468Y-36637799D01*
X54179967Y-36913586D01*
X54138809Y-37151613D01*
X54078941Y-37328977D01*
X54075482Y-37335826D01*
X53864841Y-37658809D01*
X53584477Y-37957843D01*
X53250739Y-38217945D01*
X52895652Y-38416953D01*
X52603382Y-38520150D01*
X52257786Y-38590530D01*
X51886940Y-38624656D01*
X51518921Y-38619091D01*
X51369506Y-38603768D01*
X50945709Y-38508238D01*
X50567475Y-38339760D01*
X50233975Y-38097700D01*
X49944385Y-37781426D01*
X49697878Y-37390304D01*
X49642806Y-37280588D01*
X49471385Y-36836824D01*
X49379504Y-36391299D01*
X49367675Y-35952572D01*
X49436407Y-35529200D01*
X49522791Y-35270548D01*
X49677601Y-34935816D01*
X49844877Y-34670029D01*
X50036913Y-34455591D01*
X50170985Y-34342848D01*
X50301491Y-34242321D01*
X50408907Y-34157201D01*
X50470468Y-34105538D01*
X50471240Y-34104815D01*
X50568528Y-34050488D01*
X50733223Y-33997737D01*
X50946214Y-33950149D01*
X51188391Y-33911308D01*
X51440640Y-33884800D01*
X51683853Y-33874209D01*
X51700777Y-33874156D01*
X51997689Y-33902077D01*
G37*
G36*
X67068332Y-24061122D02*
G01*
X67396007Y-24252413D01*
X67652710Y-24440582D01*
X67852511Y-24638540D01*
X68009481Y-24859199D01*
X68080000Y-24989524D01*
X68144328Y-25123132D01*
X68189045Y-25232624D01*
X68218425Y-25339646D01*
X68236743Y-25465845D01*
X68248274Y-25632867D01*
X68257292Y-25862358D01*
X68258321Y-25892545D01*
X68262726Y-26262602D01*
X68246222Y-26566285D01*
X68205876Y-26821877D01*
X68138754Y-27047659D01*
X68041923Y-27261912D01*
X68037189Y-27270879D01*
X67904378Y-27478211D01*
X67725935Y-27697698D01*
X67522919Y-27907727D01*
X67316389Y-28086687D01*
X67127406Y-28212967D01*
X67110723Y-28221644D01*
X66993740Y-28275750D01*
X66886718Y-28309054D01*
X66762937Y-28326033D01*
X66595674Y-28331163D01*
X66461660Y-28330396D01*
X66252654Y-28324566D01*
X66052518Y-28313289D01*
X65893038Y-28298568D01*
X65843611Y-28291459D01*
X65615759Y-28236363D01*
X65379740Y-28153646D01*
X65167007Y-28055939D01*
X65009972Y-27956649D01*
X64754302Y-27735525D01*
X64555488Y-27521872D01*
X64397966Y-27292732D01*
X64266172Y-27025150D01*
X64144541Y-26696167D01*
X64134317Y-26665079D01*
X64049242Y-26279378D01*
X64029393Y-25863937D01*
X64072757Y-25443495D01*
X64177320Y-25042796D01*
X64287368Y-24784318D01*
X64392294Y-24636150D01*
X64559068Y-24468473D01*
X64770035Y-24295964D01*
X65007540Y-24133303D01*
X65209400Y-24017729D01*
X65519080Y-23856950D01*
X66103237Y-23856950D01*
X66687393Y-23856950D01*
X67068332Y-24061122D01*
G37*
G36*
X91411259Y-17396765D02*
G01*
X91609026Y-17407927D01*
X91756552Y-17426351D01*
X91885051Y-17460435D01*
X92025736Y-17518577D01*
X92209820Y-17609175D01*
X92220064Y-17614372D01*
X92463294Y-17749178D01*
X92654696Y-17884980D01*
X92826099Y-18044939D01*
X92857277Y-18078078D01*
X93095767Y-18364334D01*
X93273430Y-18649828D01*
X93398161Y-18954517D01*
X93477857Y-19298360D01*
X93520413Y-19701315D01*
X93523824Y-19762936D01*
X93533514Y-19984940D01*
X93534586Y-20144377D01*
X93524450Y-20265014D01*
X93500514Y-20370617D01*
X93460185Y-20484950D01*
X93439382Y-20537217D01*
X93223602Y-20982808D01*
X92966954Y-21352181D01*
X92669291Y-21645484D01*
X92330467Y-21862859D01*
X91964063Y-22000849D01*
X91820073Y-22026952D01*
X91622873Y-22046716D01*
X91405729Y-22057233D01*
X91308518Y-22058165D01*
X91085994Y-22053340D01*
X90917414Y-22037682D01*
X90770347Y-22005774D01*
X90612364Y-21952202D01*
X90565675Y-21934126D01*
X90380107Y-21852143D01*
X90196119Y-21756283D01*
X90058666Y-21670718D01*
X89849544Y-21486750D01*
X89640638Y-21242463D01*
X89450803Y-20962049D01*
X89327482Y-20732511D01*
X89273945Y-20616897D01*
X89236311Y-20520973D01*
X89211836Y-20425878D01*
X89197778Y-20312752D01*
X89191392Y-20162736D01*
X89189936Y-19956970D01*
X89190318Y-19789489D01*
X89192391Y-19140426D01*
X89353446Y-18797783D01*
X89565168Y-18443607D01*
X89851179Y-18115603D01*
X90200636Y-17824393D01*
X90589112Y-17587562D01*
X90994749Y-17378322D01*
X91411259Y-17396765D01*
G37*
G36*
X125466060Y-50960359D02*
G01*
X125775197Y-50968734D01*
X126057213Y-50978342D01*
X126300136Y-50988617D01*
X126491990Y-50998992D01*
X126620804Y-51008901D01*
X126674064Y-51017463D01*
X126677293Y-51056221D01*
X126602713Y-51128899D01*
X126500980Y-51202291D01*
X126283042Y-51357609D01*
X126043592Y-51541797D01*
X125798820Y-51741078D01*
X125564918Y-51941674D01*
X125358076Y-52129810D01*
X125194485Y-52291706D01*
X125114025Y-52382480D01*
X124938332Y-52635438D01*
X124816570Y-52885795D01*
X124755100Y-53117556D01*
X124754697Y-53286056D01*
X124830292Y-53507180D01*
X124973646Y-53708581D01*
X125166043Y-53867137D01*
X125268074Y-53920276D01*
X125407016Y-53970729D01*
X125550959Y-53998821D01*
X125731077Y-54009146D01*
X125868327Y-54008742D01*
X126072216Y-54000622D01*
X126271008Y-53984552D01*
X126410000Y-53980000D01*
X126480000Y-53980000D01*
X126590000Y-53980000D01*
X126940000Y-53980000D01*
X127190000Y-53980000D01*
X127540000Y-53980000D01*
X127720000Y-53960000D01*
X127880000Y-53910000D01*
X128030000Y-53890000D01*
X128270000Y-53870000D01*
X128490000Y-53860000D01*
X128680000Y-53850000D01*
X128840000Y-53850000D01*
X128980000Y-53850000D01*
X129110000Y-53840000D01*
X129250000Y-53840000D01*
X129390000Y-53840000D01*
X129580000Y-53840000D01*
X129780000Y-53850000D01*
X130000000Y-53890000D01*
X130210000Y-53930000D01*
X130410000Y-53980000D01*
X130560000Y-54020000D01*
X130660000Y-54050000D01*
X130790000Y-54080000D01*
X130920000Y-54110000D01*
X131020000Y-54120000D01*
X131136716Y-54116916D01*
X131288184Y-54081496D01*
X131472281Y-54079874D01*
X131703613Y-54112198D01*
X131996785Y-54178613D01*
X132066536Y-54196632D01*
X132538319Y-54314189D01*
X133073815Y-54436673D01*
X133650723Y-54559436D01*
X134246746Y-54677829D01*
X134839584Y-54787204D01*
X135185179Y-54846684D01*
X135640776Y-54928207D01*
X136026187Y-55009562D01*
X136357676Y-55094473D01*
X136613117Y-55173544D01*
X136909026Y-55268085D01*
X137277093Y-55377101D01*
X137704771Y-55497332D01*
X138179512Y-55625515D01*
X138688770Y-55758390D01*
X139219997Y-55892696D01*
X139760648Y-56025171D01*
X140298174Y-56152555D01*
X140820029Y-56271585D01*
X140940204Y-56298250D01*
X141352293Y-56390821D01*
X141774109Y-56488633D01*
X142197260Y-56589493D01*
X142613357Y-56691207D01*
X143014007Y-56791584D01*
X143390821Y-56888429D01*
X143735407Y-56979551D01*
X144039375Y-57062755D01*
X144294335Y-57135850D01*
X144491894Y-57196642D01*
X144623663Y-57242938D01*
X144681251Y-57272545D01*
X144683134Y-57276472D01*
X144661523Y-57356566D01*
X144602187Y-57494784D01*
X144513372Y-57675924D01*
X144403327Y-57884789D01*
X144280297Y-58106178D01*
X144152530Y-58324892D01*
X144028272Y-58525733D01*
X143915771Y-58693501D01*
X143909538Y-58702235D01*
X143795229Y-58858708D01*
X143694808Y-58985413D01*
X143593796Y-59096000D01*
X143477716Y-59204118D01*
X143332091Y-59323420D01*
X143142443Y-59467554D01*
X142938402Y-59617896D01*
X142588823Y-59884728D01*
X142265376Y-60152611D01*
X141988253Y-60404481D01*
X141878628Y-60513635D01*
X141633589Y-60750841D01*
X141379191Y-60961739D01*
X141102834Y-61153642D01*
X140791919Y-61333863D01*
X140433848Y-61509713D01*
X140016020Y-61688507D01*
X139533901Y-61874568D01*
X139048146Y-62056485D01*
X138631798Y-62216944D01*
X138272196Y-62361948D01*
X137956675Y-62497496D01*
X137672575Y-62629591D01*
X137407233Y-62764234D01*
X137147985Y-62907426D01*
X136882170Y-63065170D01*
X136597126Y-63243466D01*
X136460112Y-63331420D01*
X136246693Y-63463434D01*
X136081828Y-63550179D01*
X135946527Y-63600490D01*
X135836242Y-63621710D01*
X135664068Y-63624207D01*
X135416091Y-63602654D01*
X135099328Y-63558100D01*
X134720798Y-63491595D01*
X134287519Y-63404188D01*
X134081771Y-63359473D01*
X133883720Y-63316884D01*
X133712111Y-63284335D01*
X133549273Y-63260194D01*
X133377533Y-63242827D01*
X133179219Y-63230601D01*
X132936661Y-63221883D01*
X132632186Y-63215039D01*
X132491567Y-63212503D01*
X132206932Y-63208959D01*
X131953531Y-63208465D01*
X131743374Y-63210825D01*
X131588469Y-63215843D01*
X131500825Y-63223323D01*
X131485519Y-63228943D01*
X131503713Y-63280623D01*
X131552277Y-63389483D01*
X131622186Y-63535648D01*
X131653700Y-63599298D01*
X131747822Y-63819461D01*
X131841423Y-64094155D01*
X131928352Y-64398879D01*
X132002462Y-64709134D01*
X132057603Y-65000420D01*
X132087626Y-65248237D01*
X132091312Y-65342945D01*
X132073514Y-65607765D01*
X132025047Y-65885895D01*
X131953302Y-66144661D01*
X131865668Y-66351389D01*
X131861551Y-66358800D01*
X131772051Y-66480108D01*
X131642246Y-66613367D01*
X131538311Y-66700230D01*
X131398447Y-66816352D01*
X131329856Y-66910237D01*
X131326090Y-66997714D01*
X131378718Y-67092001D01*
X131436910Y-67200354D01*
X131433087Y-67302911D01*
X131361945Y-67412703D01*
X131218181Y-67542761D01*
X131184544Y-67569050D01*
X130898590Y-67826562D01*
X130626537Y-68140516D01*
X130391611Y-68481316D01*
X130233839Y-68780366D01*
X130163030Y-68953107D01*
X130076845Y-69183148D01*
X129984500Y-69444815D01*
X129895214Y-69712433D01*
X129863533Y-69811847D01*
X129652846Y-70483061D01*
X129404598Y-70531901D01*
X129085242Y-70629976D01*
X128785974Y-70787583D01*
X128586371Y-70942831D01*
X128467131Y-71031351D01*
X128301911Y-71125580D01*
X128132027Y-71202785D01*
X127939493Y-71286963D01*
X127720834Y-71396044D01*
X127522012Y-71507042D01*
X127514333Y-71511675D01*
X127199534Y-71702349D01*
X127059989Y-71499500D01*
X126791852Y-71138933D01*
X126534386Y-70855510D01*
X126279260Y-70641942D01*
X126018141Y-70490943D01*
X125822399Y-70417072D01*
X125626267Y-70377584D01*
X125370073Y-70354182D01*
X125078717Y-70346502D01*
X124777101Y-70354184D01*
X124490126Y-70376864D01*
X124242695Y-70414181D01*
X124129472Y-70441693D01*
X123958183Y-70500538D01*
X123731153Y-70590594D01*
X123469076Y-70702483D01*
X123192643Y-70826827D01*
X122922546Y-70954248D01*
X122679479Y-71075369D01*
X122484135Y-71180813D01*
X122435968Y-71209175D01*
X122280914Y-71298657D01*
X122130170Y-71378329D01*
X122039639Y-71420745D01*
X121794396Y-71542230D01*
X121528722Y-71712205D01*
X121232674Y-71937705D01*
X120896312Y-72225767D01*
X120874467Y-72245342D01*
X120693292Y-72412533D01*
X120531126Y-72570522D01*
X120401162Y-72705823D01*
X120316594Y-72804950D01*
X120294985Y-72837635D01*
X120256898Y-72973463D01*
X120241038Y-73182503D01*
X120246322Y-73454626D01*
X120271666Y-73779699D01*
X120315984Y-74147595D01*
X120378193Y-74548181D01*
X120457207Y-74971328D01*
X120551943Y-75406905D01*
X120584795Y-75544769D01*
X120659359Y-75832359D01*
X120754358Y-76169532D01*
X120865623Y-76543738D01*
X120988986Y-76942429D01*
X121120277Y-77353056D01*
X121255327Y-77763069D01*
X121389968Y-78159920D01*
X121520031Y-78531060D01*
X121641348Y-78863940D01*
X121749749Y-79146011D01*
X121841065Y-79364724D01*
X121884838Y-79458162D01*
X122033912Y-79749909D01*
X122157752Y-79974634D01*
X122265824Y-80144591D01*
X122367596Y-80272038D01*
X122472535Y-80369232D01*
X122590108Y-80448427D01*
X122692163Y-80503331D01*
X122896104Y-80593483D01*
X123172698Y-80697344D01*
X123509796Y-80811345D01*
X123895252Y-80931917D01*
X124316918Y-81055489D01*
X124762648Y-81178494D01*
X125220294Y-81297360D01*
X125677710Y-81408519D01*
X126084484Y-81500175D01*
X126393909Y-81569743D01*
X126651311Y-81633236D01*
X126847865Y-81688229D01*
X126974745Y-81732297D01*
X127019124Y-81756968D01*
X127058204Y-81807448D01*
X127050381Y-81856770D01*
X126988413Y-81932110D01*
X126966245Y-81955449D01*
X126764771Y-82121286D01*
X126483868Y-82284438D01*
X126130648Y-82442459D01*
X125712221Y-82592908D01*
X125235700Y-82733341D01*
X124708197Y-82861313D01*
X124136824Y-82974382D01*
X123869846Y-83019341D01*
X123079046Y-83136344D01*
X122210957Y-83247819D01*
X121274693Y-83353183D01*
X120279367Y-83451852D01*
X119234090Y-83543243D01*
X118147976Y-83626772D01*
X117030136Y-83701857D01*
X115889684Y-83767914D01*
X114640000Y-83740000D01*
X113570000Y-83740000D01*
X112450000Y-83740000D01*
X111320000Y-83750000D01*
X110140000Y-83740000D01*
X109580000Y-83760000D01*
X108940000Y-83780000D01*
X108460000Y-83800000D01*
X108070000Y-83800000D01*
X107780000Y-83800000D01*
X107520000Y-83800000D01*
X107260000Y-83800000D01*
X107020000Y-83800000D01*
X106760000Y-83800000D01*
X106540000Y-83800000D01*
X106350000Y-83800000D01*
X106140000Y-83790000D01*
X105532361Y-83765674D01*
X104858105Y-83693292D01*
X104244611Y-83620716D01*
X103679015Y-83546256D01*
X103148458Y-83468226D01*
X102640078Y-83384937D01*
X102169506Y-83300075D01*
X101815947Y-83233769D01*
X101442608Y-83164112D01*
X101072647Y-83095400D01*
X100729224Y-83031931D01*
X100435501Y-82977999D01*
X100308858Y-82954925D01*
X100053108Y-82907944D01*
X99814559Y-82863088D01*
X99611586Y-82823888D01*
X99462565Y-82793878D01*
X99400170Y-82780226D01*
X99253632Y-82756112D01*
X99073975Y-82740759D01*
X98981096Y-82738000D01*
X98793584Y-82726752D01*
X98641240Y-82697858D01*
X98542097Y-82656081D01*
X98513117Y-82614315D01*
X98538055Y-82561379D01*
X98602079Y-82466591D01*
X98657522Y-82393579D01*
X98751856Y-82290798D01*
X98883745Y-82176537D01*
X99061691Y-82044729D01*
X99294196Y-81889310D01*
X99589760Y-81704214D01*
X99813809Y-81568654D01*
X100208575Y-81300956D01*
X100540222Y-81004039D01*
X100819208Y-80664775D01*
X101055990Y-80270034D01*
X101261024Y-79806689D01*
X101299624Y-79703306D01*
X101446865Y-79321873D01*
X101587717Y-79010469D01*
X101730428Y-78753826D01*
X101883246Y-78536680D01*
X102008131Y-78391970D01*
X102150423Y-78227628D01*
X102310673Y-78023639D01*
X102462223Y-77814510D01*
X102517235Y-77732883D01*
X102650199Y-77539313D01*
X102795491Y-77342725D01*
X102929848Y-77174081D01*
X102983470Y-77112320D01*
X103115692Y-76958622D01*
X103281275Y-76754457D01*
X103464285Y-76520491D01*
X103648789Y-76277387D01*
X103818854Y-76045810D01*
X103951452Y-75856899D01*
X104030712Y-75722158D01*
X104090451Y-75573089D01*
X104133035Y-75395714D01*
X104160831Y-75176054D01*
X104176205Y-74900132D01*
X104181524Y-74553968D01*
X104181601Y-74497605D01*
X104181601Y-73791633D01*
X104005428Y-73322611D01*
X103919363Y-73071100D01*
X103849275Y-72823205D01*
X103803780Y-72610636D01*
X103795035Y-72548442D01*
X103714384Y-72186783D01*
X103620333Y-71965003D01*
X103369334Y-71544692D01*
X103072123Y-71193208D01*
X102718847Y-70900846D01*
X102299652Y-70657900D01*
X102287233Y-70651889D01*
X102008849Y-70534322D01*
X101770983Y-70476751D01*
X101556885Y-70482203D01*
X101349804Y-70553705D01*
X101132990Y-70694283D01*
X100893015Y-70903801D01*
X100761031Y-71010380D01*
X100563848Y-71144763D01*
X100315254Y-71299390D01*
X100029036Y-71466698D01*
X99718981Y-71639127D01*
X99398875Y-71809113D01*
X99082507Y-71969096D01*
X98783662Y-72111513D01*
X98516129Y-72228804D01*
X98377039Y-72283723D01*
X98181733Y-72363511D01*
X97963804Y-72462748D01*
X97800106Y-72544592D01*
X97653870Y-72618716D01*
X97533980Y-72673194D01*
X97463443Y-72697679D01*
X97458624Y-72698126D01*
X97407129Y-72665782D01*
X97325454Y-72581643D01*
X97245568Y-72482500D01*
X97129571Y-72349752D01*
X97001289Y-72236188D01*
X96922618Y-72185091D01*
X96716880Y-72098213D01*
X96483498Y-72025753D01*
X96258435Y-71977411D01*
X96097545Y-71962521D01*
X95984262Y-71956143D01*
X95927974Y-71923457D01*
X95899343Y-71844138D01*
X95894561Y-71821891D01*
X95869312Y-71715037D01*
X95827831Y-71554580D01*
X95777826Y-71370083D01*
X95762030Y-71313458D01*
X95705984Y-71093506D01*
X95654174Y-70855081D01*
X95616884Y-70645938D01*
X95613982Y-70625854D01*
X95531467Y-70268652D01*
X95393431Y-69975230D01*
X95201232Y-69747348D01*
X94956230Y-69586766D01*
X94757067Y-69516116D01*
X94553833Y-69464156D01*
X94568693Y-69222760D01*
X94567980Y-69045662D01*
X94533744Y-68905923D01*
X94485001Y-68806014D01*
X94412712Y-68694843D01*
X94343128Y-68643380D01*
X94247617Y-68630667D01*
X94245435Y-68630664D01*
X94130000Y-68570000D01*
X93990000Y-68450000D01*
X93840000Y-68290000D01*
X93710000Y-68140000D01*
X93580000Y-67990000D01*
X93460000Y-67830000D01*
X93350000Y-67700000D01*
X93250000Y-67500000D01*
X93190000Y-67350000D01*
X93120000Y-67250000D01*
X93080000Y-67120000D01*
X93020000Y-66890000D01*
X93000000Y-66730000D01*
X92970000Y-66630000D01*
X92880000Y-66500000D01*
X92820000Y-66380000D01*
X92760000Y-66290000D01*
X92680000Y-66170000D01*
X92540000Y-65980000D01*
X92420000Y-65780000D01*
X92360000Y-65680000D01*
X92340000Y-65580000D01*
X92200000Y-65190000D01*
X92090000Y-64990000D01*
X91980000Y-64750000D01*
X91870000Y-64530000D01*
X91780000Y-64330000D01*
X91600028Y-64181750D01*
X91470000Y-64060000D01*
X91410000Y-64010000D01*
X91370000Y-63970000D01*
X91324001Y-63930269D01*
X91228557Y-63856041D01*
X91095348Y-63745516D01*
X90937660Y-63609488D01*
X90909132Y-63584389D01*
X90728473Y-63428454D01*
X90550004Y-63280427D01*
X90394424Y-63157124D01*
X90283325Y-63075956D01*
X90166310Y-62985851D01*
X90082287Y-62898792D01*
X90056744Y-62854003D01*
X90036600Y-62717401D01*
X90028960Y-62523089D01*
X90032649Y-62298814D01*
X90046492Y-62072321D01*
X90069315Y-61871353D01*
X90099943Y-61723657D01*
X90105296Y-61707366D01*
X90148096Y-61563486D01*
X90153981Y-61450854D01*
X90125779Y-61324888D01*
X90080259Y-61204152D01*
X90013313Y-61090554D01*
X89914079Y-60972237D01*
X89771696Y-60837345D01*
X89575303Y-60674021D01*
X89412354Y-60546081D01*
X89259725Y-60423956D01*
X89056784Y-60255665D01*
X88817433Y-60053060D01*
X88555573Y-59827995D01*
X88320000Y-59560000D01*
X88080000Y-59340000D01*
X87840000Y-59070000D01*
X87640000Y-58860000D01*
X87460000Y-58640000D01*
X87350000Y-58470000D01*
X87290000Y-58340000D01*
X87210000Y-58190000D01*
X87130000Y-58050000D01*
X87070000Y-57920000D01*
X87000000Y-57770000D01*
X86930000Y-57610000D01*
X86840000Y-57400000D01*
X86740000Y-57110000D01*
X86670000Y-56860000D01*
X86620000Y-56510000D01*
X86550000Y-56140000D01*
X86470000Y-55430000D01*
X86440000Y-55140000D01*
X86440000Y-54890000D01*
X86490000Y-54340000D01*
X86848620Y-54129610D01*
X87234207Y-53968612D01*
X87573982Y-53823528D01*
X87857432Y-53698681D01*
X88074041Y-53598395D01*
X88132006Y-53569954D01*
X88392997Y-53450192D01*
X88721577Y-53317082D01*
X89100978Y-53176603D01*
X89514434Y-53034738D01*
X89945178Y-52897468D01*
X90356559Y-52776361D01*
X90581335Y-52711552D01*
X90870328Y-52625922D01*
X91205319Y-52525001D01*
X91568091Y-52414318D01*
X91940427Y-52299401D01*
X92304110Y-52185780D01*
X92347018Y-52172270D01*
X93645145Y-51763182D01*
X93764139Y-52114131D01*
X93819449Y-52291019D01*
X93861077Y-52450366D01*
X93881964Y-52564272D01*
X93883134Y-52584430D01*
X93904001Y-52716882D01*
X93961146Y-52901079D01*
X94046386Y-53114520D01*
X94151540Y-53334703D01*
X94165849Y-53361903D01*
X94227472Y-53493651D01*
X94266024Y-53606735D01*
X94272572Y-53648709D01*
X94238912Y-53716731D01*
X94136240Y-53821366D01*
X93962017Y-53965027D01*
X93850681Y-54049710D01*
X93687985Y-54171011D01*
X93553156Y-54271371D01*
X93459815Y-54340665D01*
X93421583Y-54368764D01*
X93421377Y-54368898D01*
X93431444Y-54409051D01*
X93464275Y-54515544D01*
X93514908Y-54672738D01*
X93578380Y-54864992D01*
X93586602Y-54889610D01*
X93679920Y-55177775D01*
X93748200Y-55416574D01*
X93798173Y-55637140D01*
X93836569Y-55870607D01*
X93870119Y-56148109D01*
X93880888Y-56250875D01*
X93898542Y-56480147D01*
X93898665Y-56644764D01*
X93881250Y-56734695D01*
X93881180Y-56734827D01*
X93827026Y-56788763D01*
X93715551Y-56870147D01*
X93565789Y-56965685D01*
X93472300Y-57020409D01*
X93298276Y-57122249D01*
X93186357Y-57198459D01*
X93121409Y-57262438D01*
X93088295Y-57327589D01*
X93078028Y-57369517D01*
X93040723Y-57470641D01*
X92965465Y-57613812D01*
X92866724Y-57772219D01*
X92838673Y-57813044D01*
X92745566Y-57949044D01*
X92678696Y-58053404D01*
X92648130Y-58110097D01*
X92648438Y-58115843D01*
X92699799Y-58107044D01*
X92825404Y-58082113D01*
X93014916Y-58043246D01*
X93258000Y-57992640D01*
X93544322Y-57932492D01*
X93863546Y-57865001D01*
X94205337Y-57792362D01*
X94559359Y-57716772D01*
X94915277Y-57640430D01*
X95262756Y-57565531D01*
X95591461Y-57494273D01*
X95891056Y-57428853D01*
X96151206Y-57371468D01*
X96176490Y-57365848D01*
X96805070Y-57226217D01*
X97355298Y-57104525D01*
X97833213Y-56999519D01*
X98244849Y-56909945D01*
X98596245Y-56834551D01*
X98893435Y-56772085D01*
X99142457Y-56721294D01*
X99349346Y-56680925D01*
X99520140Y-56649725D01*
X99660875Y-56626442D01*
X99777587Y-56609823D01*
X99871263Y-56599111D01*
X100065869Y-56578657D01*
X100244054Y-56557853D01*
X100376401Y-56540204D01*
X100407931Y-56535163D01*
X100515624Y-56534061D01*
X100665425Y-56565051D01*
X100871902Y-56631547D01*
X100965811Y-56665920D01*
X101138979Y-56723613D01*
X101376140Y-56792457D01*
X101656371Y-56866918D01*
X101958747Y-56941459D01*
X102262345Y-57010543D01*
X102294677Y-57017520D01*
X102598607Y-57085394D01*
X102905072Y-57158583D01*
X103192752Y-57231656D01*
X103440321Y-57299177D01*
X103626457Y-57355714D01*
X103640715Y-57360502D01*
X104079898Y-57504192D01*
X104447566Y-57612571D01*
X104741808Y-57685139D01*
X104960711Y-57721398D01*
X105041041Y-57725756D01*
X105181547Y-57712076D01*
X105366403Y-57676589D01*
X105558459Y-57626591D01*
X105581228Y-57619651D01*
X105754995Y-57558854D01*
X105912405Y-57485596D01*
X106073795Y-57387705D01*
X106259500Y-57253008D01*
X106460084Y-57093632D01*
X106484702Y-57059606D01*
X106497359Y-56997555D01*
X106498290Y-56892596D01*
X106487728Y-56729848D01*
X106468995Y-56525816D01*
X106451295Y-56317575D01*
X106440890Y-56136800D01*
X106438585Y-56003155D01*
X106444923Y-55936949D01*
X106467731Y-55912906D01*
X106514424Y-55913884D01*
X106592866Y-55944101D01*
X106710923Y-56007772D01*
X106876460Y-56109115D01*
X107097342Y-56252346D01*
X107362010Y-56428641D01*
X107630911Y-56605913D01*
X107840822Y-56734493D01*
X108002198Y-56817332D01*
X108125494Y-56857379D01*
X108221166Y-56857584D01*
X108299669Y-56820897D01*
X108371457Y-56750267D01*
X108395340Y-56720165D01*
X108510754Y-56549961D01*
X108562946Y-56414669D01*
X108555537Y-56294237D01*
X108494375Y-56171958D01*
X108346448Y-55928203D01*
X108262922Y-55741128D01*
X108243479Y-55609961D01*
X108250520Y-55580248D01*
X108281417Y-55531169D01*
X108342329Y-55498964D01*
X108453042Y-55476928D01*
X108602223Y-55461084D01*
X108899411Y-55404459D01*
X109201918Y-55294441D01*
X109479826Y-55144536D01*
X109703212Y-54968251D01*
X109710721Y-54960710D01*
X109845041Y-54837991D01*
X110004768Y-54710530D01*
X110081778Y-54655614D01*
X110216134Y-54549407D01*
X110331443Y-54431671D01*
X110378131Y-54367723D01*
X110457292Y-54264195D01*
X110547022Y-54224268D01*
X110590931Y-54221465D01*
X110708379Y-54191721D01*
X110848856Y-54097333D01*
X110914835Y-54039508D01*
X111089661Y-53856067D01*
X111202922Y-53674010D01*
X111266253Y-53466452D01*
X111291287Y-53206504D01*
X111292344Y-53167004D01*
X111299659Y-52815161D01*
X110856133Y-52030009D01*
X110722785Y-51790032D01*
X110605484Y-51571437D01*
X110510645Y-51386800D01*
X110444682Y-51248695D01*
X110414009Y-51169699D01*
X110412606Y-51160498D01*
X110414666Y-51141442D01*
X110425566Y-51125565D01*
X110452384Y-51112640D01*
X110502200Y-51102440D01*
X110582092Y-51094740D01*
X110699141Y-51089313D01*
X110860425Y-51085934D01*
X111073024Y-51084376D01*
X111344016Y-51084413D01*
X111680480Y-51085819D01*
X112089497Y-51088367D01*
X112565332Y-51091740D01*
X113018365Y-51095455D01*
X113469053Y-51099956D01*
X113905179Y-51105068D01*
X114314523Y-51110613D01*
X114684868Y-51116416D01*
X115003994Y-51122301D01*
X115259685Y-51128089D01*
X115424146Y-51133023D01*
X116130235Y-51158705D01*
X116103496Y-51446047D01*
X116057511Y-51890574D01*
X116008172Y-52260219D01*
X115952773Y-52566639D01*
X115888607Y-52821492D01*
X115812967Y-53036434D01*
X115723146Y-53223122D01*
X115670053Y-53312718D01*
X115604500Y-53433163D01*
X115566051Y-53535909D01*
X115561840Y-53564835D01*
X115531424Y-53653661D01*
X115475298Y-53723850D01*
X115397567Y-53848524D01*
X115387029Y-54008993D01*
X115441887Y-54188807D01*
X115543855Y-54351277D01*
X115658708Y-54474194D01*
X115803447Y-54598645D01*
X115956405Y-54709173D01*
X116095916Y-54790320D01*
X116200313Y-54826631D01*
X116211061Y-54827257D01*
X116302766Y-54855969D01*
X116328727Y-54875848D01*
X116395757Y-54900173D01*
X116527644Y-54916568D01*
X116702870Y-54922447D01*
X116716001Y-54922399D01*
X116879371Y-54918175D01*
X117009572Y-54902853D01*
X117134728Y-54869040D01*
X117282965Y-54809342D01*
X117461205Y-54726490D01*
X117645270Y-54640023D01*
X117771492Y-54586909D01*
X117859731Y-54562391D01*
X117929844Y-54561716D01*
X118001688Y-54580126D01*
X118030668Y-54590110D01*
X118179395Y-54632892D01*
X118324234Y-54660364D01*
X118336411Y-54661704D01*
X118427704Y-54662144D01*
X118490940Y-54628418D01*
X118553034Y-54541824D01*
X118581985Y-54491063D01*
X118653546Y-54328126D01*
X118705545Y-54149195D01*
X118713911Y-54102515D01*
X118736904Y-53978002D01*
X118770324Y-53916046D01*
X118831079Y-53892906D01*
X118865773Y-53889281D01*
X119042990Y-53844329D01*
X119156815Y-53745981D01*
X119206155Y-53600907D01*
X119189917Y-53415777D01*
X119107011Y-53197263D01*
X119007163Y-53025642D01*
X118912039Y-52885951D01*
X118831338Y-52785993D01*
X118740761Y-52701811D01*
X118616014Y-52609449D01*
X118514970Y-52540354D01*
X118332944Y-52410751D01*
X118216910Y-52305642D01*
X118157030Y-52207819D01*
X118143463Y-52100076D01*
X118166369Y-51965206D01*
X118172404Y-51941335D01*
X118224922Y-51795795D01*
X118310778Y-51616517D01*
X118416815Y-51425634D01*
X118529874Y-51245281D01*
X118636799Y-51097592D01*
X118724432Y-51004701D01*
X118732983Y-50998318D01*
X118878526Y-50938155D01*
X119032755Y-50959221D01*
X119202140Y-51062619D01*
X119225575Y-51082135D01*
X119331999Y-51167437D01*
X119400568Y-51200801D01*
X119455265Y-51190833D01*
X119482172Y-51174206D01*
X119585636Y-51122764D01*
X119696402Y-51088312D01*
X119843642Y-51098209D01*
X120000790Y-51180677D01*
X120154116Y-51325038D01*
X120289891Y-51520611D01*
X120316750Y-51570841D01*
X120411652Y-51737424D01*
X120521362Y-51901165D01*
X120590002Y-51988589D01*
X120736795Y-52157247D01*
X120951106Y-52085812D01*
X121126859Y-52002248D01*
X121323500Y-51867860D01*
X121425042Y-51783363D01*
X121591264Y-51638502D01*
X121721375Y-51540549D01*
X121839677Y-51480914D01*
X121970474Y-51451005D01*
X122138070Y-51442231D01*
X122366769Y-51446002D01*
X122378530Y-51446319D01*
X122596892Y-51450335D01*
X122753502Y-51446209D01*
X122873017Y-51430606D01*
X122980094Y-51400189D01*
X123099390Y-51351621D01*
X123108701Y-51347514D01*
X123329535Y-51269329D01*
X123553413Y-51237657D01*
X123648059Y-51235355D01*
X123811382Y-51230724D01*
X123923584Y-51209948D01*
X124019945Y-51161821D01*
X124124663Y-51083970D01*
X124314574Y-50933006D01*
X125466060Y-50960359D01*
G37*
D14*
X71500000Y-24550000D03*
D15*
X71500000Y-27090000D03*
D16*
X131140000Y-26190000D03*
D15*
X128753181Y-25321269D03*
D17*
X115660000Y-48000000D03*
D18*
X114010000Y-48000000D03*
X112360000Y-48000000D03*
X110710000Y-48000000D03*
D19*
X85741066Y-105601412D03*
D20*
X85300000Y-103100000D03*
D21*
X108960000Y-45230000D03*
X106460000Y-45230000D03*
D14*
X131500000Y-19140000D03*
D15*
X131500000Y-21680000D03*
D22*
X55000000Y-49000000D03*
D23*
X62000000Y-32460000D03*
X62000000Y-40080000D03*
D24*
X80300000Y-121400000D03*
X80300000Y-122900000D03*
X81050000Y-121400000D03*
X81050000Y-122900000D03*
X81800000Y-121400000D03*
X81800000Y-122900000D03*
X98400000Y-121400000D03*
X98400000Y-122900000D03*
X99150000Y-121400000D03*
X99150000Y-122900000D03*
X99900000Y-121400000D03*
X99900000Y-122900000D03*
X116400000Y-121400000D03*
X116400000Y-122900000D03*
X117150000Y-121400000D03*
X117150000Y-122900000D03*
X117900000Y-121400000D03*
X117900000Y-122900000D03*
X134500000Y-121400000D03*
X134500000Y-122900000D03*
X135250000Y-121400000D03*
X135250000Y-122900000D03*
X136000000Y-121400000D03*
X136000000Y-122900000D03*
D23*
X118080000Y-18050000D03*
X118080000Y-25670000D03*
X85830000Y-90750000D03*
X85830000Y-98370000D03*
X103750000Y-18050000D03*
X103750000Y-25670000D03*
D25*
X59590000Y-80055000D03*
X59590000Y-82595000D03*
X59590000Y-57195000D03*
X59590000Y-77515000D03*
X59590000Y-69895000D03*
X82450000Y-85135000D03*
X59590000Y-87675000D03*
X82450000Y-82595000D03*
X59590000Y-85135000D03*
X59590000Y-74975000D03*
X59590000Y-72435000D03*
X59590000Y-67355000D03*
X59590000Y-62275000D03*
X59590000Y-59735000D03*
X59590000Y-64815000D03*
X82450000Y-74975000D03*
X82450000Y-77515000D03*
X82450000Y-80055000D03*
X82450000Y-69895000D03*
X82450000Y-72435000D03*
X82450000Y-64815000D03*
X82450000Y-67355000D03*
X82450000Y-57195000D03*
X82450000Y-59735000D03*
X82450000Y-62275000D03*
X82450000Y-87675000D03*
D22*
X160170000Y-195300000D03*
D26*
X90119846Y-48728990D03*
D27*
X88569353Y-49293323D03*
X87018861Y-49857656D03*
X85468368Y-50421990D03*
D14*
X78320000Y-110175000D03*
D15*
X83400000Y-110175000D03*
D28*
X143578242Y-108788376D03*
D29*
X141953309Y-108501857D03*
X140328376Y-108215337D03*
X138703443Y-107928818D03*
D14*
X86500000Y-29115000D03*
D15*
X86500000Y-31655000D03*
D22*
X55000000Y-195300000D03*
D21*
X86300000Y-40100000D03*
X84532233Y-41867767D03*
D22*
X160170000Y-49000000D03*
D30*
X138986082Y-51754802D03*
D31*
X137400000Y-51300000D03*
X135813918Y-50845198D03*
X134227836Y-50390397D03*
D22*
X126200000Y-117600000D03*
D21*
X134737880Y-75996059D03*
X132690000Y-77430000D03*
D23*
X81630000Y-29820000D03*
X81630000Y-37440000D03*
D21*
X138131010Y-113117061D03*
X135668991Y-112682941D03*
X78300000Y-114700000D03*
X80800000Y-114700000D03*
X83300000Y-114700000D03*
X139500000Y-40600000D03*
X137732233Y-38832233D03*
D22*
X90100000Y-126700000D03*
D14*
X57500000Y-34460000D03*
D15*
X57500000Y-37000000D03*
D23*
X75500000Y-23430000D03*
X75500000Y-31050000D03*
D32*
X129300000Y-90760000D03*
D33*
X129741066Y-93261412D03*
D14*
X105335000Y-117255000D03*
D15*
X110415000Y-117255000D03*
D34*
X94942691Y-75888507D03*
D35*
X93882091Y-74624534D03*
X92821492Y-73360561D03*
X91760892Y-72096587D03*
D23*
X137000000Y-18810000D03*
X137000000Y-26430000D03*
D21*
X90106969Y-77215111D03*
X88500000Y-75300000D03*
D23*
X76810000Y-45250000D03*
X69190000Y-45250000D03*
D14*
X96500000Y-18460000D03*
D15*
X96500000Y-21000000D03*
D22*
X126200000Y-126700000D03*
D36*
X132315965Y-72173417D03*
D37*
X130964364Y-73119818D03*
X129612763Y-74066219D03*
X128261162Y-75012620D03*
D22*
X90100000Y-117600000D03*
M02*
