M48
INCH,TZ
T1C0.0197
T2C0.1260
%
G90
G05
T1
X31614Y-47795
X31614Y-48386
X31909Y-47795
X31909Y-48386
X32205Y-47795
X32205Y-48386
X38740Y-47795
X38740Y-48386
X39035Y-47795
X39035Y-48386
X39331Y-47795
X39331Y-48386
X45827Y-47795
X45827Y-48386
X46122Y-47795
X46122Y-48386
X46417Y-47795
X46417Y-48386
X52953Y-47795
X52953Y-48386
X53248Y-47795
X53248Y-48386
X53543Y-47795
X53543Y-48386
T2
X21654Y-19291
X21654Y-76890
X35472Y-46299
X35472Y-49882
X49685Y-46299
X49685Y-49882
X63059Y-19291
X63059Y-76890
M30
